<?xml version="1.0" standalone="no"?>
<!DOCTYPE svg PUBLIC "-//W3C//DTD SVG 20010904//EN"
 "http://www.w3.org/TR/2001/REC-SVG-20010904/DTD/svg10.dtd">
<svg version="1.0" xmlns="http://www.w3.org/2000/svg"
 width="1000.000000pt" height="1000.000000pt" viewBox="0 0 1000.000000 1000.000000"
 preserveAspectRatio="xMidYMid meet">
<metadata>
Created by potrace 1.14, written by Peter Selinger 2001-2017
</metadata>
<g transform="translate(0.000000,1000.000000) scale(0.100000,-0.100000)"
fill="#000000" stroke="none">
<path d="M7590 9442 c-74 -3 -218 -29 -289 -52 -83 -26 -203 -78 -223 -97 -10
-9 -18 -13 -18 -10 0 7 -101 -60 -150 -98 -74 -59 -203 -202 -339 -375 -84
-107 -166 -211 -181 -230 -152 -191 -236 -299 -295 -375 -38 -49 -74 -95 -80
-101 -5 -6 -21 -26 -35 -44 -42 -55 -629 -812 -668 -862 -20 -25 -46 -58 -57
-74 -11 -15 -25 -32 -30 -38 -6 -6 -37 -47 -70 -91 -33 -44 -63 -82 -66 -85
-3 -3 -122 -156 -264 -340 -142 -184 -278 -360 -302 -390 -54 -69 -35 -44
-196 -253 -75 -98 -137 -182 -137 -187 0 -8 -247 -333 -700 -925 -46 -60 -149
-195 -229 -300 -79 -104 -165 -217 -191 -250 -25 -33 -77 -100 -115 -150 -37
-49 -77 -102 -89 -117 -12 -14 -31 -39 -42 -55 -12 -15 -149 -195 -305 -399
-156 -205 -295 -386 -309 -405 -14 -18 -101 -133 -195 -255 -93 -123 -179
-235 -190 -250 -11 -15 -24 -32 -30 -38 -5 -6 -49 -63 -97 -127 -85 -112 -369
-484 -385 -504 -5 -5 -44 -57 -88 -115 -44 -58 -85 -112 -92 -120 -31 -40
-170 -222 -188 -245 -34 -47 -326 -429 -343 -450 -22 -26 -66 -87 -75 -101 -8
-14 97 -86 219 -151 118 -63 235 -107 389 -148 218 -58 281 -65 555 -61 135 2
254 5 265 8 11 3 43 9 70 12 45 6 92 17 206 47 37 9 51 24 194 214 33 44 65
87 72 95 13 16 79 102 546 715 274 360 343 447 303 384 l-17 -27 88 -50 c407
-230 883 -395 1318 -456 142 -20 192 -26 290 -33 664 -47 1310 80 1897 372
699 349 1278 923 1628 1615 118 232 227 516 276 720 17 71 53 232 58 260 3 19
8 46 11 60 3 14 10 63 16 110 6 47 12 96 15 110 10 64 18 308 17 545 0 143 -4
708 -8 1255 l-7 996 166 169 c92 94 217 220 277 281 l110 111 -268 -2 c-147
-1 -273 0 -279 2 -6 2 -11 44 -11 104 -3 220 -42 389 -133 571 -147 294 -416
520 -742 623 -143 45 -299 65 -458 57z m-4180 -7306 c0 -2 -8 -10 -17 -17 -16
-13 -17 -12 -4 4 13 16 21 21 21 13z"/>
</g>
</svg>
