<?xml version="1.0" encoding="utf-8"?>
<!-- Generator: Adobe Illustrator 24.0.1, SVG Export Plug-In . SVG Version: 6.00 Build 0)  -->
<svg version="1.2" baseProfile="tiny" id="Layer_1" xmlns="http://www.w3.org/2000/svg" xmlns:xlink="http://www.w3.org/1999/xlink"
	 x="0px" y="0px" viewBox="0 0 297.8 297.8" xml:space="preserve">
<g>
	<path fill="#58DEB9" d="M293.4,147.9c0.5,79.8-63.7,144.9-143.5,145.4C70.1,293.9,4.9,229.7,4.4,149.9C3.9,70.1,68.1,4.9,147.9,4.4
		C227.7,3.9,292.8,68.1,293.4,147.9"/>
	<path fill="#231F20" d="M49.5,206c-0.1,0.4-0.2,0.8-0.2,1.3c-0.1,0.7,0.1,1.7,0.7,2.6c1.1,1.8,3,2.2,5.1,0.8l13.6-8.8l2.8,4.4
		l-13.6,8.8c-4.4,2.8-9.2,1.8-12-2.4c-1.4-2.1-1.7-4.1-1.7-5.5c0-0.8,0.2-1.6,0.4-2.3L49.5,206z"/>
	<path fill="#231F20" d="M74.1,219.8c3.5,3.7,3.3,9.3-0.2,12.7c-3.5,3.4-9.2,3.2-12.7-0.5c-3.5-3.7-3.3-9.3,0.2-12.7
		C64.9,216,70.6,216.1,74.1,219.8 M70.6,229.1c1.9-1.8,2-4.5,0.3-6.3c-1.7-1.8-4.4-1.8-6.3,0c-1.9,1.8-2,4.5-0.3,6.3
		C66,230.8,68.7,230.9,70.6,229.1"/>
	<path fill="#231F20" d="M82.8,228.4l3.7,2.9l-10.6,13.4l-3.7-2.9L82.8,228.4z M89.3,224c1.2,0.9,1.3,2.6,0.5,3.7
		c-0.9,1.1-2.6,1.3-3.8,0.4c-1.2-0.9-1.3-2.6-0.5-3.7C86.4,223.3,88.1,223.1,89.3,224"/>
	<path fill="#231F20" d="M89.8,234.1l4.1,2.4l-1.2,2.1l0.2,0.1c0.6-0.3,1.2-0.4,1.8-0.6c1.1-0.2,2.5-0.1,4,0.7c3,1.8,4,5.6,1.8,9.4
		l-5.2,8.9l-4.1-2.4l4.8-8.3c1.1-1.8,0.6-3.5-1-4.5c-1.8-1.1-4-0.5-5.1,1.5l-4.6,7.8l-4.1-2.4L89.8,234.1z"/>
	<path fill="#231F20" d="M114.4,251.5l-2.8-0.9l1.3-4.2l1.5,0.5c1.2,0.4,2-0.1,2.4-1.5l0.9-3l4,1.2l-1.5,5l3.7,1.1l-1.3,4.2
		l-3.7-1.1l-1.7,5.5c-0.5,1.5,0.1,2.6,1.5,3c0.5,0.2,1,0.2,1.4,0.2c0.2,0,0.4,0,0.6,0l-1.3,4.2c-0.3,0-0.6,0-1,0
		c-0.6,0-1.4-0.2-2.2-0.4c-3.3-1-4.9-3.8-3.7-7.7L114.4,251.5z"/>
	<path fill="#231F20" d="M128.7,243.2l4.7,0.6l-1.2,9.7l0.2,0c0.4-0.5,0.9-0.9,1.5-1.2c0.9-0.6,2.3-1.1,3.9-0.9
		c3.5,0.4,5.9,3.6,5.3,7.9l-1.3,10.2l-4.7-0.6l1.2-9.5c0.3-2.1-0.8-3.4-2.7-3.7c-2.1-0.3-3.8,1.1-4.1,3.3l-1.1,9l-4.7-0.6
		L128.7,243.2z"/>
	<path fill="#231F20" d="M164.3,266.2c-0.5,0.6-1.1,1.1-1.8,1.5c-1.2,0.8-3,1.6-5.3,1.7c-5.1,0.3-9.3-3.4-9.6-8.3
		c-0.3-4.9,3.4-9.1,8.3-9.5c4.7-0.3,8.8,3.3,9.1,8c0,0.7,0,1.1,0,1.5l0,0.6l-12.4,0.8c0.6,1.5,2.1,2.8,4.7,2.7
		c1.5-0.1,2.6-0.6,3.3-1.2c0.4-0.3,0.8-0.6,1.1-1L164.3,266.2z M160,258.6c-0.6-1.5-2.1-2.8-4-2.7c-2,0.1-3.2,1.6-3.6,3.2L160,258.6
		z"/>
	<path fill="#231F20" d="M176.9,253.4l-2.5,0.8l-1.3-4.2l2.5-0.8l-0.5-1.7c-1.2-3.9,0.4-6.7,3.7-7.7c0.8-0.3,1.6-0.3,2.2-0.4
		c0.3,0,0.7,0,0.9,0l1.3,4.2c-0.2,0-0.4,0-0.6,0c-0.4,0-0.9,0.1-1.4,0.2c-1.3,0.4-1.9,1.5-1.5,3l0.3,1l3.7-1.1l1.3,4.2l-3.7,1.1
		l3.6,11.9l-4.5,1.4L176.9,253.4z"/>
	
		<rect x="188.5" y="236.5" transform="matrix(0.9216 -0.388 0.388 0.9216 -81.566 93.5677)" fill="#231F20" width="4.7" height="24.4"/>
	<path fill="#231F20" d="M202,237.2c4.3-2.6,9.8-1.2,12.4,2.9c2.5,4.2,1.2,9.7-3.2,12.3c-4.3,2.6-9.8,1.2-12.4-2.9
		C196.3,245.3,197.7,239.8,202,237.2 M210.3,242.6c-1.4-2.2-4-2.9-6.1-1.6c-2.1,1.3-2.7,3.9-1.4,6.1c1.4,2.2,4,2.9,6.1,1.6
		C211,247.5,211.7,244.8,210.3,242.6"/>
	<path fill="#231F20" d="M233,231.1c0.1,0.8,0,1.6-0.1,2.5c-0.3,1.5-1,3.3-2.9,4.9c-3.8,3.4-9.5,3-12.7-0.6
		c-3.2-3.7-2.9-9.3,0.9-12.7c1.9-1.6,3.7-2.1,5.2-2.3c0.9-0.1,1.7,0,2.5,0.1l-0.3,4.2c-0.5-0.1-1-0.1-1.5,0c-0.9,0.1-2,0.4-3,1.3
		c-1.8,1.6-2,4.3-0.3,6.3c1.7,2,4.4,2.1,6.3,0.5c1-0.9,1.4-1.9,1.6-2.8c0.1-0.5,0.2-1,0.1-1.5L233,231.1z"/>
	<polygon fill="#231F20" points="219.9,214 222.8,210.3 234,219.2 232.3,210.1 235.8,205.7 237.5,215.1 249.4,216 246.1,220.3 
		238.2,219.6 238.8,223 242,225.5 239,229.2 	"/>
	<path fill="#231F20" d="M230.6,199.5l2.8-4.8l14.2,9.3l-1.9,3.3L230.6,199.5z M248.6,206.7c0.8-1.4,2.5-1.8,3.8-1
		c1.4,0.8,1.8,2.5,1,3.8c-0.8,1.4-2.5,1.8-3.8,1C248.3,209.8,247.8,208.1,248.6,206.7"/>
	<path fill="#040404" d="M40.5,100l4.1-7.7c1.9-3.7,5.4-4.7,8-3.3c1.5,0.8,2,1.9,2.3,2.8c0.1,0.5,0.2,1.1,0.2,1.7
		c0.5-0.5,1.1-0.9,1.8-1.2c1.2-0.5,2.7-0.8,4.5,0.2c2.9,1.5,4,5.2,1.9,9.1l-4.4,8.3L40.5,100z M51.5,96.3c0.7-1.3,0.3-2.5-0.7-3.1
		c-1-0.6-2.2-0.2-2.9,1.1L46,97.9l3.7,1.9L51.5,96.3z M59.6,99.9c0.8-1.6,0.4-3-0.9-3.7c-1.3-0.7-2.7-0.3-3.5,1.3l-2.2,4.1l4.5,2.4
		L59.6,99.9z"/>
	<path fill="#040404" d="M61.2,68.3c4.3-4.7,11.2-5,15.6-1c4.4,4,4.7,10.9,0.3,15.6c-4.3,4.7-11.2,5-15.6,1
		C57.2,79.9,56.9,73,61.2,68.3 M74.1,80.1c2.5-2.7,2.3-6.9-0.4-9.4c-2.7-2.5-6.9-2.3-9.4,0.4c-2.5,2.7-2.3,6.9,0.4,9.4
		C67.4,83,71.6,82.8,74.1,80.1"/>
	<path fill="#040404" d="M87.2,65.3c0.5,0.1,1.1,0.2,1.7,0.2c1,0,2.3-0.2,3.6-1.1c2-1.3,2.3-2.8,1.5-3.9c-2-2.9-9.7,4.1-13.7-1.9
		c-1.8-2.7-1-6.6,2.9-9.3c1.9-1.3,3.8-1.7,5.1-1.7c0.8,0,1.5,0.1,2.2,0.2L89.8,52c-0.5-0.1-0.9-0.2-1.4-0.2c-0.8,0-1.9,0.2-2.8,0.8
		c-1.9,1.2-2.1,2.5-1.4,3.5c2,2.9,9.7-4.1,13.7,1.9c1.9,2.8,1.1,6.9-3,9.7c-2.2,1.5-4.3,1.9-5.9,2c-0.9,0-1.8,0-2.6-0.3L87.2,65.3z"
		/>
	<polygon fill="#040404" points="103.4,43.7 98,45.9 96.4,42.1 111.5,35.9 113,39.7 107.6,42 113.9,57.4 109.7,59 	"/>
	<path fill="#040404" d="M130.8,31.1c6.3-1,11.9,3.1,12.8,9c0.9,5.9-3.2,11.4-9.5,12.4c-6.3,1-11.9-3.1-12.8-9
		C120.4,37.6,124.5,32.1,130.8,31.1 M133.5,48.4c3.7-0.6,6.1-3.9,5.6-7.6c-0.6-3.7-3.9-6.1-7.6-5.6c-3.7,0.6-6.1,3.9-5.6,7.6
		C126.4,46.5,129.8,48.9,133.5,48.4"/>
	<polygon fill="#040404" points="153.9,29.9 157.9,30.4 166.4,44.4 167.9,31.6 172.3,32.1 169.9,52.7 165.9,52.2 157.4,38.2 
		155.9,51 151.5,50.5 	"/>
	<polygon fill="#040404" points="193.2,37.8 194,36.1 198.9,38.3 190.5,57.6 192.6,58.9 191.8,60.7 184.6,57.5 185.4,55.8 
		187.8,56.4 195.3,39.2 	"/>
	<path fill="#040404" d="M194,59.7l2.3,0.8l5.6-10.1l-1.9-1.6l0.9-1.7l4.7,2.6l-6.7,12.2l1.9,1.6l-0.9,1.7l-6.9-3.8L194,59.7z
		 M207.7,46.1l-2.6-1.4l1.5-2.6l2.6,1.4L207.7,46.1z"/>
	<polygon fill="#040404" points="213.2,56.8 211.5,55.9 208.8,65.4 208.3,66.5 208.4,66.5 209.3,65.7 217.3,60.1 215.9,58.7 
		217,57.2 222.1,60.9 221,62.4 219.8,61.8 207.1,70.1 205.3,68.7 209.1,54.1 208.2,53.1 209.3,51.6 214.4,55.3 	"/>
	<path fill="#040404" d="M214.6,73.6l2.1,1.4l7.9-8.4l-1.5-2l1.3-1.4l3.9,3.7L218.9,77l1.5,2l-1.3,1.4l-5.7-5.4L214.6,73.6z
		 M231.2,63.8l-2.2-2l2.1-2.2l2.2,2L231.2,63.8z"/>
	<path fill="#040404" d="M221.5,79.7l1.9,1.6l9.1-7.2l-1.2-2.2l1.5-1.2l3.2,4l-1.8,1.7c1-0.1,2,0,2.8,0.3c0.9,0.3,1.6,0.9,2.3,1.7
		c1.1,1.4,1.5,2.7,1.3,4.1c-0.2,1.4-1.1,2.8-2.8,4.1l-6.2,4.9l1.2,2.2l-1.5,1.2l-4.9-6.1l1.5-1.2l1.9,1.6l6.2-4.9
		c1.1-0.9,1.7-1.7,1.9-2.6c0.1-0.8-0.2-1.7-0.9-2.6c-0.5-0.7-1.2-1.1-1.9-1.4c-0.7-0.3-1.5-0.3-2.3-0.2l-7.4,5.9l1.2,2.2l-1.5,1.2
		l-4.9-6.1L221.5,79.7z"/>
	<path fill="#040404" d="M238.2,91.6c2.3-1.3,4.4-1.8,6.4-1.5c1.9,0.2,3.4,1.2,4.4,3c0.5,0.9,0.7,1.8,0.8,2.6c0,0.9-0.2,1.7-0.6,2.5
		l1.9-0.7l1.2,2.2l-14,7.7c-1.8,1-3.6,1.3-5.2,0.8c-1.6-0.4-2.9-1.6-4-3.5c-0.4-0.7-0.7-1.5-0.9-2.4c-0.2-0.9-0.4-1.7-0.4-2.5
		l2.4-0.4c0,0.6,0.1,1.3,0.3,2.1c0.2,0.7,0.5,1.4,0.8,2.1c0.6,1.2,1.4,1.8,2.4,2c0.9,0.2,2-0.1,3.2-0.7l1.4-0.7
		c-0.9-0.1-1.6-0.4-2.3-0.9c-0.7-0.5-1.2-1.1-1.7-2c-1-1.7-1.1-3.5-0.4-5.2c0.7-1.7,2.1-3.1,4.1-4.2L238.2,91.6z M239.3,94.3
		c-1.4,0.8-2.4,1.7-2.9,2.8c-0.5,1.1-0.5,2.2,0.2,3.5c0.4,0.8,1,1.3,1.6,1.7c0.6,0.3,1.4,0.5,2.2,0.5l6.5-3.6
		c0.4-0.7,0.7-1.4,0.7-2.1c0.1-0.7-0.1-1.5-0.5-2.2c-0.7-1.2-1.7-1.9-3.1-1.9c-1.4,0-2.9,0.4-4.5,1.3L239.3,94.3z"/>
	<path fill="#040404" d="M46.5,155.6c0,3.3-2.7,6-6,6.1c-3.3,0-6-2.7-6.1-6c0-3.3,2.7-6,6-6.1C43.8,149.6,46.5,152.3,46.5,155.6"/>
	<path fill="#040404" d="M263.3,154.1c0,3.3-2.7,6-6,6.1c-3.3,0-6-2.7-6.1-6c0-3.3,2.7-6,6-6.1C260.6,148.1,263.3,150.8,263.3,154.1
		"/>
	<polygon fill="#040404" points="196.1,111.8 202.9,111.8 195.9,118.9 	"/>
	<path fill="#FFFFFF" d="M100.5,201c0,0,4,1.4,7,1.4l40.3-52.8c0,0-0.5-4.8-3.5-5.9L100.5,201z"/>
	<path fill="#040404" d="M144.3,143.7l-25.1,32.9L100.5,201c-2.1-0.7-4-1.7-5.5-3l17.9-23.4l1.6-2l24.9-32.6c0.1,0,0.2,0.1,0.4,0.2
		c0.5,0.3,1.4,0.8,2.4,1.5c0.2,0.2,0.4,0.3,0.7,0.5c0.3,0.3,0.7,0.6,1,0.9C143.9,143.4,144.1,143.5,144.3,143.7"/>
	<path fill="#040404" d="M148.3,156.3c-0.1,1-0.4,2.1-0.7,3.2l-10,13l0.3,0.1h0l0,0l-3.4,4.5l-3.2,4.2l0,0.1l-0.1,0.1l-3.5,4.5
		L116,201.4c-0.6,0.2-1.2,0.3-1.8,0.5c-1.7,0.4-3.4,0.6-5.3,0.6c-0.5,0-1,0-1.5,0l17-22.2l23.4-30.6c0.1,0.4,0.3,0.9,0.4,1.4
		c0.1,0.3,0.1,0.7,0.2,1C148.5,153.3,148.5,154.7,148.3,156.3"/>
	<path fill="#58DEB9" d="M196.4,136.1l0.1,11.1c0.2,24.3-19.4,44.1-43.6,44.2c-8.6,0.1-17.2-2.4-24-6.6l1.9-2.6l0.5-0.7l0.1-0.1
		l0-0.1l6.3-8.8l0.3,0.1h0l0,0l0.2,0.1c0.2,0.1,0.3,0.2,0.5,0.2l0.1,0.1c1.2,0.5,2.6,1,3.9,1.4c0.6,0.2,1.1,0.3,1.7,0.5
		c2,0.5,4.1,0.8,6.1,1c0.3,0,0.6,0,0.9,0.1c0.1,0,0.3,0,0.4,0c0.1,0,0.3,0,0.4,0c0.2,0,0.4,0,0.6,0h0c2.2,0,4.3-0.3,6.3-0.7
		c0.3-0.1,0.6-0.1,0.9-0.2c0.6-0.1,1.1-0.3,1.7-0.5c0.6-0.2,1.1-0.4,1.7-0.6c0.4-0.2,0.9-0.3,1.3-0.5c3.1-1.3,5.9-3.1,8.3-5.2
		c0.7-0.6,1.3-1.2,1.9-1.8c0.8-0.8,1.5-1.7,2.3-2.6v0c0.5-0.6,0.9-1.2,1.3-1.8c0.8-1.2,1.6-2.6,2.2-3.9c0.2-0.5,0.4-0.9,0.6-1.4
		c1.5-3.7,2.4-7.8,2.4-12.1l-0.1-17.7L196.4,136.1z"/>
	<path fill="#767676" d="M177.1,164c0.5-0.6,0.9-1.2,1.3-1.8C178,162.8,177.5,163.4,177.1,164 M152.7,176.1L152.7,176.1
		c-0.2,0-0.4,0-0.6,0c-0.1,0-0.3,0-0.4,0c0.1,0,0.3,0,0.4,0C152.3,176.1,152.5,176.1,152.7,176.1L152.7,176.1c2.2,0,4.3-0.2,6.3-0.7
		C157,175.8,154.9,176,152.7,176.1 M164.6,173.6c3.1-1.3,5.9-3.1,8.3-5.2C170.5,170.5,167.7,172.3,164.6,173.6 M138.6,173.1
		c-0.2-0.1-0.3-0.2-0.5-0.2L138.6,173.1l0.1,0.1L138.6,173.1z M177.1,164c0.5-0.6,0.9-1.2,1.3-1.8C178,162.8,177.5,163.4,177.1,164
		 M138.6,173.1c-0.2-0.1-0.3-0.2-0.5-0.2L138.6,173.1l0.1,0.1L138.6,173.1z"/>
	<path fill="#767676" d="M183.5,129.2l-0.1,0.7c0.1,0.9,0.1,1.8,0.1,2.7l0.1,12.2c0,4.3-0.8,8.4-2.4,12.1c-0.2,0.5-0.4,0.9-0.6,1.4
		c-0.6,1.4-1.4,2.7-2.2,3.9c-0.4,0.6-0.9,1.2-1.3,1.8v0c-0.7,0.9-1.5,1.8-2.3,2.6c-0.6,0.6-1.2,1.2-1.9,1.8
		c-2.5,2.1-5.3,3.9-8.3,5.2c-0.4,0.2-0.9,0.4-1.3,0.5c-0.6,0.2-1.1,0.4-1.7,0.6c-0.6,0.2-1.1,0.3-1.7,0.5c-0.3,0.1-0.6,0.1-0.9,0.2
		c-2,0.4-4.2,0.7-6.3,0.7h0c-0.2,0-0.4,0-0.6,0c-0.1,0-0.3,0-0.4,0c-0.1,0-0.3,0-0.4,0c-0.3,0-0.6,0-0.9-0.1c-2-0.1-4.1-0.5-6.1-1
		c-0.6-0.1-1.1-0.3-1.7-0.5c-1.4-0.4-2.7-0.9-3.9-1.4l-0.1-0.1c-0.2-0.1-0.3-0.2-0.5-0.2l-0.2-0.1l0,0h0l-0.3-0.1l10-13
		c0.3-1.1,0.6-2.2,0.7-3.2c0.2-1.6,0.2-3.1,0-4.4c0-0.3-0.1-0.7-0.2-1c-0.1-0.5-0.2-0.9-0.3-1.3c-0.2-0.5-0.3-1-0.6-1.5
		c-0.1-0.1-0.1-0.3-0.2-0.4c-0.4-0.8-0.9-1.6-1.4-2.3c-0.3-0.4-0.6-0.8-0.9-1.1c-0.2-0.2-0.4-0.4-0.5-0.6c-0.2-0.2-0.3-0.3-0.5-0.5
		c-0.4-0.3-0.7-0.6-1-0.9c-0.2-0.2-0.5-0.4-0.7-0.5c-1-0.8-1.9-1.2-2.4-1.5c-0.2-0.1-0.3-0.2-0.4-0.2c-0.1,0-0.1-0.1-0.1-0.1l0,0
		l22-28.4l22.3,15.5L183.5,129.2z"/>
	<path fill="#040404" d="M183.4,127.1l-0.1-15.3l-22.2-0.3l8.2-10.4c8.8-11.2,26.7-5,26.8,9.2l0.2,25.8L183.4,127.1z"/>
	<path fill="#767676" d="M183.5,129.2l0.1,13.3l0,0l-0.1-9.9c0-0.9,0-1.8-0.1-2.7L183.5,129.2L183.5,129.2z"/>
	<polygon fill="#FFFFFF" points="183.3,111.9 183.4,127.1 161.1,111.6 	"/>
	<path fill="#FFFFFF" d="M196.4,136.1l0.1,11.1c0.2,24.3-19.4,44.1-43.6,44.2c-8.6,0.1-17.2-2.4-24-6.6l1.9-2.6l0.5-0.7l0.1-0.1
		l0-0.1l6.3-8.8l0.3,0.1h0l0,0l0.2,0.1c0.2,0.1,0.3,0.2,0.5,0.2l0.1,0.1c1.2,0.5,2.6,1,3.9,1.4c0.6,0.2,1.1,0.3,1.7,0.5
		c2,0.5,4.1,0.8,6.1,1c0.3,0,0.6,0,0.9,0.1c0.1,0,0.3,0,0.4,0c0.1,0,0.3,0,0.4,0c0.2,0,0.4,0,0.6,0h0c2.2,0,4.3-0.3,6.3-0.7
		c0.3-0.1,0.6-0.1,0.9-0.2c0.6-0.1,1.1-0.3,1.7-0.5c0.6-0.2,1.1-0.4,1.7-0.6c0.4-0.2,0.9-0.3,1.3-0.5c3.1-1.3,5.9-3.1,8.3-5.2
		c0.7-0.6,1.3-1.2,1.9-1.8c0.8-0.8,1.5-1.7,2.3-2.6v0c0.5-0.6,0.9-1.2,1.3-1.8c0.8-1.2,1.6-2.6,2.2-3.9c0.2-0.5,0.4-0.9,0.6-1.4
		c1.5-3.7,2.4-7.8,2.4-12.1l-0.1-17.7L196.4,136.1z"/>
</g>
</svg>
