<?xml version="1.0" encoding="utf-8"?>
<!-- Generator: Adobe Illustrator 24.0.1, SVG Export Plug-In . SVG Version: 6.00 Build 0)  -->
<svg version="1.2" baseProfile="tiny" id="Layer_1" xmlns="http://www.w3.org/2000/svg" xmlns:xlink="http://www.w3.org/1999/xlink"
	 x="0px" y="0px" viewBox="0 0 393 460.5" xml:space="preserve">
<g>
	<path fill="#010101" d="M179.9,109.4l-2.5,3.1l-55.9,72.2l-41.6,53.7l-0.1,0.1c-4.6-1.7-8.7-3.9-12.2-6.6l39.8-51.4l3.4-4.5
		l55.5-71.6l2.6-3.4L179.9,109.4z"/>
	<path fill="#FFFFFF" d="M185.1,125.6L133,192.9l-37.7,48.7c-5.4-0.3-10.6-1.4-15.4-3.1l41.6-53.7l55.9-72.2
		c0.2,0.2,0.4,0.4,0.6,0.6c0.2,0.2,0.4,0.4,0.6,0.7c0.2,0.2,0.4,0.4,0.5,0.6c0.2,0.2,0.3,0.4,0.5,0.6c0.3,0.4,0.6,0.8,0.8,1.1
		c0,0,0,0,0,0c0.1,0.2,0.2,0.3,0.3,0.5c0.1,0.2,0.2,0.3,0.4,0.5c0.2,0.2,0.3,0.5,0.5,0.7c1.8,2.9,2.8,5.6,3.4,7.2
		C185.1,125.4,185.1,125.5,185.1,125.6"/>
	<path fill="#010101" d="M186.2,140.5c-0.3,2.2-0.8,4.6-1.6,7.1l0,0l1.2-0.6l-22.9,29.6l0,0l-7.6,9.8l-7.1,9.1l-0.1,0.1l0,0
		l-7.8,10.1l-26.1,33.8c-1.3,0.4-2.6,0.7-3.9,1c-3.7,0.8-7.6,1.2-11.7,1.2c-1.1,0-2.2,0-3.3-0.1l0.1-0.1l37.7-48.7l52.1-67.3
		c0.3,1,0.5,1.9,0.8,3c0.2,0.7,0.3,1.4,0.4,2.2C186.6,133.7,186.7,137,186.2,140.5"/>
	<path fill="#010101" d="M46.8,342.3c-1.5-1.2-3.3-2.2-5.2-2.7c1.4-0.6,2.7-1.4,3.8-2.5c1.9-1.9,3.9-4.7,3.9-9.2
		c0-8.1-6.9-14.9-18.2-14.9H7.2v56.5h25.4c12,0,19.4-7.3,19.4-16.1C52,347.8,49.4,344.5,46.8,342.3 M19.3,323.4h10.9
		c4.1,0,6.5,2.4,6.5,5.7c0,3.2-2.3,5.7-6.5,5.7H19.3V323.4z M31.8,359H19.3v-13.7h12.5c4.8,0,7.7,2.7,7.7,6.9
		C39.5,356.2,36.7,359,31.8,359"/>
	<path fill="#010101" d="M98,311.7c-17.5,0-30.7,13.3-30.7,29.5c0,16.2,13.2,29.5,30.7,29.5c17.4,0,30.7-13.3,30.7-29.5
		C128.7,325,115.4,311.7,98,311.7 M98,359.4c-10.1,0-18.2-8.1-18.2-18.2c0-10.1,8.1-18.2,18.2-18.2c10.1,0,18.2,8.1,18.2,18.2
		C116.2,351.3,108.1,359.4,98,359.4"/>
	<path fill="#010101" d="M156.9,328.3c0-3.2,2.3-5.7,8.5-5.7c3.2,0,5.8,1.2,7.7,2.4c1.1,0.7,1.9,1.5,2.8,2.4l8.1-8.1
		c-1.4-1.4-2.9-2.7-4.8-3.8c-3.1-1.9-8-3.9-14.2-3.9c-12.9,0-20.6,7.7-20.6,16.6c0,19.7,28.3,15.4,28.3,25c0,3.6-2.8,6.4-9.3,6.4
		c-4.3,0-7.6-1.4-9.8-3c-1.4-0.9-2.5-1.9-3.5-3.1l-8.1,8.1c1.4,1.7,3.2,3.2,5.4,4.4c3.6,2.3,9,4.5,16.4,4.5
		c13.3,0,21.4-8.1,21.4-17.4C185.1,333.6,156.9,337.9,156.9,328.3"/>
	<polygon fill="#010101" points="198.5,312.9 198.5,324.2 214.7,324.2 214.7,369.5 226.8,369.5 226.8,324.2 242.9,324.2 
		242.9,312.9 	"/>
	<path fill="#010101" d="M285.6,311.7c-17.4,0-30.7,13.3-30.7,29.5c0,16.2,13.2,29.5,30.7,29.5c17.4,0,30.7-13.3,30.7-29.5
		C316.3,325,303.1,311.7,285.6,311.7 M285.6,359.4c-10.1,0-18.2-8.1-18.2-18.2c0-10.1,8.1-18.2,18.2-18.2c10.1,0,18.2,8.1,18.2,18.2
		C303.8,351.3,295.7,359.4,285.6,359.4"/>
	<polygon fill="#010101" points="374,312.9 374,348.1 346.5,312.9 335.6,312.9 335.6,369.5 347.7,369.5 347.7,334.3 375.2,369.5 
		386.1,369.5 386.1,312.9 	"/>
	<path fill="#6EC5A4" d="M292.7,96.7v24.5c0,53.6-43.4,97-97,97c-19,0-38-5.6-52.9-15l4.1-5.7l1.3-1.8l0,0l0.1-0.1l14-19.3l0.6,0.3
		c0,0,0,0,0,0c0,0,0,0,0,0c0.4,0.2,0.8,0.4,1.3,0.6l0.3,0.1l0.1,0l0.2,0.1c0.1,0,0.1,0.1,0.2,0.1c0.3,0.1,0.6,0.3,0.9,0.4
		c0.8,0.3,1.5,0.6,2.3,0.9c0.4,0.2,0.8,0.3,1.2,0.4c0.7,0.3,1.5,0.5,2.3,0.8c1.7,0.5,3.3,1,5.1,1.5c4.6,1.2,9.3,2,13.9,2.4
		c1.2,0.1,2.5,0.2,3.7,0.2c0.5,0,0.9,0,1.4,0h0c5.3,0,10.4-0.6,15.4-1.7c2.2-0.5,4.5-1.1,6.6-1.9c0.7-0.2,1.3-0.5,2-0.7
		c2-0.7,3.9-1.6,5.8-2.5c0.6-0.3,1.1-0.5,1.7-0.8c1.1-0.6,2.2-1.2,3.3-1.8c1.1-0.6,2.1-1.3,3.2-2c1.6-1,3.1-2.1,4.5-3.3
		c0.4-0.3,0.9-0.7,1.3-1c0.8-0.7,1.7-1.4,2.5-2.2c2-1.8,3.9-3.8,5.7-5.9c0.7-0.8,1.4-1.7,2.1-2.5c1.3-1.7,2.6-3.5,3.8-5.4
		c1.2-1.9,2.3-3.8,3.3-5.7c4.8-9.4,7.5-20,7.5-31.2v-39L292.7,96.7z"/>
	<path fill="#6EC5A4" d="M292.7,96.7v24.5c0,53.6-43.4,97-97,97c-19,0-38-5.6-52.9-15l4.1-5.7l1.3-1.8l0,0l0.1-0.1l14-19.3l0.6,0.3
		c0,0,0,0,0,0c0,0,0,0,0,0c0.4,0.2,0.8,0.4,1.3,0.6l0.3,0.1l0.1,0l0.2,0.1c0.1,0,0.1,0.1,0.2,0.1c0.3,0.1,0.6,0.3,0.9,0.4
		c0.8,0.3,1.5,0.6,2.3,0.9c0.4,0.2,0.8,0.3,1.2,0.4c0.7,0.3,1.5,0.5,2.3,0.8c1.7,0.5,3.3,1,5.1,1.5c4.6,1.2,9.3,2,13.9,2.4
		c1.2,0.1,2.5,0.2,3.7,0.2c0.5,0,0.9,0,1.4,0h0c5.3,0,10.4-0.6,15.4-1.7c2.2-0.5,4.5-1.1,6.6-1.9c0.7-0.2,1.3-0.5,2-0.7
		c2-0.7,3.9-1.6,5.8-2.5c0.6-0.3,1.1-0.5,1.7-0.8c1.1-0.6,2.2-1.2,3.3-1.8c1.1-0.6,2.1-1.3,3.2-2c1.6-1,3.1-2.1,4.5-3.3
		c0.4-0.3,0.9-0.7,1.3-1c0.8-0.7,1.7-1.4,2.5-2.2c2-1.8,3.9-3.8,5.7-5.9c0.7-0.8,1.4-1.7,2.1-2.5c1.3-1.7,2.6-3.5,3.8-5.4
		c1.2-1.9,2.3-3.8,3.3-5.7c4.8-9.4,7.5-20,7.5-31.2v-39L292.7,96.7z"/>
	<path fill="#767676" d="M184.6,147.6L184.6,147.6l-22.4,28.7l0.6,0.3h0l0,0l22.9-29.6L184.6,147.6z M195.6,184.2L195.6,184.2
		c-0.5,0-0.9,0-1.4,0c-1.2,0-2.5-0.1-3.7-0.2c-4.6-0.4-9.3-1.2-13.9-2.4c-1.7-0.4-3.4-0.9-5.1-1.5c-0.8-0.2-1.5-0.5-2.3-0.8
		c-0.4-0.2-0.8-0.3-1.2-0.4c-0.8-0.3-1.6-0.6-2.3-0.9c-0.4-0.2-0.8-0.3-1.1-0.5c0.1,0,0.1,0.1,0.2,0.1c8.8,4.4,18.9,6.5,29.4,6.6
		C194.7,184.2,195.2,184.2,195.6,184.2L195.6,184.2c5.3,0,10.4-0.6,15.4-1.7C206.1,183.6,200.9,184.2,195.6,184.2 M219.6,179.9
		c2-0.7,3.9-1.5,5.8-2.5C223.5,178.3,221.6,179.2,219.6,179.9 M233.5,172.8c1.5-1,3-2.1,4.5-3.3C236.5,170.7,235,171.8,233.5,172.8
		 M233.5,172.8c-1,0.7-2.1,1.3-3.2,2C231.4,174.2,232.4,173.5,233.5,172.8 M164.9,177.6c0.3,0.1,0.6,0.3,0.9,0.4
		c-0.4-0.2-0.8-0.3-1.1-0.5C164.7,177.5,164.8,177.5,164.9,177.6 M169.1,101.1l-2.6,3.4c0.2,0.1,0.5,0.2,0.8,0.4
		c1.2,0.6,3.1,1.7,5.3,3.4c0.5,0.4,1,0.8,1.5,1.2c0.7,0.6,1.5,1.3,2.3,2c0.4,0.4,0.7,0.7,1.1,1.1l2.4-3.1L169.1,101.1z M195.6,184.2
		L195.6,184.2c-0.5,0-0.9,0-1.4,0c-1.2,0-2.5-0.1-3.7-0.2c1.3,0.1,2.5,0.2,3.7,0.2C194.7,184.2,195.2,184.2,195.6,184.2L195.6,184.2
		c5.3,0,10.4-0.6,15.4-1.7C206.1,183.6,200.9,184.2,195.6,184.2 M184.6,147.6L184.6,147.6l-21.7,29l0,0l22.9-29.6L184.6,147.6z
		 M219.6,179.9c2-0.7,3.9-1.5,5.8-2.5C223.5,178.3,221.6,179.2,219.6,179.9 M233.5,172.8c1.5-1,3-2.1,4.5-3.3
		C236.5,170.7,235,171.8,233.5,172.8 M233.5,172.8c-1,0.7-2.1,1.3-3.2,2C231.4,174.2,232.4,173.5,233.5,172.8"/>
	<path fill="#767676" d="M264.2,88.7v26.9c0,11.2-2.7,21.9-7.5,31.2c-1,2-2.1,3.9-3.3,5.7s-2.5,3.7-3.8,5.4
		c-0.7,0.9-1.4,1.7-2.1,2.5c-1.8,2.1-3.7,4-5.7,5.9c-0.8,0.7-1.6,1.5-2.5,2.2c-0.4,0.3-0.8,0.7-1.3,1c-1.5,1.1-3,2.2-4.5,3.3
		c-1,0.7-2.1,1.3-3.2,2c-1.1,0.6-2.2,1.2-3.3,1.8c-0.6,0.3-1.1,0.6-1.7,0.8c-1.9,0.9-3.8,1.7-5.8,2.5c-0.7,0.2-1.3,0.5-2,0.7
		c-2.2,0.7-4.4,1.3-6.6,1.9c-4.9,1.1-10.1,1.7-15.4,1.7h0c-0.5,0-0.9,0-1.4,0c-1.2,0-2.5-0.1-3.7-0.2c-4.6-0.4-9.3-1.2-13.9-2.4
		c-1.7-0.4-3.4-0.9-5.1-1.5c-0.8-0.2-1.5-0.5-2.3-0.8c-0.4-0.1-0.8-0.3-1.2-0.4c-0.8-0.3-1.6-0.6-2.3-0.9c-0.4-0.2-0.8-0.3-1.1-0.5
		l-0.2-0.1l-0.1,0l-0.3-0.1l-1.3-0.6l22.9-29.6l-1.2,0.6l0,0c0.8-2.5,1.3-4.8,1.6-7.1c0.5-3.6,0.5-6.8,0.1-9.8
		c-0.1-0.8-0.2-1.5-0.4-2.2c-0.2-1-0.4-2-0.8-3c0-0.1-0.1-0.2-0.1-0.3c-0.3-1.1-0.7-2-1.1-3c-0.1-0.3-0.3-0.6-0.4-0.9
		c-0.5-1.2-1.2-2.3-1.8-3.4c-0.1-0.2-0.3-0.5-0.5-0.7c-0.1-0.2-0.2-0.3-0.4-0.5c-0.5-0.8-1.1-1.6-1.7-2.3c-0.2-0.2-0.3-0.4-0.5-0.6
		c-0.2-0.2-0.4-0.4-0.6-0.7c-0.2-0.2-0.4-0.4-0.6-0.6l2.4-3.1l-10.8-8.4l-2.6,3.4c-0.2-0.1-0.2-0.1-0.3-0.1l0,0l49-62.4l49,34.7v4.6
		l-0.2,1.5v0c0.1,1.5,0.2,3,0.2,4.5C264.2,87.7,264.2,88.2,264.2,88.7"/>
	<path fill="#020202" d="M264.2,76.6V42.9l-49-1L233.6,19c19.6-24.5,59.1-10.6,59.1,20.7v57L264.2,76.6z"/>
	<polygon fill="#020202" points="292.4,42.9 307.5,42.9 291.9,58.6 	"/>
	<path fill="#767676" d="M264.2,81.2v29.4h0V88.7c0-0.5,0-1,0-1.5c0-1.5-0.1-3-0.2-4.5v0L264.2,81.2L264.2,81.2z"/>
	<polygon fill="#FFFFFF" points="264.2,42.9 264.2,76.6 264.2,76.6 215.2,41.9 	"/>
	<path fill="#010101" d="M104.1,414.3c-1.1-1.1-2.6-1.7-4.6-1.7c-1.9,0-3.4,0.6-4.5,1.7c-1.1,1.1-1.7,2.6-1.7,4.3v1.8
		c0,1.8,0.6,3.2,1.7,4.3c1.1,1.1,2.6,1.7,4.5,1.7c1.9,0,3.4-0.6,4.5-1.7c1.1-1.1,1.7-2.5,1.7-4.3v-1.8
		C105.8,416.9,105.2,415.4,104.1,414.3"/>
	<polygon fill="#010101" points="135.9,438.7 135.9,403.7 126.9,403.7 126.9,406.9 131,407.6 131,438.7 126.9,439.4 126.9,442.5 
		139.9,442.5 139.9,439.4 	"/>
	<path fill="#010101" d="M147.7,408.7h4.9v-5h-4.9V408.7z M152.6,438.7v-23.1h-8.9v3.2l4,0.7v19.2l-4,0.7v3.1h13v-3.1L152.6,438.7z"
		/>
	<polygon fill="#010101" points="173.5,415.6 173.5,418.8 176.8,419.3 171.4,434.6 170.9,436.5 170.8,436.5 170.3,434.6 
		164.8,419.3 168,418.8 168,415.6 157.6,415.6 157.6,418.8 159.8,419.1 169,442.5 172.7,442.5 181.7,419.1 183.9,418.8 183.9,415.6 
			"/>
	<path fill="#010101" d="M191.4,408.7h4.9v-5h-4.9V408.7z M196.3,438.7v-23.1h-8.9v3.2l4.1,0.7v19.2l-4.1,0.7v3.1h13v-3.1
		L196.3,438.7z"/>
	<path fill="#010101" d="M229.6,438.7v-13.1c0-3.5-0.8-6.2-2.4-7.9c-1.6-1.7-3.8-2.5-6.7-2.5c-1.7,0-3.3,0.4-4.6,1.2
		c-1.4,0.8-2.5,1.9-3.4,3.3l-0.4-4h-8.4v3.2l4.1,0.7v19.2l-4.1,0.7v3.1h13v-3.1l-4.1-0.7v-15.8c0.7-1.2,1.5-2.1,2.6-2.8
		c1.1-0.7,2.3-1,3.7-1c1.9,0,3.4,0.5,4.3,1.5c0.9,1,1.4,2.7,1.4,5v13l-4,0.7v3.1h13v-3.1L229.6,438.7z"/>
	<path fill="#010101" d="M254.9,415.6l-0.5,3.4c-0.8-1.3-1.9-2.2-3.2-2.9c-1.3-0.7-2.8-1-4.5-1c-3.3,0-5.9,1.3-7.8,4
		c-1.9,2.6-2.8,6.1-2.8,10.5v0.5c0,3.9,0.9,7,2.8,9.4c1.9,2.4,4.5,3.6,7.8,3.6c1.6,0,3-0.3,4.2-0.9c1.2-0.6,2.3-1.4,3.2-2.6v2.6
		c0,2.3-0.5,4-1.5,5.2c-1,1.2-2.6,1.8-4.8,1.8c-1.2,0-2.4-0.2-3.6-0.5c-1.2-0.3-2.3-0.7-3.2-1.2l-1.3,3.8c1.1,0.6,2.5,1.1,4,1.5
		c1.5,0.4,2.9,0.5,4.2,0.5c3.6,0,6.3-1,8.3-3c1.9-2,2.9-4.7,2.9-8.2v-26.5H254.9z M254.1,435.2c-0.6,1.2-1.5,2.2-2.5,2.9
		c-1,0.7-2.2,1-3.7,1c-2.3,0-4.1-0.8-5.2-2.5c-1.1-1.6-1.7-3.8-1.7-6.5v-0.5c0-3.1,0.6-5.6,1.7-7.5c1.2-2,2.9-2.9,5.2-2.9
		c1.4,0,2.6,0.3,3.6,1c1,0.7,1.8,1.6,2.5,2.7V435.2z"/>
	<path fill="#010101" d="M290.2,414.3c-1.1-1.1-2.6-1.7-4.5-1.7c-1.9,0-3.4,0.6-4.5,1.7c-1.1,1.1-1.7,2.6-1.7,4.3v1.8
		c0,1.8,0.6,3.2,1.7,4.3c1.1,1.1,2.7,1.7,4.5,1.7c1.9,0,3.4-0.6,4.5-1.7c1.1-1.1,1.7-2.5,1.7-4.3v-1.8
		C291.9,416.9,291.3,415.4,290.2,414.3"/>
</g>
</svg>
