<?xml version="1.0" encoding="utf-8"?>
<!-- Generator: Adobe Illustrator 24.0.1, SVG Export Plug-In . SVG Version: 6.00 Build 0)  -->
<svg version="1.1" id="Capa_1" xmlns="http://www.w3.org/2000/svg" xmlns:xlink="http://www.w3.org/1999/xlink" x="0px" y="0px"
	 viewBox="0 0 51.4 51.4" style="enable-background:new 0 0 51.4 51.4;" xml:space="preserve">
<path d="M14.7,50.6c-0.8-0.2-1.5-0.5-2.1-1.1c-0.7-0.8-1-1.7-1-2.7c0-2,0-4,0-6c0-12,0-24,0-36c0-1.6,0.6-2.9,2.1-3.6
	c0.5-0.2,1.1-0.4,1.7-0.4c6.9,0,13.8,0,20.7,0c2.2,0,3.7,1.6,3.7,3.9c0,10.5,0,21,0,31.6c0,3.3-0.1,6.6,0,9.9c0,2-0.6,3.8-3.1,4.4
	C29.4,50.6,22,50.6,14.7,50.6z M37,41.1c0-11.4,0-22.8,0-34.2c-7.6,0-15.2,0-22.7,0c0,11.4,0,22.8,0,34.2
	C21.9,41.1,29.5,41.1,37,41.1z M30.1,44c-2.9,0-5.8,0-8.8,0c0,0.9,0,1.8,0,2.7c2.9,0,5.9,0,8.8,0C30.1,45.8,30.1,44.9,30.1,44z
	 M30.5,3.5c-3.2,0-6.4,0-9.7,0c0,0.4,0,0.7,0,1c3.2,0,6.4,0,9.7,0C30.5,4.1,30.5,3.8,30.5,3.5z M33.8,4.9c0.5,0,0.9-0.4,0.9-0.9
	c0-0.5-0.4-0.9-0.9-0.9c-0.5,0-0.9,0.4-0.9,0.9C32.9,4.5,33.3,4.9,33.8,4.9z"/>
</svg>
