<?xml version="1.0" encoding="utf-8"?>
<!-- Generator: Adobe Illustrator 24.0.1, SVG Export Plug-In . SVG Version: 6.00 Build 0)  -->
<svg version="1.2" baseProfile="tiny" id="Layer_1" xmlns="http://www.w3.org/2000/svg" xmlns:xlink="http://www.w3.org/1999/xlink"
	 x="0px" y="0px" viewBox="0 0 570 564" xml:space="preserve">
<g>
	<path d="M222.2,512.8l-9.3-9.7c-18.7-19.6-42.7-33.4-69.1-39.8l-13-3.2C21.9,433.7-14.8,297.2,66.3,219.8l9.7-9.3
		c19.6-18.7,33.4-42.7,39.8-69.1l3.2-13C145.4,19.5,281.8-17.2,359.3,63.9l9.3,9.7c18.7,19.6,42.7,33.4,69.1,39.8l13,3.2
		c108.9,26.4,145.6,162.9,64.5,240.3l-9.7,9.3c-19.6,18.7-33.4,42.7-39.8,69.1l-3.2,13C436.1,557.2,299.6,593.8,222.2,512.8"/>
	<path fill="#3EE5AA" d="M210.7,500.1l-9.3-9.7c-18.7-19.6-42.7-33.4-69.1-39.8l-13-3.2C10.4,421-26.2,284.6,54.8,207.1l9.7-9.3
		c19.6-18.7,33.4-42.7,39.8-69.1l3.2-13C133.9,6.8,270.4-29.8,347.8,51.2l9.3,9.7c18.7,19.6,42.7,33.4,69.1,39.8l13,3.2
		c108.9,26.4,145.6,162.9,64.5,240.3l-9.7,9.3c-19.6,18.7-33.4,42.7-39.8,69.1l-3.2,13C424.6,544.5,288.2,581.2,210.7,500.1"/>
	<g>
		<path d="M533.3,237.3c-6,2.4-16.4,6-16.4,6s17.6,35.2-12.1,50.7c-29.2,15.2-57.9-36.9-61.5-47.8c26.1-4.3,41-24.1,33.3-34.8
			c-7.7-10.6-25.1-7.7-55,31.9c12.1-30.9,41.3-72.4,50-82.8c-8.9-5.3-15-11.1-23.9,2.2c-6.9,10.2-21.2,35.8-32.3,60.5
			c-11.1,17.2-26.4,36.6-29.1,35.1c-3.4-1.8,4.7-13.8,10-24c5.3-10.2,6.9-20.2-3.7-24.8s-30.1,18.5-30.1,18.5s3.9-10.5-6.6-15.1
			c-10.5-4.6-27,15.1-42.2,34.4c-15.1,19.3-19.9,11.9-12.9-0.5c8.5-14.9,21.4-25.7,21.4-25.7c-6-5.8-11.2-5-15.8-1.8
			c-0.8-4.1-4.6-9.3-20.4-4.1c-18.7,6.2-29.6,21-33.8,33.1c-9,8.3-19.7,14.3-22.7,12.8c-4.3-2.2,13.5-28.2,17.9-35.2
			s-2.2-16.4-12.3-11.6c-13.1,6.2-30.6,22.9-30.6,22.9s8.2-19.4,35.4-61c45.7,5.1,55.7-16.3,55.7-16.3s-0.8-0.5-1.8-1.7
			c-8.6,6.5-24.1,7-45.1,4.8c57-82.7,110.3-94.4,150.3-73.3c40.8,21.5,23.4,86.9-17.6,90.3c-42.9,3.5-56.5-34.5-56.5-34.5l-14,9.2
			c0,0,11.8,21.2,34.5,29c55.7,19.1,83.3-21.7,88.3-45.6c5-23.7-14-71.9-79.4-64.4c-62,7.1-103.3,61.6-120.9,87.6
			c-12.2-1.7-25.8-3.8-40.6-6.1c-25.9-3.9-57-10.6-81.6-4.3c-22.8,5.8-39.6,23.6-41.7,41.7c-6.5,53.8,46.1,47.1,46.1,47.1v-15.4
			c-48,4.6-43.8-44.2-21.7-57c18.1-10.4,61.3-5.2,106.1,2.3c-7.8,6.8-18.4,18.7-25.3,32.9c-10.6,22-29.6,63.4-47.3,96.3
			c-15.2,28.1-43.5,36.3-49.2,22.9c-6-14,12.5-19.8,12.5-19.8s-4.1-5.8-8.7-10.9c-24.4,16.7-14,54.6,26.1,39.1
			c41.7-16.2,64.7-82.3,79.6-118c8.9-21.2,17.3-34,22.6-40.8c5,0.9,9.9,1.7,14.8,2.6c-15.6,25.3-36.5,64.5-40.4,74.5
			c-4.3,11.3-5.6,13.1,6.5,22.5c8.9-14.3,17.4-27.5,38.9-44.9c-11.6,15.9-23.9,35.5-12.3,44.9c8.7,7,24.9-4.1,32.5-10.2
			c1.8,10.4,14.8,18,33.4-4.5c-0.6,5.7,1,10.9,6.6,14c16.2,8.8,36.4-25.9,51.2-42c6.6-7.2,11.3-7.9,8.2-1.1
			c-3.3,7.4-13.3,25-15,27.7c-6,9.7-1.4,12.4,7.2,15.1c3.4-8.2,21.2-31.1,29.8-39.6s16.6-13.8,11.4-4.5c-5.1,9.3-21.1,40.9-9,45.2
			c9.8,3.5,20.4-5.5,28.6-15.3c-4,15.5,1.6,16.5,8.8,21.6c0,0,4.3-15.4,17.1-32.9c7.6,31.3,32.2,60.2,62.8,60.9
			C522.9,306.1,545.1,274,533.3,237.3z M288.3,242.5c-6.4,7.8-16.7,19.1-21,16.6c-2.6-1.5,2.5-16.6,11.1-25.4
			c9.9-10.1,22.4-14.5,24.6-11.5C296,227.8,291.4,236.2,288.3,242.5z M444.7,226.4c28-25.8,35.5,6.5-13.8,15.1
			C434.7,236.5,439.3,231.4,444.7,226.4z"/>
		<path d="M443.9,417.8c-49.8,37.6-142.3-6.5-208-27.3c26.4-43,49.8-93.1,49.8-93.1s-10.7,0.7-15.9,1c-4.3,11.5-47.6,66.1-48.5,62.3
			c-4-16.3,23.2-65.6,23.2-65.6s-10.3-0.4-14.2,2.5c-8.7,6.6-27.4,49.2-23.2,65c4.2,15.8,18.3,7.7,38.3-14.5
			c-3.5,5.3-12.3,20.8-23.2,38.4c-31.3-9.1-65.3-16.7-91.2-13.9c-27.3,2.9-45.6,17.3-40.7,42.2c11.9,60.2,68.2,59.8,104.6,29.6
			c10-8.3,21.3-23,32.4-40.1c41.9,12.6,86.3,28.1,120.1,37.5c70.5,19.6,99.4-20.9,99.4-20.9S445.5,419.7,443.9,417.8z M170.1,452.2
			c-32.2,19.3-56.6-10.6-66.3-28c-9.7-17.4-10.3-41.9,27.7-40.9c21.1,0.6,50.4,7.5,82.1,16.6C199.1,422.3,182.6,444.7,170.1,452.2z"
			/>
		<path d="M338,308.5v-5.2c0,0-24.3-13.2-51.4,13c-27.6,26.6-20,65.2,7,60.1c14.7-2.8,27.3-15.7,35.2-28.7c3.4,0.3,6.7,0,9.4-0.7
			c-3.2,11.7-1.4,21.3,4.1,24.9c14.6,9.7,41.6-29.1,41.6-29.1s-14.6,38.4,10.3,45.9c25.7,7.7,51.3-31.9,51.3-31.9s-13-3.9-15.8-5.2
			c0,0.4-13.3,23.4-27.5,27.9c-14.8,4.7-17.5-11.8-7.8-30.8c9.7-18.9,25.5-38.6,25.5-38.6l-19.5-1.9c0,0-28.1,39.8-37,47.4
			c-19.9,17-17.4,3.9-11.1-9.2c6.8-14.2,27.8-40.2,27.8-40.2h-19.2c-4.6,4.8-12.8,17.4-18.5,30.3c-2,1.1-4.9,2.2-8.7,2.4
			c3.6-7.7,5.3-14.7,4.5-18.6c-2.2-11.8-18.9-15.3-27.3,6c-2.7,6.9-1,12,2.8,15.5c-8.3,12.2-19.6,25.3-28.9,22
			C273.8,360.1,301.1,297,338,308.5z"/>
	</g>
	<g>
		<path fill="#0B0A0A" d="M197,350.5c3.3-1.4,6-2.6,9.3-4c-0.8-0.7-1.2-1.4-1.8-1.6c-2.3-1-4.6-2-7.1-3c-0.5-3.3-2.8-4.8-5.9-5.8
			c-3.6-1.2-7.1-2.6-10.7-3.9c-0.6-0.2-1.3-0.2-2.4-0.3c0.4,1.1,0.6,1.7,0.8,2.3c1.1,2.6,1.9,5.4,3.3,7.8c2.9,5.1,2.6,10.6,2.5,16.2
			c0,0.6-0.4,1.3-0.8,1.9c-2,2.8-4,5.5-6.1,8.3c-0.4,0.5-0.7,1.1-1.1,1.7c2.2,2.2,4.9,2.7,7.8,2.8v2.7c-4.1,1.4-8.3,2.8-12.8,4.3
			c0.9,2.9,1.5,5.8,3.1,8.6c3.3-3.4,6.3-6.4,9.6-9.8c0.6,3.5-0.3,6.6,0.6,9.5c0.3,0,0.6,0,1,0c1.4-3.4,0.1-7.1,0.8-10.8
			c0.9-0.2,1.8-0.3,2.7-0.6c9.8-2.7,14.1-14.4,8.5-22.9C197.8,352.8,197.5,351.7,197,350.5"/>
		<path fill="#F47F20" d="M187.1,372.6v2.3c4.7,0.2,9.8-3.8,11.2-9c1.2-4.2,0.5-8.1-2-11.8c-0.5-0.7-0.8-1.7-0.9-2.6
			c-0.1-3-0.1-5.9-0.1-8.9c0-1.9-0.8-3.3-2.5-4c-3.6-1.4-7.3-2.7-11.4-4.2c1.4,3.3,2.4,6.4,3.9,9.3c1.5,3,1.8,6,1.6,9.2
			c0,0.9,0,1.8,0,3.2c1.3-1.6,2.3-2.9,3.3-4.2c3.2,1.2,5.5,5.2,5.5,9.2C195.9,366.4,193,370.3,187.1,372.6"/>
		<path fill="#633213" d="M174.5,381.1c0.4,1.4,0.8,2.6,1.1,3.6c2-1.9,4.1-3.8,6.2-5.7c-0.1-0.1-0.1-0.2-0.2-0.3
			C179.4,379.5,177,380.3,174.5,381.1"/>
		<path fill="#0B0A0A" d="M197.5,344v4.1c1.5-0.6,2.9-1.2,4.8-2C200.6,345.4,199.2,344.7,197.5,344"/>
		<path fill="#0B0A0A" d="M191.7,344.5c0.4-0.2,1.2-0.4,1.2-0.7c0.1-0.5-0.1-1.2-0.2-1.8c-0.3,0-0.5-0.1-0.8-0.1
			c-0.3,0.7-0.6,1.3-0.9,2L191.7,344.5z"/>
	</g>
	<g>
		<path fill="#070707" d="M518.7,305.7c-2,1.6-4.1,1.9-6.1,2.4c-2,0.5-4.1,0.3-6.3,0.4c0.1,4.3-0.1,8.5-2.2,12.6
			c-4.5-0.8-7.7-3.7-10.9-6.9c-1.5,1.5-2.8,3.1-4.5,4.3c-1.7,1.2-3.4,2.3-5.9,3.2c-2.7-4.2-3.2-8.7-2.6-13.4
			c0.7-4.9,3.8-8.5,7.9-11.6c-4.5-1.3-8.2-3.1-11.3-6.2c-4.9-4.8-7-10.7-6.9-17.5c0-4.6,0-9.3,0-13.8c-2.7-1.9-6.1-2.1-8.3-4.2
			c0.1-1.5,1-1.8,1.8-2.2c1.7-0.8,3.5-1.5,5.3-2.2c1.3-0.5,2.3-1.2,3.1-2.5c3.1-4.9,8.4-6.9,13.7-5.4c5.3,1.5,8.7,6.1,8.8,11.8
			c0,1.2,0,2.4,0,4c4.9-2.4,9.6-4.7,14.2-6.9c2.7,2.2,3.2,5.4,2.2,12h12.4c0.5,5.7-1.2,10.3-4.8,14.3c-5.8,6.6-12.8,8.1-23.8,5.1
			v10.5c6-1.5,12-1.9,17.2,2.3C514.9,298.4,517.4,301.5,518.7,305.7"/>
		<path fill="#FFFFFF" d="M491.6,263.6h-8.4c-0.6,7.6,2.7,13,8.3,17.6v12.7c-6.5,0.4-14-4.7-17-11.5c-1.3-3-1.9-6.1-1.9-9.3
			c0-6,0-12,0.1-18c0.1-6,4-10.2,9.5-10.1c5.5,0,9.4,4.2,9.4,10.2C491.6,257.8,491.6,260.5,491.6,263.6"/>
		<path fill="#CD3D36" d="M486.1,266.3h34c0.3,7.9-7.7,15.5-16.6,15.6C494.5,282.1,486.2,274.7,486.1,266.3"/>
		<path fill="#CD3D36" d="M490.3,298.9c-0.8,4.5-0.8,8.6,1.1,12.6c-1.8,2.9-4.3,5-7.4,6.6C480.8,310.2,483.3,302.6,490.3,298.9"/>
		<path fill="#CD3D36" d="M515.1,304.5c-3.3,1.2-6.4,1.5-9.8,1c-1.7-4-4.6-7-8.3-9.3C503.6,293.1,511.3,296.6,515.1,304.5"/>
		<path fill="#100E0F" d="M477.3,252.1c1.3-0.9,2.1-0.7,2.5,0.3c0.4,1.2,0.4,2.3-1.2,2.8C476.8,254.7,477.3,253.3,477.3,252.1"/>
		<path fill="#E5C72B" d="M470.4,249.5l-0.8,9.7l-8.6-3.9c0,0-1.4-1.1,0.4-1.8C463.3,252.8,470.4,249.5,470.4,249.5"/>
	</g>
	<g>
		<path fill="#0B0A0A" d="M239.6,173.5h-19.4v-29.7l-0.8,0.2c-0.6,0.2-1.2,0.3-1.8,0.5c-1.3,0.4-2.4,0.7-3.5,0.8
			c-0.8,0.1-1.6,0.2-2.4,0.2s-1.5-0.1-2.2-0.2c-1.9-0.3-3.8-0.7-5.6-1.2c-0.7-0.2-1.4-0.3-2.1-0.5l-0.4-0.1l-0.2,0.3
			c-1.1,1.6-2,2.8-2.9,4.1l-0.3,0.4c-1.5-2-1.1-4.1-0.7-6.2c0-0.2,0.1-0.4,0.1-0.6c0.6-3.2,3-4.6,8.4-4.8l0.4,0l0.2-0.4
			c1.4-2.9,3.8-3.5,7.1-3.5c0.6,0,1.3,0,1.9,0c0.5,0,1,0,1.6,0c0.4,0,0.9,0,1.3,0c0.4,0,0.9,0,1.3,0l0.3,0c5.1,0,7.5,2.4,7.6,7.6
			c0,3,0,6.1,0,9.1c0,1.5,0,3,0,4.5c0,1.7,0,3.3,0,5.1l0,4l1-0.6c4.9-3.2,9.8-4.7,14.9-4.7c2,0,4,0.2,6,0.7c1.9,0.4,3.9,1.1,5.7,2
			c7.3,3.6,14.6,7.4,20.9,10.7c0.5,0.3,1,0.7,1.5,1.2c0.1,0.1,0.3,0.3,0.5,0.4l0,0.2c-0.2,0-0.4,0.1-0.7,0.1
			c-0.7,0.2-1.5,0.3-2.2,0.3c-4.7,0-9.3,0-12.8,0c-2,0-22.4-0.1-22.4-0.1 M241.3,192.7v21.2h-5.6c0-0.4-0.1-0.8-0.1-1.2
			c0.7,0,4-0.3,4-0.3v-16.5 M248.5,172.9l7.9,13.4l-1.5,0.9l-8.1-14L248.5,172.9z M241.4,193.6h-1.6v-20.1h1.6V193.6z M243.6,196.5
			c0,1.8-1.4,3.2-3.2,3.2s-3.2-1.4-3.2-3.2c0-1.8,1.4-3.2,3.2-3.2S243.6,194.7,243.6,196.5"/>
		<path fill="#FFFFFF" d="M205.8,138.7c0,0-0.7,2.3,0.3,4c-2-0.3-3.7-1.7-6.4,0.3C200.1,140.3,199.4,139.7,205.8,138.7"/>
		<path fill="#E48EBC" d="M222.2,141c-3.3,0.8-5.9,1.4-8.5,2.1c-1.9,0.5-3.8,0.6-4.8-1.2c-0.6-1.2-1.1-3.3-0.5-4.1
			c0.9-1.2,2.7-2.2,4.3-2.5c2.1-0.4,4.3-0.1,6.5-0.1c4.8,0,6,1.3,6,6.1c0,7.4,0,14.8,0,22.1c0,1,0.1,2,0.3,3.6c1.3-0.7,2.2-1,3-1.6
			c8.4-6.3,17.3-7.1,26.6-2.4c5,2.5,10,5.2,15.7,8.1h-48.5V141z"/>
		<path fill="#E48EBC" d="M222.8,170.6v-30.4l-0.8,0.2c-1,0.3-2,0.5-2.9,0.7c-2.1,0.5-3.8,0.9-5.6,1.4c-0.7,0.2-1.3,0.3-1.9,0.3
			c-1,0-1.7-0.4-2.2-1.2c-0.6-1.2-0.9-2.9-0.5-3.5c0.7-1,2.3-1.9,3.9-2.2c0.7-0.1,1.5-0.2,2.5-0.2c0.6,0,1.3,0,2,0.1
			c0.6,0,1.3,0.1,1.9,0.1c4.4,0,5.3,1,5.4,5.5c0,3.5,0,7,0,10.4c0,3.9,0,7.8,0,11.7c0,0.7,0.1,1.3,0.1,2.2c0,0.4,0.1,0.9,0.1,1.5
			l0.1,1l0.9-0.4c0.5-0.2,0.9-0.4,1.2-0.6c0.7-0.3,1.3-0.6,1.8-1c4.7-3.5,9.5-5.3,14.5-5.3c3.7,0,7.6,1,11.5,3
			c3.4,1.7,6.8,3.5,10.4,5.4c1,0.5,1.9,1,2.9,1.5H222.8z"/>
		<path fill="#0B0A0A" d="M259.6,189.5c0,1.8-1.4,3.2-3.2,3.2c-1.8,0-3.2-1.4-3.2-3.2c0-1.8,1.4-3.2,3.2-3.2
			C258.2,186.3,259.6,187.7,259.6,189.5"/>
		<rect x="227.3" y="188.8" fill="#0B0A0A" width="26.2" height="1.6"/>
		<path fill="#FFFFFF" d="M200.5,141.8c0.2-1.3,0.6-1.7,4.5-2.3c-0.1,0.6-0.1,1.5,0.1,2.3c0,0-0.1,0-0.1,0c-0.7-0.2-1.5-0.4-2.3-0.4
			C201.9,141.3,201.2,141.4,200.5,141.8"/>
		<path fill="#0B0A0A" d="M213.1,138.4c0,0.7-0.6,1.3-1.3,1.3c-0.7,0-1.3-0.6-1.3-1.3c0-0.7,0.6-1.3,1.3-1.3
			C212.5,137.1,213.1,137.7,213.1,138.4"/>
		<path fill="#0B0A0A" d="M211.8,139.1c-0.4,0-0.7-0.3-0.7-0.7c0-0.4,0.3-0.7,0.7-0.7c0.4,0,0.7,0.3,0.7,0.7
			C212.5,138.8,212.2,139.1,211.8,139.1"/>
		<rect x="227.3" y="188.8" fill="#0B0A0A" width="1.9" height="4.8"/>
	</g>
</g>
</svg>
