<?xml version="1.0" encoding="utf-8"?>
<!-- Generator: Adobe Illustrator 24.0.1, SVG Export Plug-In . SVG Version: 6.00 Build 0)  -->
<svg version="1.2" baseProfile="tiny" id="Layer_1" xmlns="http://www.w3.org/2000/svg" xmlns:xlink="http://www.w3.org/1999/xlink"
	 x="0px" y="0px" viewBox="0 0 378.9 446.9" xml:space="preserve">
<g>
	<path fill="none" d="M182.2,177.4c-1.7-0.2-3.3-0.4-5-0.7c0.9,0.2,1.9,0.3,2.8,0.4C180.7,177.3,181.4,177.3,182.2,177.4z"/>
	<path fill="none" d="M187,177.7c0.2,0,0.4,0,0.6,0c0.2,0,0.5,0,0.7,0C187.9,177.7,187.5,177.7,187,177.7c-1.1,0-2.3-0.1-3.5-0.2
		c0.3,0,0.7,0,1,0.1C185.4,177.6,186.2,177.7,187,177.7z"/>
	<path fill="none" d="M157.5,171l-0.2-0.1l0,0l0,0L157.5,171c0.1,0,0.1,0.1,0.2,0.1C157.6,171,157.5,171,157.5,171
		C157.5,171,157.5,171,157.5,171z"/>
	<polygon fill="none" points="232.5,35.9 257,36.4 257,36.4 	"/>
	<path fill="none" d="M155.7,170.2L155.7,170.2L155.7,170.2L155.7,170.2c0.4,0.2,0.8,0.4,1.3,0.6l0.1,0.1l-0.1-0.1L155.7,170.2z"/>
	<path fill="none" d="M257,70.1L257,70.1l0,4.6l-0.2,1.5v0c0.1,1.5,0.2,3,0.2,4.5c0,0.5,0,1,0,1.5v26.9c0,11.2-2.7,21.9-7.5,31.2
		l0,0c4.8-9.4,7.5-20,7.5-31.2v-5V82.3c0-0.5,0-1,0-1.5c0-1.5-0.1-3-0.2-4.5v0l0.2-1.5L257,70.1l2.7,1.9L257,70.1L257,70.1z"/>
	<path fill="none" d="M164.3,173.6c1.1,0.4,2.3,0.7,3.5,1C166.6,174.3,165.5,174,164.3,173.6c-0.8-0.3-1.5-0.5-2.3-0.8
		c-0.2-0.1-0.3-0.1-0.5-0.2c0.2,0.1,0.3,0.1,0.5,0.2C162.8,173.1,163.6,173.4,164.3,173.6z"/>
	<path fill="none" d="M229.1,164.4c0.6-0.4,1.2-0.9,1.7-1.3c0.3-0.2,0.6-0.5,0.9-0.7c-0.3,0.2-0.6,0.5-0.9,0.7
		C230.2,163.5,229.7,164,229.1,164.4z"/>
	<path fill="none" d="M218.2,171c-0.8,0.4-1.5,0.7-2.3,1C216.7,171.7,217.4,171.3,218.2,171c0.6-0.3,1.1-0.5,1.7-0.8
		c0.7-0.4,1.5-0.8,2.2-1.2c-0.7,0.4-1.4,0.8-2.2,1.2C219.3,170.4,218.7,170.7,218.2,171z"/>
	<polygon fill="none" points="178.6,140.6 178.6,140.6 177.6,141.1 177.7,141 	"/>
	<path fill="none" d="M249.5,140.5c-0.9,1.7-1.8,3.4-2.9,5C247.6,143.9,248.6,142.2,249.5,140.5z"/>
	<path fill="none" d="M245.8,146.8c-0.9,1.4-1.8,2.7-2.8,4C243.9,149.5,244.9,148.1,245.8,146.8z"/>
	<path fill="none" d="M90.8,316.6c-10.1,0-18.2,8.1-18.2,18.2c0,10.1,8.1,18.2,18.2,18.2c10.1,0,18.2-8.1,18.2-18.2
		C109,324.6,100.9,316.6,90.8,316.6z"/>
	<path fill="none" d="M177.9,119c0,0,0,0.1,0,0.1l-41.2,53.2l41.2-53.2c0,0,0,0,0,0C177.9,119.1,177.9,119,177.9,119z"/>
	<path fill="none" d="M178.5,121.3c-0.1-0.7-0.3-1.3-0.5-1.9C178.2,119.9,178.3,120.6,178.5,121.3z"/>
	<path fill="none" d="M176.3,114.9c-0.6-1.2-1.2-2.3-1.8-3.4c-0.1-0.2-0.3-0.5-0.5-0.7c-0.1-0.2-0.2-0.4-0.4-0.5
		c-0.5-0.8-1.1-1.6-1.7-2.3c-0.2-0.2-0.3-0.4-0.5-0.6c-0.2-0.2-0.4-0.4-0.6-0.7c-0.1-0.1-0.1-0.1-0.2-0.2c0.1,0.1,0.1,0.1,0.2,0.2
		c0.2,0.2,0.4,0.4,0.6,0.7c0.2,0.2,0.4,0.4,0.5,0.6c0.2,0.2,0.3,0.4,0.5,0.6c0.3,0.4,0.6,0.8,0.8,1.1c0,0,0,0,0,0
		c0.1,0.2,0.2,0.3,0.3,0.5c0.1,0.2,0.2,0.3,0.4,0.5c0.2,0.2,0.3,0.5,0.5,0.7c1.7,2.9,2.8,5.6,3.4,7.2c-0.3-1-0.7-2-1.1-3
		C176.6,115.5,176.5,115.2,176.3,114.9z"/>
	<polygon fill="none" points="177.4,141.2 177.4,141.2 177.4,141.2 	"/>
	<polygon fill="none" points="141,189.2 141,189.1 141,189.1 141,189.1 	"/>
	<path fill="none" d="M210.4,174.1c-2.2,0.7-4.4,1.4-6.6,1.9c-4.7,1.1-9.6,1.7-14.6,1.7c1.7,0,3.5-0.1,5.2-0.3
		c3.2-0.3,6.3-0.7,9.4-1.4C206.1,175.5,208.3,174.9,210.4,174.1c0.7-0.2,1.3-0.5,2-0.7c0.8-0.3,1.6-0.6,2.4-0.9
		c-0.8,0.3-1.6,0.6-2.4,0.9C211.8,173.7,211.1,173.9,210.4,174.1z"/>
	
		<ellipse transform="matrix(1 -7.811982e-03 7.811982e-03 1 -2.6065 2.1855)" fill="none" cx="278.5" cy="334.7" rx="18.2" ry="18.2"/>
	<path fill="none" d="M244.5,413.6c-1-0.7-2.2-1-3.6-1c-2.3,0-4.1,1-5.2,2.9c-1.2,2-1.7,4.5-1.7,7.5v0.5c0,2.7,0.6,4.9,1.7,6.5
		c1.1,1.7,2.9,2.5,5.2,2.5c1.5,0,2.7-0.3,3.7-1c1-0.7,1.8-1.6,2.5-2.9v-12.4C246.3,415.2,245.5,414.3,244.5,413.6z"/>
	<path fill="none" d="M32.3,345.6c0-4.1-2.8-6.9-7.7-6.9H12.1v13.7h12.5C29.5,352.5,32.3,349.8,32.3,345.6z"/>
	<path fill="none" d="M29.5,322.6c0-3.2-2.3-5.7-6.5-5.7H12.1v11.3H23C27.1,328.3,29.5,325.9,29.5,322.6z"/>
	<path fill="#F4F4F0" d="M114.3,178.3l55.9-72.2c-0.3-0.4-0.7-0.7-1.1-1.1c-0.8-0.8-1.5-1.4-2.3-2c-0.5-0.4-1-0.8-1.5-1.2
		c-2.2-1.7-4.1-2.8-5.3-3.4c-0.4-0.2-0.7-0.4-0.8-0.4l0,0l-55.5,71.6l-3.5,4.5l-39.8,51.4c3.5,2.7,7.6,5,12.2,6.6l0.1-0.1
		c0,0,0,0,0,0L114.3,178.3z"/>
	<polygon fill="#F4F4F0" points="172.7,103 170.3,106.1 170.3,106.1 172.7,103 	"/>
	<polygon fill="#F4F4F0" points="171.2,101.8 161.9,94.6 161.9,94.6 172.5,102.8 	"/>
	<path fill="#010101" d="M136.7,172.4l41.2-53.2c0,0,0-0.1,0-0.1c0-0.1,0-0.1-0.1-0.2c0,0,0,0,0,0c-0.5-1.6-1.6-4.3-3.4-7.2
		c-0.1-0.2-0.3-0.5-0.5-0.7c-0.1-0.2-0.2-0.4-0.4-0.5c-0.1-0.2-0.2-0.3-0.3-0.5c0,0,0,0,0,0c-0.3-0.4-0.6-0.8-0.8-1.1
		c-0.2-0.2-0.3-0.4-0.5-0.6c-0.2-0.2-0.3-0.4-0.5-0.6c-0.2-0.2-0.4-0.4-0.6-0.7c-0.1-0.1-0.1-0.1-0.2-0.2c-0.1-0.2-0.3-0.3-0.4-0.5
		l0,0l0,0l0,0c0,0,0,0,0,0l-55.9,72.2L72.7,232c0,0,0,0,0,0c4.8,1.7,10,2.7,15.4,3.1l29.8-38.5l7.9-10.2L136.7,172.4z"/>
	<path fill="#F4F4F0" d="M155.7,170.1L155.7,170.1C155.7,170.2,155.7,170.2,155.7,170.1C155.7,170.2,155.7,170.2,155.7,170.1
		L155.7,170.1L155.7,170.1L155.7,170.1z"/>
	<polygon fill="#F4F4F0" points="177.6,141.1 177.5,141.1 177.7,141 	"/>
	<path fill="#F4F4F0" d="M141,189.2L141,189.2L141,189.2l0.1-0.1l14-19.3l0,0l22.3-28.7l0,0l0,0l0,0c0,0,0,0,0,0l0,0
		c0.8-2.5,1.3-4.8,1.6-7.1c0.5-3.6,0.5-6.8,0.1-9.8c-0.1-0.8-0.2-1.5-0.4-2.2c-0.1-0.3-0.1-0.6-0.2-0.9c-0.1-0.7-0.3-1.3-0.5-1.9
		c0-0.1,0-0.1-0.1-0.2l-41.2,53.2l-10.9,14l-7.9,10.2l-29.8,38.5l-0.1,0.1c1.1,0.1,2.2,0.1,3.3,0.1c4.1,0,8-0.4,11.7-1.2
		c1.3-0.3,2.7-0.6,3.9-1l26.1-33.8L141,189.2L141,189.2L141,189.2z"/>
	<path fill="#F4F4F0" d="M44.8,346.9c0-5.5-2.7-8.8-5.3-11c-1.5-1.2-3.3-2.2-5.2-2.7c1.4-0.6,2.7-1.4,3.8-2.5
		c1.9-1.9,3.9-4.7,3.9-9.2c0-8.1-6.9-14.9-18.2-14.9H0V363h25.4C37.5,363,44.8,355.6,44.8,346.9z M12.1,317H23
		c4.1,0,6.5,2.4,6.5,5.7c0,3.2-2.3,5.7-6.5,5.7H12.1V317z M12.1,352.5v-13.7h12.5c4.8,0,7.7,2.7,7.7,6.9c0,4.1-2.8,6.9-7.7,6.9H12.1
		z"/>
	<path fill="#F4F4F0" d="M90.8,305.3c-17.5,0-30.7,13.3-30.7,29.5c0,16.2,13.2,29.5,30.7,29.5c17.4,0,30.7-13.3,30.7-29.5
		C121.5,318.6,108.2,305.3,90.8,305.3z M90.8,352.9c-10.1,0-18.2-8.1-18.2-18.2c0-10.1,8.1-18.2,18.2-18.2
		c10.1,0,18.2,8.1,18.2,18.2C109,344.8,100.9,352.9,90.8,352.9z"/>
	<path fill="#F4F4F0" d="M156.1,353.3c-4.3,0-7.6-1.4-9.8-3c-1.4-0.9-2.5-1.9-3.5-3.1l-8.1,8.1c1.4,1.7,3.2,3.2,5.4,4.4
		c3.6,2.3,9,4.5,16.4,4.5c13.3,0,21.4-8.1,21.4-17.4c0-19.7-28.3-15.4-28.3-25c0-3.2,2.3-5.7,8.5-5.7c3.2,0,5.8,1.2,7.7,2.4
		c1.1,0.7,1.9,1.5,2.8,2.4l8.1-8.1c-1.4-1.4-2.9-2.7-4.8-3.8c-3.1-1.9-8-3.9-14.2-3.9c-12.9,0-20.6,7.7-20.6,16.6
		c0,19.7,28.3,15.4,28.3,25C165.4,350.5,162.6,353.3,156.1,353.3z"/>
	<polygon fill="#F4F4F0" points="235.7,306.5 191.3,306.5 191.3,317.8 207.5,317.8 207.5,363 219.6,363 219.6,317.8 235.7,317.8 	
		"/>
	<path fill="#F4F4F0" d="M278.5,364.2c17.4,0,30.7-13.3,30.7-29.5c0-16.2-13.2-29.5-30.7-29.5c-17.4,0-30.7,13.3-30.7,29.5
		C247.8,350.9,261,364.2,278.5,364.2z M278.5,316.6c10.1,0,18.2,8.1,18.2,18.2c0,10.1-8.1,18.2-18.2,18.2
		c-10.1,0-18.2-8.1-18.2-18.2C260.3,324.6,268.4,316.6,278.5,316.6z"/>
	<polygon fill="#F4F4F0" points="378.9,306.5 366.8,306.5 366.8,341.6 339.3,306.5 328.4,306.5 328.4,363 340.5,363 340.5,327.9 
		368,363 378.9,363 	"/>
	<path fill="#40E9B1" d="M177.2,176.7c-2.3-0.4-4.6-0.9-6.9-1.4c3.2,0.8,6.5,1.4,9.7,1.8C179,177,178.1,176.9,177.2,176.7z"/>
	<path fill="#40E9B1" d="M164.3,173.6c1.6,0.5,3.2,1,4.9,1.4c-0.5-0.1-1-0.3-1.4-0.4C166.6,174.3,165.5,174,164.3,173.6
		c-0.8-0.3-1.5-0.5-2.3-0.8c-0.2-0.1-0.3-0.1-0.5-0.2c-0.2-0.1-0.4-0.2-0.6-0.2c0.4,0.1,0.7,0.3,1.1,0.4
		C162.8,173.1,163.6,173.4,164.3,173.6z"/>
	<path fill="#40E9B1" d="M184.6,177.6c0.8,0,1.6,0.1,2.4,0.1c0.2,0,0.4,0,0.6,0c-0.2,0-0.4,0-0.6,0
		C186.2,177.7,185.4,177.6,184.6,177.6z"/>
	<path fill="#40E9B1" d="M285.5,114.7V90.2l0,0v0L259.8,72l-2.7-1.9v4.6h0v29.4h0v5c0,11.2-2.7,21.9-7.5,31.2l0,0c0,0,0,0,0,0
		c0,0-0.1,0.1-0.1,0.1c-0.9,1.7-1.8,3.4-2.9,5c-0.1,0.2-0.2,0.4-0.4,0.6c-0.1,0.2-0.3,0.4-0.5,0.7c-0.9,1.4-1.8,2.7-2.8,4
		c-0.2,0.2-0.4,0.5-0.5,0.7c-0.7,0.9-1.4,1.7-2.1,2.5c-1.8,2.1-3.7,4-5.7,5.9c-0.8,0.7-1.6,1.5-2.5,2.2c-0.1,0.1-0.3,0.2-0.4,0.3
		c-0.3,0.2-0.6,0.5-0.9,0.7c-0.6,0.4-1.1,0.9-1.7,1.3c-0.2,0.1-0.3,0.3-0.5,0.4c0.8-0.5,1.5-1.1,2.2-1.7c-1.4,1.1-2.9,2.2-4.5,3.2
		c0,0,0,0,0,0c0,0,0,0,0,0c-1,0.7-2.1,1.3-3.2,2c0,0,0,0,0,0c-0.4,0.2-0.7,0.4-1.1,0.6c-0.7,0.4-1.4,0.8-2.2,1.2
		c-0.5,0.3-1.1,0.6-1.7,0.8c-0.8,0.4-1.5,0.7-2.3,1c-0.4,0.2-0.7,0.3-1.1,0.5c-0.8,0.3-1.6,0.6-2.4,0.9c-0.7,0.2-1.3,0.5-2,0.7
		c-2.2,0.7-4.4,1.4-6.6,1.9c-3.1,0.7-6.2,1.2-9.4,1.4c3.2-0.3,6.3-0.7,9.4-1.4c-4.9,1.1-10.1,1.7-15.4,1.7h0c-0.5,0-0.9,0-1.4,0
		c-10.5-0.2-20.5-2.2-29.3-6.6c0,0,0,0,0,0c-0.1,0-0.1-0.1-0.2-0.1l-0.2-0.1l0,0l0,0l-0.1-0.1l-0.1-0.1c-0.4-0.2-0.9-0.4-1.3-0.6h0
		c0,0,0,0,0,0c0,0,0,0,0,0h0l-0.6-0.3l0,0l0,0l-14,19.3l0,0l0,0l-0.1,0.1l0,0l0,0l-1.3,1.7l-4.1,5.7c14.9,9.4,33.9,15,52.9,15
		C242,211.7,285.5,168.3,285.5,114.7z M212.4,173.4c2-0.7,3.9-1.6,5.8-2.5C216.3,171.9,214.4,172.7,212.4,173.4z"/>
	<path fill="#757575" d="M188.4,177.7L188.4,177.7c0,0-0.1,0-0.1,0c-0.2,0-0.5,0-0.7,0c-0.2,0-0.4,0-0.6,0c-0.8,0-1.6-0.1-2.4-0.1
		c-0.3,0-0.7,0-1-0.1c-0.1,0-0.2,0-0.3,0c-0.4,0-0.8-0.1-1.2-0.1c-0.7-0.1-1.5-0.1-2.2-0.2c-3.2-0.4-6.5-1-9.7-1.8
		c-0.3-0.1-0.6-0.1-0.9-0.2c-0.1,0-0.1,0-0.2,0c-1.7-0.4-3.3-0.9-4.9-1.4c-0.8-0.2-1.5-0.5-2.3-0.8c-0.4-0.1-0.7-0.3-1.1-0.4
		c0,0-0.1,0-0.1,0c-0.8-0.3-1.5-0.6-2.3-0.9c-0.4-0.2-0.7-0.3-1.1-0.5c0.1,0,0.1,0.1,0.2,0.1c0,0,0,0,0,0c8.8,4.4,18.9,6.5,29.3,6.6
		C187.5,177.7,188,177.7,188.4,177.7L188.4,177.7c5.3,0,10.4-0.6,15.4-1.7c-3.1,0.7-6.2,1.2-9.4,1.4c-1.7,0.1-3.4,0.2-5.2,0.3
		C189,177.7,188.7,177.7,188.4,177.7z"/>
	<path fill="#757575" d="M165.4,101.8c0.5,0.4,1,0.8,1.5,1.2c0.7,0.6,1.5,1.3,2.3,2c0.4,0.4,0.7,0.7,1.1,1.1c0,0,0,0,0,0l0,0
		l2.4-3.1l-0.2-0.1l-10.7-8.3l0,0l-2.6,3.4c0,0,0,0,0,0c0.2,0.1,0.5,0.2,0.8,0.4C161.3,99,163.2,100.1,165.4,101.8z"/>
	<polygon fill="#757575" points="155.7,170.2 155.7,170.2 155.7,170.2 155.7,170.2 178.6,140.6 177.7,141 177.5,141.1 177.4,141.2 
		177.4,141.2 177.4,141.2 155.1,169.8 155,169.8 155.7,170.1 155.7,170.1 155.7,170.1 	"/>
	<path fill="#757575" d="M230.8,163.1c-0.7,0.6-1.5,1.1-2.2,1.7c-0.7,0.5-1.5,1.1-2.3,1.6C227.9,165.3,229.4,164.2,230.8,163.1z"/>
	<path fill="#757575" d="M226.3,166.4c-1,0.7-2.1,1.3-3.2,2C224.2,167.7,225.2,167,226.3,166.4z"/>
	<path fill="#757575" d="M218.2,171c-1.9,0.9-3.8,1.7-5.8,2.5C214.4,172.7,216.3,171.9,218.2,171z"/>
	<path fill="#757575" d="M172.7,103L172.7,103l-2.4,3.1l0,0c0.1,0.1,0.3,0.3,0.4,0.5c0.1,0.1,0.1,0.1,0.2,0.2
		c0.2,0.2,0.4,0.4,0.6,0.7c0.2,0.2,0.4,0.4,0.5,0.6c0.6,0.8,1.2,1.5,1.7,2.3c0.1,0.2,0.2,0.3,0.4,0.5c0.2,0.2,0.3,0.5,0.5,0.7
		c0.7,1,1.3,2.2,1.8,3.4c0.1,0.3,0.3,0.6,0.4,0.9c0.4,1,0.8,1.9,1.1,3c0,0,0,0,0,0c0,0.1,0,0.1,0.1,0.2c0,0,0,0.1,0,0.1c0,0,0,0,0,0
		c0,0.1,0,0.1,0.1,0.2c0.2,0.6,0.4,1.3,0.5,1.9c0.1,0.3,0.1,0.6,0.2,0.9c0.1,0.7,0.3,1.4,0.4,2.2c0.4,2.9,0.4,6.2-0.1,9.8
		c-0.3,2.2-0.8,4.6-1.6,7.1l0,0l0,0l0,0l0,0l0.1,0l0.1,0l1-0.5l0,0l-22.9,29.6l0,0l1.3,0.6l0.1,0.1l0.1,0.1l0,0l0,0l0.2,0.1
		c0,0,0,0,0,0c0.4,0.2,0.7,0.3,1.1,0.5c0.8,0.3,1.5,0.6,2.3,0.9c0,0,0,0,0.1,0c0.2,0.1,0.4,0.2,0.6,0.2c0.2,0.1,0.3,0.1,0.5,0.2
		c0.7,0.3,1.5,0.5,2.3,0.8c1.1,0.4,2.3,0.7,3.5,1c0.5,0.1,1,0.3,1.4,0.4c0.1,0,0.1,0,0.2,0c0.3,0.1,0.6,0.1,0.9,0.2
		c2.3,0.6,4.6,1.1,6.9,1.4c1.7,0.3,3.3,0.5,5,0.7c0.4,0,0.8,0.1,1.2,0.1c0.1,0,0.2,0,0.3,0c1.2,0.1,2.3,0.1,3.5,0.2
		c0.4,0,0.9,0,1.3,0c0,0,0.1,0,0.1,0h0c0.3,0,0.5,0,0.8,0c5-0.1,9.9-0.6,14.6-1.7c2.2-0.5,4.5-1.1,6.6-1.9c0.7-0.2,1.3-0.5,2-0.7
		c0.8-0.3,1.6-0.6,2.4-0.9c0.4-0.2,0.7-0.3,1.1-0.5c0.8-0.3,1.5-0.7,2.3-1c0.6-0.3,1.1-0.5,1.7-0.8c0.7-0.4,1.5-0.8,2.2-1.2
		c0.4-0.2,0.7-0.4,1.1-0.6c0,0,0,0,0,0c1.1-0.6,2.1-1.3,3.2-2c0,0,0,0,0,0c0,0,0,0,0,0c0.8-0.5,1.5-1,2.3-1.6
		c0.2-0.1,0.3-0.3,0.5-0.4c0.6-0.4,1.2-0.9,1.7-1.3c0.3-0.2,0.6-0.5,0.9-0.7c0.1-0.1,0.3-0.2,0.4-0.3c0.9-0.7,1.7-1.4,2.5-2.2
		c2-1.8,3.9-3.8,5.7-5.9c0.7-0.8,1.4-1.7,2.1-2.5c0.2-0.2,0.4-0.5,0.5-0.7c1-1.3,1.9-2.6,2.8-4c0.1-0.2,0.3-0.4,0.5-0.7
		c0.1-0.2,0.2-0.4,0.4-0.6c1-1.6,2-3.3,2.9-5c0,0,0.1-0.1,0.1-0.1c0,0,0,0,0,0c4.8-9.4,7.5-20,7.5-31.2V82.3c0-0.5,0-1,0-1.5
		c0-1.5-0.1-3-0.2-4.5v0l0.2-1.5v-4.6l-43.2-30.6l-5.8-4.1l-49,62.4l0,0c0,0,0.1,0,0.3,0.1l2.6-3.4l9.4,7.2l1.3,1L172.7,103z"/>
	<path fill="#F4F4F0" d="M257,36.4L257,36.4L257,36.4l0,33.7l2.7,1.9l25.7,18.2v0V51.3l-0.8,0.8l0.5-15.6h0.3v-3.2
		c0-31.4-39.5-45.2-59.1-20.7L208,35.4l24.5,0.5L257,36.4z"/>
	<polygon fill="#F4F4F0" points="284.7,52.1 285.5,51.3 300.3,36.5 285.5,36.5 285.2,36.5 	"/>
	<path fill="#757575" d="M256.8,76.3c0.1,1.5,0.2,3,0.2,4.5c0,0.5,0,1,0,1.5v21.9h0V74.7h0L256.8,76.3L256.8,76.3z"/>
	<polygon fill="#010101" points="257,70.1 257,70.1 257,36.4 257,36.4 232.5,35.9 208,35.4 208,35.4 213.8,39.5 257,70.1 	"/>
	<path fill="#F4F4F0" d="M87.9,407.8c-1.1,1.1-1.7,2.6-1.7,4.3v1.8c0,1.8,0.6,3.2,1.7,4.3c1.1,1.1,2.6,1.7,4.5,1.7
		c1.9,0,3.4-0.6,4.5-1.7c1.1-1.1,1.7-2.5,1.7-4.3v-1.8c0-1.8-0.6-3.2-1.7-4.3c-1.1-1.1-2.6-1.7-4.6-1.7
		C90.5,406.2,89,406.7,87.9,407.8z"/>
	<polygon fill="#F4F4F0" points="119.7,397.3 119.7,400.4 123.8,401.1 123.8,432.2 119.7,432.9 119.7,436 132.7,436 132.7,432.9 
		128.7,432.2 128.7,397.3 	"/>
	<rect x="140.5" y="397.3" fill="#F4F4F0" width="4.9" height="5"/>
	<polygon fill="#F4F4F0" points="136.4,432.9 136.4,436 149.4,436 149.4,432.9 145.4,432.2 145.4,409.1 136.4,409.1 136.4,412.3 
		140.5,413 140.5,432.2 	"/>
	<polygon fill="#F4F4F0" points="160.8,409.1 150.4,409.1 150.4,412.3 152.6,412.7 161.8,436 165.5,436 174.5,412.7 176.7,412.3 
		176.7,409.1 166.3,409.1 166.3,412.3 169.6,412.8 164.2,428.1 163.7,430 163.6,430 163.1,428.1 157.6,412.8 160.8,412.3 	"/>
	<polygon fill="#F4F4F0" points="180.2,432.9 180.2,436 193.2,436 193.2,432.9 189.1,432.2 189.1,409.1 180.2,409.1 180.2,412.3 
		184.2,413 184.2,432.2 	"/>
	<rect x="184.2" y="397.3" fill="#F4F4F0" width="4.9" height="5"/>
	<path fill="#F4F4F0" d="M222.4,419.1c0-3.6-0.8-6.2-2.4-7.9c-1.6-1.7-3.8-2.5-6.7-2.5c-1.7,0-3.3,0.4-4.6,1.2
		c-1.4,0.8-2.5,1.9-3.4,3.3l-0.4-4h-8.4v3.2l4.1,0.7v19.2l-4.1,0.7v3.1h13v-3.1l-4.1-0.7v-15.8c0.7-1.2,1.5-2.1,2.6-2.8
		c1.1-0.7,2.3-1,3.7-1c1.9,0,3.4,0.5,4.3,1.5c0.9,1,1.4,2.7,1.4,5v13l-4,0.7v3.1h13v-3.1l-4-0.7V419.1z"/>
	<path fill="#F4F4F0" d="M251.8,435.7v-26.5h-4.1l-0.5,3.4c-0.8-1.3-1.9-2.2-3.2-2.9c-1.3-0.7-2.8-1-4.5-1c-3.3,0-5.9,1.3-7.8,4
		c-1.9,2.6-2.8,6.1-2.8,10.5v0.5c0,3.9,0.9,7,2.8,9.4c1.9,2.4,4.5,3.6,7.8,3.6c1.6,0,3-0.3,4.2-0.9c1.2-0.6,2.3-1.4,3.2-2.6v2.6
		c0,2.3-0.5,4-1.5,5.2c-1,1.2-2.6,1.8-4.8,1.8c-1.2,0-2.4-0.2-3.6-0.5c-1.2-0.3-2.3-0.7-3.2-1.2l-1.3,3.8c1.1,0.6,2.5,1.1,4,1.5
		c1.5,0.4,2.9,0.5,4.2,0.5c3.6,0,6.3-1,8.3-3C250.9,441.9,251.8,439.2,251.8,435.7z M246.9,428.7c-0.6,1.2-1.5,2.2-2.5,2.9
		c-1,0.7-2.2,1-3.7,1c-2.3,0-4.1-0.8-5.2-2.5c-1.1-1.6-1.7-3.8-1.7-6.5v-0.5c0-3.1,0.6-5.6,1.7-7.5c1.2-2,2.9-2.9,5.2-2.9
		c1.4,0,2.6,0.3,3.6,1c1,0.7,1.8,1.6,2.5,2.7V428.7z"/>
	<path fill="#F4F4F0" d="M273.9,407.8c-1.1,1.1-1.7,2.6-1.7,4.3v1.8c0,1.8,0.6,3.2,1.7,4.3c1.1,1.1,2.6,1.7,4.5,1.7
		c1.9,0,3.4-0.6,4.5-1.7c1.1-1.1,1.7-2.5,1.7-4.3v-1.8c0-1.8-0.6-3.2-1.7-4.3c-1.1-1.1-2.6-1.7-4.5-1.7
		C276.5,406.2,275,406.7,273.9,407.8z"/>
</g>
</svg>
