<?xml version="1.0" encoding="utf-8"?>
<!-- Generator: Adobe Illustrator 24.0.1, SVG Export Plug-In . SVG Version: 6.00 Build 0)  -->
<svg version="1.2" baseProfile="tiny" id="Capa_1" xmlns="http://www.w3.org/2000/svg" xmlns:xlink="http://www.w3.org/1999/xlink"
	 x="0px" y="0px" viewBox="-49 141 512 512" xml:space="preserve">
<g>
	<path d="M423,269H-9c-13.3,0-24,10.7-24,24v127.1c0,13.7,11.1,24.8,24.9,24.9h430.3c13.7,0,24.8-11.1,24.9-24.9V293
		C447,279.7,436.3,269,423,269z M431,420.1c0,4.9-4,8.9-8.9,8.9H-8.1c-4.9,0-8.9-4-8.9-8.9V293c0-4.4,3.6-8,8-8h432c4.4,0,8,3.6,8,8
		V420.1z"/>
	<path d="M399,373H15c-4.4,0-8,3.6-8,8v32c0,4.4,3.6,8,8,8h384c4.4,0,8-3.6,8-8v-32C407,376.6,403.4,373,399,373z M23,389h48v16H23
		V389z M87,389h48v16H87V389z M151,389h48v16h-48V389z M215,389h48v16h-48V389z M279,389h48v16h-48V389z M391,405h-48v-16h48V405z"
		/>
	<rect x="7" y="317" width="32" height="16"/>
	<rect x="55" y="317" width="16" height="16"/>
	<rect x="399" y="301" width="16" height="16"/>
	<rect x="399" y="325" width="16" height="16"/>
	<rect x="375" y="301" width="16" height="16"/>
	<path d="M52.7,466.7l-11.3-11.3c-12,11.3-12.5,30.1-1.2,42.1c0.4,0.4,0.8,0.8,1.2,1.2c2.1,1.6,3.2,4.1,3.1,6.7
		c-0.5,5.5-7.5,11.4-9.9,13L39,525l4.4,6.7c8.7-5.6,14.8-14.5,17-24.7c0.6-7.4-2.3-14.6-7.7-19.6c-5.7-5-6.3-13.7-1.2-19.5
		C51.8,467.5,52.2,467,52.7,466.7z"/>
	<path d="M116.7,466.7l-11.3-11.3c-12,11.3-12.5,30.1-1.2,42.1c0.4,0.4,0.8,0.8,1.2,1.2c2.1,1.6,3.2,4.1,3.1,6.7
		c-0.5,5.5-7.5,11.4-9.9,13l4.5,6.6l4.4,6.7c8.7-5.6,14.8-14.5,17-24.7c0.6-7.4-2.3-14.6-7.7-19.6c-5.7-5-6.3-13.7-1.2-19.5
		C115.8,467.5,116.2,467,116.7,466.7z"/>
	<path d="M180.7,466.7l-11.3-11.3c-12,11.3-12.5,30.1-1.2,42.1c0.4,0.4,0.8,0.8,1.2,1.2c2.1,1.6,3.2,4.1,3.1,6.7
		c-0.5,5.5-7.5,11.4-9.9,13l4.5,6.6l4.4,6.7c8.7-5.6,14.8-14.5,17-24.7c0.6-7.4-2.3-14.6-7.7-19.6c-5.7-5-6.3-13.7-1.2-19.5
		C179.8,467.5,180.2,467,180.7,466.7z"/>
	<path d="M244.7,466.7l-11.3-11.3c-12,11.3-12.5,30.1-1.2,42.1c0.4,0.4,0.8,0.8,1.2,1.2c2.1,1.6,3.2,4.1,3.1,6.7
		c-0.5,5.5-7.5,11.4-9.9,13l4.5,6.6l4.4,6.7c8.7-5.6,14.8-14.5,17-24.7c0.6-7.4-2.3-14.6-7.7-19.6c-5.7-5-6.3-13.7-1.2-19.5
		C243.8,467.5,244.2,467,244.7,466.7z"/>
	<path d="M308.7,466.7l-11.3-11.3c-12,11.3-12.5,30.1-1.2,42.1c0.4,0.4,0.8,0.8,1.2,1.2c2.1,1.6,3.2,4.1,3.1,6.7
		c-0.5,5.5-7.5,11.4-9.9,13l4.5,6.6l4.4,6.7c8.7-5.6,14.8-14.5,17-24.7c0.6-7.4-2.3-14.6-7.7-19.6c-5.7-5-6.3-13.7-1.2-19.5
		C307.8,467.5,308.2,467,308.7,466.7z"/>
	<path d="M372.7,466.7l-11.3-11.3c-12,11.3-12.5,30.1-1.2,42.1c0.4,0.4,0.8,0.8,1.2,1.2c2.1,1.6,3.2,4.1,3.1,6.7
		c-0.5,5.5-7.5,11.4-9.9,13l4.5,6.6l4.4,6.7c8.7-5.6,14.8-14.5,17-24.7c0.6-7.4-2.3-14.6-7.7-19.6c-5.7-5-6.3-13.7-1.2-19.5
		C371.8,467.5,372.2,467,372.7,466.7z"/>
</g>
</svg>
