<?xml version="1.0" encoding="utf-8"?>
<!-- Generator: Adobe Illustrator 24.0.1, SVG Export Plug-In . SVG Version: 6.00 Build 0)  -->
<svg version="1.2" baseProfile="tiny" id="Capa_1" xmlns="http://www.w3.org/2000/svg" xmlns:xlink="http://www.w3.org/1999/xlink"
	 x="0px" y="0px" viewBox="-49 141 512 512" xml:space="preserve">
<g>
	<g>
		<path fill="none" d="M343.1,365.8H101.5c-23.3,0-45.6,9.6-61.6,26.5c-16.1,16.9-24.5,39.6-23.3,62.9c3,46,41.5,81.5,87.6,80.8
			h269.5c6.7,0,13.1-2.8,17.6-7.8c4.6-5,6.8-11.7,6.1-18.4c-1.7-12.5-12.4-21.7-25-21.5H101.5c-10.6,0-20.6-4.5-27.7-12.3
			c-7.1-7.8-10.5-18.3-9.5-28.8c2.4-19.4,19-33.9,38.6-33.7h240.2c3.8,0,6.8,3,6.8,6.8c0,3.8-3,6.8-6.8,6.8H102.9
			c-12.6-0.3-23.4,9-25.1,21.4c-0.7,6.7,1.5,13.4,6,18.4c4.5,5,10.9,7.8,17.7,7.9h241.6c30.1,0,54.4-24.4,54.4-54.4
			C397.5,390.2,373.2,365.8,343.1,365.8z"/>
		<path fill="none" d="M28.7,384.5c0.5-0.5,0.9-1.1,1.4-1.5c18.5-19.7,44.4-30.8,71.5-30.7h241.6c16.7,0,32.8,6.2,45.2,17.4
			l-12-58.9c-6.8-31.3-34.5-53.6-66.5-53.8H111c-32,0.1-59.7,22.5-66.5,53.8L28.7,384.5z"/>
		<path d="M31.2,307.9l-26.3,123c0,0.2,0,0.3,0,0.5c-6.1,29.5,1.7,60.1,21,83.1c19.4,23,48.2,35.9,78.3,35.1h269.5
			c10.6,0,20.6-4.5,27.7-12.3c6.2-6.8,9.6-15.7,9.7-24.9v0c0-1.3,0-2.6-0.2-3.9c-1.8-15.8-13.3-28.8-28.8-32.5
			c22-15.4,32.9-42.3,27.7-68.7c0-0.1,0-0.1,0-0.2l-20.2-99.2c-8.2-37.6-41.4-64.5-79.8-64.6H111C72.5,243.5,39.3,270.4,31.2,307.9z
			 M397.5,420.3c0,30.1-24.4,54.4-54.4,54.4H101.5c-6.7,0-13.1-2.9-17.7-7.9c-4.5-5-6.7-11.7-6-18.4c1.7-12.5,12.5-21.7,25.1-21.4
			h240.2c3.8,0,6.8-3,6.8-6.8c0-3.8-3-6.8-6.8-6.8H102.9c-19.6-0.2-36.2,14.3-38.6,33.7c-1,10.5,2.4,21,9.5,28.8
			c7.1,7.8,17.2,12.3,27.7,12.3h270.9c12.6-0.3,23.4,9,25,21.5c0.7,6.7-1.5,13.4-6.1,18.4c-4.5,5-10.9,7.8-17.6,7.8H104.2
			c-46.1,0.8-84.6-34.8-87.6-80.8c-1.2-23.3,7.3-46,23.3-62.9c16.1-16.9,38.3-26.5,61.6-26.5h241.6
			C373.2,365.8,397.5,390.2,397.5,420.3z M111,257h198.8c32,0.1,59.7,22.5,66.5,53.8l12,58.9c-12.4-11.2-28.5-17.4-45.2-17.4H101.5
			c-27-0.1-52.9,11-71.5,30.7c-0.5,0.5-0.9,1-1.4,1.5l15.8-73.7C51.3,279.5,78.9,257.1,111,257z"/>
	</g>
	<path d="M63,321.7c0.5,0.1,0.9,0.1,1.4,0.1c3.2,0,6-2.3,6.6-5.4c4.1-18.8,20.7-32.2,39.9-32.3h55.2c3.8,0,6.8-3,6.8-6.8
		s-3-6.8-6.8-6.8H111c-25.6,0.1-47.8,18-53.2,43c-0.4,1.8,0,3.6,1,5.1C59.7,320.2,61.3,321.3,63,321.7L63,321.7z M63,321.7"/>
	<path d="M200.2,277.4c0,3.8-3,6.8-6.8,6.8c-3.8,0-6.8-3-6.8-6.8s3-6.8,6.8-6.8C197.1,270.6,200.2,273.6,200.2,277.4L200.2,277.4z
		 M200.2,277.4"/>
</g>
</svg>
