<?xml version="1.0" encoding="utf-8"?>
<!-- Generator: Adobe Illustrator 24.0.1, SVG Export Plug-In . SVG Version: 6.00 Build 0)  -->
<svg version="1.2" baseProfile="tiny" id="Capa_1" xmlns="http://www.w3.org/2000/svg" xmlns:xlink="http://www.w3.org/1999/xlink"
	 x="0px" y="0px" viewBox="-49 141 512 512" xml:space="preserve">
<g>
	<path d="M28.6,227.8v183.8c0,5.3,4.3,9.7,9.7,9.7h336.7c5.3,0,9.7-4.3,9.7-9.7V227.8c0-5.3-4.3-9.7-9.7-9.7H38.3
		C33,218.1,28.6,222.5,28.6,227.8z M40.5,230h332.3v179.5H40.5V230z"/>
	<path d="M206.6,257c-34.8,0-63.1,28.3-63.1,63.1s28.3,63.1,63.1,63.1s63.1-28.3,63.1-63.1S241.4,257,206.6,257z M206.6,371.3
		c-28.2,0-51.2-23-51.2-51.2c0-28.2,23-51.2,51.2-51.2s51.2,23,51.2,51.2S234.8,371.3,206.6,371.3z"/>
	<path d="M230.7,312.5L196.2,293c-5.6-3.2-12.3,1.1-12.3,7.6v38.9c0,6.5,6.8,10.7,12.3,7.6l17.7-10l0,0l16.8-9.5
		C236.5,324.4,236.5,315.8,230.7,312.5z M195.7,333.9v-27.5l24.4,13.8L195.7,333.9z"/>
	<path d="M394.3,532.9v-7.4c0-9.9-7.1-18.1-16.5-19.9c4.2-5.3,6.8-11.9,6.8-19.2c0-16.9-13.7-30.7-30.6-30.7s-30.6,13.8-30.6,30.7
		c0,7.3,2.5,13.9,6.8,19.2c-9.4,1.7-16.5,10-16.5,19.9v7.4c-3.3,0.5-6.3,2-8.7,4.2c-2.4-2.1-5.4-3.6-8.7-4.2v-7.4
		c0-9.9-7.1-18.1-16.5-19.9c4.2-5.3,6.8-11.9,6.8-19.2c0-16.9-13.7-30.7-30.6-30.7s-30.6,13.8-30.6,30.7c0,7.3,2.5,13.9,6.8,19.2
		c-9.4,1.7-16.5,10-16.5,19.9v7.4c-3.3,0.5-6.3,2-8.7,4.2c-2.4-2.1-5.4-3.6-8.7-4.2v-7.4c0-9.9-7.1-18.1-16.5-19.9
		c4.2-5.3,6.8-11.9,6.8-19.2c0-16.9-13.7-30.7-30.6-30.7c-16.9,0-30.6,13.8-30.6,30.7c0,7.3,2.5,13.9,6.8,19.2
		c-9.4,1.7-16.5,10-16.5,19.9v7.4c-3.3,0.5-6.3,2-8.7,4.2c-2.4-2.1-5.4-3.6-8.7-4.2v-7.4c0-9.9-7.1-18.1-16.5-19.9
		c4.2-5.3,6.8-11.9,6.8-19.2c0-16.9-13.7-30.7-30.6-30.7c-16.9,0-30.6,13.8-30.6,30.7c0,7.3,2.5,13.9,6.8,19.2
		c-9.4,1.7-16.5,10-16.5,19.9v7.4c-8.3,1.4-14.6,8.6-14.6,17.3v36.6c0,6.7,5.4,12.1,12.1,12.1h84.9c2.4,0,4.7-0.7,6.6-1.9
		c1.9,1.2,4.1,1.9,6.5,1.9h85.4c2.3,0,4.5-0.7,6.4-1.8c1.8,1.1,4,1.8,6.3,1.8h86.4c2.1,0,4-0.6,5.7-1.5c1.7,1,3.8,1.5,5.9,1.5h83.6
		c7.8,0,14.1-6.3,14.1-14.1v-34.6C408.9,541.5,402.6,534.3,394.3,532.9z M354,467.6c10.3,0,18.7,8.5,18.7,18.9
		c0,10.4-8.4,18.9-18.7,18.9s-18.7-8.5-18.7-18.9C335.3,476,343.7,467.6,354,467.6z M325.5,525.5c0-4.6,3.7-8.4,8.3-8.4h40.3
		c4.6,0,8.3,3.8,8.3,8.4v7.2h-56.9L325.5,525.5L325.5,525.5z M256,467.6c10.3,0,18.7,8.5,18.7,18.9c0,10.4-8.4,18.9-18.7,18.9
		c-10.3,0-18.7-8.5-18.7-18.9C237.3,476,245.7,467.6,256,467.6z M227.5,525.5c0-4.6,3.7-8.4,8.3-8.4h40.3c4.6,0,8.3,3.8,8.3,8.4v7.2
		h-56.9L227.5,525.5L227.5,525.5z M158,467.6c10.3,0,18.7,8.5,18.7,18.9c0,10.4-8.4,18.9-18.7,18.9c-10.3,0-18.7-8.5-18.7-18.9
		C139.3,476,147.7,467.6,158,467.6z M129.5,525.5c0-4.6,3.7-8.4,8.3-8.4h40.3c4.6,0,8.3,3.8,8.3,8.4v7.2h-56.9L129.5,525.5
		L129.5,525.5z M60,467.6c10.3,0,18.7,8.5,18.7,18.9c0,10.4-8.4,18.9-18.7,18.9c-10.3,0-18.7-8.5-18.7-18.9
		C41.3,476,49.7,467.6,60,467.6z M31.5,525.5c0-4.6,3.7-8.4,8.3-8.4h40.3c4.6,0,8.3,3.8,8.3,8.4v7.2H31.5V525.5z M102.1,587.1H17.2
		c-0.2,0-0.3-0.1-0.3-0.3v-36.6c0-3.1,2.5-5.7,5.6-5.7c9.3,0,67.4,0,74.9,0c3.1,0,5.6,2.5,5.6,5.7v35.9
		C103.1,586.7,102.6,587.1,102.1,587.1z M200.6,587.1h-85.4c-0.2,0-0.3-0.1-0.3-0.3c0-8,0-28,0-36.6c0-3.1,2.5-5.7,5.6-5.7
		c7.6,0,65.7,0,74.9,0c3.1,0,5.6,2.5,5.6,5.7v36.4C201.1,586.9,200.9,587.1,200.6,587.1z M299.1,587.1h-85.9c-0.2,0-0.3-0.1-0.3-0.3
		v-0.2v-36.4c0-3.1,2.5-5.7,5.6-5.7c7.6,0,65.7,0,74.9,0c3.1,0,5.6,2.5,5.6,5.7v36.6L299.1,587.1L299.1,587.1z M397.1,584.8
		c0,1.3-1,2.3-2.3,2.3h-83.6c-0.2,0-0.3-0.1-0.3-0.3v-36.6c0-3.1,2.5-5.7,5.6-5.7c9.3,0,67.4,0,74.9,0c3.1,0,5.6,2.5,5.6,5.7
		L397.1,584.8L397.1,584.8z"/>
	<path d="M393.5,195.1H220.8c-3.3,0-5.9,2.6-5.9,5.9c0,3.3,2.6,5.9,5.9,5.9h172.7c1.9,0,3.5,1.6,3.5,3.5v95.5c0,3.3,2.6,5.9,5.9,5.9
		s5.9-2.6,5.9-5.9v-95.5C408.9,202,402,195.1,393.5,195.1z"/>
	<path d="M403,327.6c-3.3,0-5.9,2.6-5.9,5.9V429c0,1.9-1.6,3.5-3.5,3.5H20.5c-1.9,0-3.5-1.6-3.5-3.5V210.5c0-1.9,1.6-3.5,3.5-3.5
		h172.7c3.3,0,5.9-2.6,5.9-5.9c0-3.3-2.6-5.9-5.9-5.9H20.5c-8.5,0-15.4,6.9-15.4,15.4V429c0,8.5,6.9,15.4,15.4,15.4h373.1
		c8.5,0,15.4-6.9,15.4-15.4v-95.5C408.9,330.3,406.3,327.6,403,327.6z"/>
</g>
</svg>
