<?xml version="1.0" encoding="utf-8"?>
<!-- Generator: Adobe Illustrator 24.0.1, SVG Export Plug-In . SVG Version: 6.00 Build 0)  -->
<svg version="1.2" baseProfile="tiny" id="Capa_1" xmlns="http://www.w3.org/2000/svg" xmlns:xlink="http://www.w3.org/1999/xlink"
	 x="0px" y="0px" viewBox="-49 141 512 512" xml:space="preserve">
<g>
	<path d="M397.7,546.9l-14.1-39.6c17.4-21.7,22.2-50.9,12.9-77.1c-9.4-26.2-31.6-45.7-58.8-51.5l-34.1-95.5h10.6
		c33.3,0,60.2-27,60.2-60.2v-6.7c0-11.1-9-20.1-20.1-20.1s-20.1,9-20.1,20.1v6.7c0,11.1-9,20.1-20.1,20.1h-46.9
		c-10.1,0-18.7,7.5-19.9,17.6c-1.3,10.1,5.2,19.5,15,22l12.7,35.6l-106.2,96.1l-56.8-3.5l-5-0.3c-0.1,0-0.3,0-0.4,0
		c-0.5,0-1,0-1.5,0l-28.8-73.7h17c11.1,0,20.1-9,20.1-20.1v-1.8c0-10-7.4-18.4-17.2-19.9l-66.9-9.6c-5.8-0.8-11.6,0.9-16,4.7
		c-4.4,3.8-6.9,9.3-6.9,15.2v11.3c0,11.1,9,20.1,20.1,20.1h8.8l35.4,90.6c-8.3,10-12.1,23-10.4,35.8c1.7,12.9,8.6,24.5,19.1,32.1
		l-54.2,49c-10.6,0.7-18.8,9.4-18.9,20v13.4c0,11.1,9,20.1,20.1,20.1h13.4c11.1,0,20.1-9,20.1-20.1h294.5c0,11.1,9,20.1,20.1,20.1
		h13.4c11.1,0,20.1-9,20.1-20.1v-13.4C407.8,557.1,403.9,550.5,397.7,546.9L397.7,546.9z M371.6,413.6c18.8,21.9,21.5,53.5,6.5,78.3
		l-34.9-97.8C354.1,398,363.9,404.8,371.6,413.6L371.6,413.6z M382.5,544.2h-8.2c-1.4,0-2.8,0.1-4.2,0.4l-93.4-261.5h12.6
		L382.5,544.2z M346.7,519c-29.6,12.4-64,2.1-81.7-24.7l56-3.5c5,0,9.9-1.2,14.4-3.4L346.7,519z M297.2,380.4
		c-20.3,6.3-37.2,20.2-47.3,38.9l-27.4-1.7l66.2-60.8L297.2,380.4z M301.7,393.1l10.8,30.2l-47.5-3
		C273.7,407.2,286.7,397.5,301.7,393.1L301.7,393.1z M267.2,256.4h46.9c18.5,0,33.4-15,33.5-33.5v-6.7c0-3.7,3-6.7,6.7-6.7
		c3.7,0,6.7,3,6.7,6.7v6.7c0,25.9-21,46.8-46.9,46.9h-46.9c-3.7,0-6.7-3-6.7-6.7C260.5,259.4,263.5,256.4,267.2,256.4L267.2,256.4z
		 M279.9,331.8l4,11.3l-79.8,73.4l-16.6-1L279.9,331.8z M19.6,316.7v-11.3c0-3.7,3-6.7,6.7-6.7c0.3,0,0.7,0,1,0.1l66.9,9.6
		c3.3,0.5,5.7,3.3,5.7,6.6v1.8c0,3.7-3,6.7-6.7,6.7H26.3C22.6,323.4,19.6,320.4,19.6,316.7L19.6,316.7z M61.9,336.8l29.8,76.1
		c-3.7,1.2-7.2,2.9-10.4,5l-31.7-81.1H61.9z M73.1,457.2c0-18.4,14.9-33.3,33.3-33.5l211,13.2l13.4,37.6c-3.1,1.8-6.5,2.7-10.1,2.7
		c-0.1,0-0.3,0-0.4,0l-188.9,11.8l-10-18.5c6.5-7.3,6.9-18.2,0.8-25.8c-6-7.7-16.7-9.9-25.3-5.2c-8.6,4.7-12.5,14.8-9.4,24
		c3.1,9.2,12.5,14.9,22.1,13.3l7,13l-5.6,0.3l-4.8,0.3C88,490.6,73.2,475.6,73.1,457.2L73.1,457.2z M106.6,463.9
		c-2.7,0-5.1-1.6-6.2-4.1c-1-2.5-0.5-5.4,1.5-7.3c1.9-1.9,4.8-2.5,7.3-1.5c2.5,1,4.1,3.5,4.1,6.2
		C113.3,460.9,110.3,463.9,106.6,463.9L106.6,463.9z M106.6,504.1c0.1,0,0.3,0,0.4,0l1.8-0.1l-52.9,48.6c-2.8-3.9-6.9-6.6-11.5-7.8
		L92,501.8C96.7,503.3,101.7,504.1,106.6,504.1L106.6,504.1z M46.4,577.7c0,3.7-3,6.7-6.7,6.7H26.3c-3.7,0-6.7-3-6.7-6.7v-13.4
		c0-3.7,3-6.7,6.7-6.7h13.4c3.7,0,6.7,3,6.7,6.7V577.7z M63,564.3l62.8-57.7l6.9,12.7l-5.9,3.2c-1.6,0.8-2.8,2.3-3.3,4
		c-0.5,1.7-0.3,3.6,0.5,5.1c0.9,1.6,2.3,2.7,4,3.2c1.7,0.5,3.6,0.3,5.1-0.6l23.5-12.8c1.6-0.8,2.8-2.3,3.3-4
		c0.5-1.7,0.3-3.6-0.5-5.1c-0.9-1.6-2.3-2.7-4-3.2c-1.7-0.5-3.6-0.3-5.1,0.6l-5.9,3.2l-5.8-10.8l111.4-7
		c19.4,36.3,63.1,52,101.2,36.4l7.3,20.4c-2.8,3.5-4.3,7.9-4.3,12.3H63z M394.4,577.7c0,3.7-3,6.7-6.7,6.7h-13.4
		c-3.7,0-6.7-3-6.7-6.7v-13.4c0-3.7,3-6.7,6.7-6.7h13.4c3.7,0,6.7,3,6.7,6.7V577.7z M394.4,577.7"/>
</g>
</svg>
