<?xml version="1.0" encoding="utf-8"?>
<!-- Generator: Adobe Illustrator 24.0.1, SVG Export Plug-In . SVG Version: 6.00 Build 0)  -->
<svg version="1.2" baseProfile="tiny" id="Capa_1" xmlns="http://www.w3.org/2000/svg" xmlns:xlink="http://www.w3.org/1999/xlink"
	 x="0px" y="0px" viewBox="-49 141 512 512" xml:space="preserve">
<g>
	<path d="M45.1,520.8c-6.2,0-12.2,1.4-17.6,4.1c-53.1-75.3-53.3-178.4,0.4-253.9c3-4.2,2-10-2.2-13c-4.2-3-10-2-13,2.2
		c-29.7,41.6-44.9,90.8-44,142.2c0.8,48.9,16.2,95.3,44.5,134.6c-11.2,15.4-9.9,37.2,4,51.1c7.7,7.7,17.8,11.5,27.9,11.5
		s20.2-3.8,27.9-11.5l0,0c15.4-15.4,15.4-40.4,0-55.8C65.5,524.9,55.6,520.8,45.1,520.8z M59.8,575c-8.1,8.1-21.3,8.1-29.4,0
		c-8.1-8.1-8.1-21.3,0-29.4c3.9-3.9,9.2-6.1,14.7-6.1s10.8,2.2,14.7,6.1C67.9,553.6,67.9,566.8,59.8,575z"/>
	<path d="M335.5,576.6c-26.6,19.2-56.5,32-88.9,37.9c-7.5,1.4-15.2-0.6-21-5.5c-5.8-4.8-9.1-11.9-9.1-19.5v-68.2h0.8
		c10.8,0,19.5-8.8,19.5-19.5v-15.7c31.5-12,54-42.6,54-78.3v-44.1c15-4.1,26.1-17.8,26.1-34.1c0-17.9-13.4-32.8-30.7-35.1v-58
		c0-15.4-12.5-27.9-27.9-27.9s-27.9,12.5-27.9,27.9V294h-46.5v-57.7c0-15.4-12.5-27.9-27.9-27.9s-27.9,12.5-27.9,27.9v58
		c-17.3,2.3-30.7,17.1-30.7,35.1c0,16.3,11.1,30,26.1,34.1v44.1c0,35.7,22.5,66.3,54,78.3v15.7c0,10.8,8.8,19.5,19.5,19.5h1v68.2
		c0,13.1,5.8,25.4,15.8,33.8c8,6.7,18,10.3,28.3,10.3c2.7,0,5.3-0.2,8-0.7c35.1-6.4,67.6-20.2,96.5-41.1c4.2-3,5.1-8.8,2.1-13
		C345.5,574.5,339.6,573.6,335.5,576.6z M248.9,236.3c0-5.1,4.2-9.3,9.3-9.3c5.1,0,9.3,4.2,9.3,9.3V294h-18.6V236.3z M146.5,236.3
		c0-5.1,4.2-9.3,9.3-9.3c5.1,0,9.3,4.2,9.3,9.3V294h-18.6V236.3z M115.8,329.4c0-9.2,7.5-16.8,16.8-16.8h148.9
		c9.2,0,16.8,7.5,16.8,16.8c0,9.2-7.5,16.8-16.8,16.8H132.5C123.3,346.2,115.8,338.7,115.8,329.4z M141.8,407.6v-42.8h130.3v42.8
		c0,35.9-29.2,65.2-65.2,65.2S141.8,443.5,141.8,407.6z M195.8,501.6v-11c3.7,0.5,7.4,0.7,11.2,0.7c3.8,0,7.5-0.3,11.2-0.7v11
		c0,0.5-0.4,0.9-0.9,0.9h-9.9c-0.1,0-0.2,0-0.2,0c-0.1,0-0.2,0-0.2,0h-10.1C196.2,502.6,195.8,502.1,195.8,501.6z"/>
	<path d="M362.3,553.7c-0.1,0.1-0.1,0.1-0.2,0.2c-3.5,3.8-3.3,9.6,0.5,13.2c1.8,1.7,4.1,2.5,6.3,2.5c2.4,0,4.8-0.9,6.6-2.8
		c0.1-0.1,0.1-0.1,0.2-0.2c3.5-3.8,3.3-9.6-0.5-13.2C371.6,550,365.8,550.1,362.3,553.7z"/>
	<path d="M444.7,380.9c-4.1-57-28.7-110.7-69.2-151.1c-39.8-39.8-92.9-64.1-149.6-68.5C170,156.9,114.2,172.1,69,204
		c-4.2,3-5.2,8.8-2.2,13c3,4.2,8.8,5.2,13,2.2c86.5-61.1,207.9-50.9,282.6,23.7c77.1,77.1,86.5,196.9,22.2,284.8c-3,4.1-2.1,10,2,13
		c1.7,1.2,3.6,1.8,5.5,1.8c2.9,0,5.7-1.3,7.5-3.8C432.8,493.4,448.8,437.3,444.7,380.9z"/>
	<path d="M43.8,247c2.4,0,4.8-0.9,6.6-2.8l0.2-0.2c3.6-3.7,3.6-9.5-0.1-13.2c-3.7-3.6-9.5-3.6-13.2,0.1l-0.2,0.2
		c-3.6,3.7-3.6,9.5,0.1,13.2C39.1,246.1,41.5,247,43.8,247z"/>
	<path d="M208.8,447.5l19.3-34c1.6-2.9,1.6-6.4-0.1-9.3s-4.7-4.6-8-4.6h-6.7l12.3-15.5c3.2-4,2.5-9.9-1.5-13.1
		c-4-3.2-9.9-2.5-13.1,1.5l-24.2,30.6c-2.2,2.8-2.6,6.6-1.1,9.8s4.8,5.3,8.4,5.3h9.9l-11.4,20.1c-2.5,4.5-1,10.2,3.5,12.7
		c1.5,0.8,3,1.2,4.6,1.2C203.9,452.2,207.1,450.5,208.8,447.5z"/>
</g>
</svg>
