<?xml version="1.0" encoding="utf-8"?>
<!-- Generator: Adobe Illustrator 24.0.1, SVG Export Plug-In . SVG Version: 6.00 Build 0)  -->
<svg version="1.2" baseProfile="tiny" id="Capa_1" xmlns="http://www.w3.org/2000/svg" xmlns:xlink="http://www.w3.org/1999/xlink"
	 x="0px" y="0px" viewBox="-49 141 512 512" xml:space="preserve">
<g>
	<path d="M328.2,326.9V206.7c0-12.4-10.1-22.4-22.5-22.5H108.3c-12.4,0-22.4,10.1-22.5,22.5v120.2c0,6.3,2.7,12.4,7.4,16.6
		c-4.7,4.2-7.4,10.3-7.4,16.6v203.4c0,12.4,10.1,22.4,22.5,22.5h3v17.9c0,3.2,2.6,5.8,5.8,5.8h41.6c3.2,0,5.8-2.6,5.8-5.8v-17.9
		h84.8v17.9c0,3.2,2.6,5.8,5.8,5.8h41.6c3.2,0,5.8-2.6,5.8-5.8v-17.9h3c12.4,0,22.4-10.1,22.5-22.5V360.2c0-6.3-2.7-12.4-7.4-16.6
		C325.5,339.3,328.2,333.3,328.2,326.9L328.2,326.9z M152.9,598.1H123v-12h29.9V598.1z M291,598.1h-29.9v-12H291V598.1z
		 M316.5,360.2v203.4c0,6-4.8,10.8-10.8,10.8H108.3c-6,0-10.8-4.8-10.8-10.8V360.2c0-6,4.8-10.8,10.8-10.8h197.4
		C311.7,349.4,316.5,354.2,316.5,360.2L316.5,360.2z M108.3,337.8c-6,0-10.8-4.8-10.8-10.8V206.7c0-6,4.8-10.8,10.8-10.8h197.4
		c6,0,10.8,4.8,10.8,10.8v120.2c0,6-4.8,10.8-10.8,10.8H108.3z M108.3,337.8"/>
	<path d="M289,226.1h-21.6c-3.2,0-5.8,2.6-5.8,5.8v69.9c0,3.2,2.6,5.8,5.8,5.8H289c3.2,0,5.8-2.6,5.8-5.8v-69.9
		C294.9,228.7,292.3,226.1,289,226.1L289,226.1z M283.2,295.9h-10v-58.2h10V295.9z M283.2,295.9"/>
	<path d="M267.4,452.6H289c3.2,0,5.8-2.6,5.8-5.8v-69.9c0-3.2-2.6-5.8-5.8-5.8h-21.6c-3.2,0-5.8,2.6-5.8,5.8v69.9
		C261.6,450,264.2,452.6,267.4,452.6L267.4,452.6z M273.2,382.7h10v58.2h-10V382.7z M273.2,382.7"/>
</g>
</svg>
