<?xml version="1.0" encoding="utf-8"?>
<!-- Generator: Adobe Illustrator 24.0.1, SVG Export Plug-In . SVG Version: 6.00 Build 0)  -->
<svg version="1.2" baseProfile="tiny" id="Capa_1" xmlns="http://www.w3.org/2000/svg" xmlns:xlink="http://www.w3.org/1999/xlink"
	 x="0px" y="0px" viewBox="-49 141 512 512" xml:space="preserve">
<g>
	<path d="M261.1,474.3h-23.2v-69.5c0-21.3-17.3-38.6-38.6-38.6H44.7c-21.3,0-38.6,17.3-38.6,38.6v69.5h-23.2c-4.3,0-7.7,3.5-7.7,7.7
		v108.2c0,4.3,3.5,7.7,7.7,7.7h7.7v23.2c0,4.3,3.5,7.7,7.7,7.7h30.9c4.3,0,7.7-3.5,7.7-7.7v-23.2h170v23.2c0,4.3,3.5,7.7,7.7,7.7
		h30.9c4.3,0,7.7-3.5,7.7-7.7v-23.2h7.7c4.3,0,7.7-3.5,7.7-7.7V482C268.8,477.7,265.4,474.3,261.1,474.3z M21.6,404.7
		c0-12.8,10.4-23.2,23.2-23.2h154.5c12.8,0,23.2,10.4,23.2,23.2v69.5h-23.2c-4.3,0-7.7,3.5-7.7,7.7v38.6H52.5V482
		c0-4.3-3.5-7.7-7.7-7.7H21.6V404.7z M-9.3,489.7H37v92.7H-9.3V489.7z M21.6,613.3H6.1v-15.5h15.5V613.3z M52.5,536.1h139.1v46.4
		H52.5V536.1z M237.9,613.3h-15.5v-15.5h15.5V613.3z M253.4,582.4H207v-92.7h46.4V582.4z"/>
	<path d="M438.4,294.2l-38.6-123.6c-1-3.2-4-5.4-7.4-5.4h-61.8c-3.4,0-6.4,2.2-7.4,5.4l-38.6,123.6c-1.3,4.1,1,8.4,5.1,9.7
		c0.8,0.2,1.5,0.4,2.3,0.4h61.8v278.2h-54.1c-4.3,0-7.7,3.5-7.7,7.7v30.9c0,4.3,3.5,7.7,7.7,7.7h123.6c4.3,0,7.7-3.5,7.7-7.7v-30.9
		c0-4.3-3.5-7.7-7.7-7.7h-54.1V304.3h61.8c4.3,0,7.7-3.5,7.7-7.7C438.8,295.8,438.7,295,438.4,294.2z M415.6,597.9v15.5H307.4v-15.5
		H415.6z M302.5,288.8l33.8-108.2h50.5l33.8,108.2H302.5z"/>
	<path d="M230.2,196.1h-66.8l-36.5-29.2c-2.8-2.3-6.8-2.3-9.7,0l-36.5,29.2H13.8v139.1h216.3V196.1z M122,182.8l16.6,13.3h-33.2
		L122,182.8z M214.7,319.7H29.3V211.6h185.4V319.7z"/>
	<path d="M37,312h170v-92.7H37V312z M52.5,234.7h139.1v61.8H52.5V234.7z"/>
</g>
</svg>
