<?xml version="1.0" encoding="utf-8"?>
<!-- Generator: Adobe Illustrator 24.0.1, SVG Export Plug-In . SVG Version: 6.00 Build 0)  -->
<svg version="1.2" baseProfile="tiny" id="Capa_1" xmlns="http://www.w3.org/2000/svg" xmlns:xlink="http://www.w3.org/1999/xlink"
	 x="0px" y="0px" viewBox="-49 141 512 512" xml:space="preserve">
<g>
	<path d="M86.7,579.4V214.6c0-5,4.1-9,9-9h222.4c5,0,9,4.1,9,9v364.7c0,5-4.1,9-9,9H95.8C90.8,588.4,86.7,584.3,86.7,579.4
		L86.7,579.4z M97.5,216.4v361.3h219V216.4H97.5z M97.5,216.4"/>
	<path d="M86.7,397c0-3,2.4-5.4,5.4-5.4h229.7c3,0,5.4,2.4,5.4,5.4c0,3-2.4,5.4-5.4,5.4H92.1C89.2,402.4,86.7,400,86.7,397L86.7,397
		z M86.7,397"/>
	<path d="M128.4,282.6V211c0-3,2.4-5.4,5.4-5.4h146.4c3,0,5.4,2.4,5.4,5.4v71.6c0,7.2-5.8,13-13,13H141.4
		C134.2,295.6,128.4,289.8,128.4,282.6L128.4,282.6z M139.2,216.4v66.2c0,1.2,1,2.2,2.2,2.2h131.2c1.2,0,2.2-1,2.2-2.2v-66.2H139.2z
		 M139.2,216.4"/>
	<path d="M158.6,234.9v-24c0-3,2.4-5.4,5.4-5.4h86.1c3,0,5.4,2.4,5.4,5.4v24c0,7.2-5.8,13-13,13h-70.9
		C164.4,247.9,158.6,242.1,158.6,234.9L158.6,234.9z M169.3,216.4v18.6c0,1.2,1,2.2,2.2,2.2h70.9c1.2,0,2.2-1,2.2-2.2v-18.6H169.3z
		 M169.3,216.4"/>
	<path d="M175.8,211v-15c0-6.1,5-11.1,11.1-11.1h40.3c6.1,0,11.1,5,11.1,11.1v15c0,3-2.4,5.4-5.4,5.4h-51.7
		C178.2,216.4,175.8,213.9,175.8,211L175.8,211z M227.5,196c0-0.2-0.1-0.3-0.3-0.3h-40.3c-0.2,0-0.3,0.1-0.3,0.3v9.6h40.9V196z
		 M227.5,196"/>
	<path d="M172.9,290.2c0-3,2.4-5.4,5.4-5.4h57.4c3,0,5.4,2.4,5.4,5.4c0,14.4-15.3,26-34.1,26C188.2,316.3,172.9,304.6,172.9,290.2
		L172.9,290.2z M228.8,295.6h-43.6c3.4,5.7,12,9.9,21.8,9.9C216.8,305.5,225.4,301.3,228.8,295.6L228.8,295.6z M228.8,295.6"/>
	<path d="M128.4,583v-71.6c0-7.2,5.8-13,13-13h131.2c7.2,0,13,5.8,13,13V583c0,3-2.4,5.4-5.4,5.4H133.8
		C130.8,588.4,128.4,586,128.4,583L128.4,583z M274.8,511.4c0-1.2-1-2.2-2.2-2.2H141.4c-1.2,0-2.2,1-2.2,2.2v66.2h135.7V511.4z
		 M274.8,511.4"/>
	<path d="M175.8,598v-15c0-3,2.4-5.4,5.4-5.4h51.7c3,0,5.4,2.4,5.4,5.4v15c0,6.1-5,11.1-11.1,11.1h-40.3
		C180.8,609.1,175.8,604.1,175.8,598L175.8,598z M186.5,588.4v9.6c0,0.2,0.1,0.3,0.3,0.3h40.3c0.2,0,0.3-0.1,0.3-0.3v-9.6H186.5z
		 M186.5,588.4"/>
	<path d="M172.9,503.8c0-14.4,15.3-26,34.1-26c18.8,0,34.1,11.7,34.1,26c0,3-2.4,5.4-5.4,5.4h-57.4
		C175.3,509.2,172.9,506.8,172.9,503.8L172.9,503.8z M228.8,498.4c-3.4-5.7-12-9.9-21.8-9.9c-9.8,0-18.4,4.2-21.8,9.9H228.8z
		 M228.8,498.4"/>
	<path d="M172.9,397c0-18.8,15.3-34.1,34.1-34.1c18.8,0,34.1,15.3,34.1,34.1c0,18.8-15.3,34.1-34.1,34.1
		C188.2,431.1,172.9,415.8,172.9,397L172.9,397z M230.3,397c0-12.9-10.5-23.3-23.3-23.3c-12.9,0-23.3,10.5-23.3,23.3
		c0,12.9,10.5,23.3,23.3,23.3C219.9,420.3,230.3,409.9,230.3,397L230.3,397z M230.3,397"/>
	<path d="M158.6,583v-24c0-7.2,5.8-13,13-13h70.9c7.2,0,13,5.8,13,13v24c0,3-2.4,5.4-5.4,5.4h-86.1C161,588.4,158.6,586,158.6,583
		L158.6,583z M244.7,559.1c0-1.2-1-2.2-2.2-2.2h-70.9c-1.2,0-2.2,1-2.2,2.2v18.6h75.4V559.1z M244.7,559.1"/>
	<path d="M64.3,609.3V184.7c0-7,5.7-12.7,12.7-12.7H337c7,0,12.7,5.7,12.7,12.7v424.7c0,7-5.7,12.7-12.7,12.7H77
		C70,622,64.3,616.3,64.3,609.3L64.3,609.3z M338.9,184.7c0-1.1-0.9-1.9-1.9-1.9H77c-1.1,0-1.9,0.9-1.9,1.9v424.7
		c0,1.1,0.9,1.9,1.9,1.9H337c1.1,0,1.9-0.9,1.9-1.9V184.7z M338.9,184.7"/>
</g>
</svg>
