<?xml version="1.0" encoding="utf-8"?>
<!-- Generator: Adobe Illustrator 24.0.1, SVG Export Plug-In . SVG Version: 6.00 Build 0)  -->
<svg version="1.2" baseProfile="tiny" id="Capa_1" xmlns="http://www.w3.org/2000/svg" xmlns:xlink="http://www.w3.org/1999/xlink"
	 x="0px" y="0px" viewBox="-49 141 512 512" xml:space="preserve">
<g>
	<path d="M402.4,434c-3.2,0-5.7-2.6-5.7-5.7v-16.9c0-7.7,11.5-7.7,11.5,0v16.9C408.1,431.4,405.5,434,402.4,434L402.4,434z
		 M402.4,434"/>
	<path d="M402.4,598.1H11.6c-3.2,0-5.7-2.6-5.7-5.7V201.6c0-3.2,2.6-5.7,5.7-5.7h390.7c3.2,0,5.7,2.6,5.7,5.7V314
		c0,7.7-11.5,7.7-11.5,0V207.4H17.4v379.2h379.2V468.5c0-7.7,11.5-7.7,11.5,0v123.9C408.1,595.5,405.5,598.1,402.4,598.1
		L402.4,598.1z M402.4,598.1"/>
	<path d="M402.4,376.9c-3.2,0-5.7-2.6-5.7-5.7v-16.9c0-7.7,11.5-7.7,11.5,0v16.9C408.1,374.3,405.5,376.9,402.4,376.9L402.4,376.9z
		 M402.4,376.9"/>
	<path d="M304.7,500.4H109.3c-3.2,0-5.7-2.6-5.7-5.7V299.3c0-3.2,2.6-5.7,5.7-5.7h195.4c3.2,0,5.7,2.6,5.7,5.7v195.4
		C310.4,497.9,307.9,500.4,304.7,500.4L304.7,500.4z M115.1,488.9h183.9V305.1H115.1V488.9z M115.1,488.9"/>
	<path d="M367.9,563.6H46.1c-3.2,0-5.7-2.6-5.7-5.7V236.1c0-3.2,2.6-5.7,5.7-5.7h321.8c3.2,0,5.7,2.6,5.7,5.7v321.8
		C373.6,561.1,371.1,563.6,367.9,563.6L367.9,563.6z M51.9,552.1h310.3V241.9H51.9V552.1z M51.9,552.1"/>
	<path d="M56.4,287.8c-4.1,0-8.1-0.6-12-1.8c-7.3-2.3-3.9-13.3,3.4-11c2.8,0.9,5.7,1.3,8.6,1.3c16.5,0,29.9-13.4,29.9-29.9
		c0-2.9-0.4-5.8-1.3-8.6c-2.3-7.3,8.7-10.8,11-3.4c1.2,3.9,1.8,7.9,1.8,12C97.8,269.3,79.3,287.8,56.4,287.8L56.4,287.8z
		 M56.4,287.8"/>
	<path d="M357.6,287.8c-22.9,0-41.4-18.6-41.4-41.4c0-4.1,0.6-8.1,1.8-12c2.3-7.3,13.3-3.9,11,3.4c-0.9,2.8-1.3,5.7-1.3,8.6
		c0,16.5,13.4,29.9,29.9,29.9c2.9,0,5.8-0.4,8.6-1.3c7.3-2.3,10.8,8.7,3.4,11C365.7,287.2,361.7,287.8,357.6,287.8L357.6,287.8z
		 M357.6,287.8"/>
	<path d="M90.5,563.6c-0.6,0-1.2-0.1-1.7-0.3c-3-1-4.7-4.2-3.8-7.2c0.9-2.8,1.3-5.7,1.3-8.6c0-16.5-13.4-29.9-29.9-29.9
		c-2.9,0-5.8,0.4-8.6,1.3c-7.3,2.3-10.8-8.7-3.4-11c3.9-1.2,7.9-1.8,12-1.8c22.9,0,41.4,18.6,41.4,41.4c0,4.1-0.6,8.1-1.8,12
		C95.3,562,93,563.6,90.5,563.6L90.5,563.6z M90.5,563.6"/>
	<path d="M323.5,563.6c-2.5,0-4.7-1.6-5.5-4c-1.2-3.9-1.8-7.9-1.8-12c0-22.9,18.6-41.4,41.4-41.4c4.1,0,8.1,0.6,12,1.8
		c7.3,2.3,3.9,13.3-3.4,11c-2.8-0.9-5.7-1.3-8.6-1.3c-16.5,0-29.9,13.4-29.9,29.9c0,2.9,0.4,5.8,1.3,8.6
		C330.1,559.9,327.4,563.6,323.5,563.6L323.5,563.6z M323.5,563.6"/>
	<path d="M136.1,331.8c-1.5,0-3-0.6-4.1-1.7l-26.8-26.7c-5.2-5.4,2.7-13.4,8.1-8.1l26.7,26.8C143.7,325.6,141.2,331.8,136.1,331.8
		L136.1,331.8z M136.1,331.8"/>
	<path d="M147.4,359.2c-4.3,0-8.6-1.3-12.1-3.7c-8-5.3-11.5-15.2-8.7-24.4c2.8-9.2,11.2-15.4,20.8-15.4c9.6,0,18,6.3,20.8,15.4
		c2.8,9.2-0.7,19.1-8.7,24.4C155.9,357.9,151.7,359.2,147.4,359.2L147.4,359.2z M147.4,327.1c-2,0-4,0.6-5.7,1.7
		c-3.8,2.5-5.5,7.2-4.2,11.5c1.3,4.3,5.3,7.3,9.8,7.3s8.5-3,9.8-7.3c1.3-4.3-0.4-9-4.2-11.5C151.4,327.7,149.4,327.1,147.4,327.1
		L147.4,327.1z M147.4,327.1"/>
	<path d="M277.9,331.8c-5.1,0-7.7-6.2-4.1-9.8l26.7-26.8c5.4-5.2,13.4,2.7,8.1,8.1L282,330.1C280.9,331.2,279.5,331.8,277.9,331.8
		L277.9,331.8z M277.9,331.8"/>
	<path d="M266.6,359.2c-4.3,0-8.6-1.3-12.1-3.7c-10-6.7-12.6-20.2-5.9-30.2c6.7-10,20.2-12.6,30.2-5.9c6,4,9.6,10.8,9.6,18.1
		c0,7.3-3.6,14-9.6,18.1C275.2,357.9,270.9,359.2,266.6,359.2L266.6,359.2z M266.6,327.1c-2,0-4,0.6-5.7,1.7
		c-3.8,2.5-5.5,7.2-4.2,11.5c1.3,4.3,5.3,7.3,9.8,7.3c4.5,0,8.5-3,9.8-7.3c1.3-4.3-0.4-9-4.2-11.5
		C270.6,327.7,268.6,327.1,266.6,327.1L266.6,327.1z M266.6,327.1"/>
	<path d="M109.3,500.4c-5.1,0-7.7-6.2-4.1-9.8l26.8-26.7c2.2-2.3,5.9-2.3,8.2-0.1c2.3,2.3,2.2,6-0.1,8.2l-26.7,26.8
		C112.3,499.8,110.8,500.4,109.3,500.4L109.3,500.4z M109.3,500.4"/>
	<path d="M147.4,478.4c-4.3,0-8.6-1.3-12.1-3.7c-7.9-5.3-11.5-15.2-8.7-24.4c2.8-9.2,11.2-15.4,20.8-15.4c9.6,0,18,6.3,20.8,15.4
		c2.8,9.2-0.7,19.1-8.7,24.4C155.9,477.1,151.7,478.4,147.4,478.4L147.4,478.4z M147.4,446.3c-2,0-4,0.6-5.7,1.7
		c-2.9,1.9-4.6,5.1-4.6,8.6c0,3.5,1.7,6.7,4.6,8.6c4.7,3,11,1.7,14.1-3c3.1-4.7,1.8-11-2.8-14.2
		C151.4,446.9,149.4,446.3,147.4,446.3L147.4,446.3z M147.4,446.3"/>
	<path d="M304.7,500.4c-1.5,0-3-0.6-4.1-1.7L273.9,472c-5.2-5.4,2.7-13.4,8.1-8.1l26.8,26.7C312.4,494.2,309.8,500.4,304.7,500.4
		L304.7,500.4z M304.7,500.4"/>
	<path d="M266.6,478.4c-4.3,0-8.5-1.3-12.1-3.7c-7.9-5.3-11.5-15.2-8.7-24.4c2.8-9.2,11.2-15.4,20.8-15.4c9.6,0,18,6.3,20.8,15.4
		c2.8,9.2-0.7,19.1-8.7,24.4C275.2,477.1,270.9,478.4,266.6,478.4L266.6,478.4z M266.6,446.3c-2,0-4,0.6-5.7,1.7
		c-4.6,3.2-5.9,9.5-2.8,14.2c3.1,4.7,9.4,6,14.1,3c2.9-1.9,4.6-5.1,4.6-8.6c0-3.5-1.7-6.7-4.6-8.6
		C270.6,446.9,268.6,446.3,266.6,446.3L266.6,446.3z M266.6,446.3"/>
	<path d="M186.4,423.4c-5.1,0-7.7-6.2-4.1-9.8l41.3-41.3c5.4-5,13.1,2.7,8.1,8.1l-41.3,41.3C189.3,422.8,187.9,423.4,186.4,423.4
		L186.4,423.4z M186.4,423.4"/>
	<path d="M227.6,423.4c-1.5,0-3-0.6-4.1-1.7l-41.3-41.3c-5-5.4,2.7-13.1,8.1-8.1l41.3,41.3C235.3,417.2,232.8,423.4,227.6,423.4
		L227.6,423.4z M227.6,423.4"/>
</g>
</svg>
