<?xml version="1.0" encoding="utf-8"?>
<!-- Generator: Adobe Illustrator 24.0.1, SVG Export Plug-In . SVG Version: 6.00 Build 0)  -->
<svg version="1.2" baseProfile="tiny" id="Capa_1" xmlns="http://www.w3.org/2000/svg" xmlns:xlink="http://www.w3.org/1999/xlink"
	 x="0px" y="0px" viewBox="-49 141 512 512" xml:space="preserve">
<g>
	<circle cx="348.5" cy="401" r="8"/>
	<circle cx="64.5" cy="401" r="8"/>
	<circle cx="208.5" cy="541" r="8"/>
	<path d="M199.6,465h-67.9v-8c0-15.8,14.4-29,29.7-43c12.7-11.6,27-24.8,27-35.8c0-14.1-11.9-20.4-20.4-20.4
		c-7.1,0-23.5,2.3-23.5,23.5c0,4.4-3.6,8-8,8s-8-3.6-8-8c0-29.2,21.3-39.5,39.5-39.5c17.9,0,36.4,13.6,36.4,36.4
		c0,18.1-16.4,33.1-32.2,47.6c-8.3,7.6-17.3,15.9-21.8,23.2h49.1c4.4,0,8,3.6,8,8S204,465,199.6,465z"/>
	<path d="M263,465c-4.4,0-8-3.6-8-8v-24h-40c-2.9,0-5.6-1.6-7-4.1c-1.4-2.6-1.3-5.7,0.2-8.1l48-76c1.9-3,5.6-4.4,9-3.4
		c3.4,1,5.8,4.1,5.8,7.7v68h16c4.4,0,8,3.6,8,8s-3.6,8-8,8h-16v24C271,461.4,267.4,465,263,465z M229.5,417H255v-40.4L229.5,417z"/>
	<path d="M207,601C94.5,601,3,509.5,3,397c0-112.5,91.5-204,204-204c45.7,0,88.9,14.8,124.9,42.7c5.2,4.1,6.2,11.6,2.1,16.8
		s-11.6,6.2-16.8,2.1C285.4,230,247.3,217,207,217c-99.3,0-180,80.7-180,180s80.7,180,180,180s180-80.7,180-180c0-6.6,5.4-12,12-12
		s12,5.4,12,12C411,509.5,319.5,601,207,601z"/>
	<path d="M343,277h-56c-6.6,0-12-5.4-12-12s5.4-12,12-12h44v-44.6c0-6.6,5.4-12,12-12s12,5.4,12,12V265C355,271.6,349.6,277,343,277
		z"/>
	<circle cx="208.5" cy="261" r="8"/>
</g>
</svg>
