<?xml version="1.0" encoding="utf-8"?>
<!-- Generator: Adobe Illustrator 24.0.1, SVG Export Plug-In . SVG Version: 6.00 Build 0)  -->
<svg version="1.2" baseProfile="tiny" id="Capa_1" xmlns="http://www.w3.org/2000/svg" xmlns:xlink="http://www.w3.org/1999/xlink"
	 x="0px" y="0px" viewBox="-49 141 512 512" xml:space="preserve">
<g>
	<g>
		<path fill="none" d="M303.3,266.3l3.1-6.2c5.6-11.2,16.4-19,28.8-20.8c6.4-0.9,9.2-7,9.2-13c0-5.9-4.8-10.7-10.7-10.7H147.3v25.3
			h31.8c10.4,0,18.8,8.4,18.8,18.8c0,3.6,2.9,6.5,6.5,6.5H303.3z"/>
		<path fill="none" d="M179.2,253.2H170c-2.2,16.3-6.4,32.2-12.6,47.2c-3,7.2-6.5,14.3-10.3,21.1c-2.4,4.3,3.5,9,7.1,5.4
			c4.1-4.2,7.9-8.8,11.4-13.6c10.1-13.8,17.3-29.4,21.6-46.4c-0.9-2.2-1.4-4.6-1.4-7.2C185.7,256.2,182.8,253.2,179.2,253.2z"/>
		<path fill="none" d="M309.4,315.4c0-1.1-0.9-2.1-2.1-2.1h-53.6c-3.4,0-6.2-2.8-6.2-6.2c0-3.4,2.8-6.2,6.2-6.2H301v-22.4h-86.6V301
			h14.7c3.4,0,6.2,2.8,6.2,6.2c0,3.4-2.8,6.2-6.2,6.2H208c-1.1,0-2.1,0.9-2.1,2.1v20.5c0,1.1,0.9,2.1,2.1,2.1h99.4
			c1.1,0,2.1-0.9,2.1-2.1h0V315.4z"/>
		<path fill="none" d="M133,203.3h-8.2c-1.1,0-2.1,0.9-2.1,2.1v45.9c0,1.1,0.9,2.1,2.1,2.1h8.2c1.1,0,2.1-0.9,2.1-2.1v-45.9
			C135,204.2,134.1,203.3,133,203.3z"/>
		<path fill="none" d="M261.4,462.8l-3.7-10.1l-3.7,10.1c-1,2.8-3.3,5-6.1,6.1l-10.1,3.7l10.1,3.7c2.8,1,5,3.3,6.1,6.1l3.7,10.1
			l3.7-10.1c1-2.8,3.3-5,6.1-6.1l10.1-3.7l-10.1-3.7C264.6,467.8,262.4,465.6,261.4,462.8z"/>
		<path fill="none" d="M257.6,419.6c-29.2,0-53,23.8-53,53s23.8,53,53,53c29.2,0,53-23.8,53-53S286.9,419.6,257.6,419.6z
			 M287.1,482.2l-14.5,5.3l-5.3,14.5c-1.5,4.1-5.3,6.7-9.6,6.7c-4.4,0-8.1-2.6-9.6-6.7l-5.3-14.5l-14.5-5.3
			c-4.1-1.5-6.7-5.3-6.7-9.6c0-4.3,2.6-8.1,6.7-9.6l14.5-5.3l5.3-14.5c1.5-4.1,5.3-6.7,9.6-6.7c0,0,0,0,0,0c4.3,0,8.1,2.6,9.6,6.7
			l5.3,14.5l14.5,5.3c4.1,1.5,6.7,5.3,6.7,9.6C293.8,477,291.1,480.7,287.1,482.2z"/>
		<path d="M287.1,463l-14.5-5.3l-5.3-14.5c-1.5-4.1-5.3-6.7-9.6-6.7c0,0,0,0,0,0c-4.3,0-8.1,2.6-9.6,6.7l-5.3,14.5l-14.5,5.3
			c-4.1,1.5-6.7,5.3-6.7,9.6c0,4.4,2.6,8.1,6.7,9.6l14.5,5.3L248,502c1.5,4.1,5.3,6.7,9.6,6.7c4.3,0,8.1-2.6,9.6-6.7l5.3-14.5
			l14.5-5.3c4.1-1.5,6.7-5.3,6.7-9.6C293.8,468.3,291.1,464.5,287.1,463z M267.5,476.3c-2.8,1-5,3.3-6.1,6.1l-3.7,10.1l-3.7-10.1
			c-1-2.8-3.3-5-6.1-6.1l-10.1-3.7l10.1-3.7c2.8-1,5-3.3,6.1-6.1l3.7-10.1l3.7,10.1c1,2.8,3.3,5,6.1,6.1l10.1,3.7L267.5,476.3z"/>
		<path d="M349.6,568.2v-49.5c0-3.4-2.8-6.2-6.2-6.2c-3.4,0-6.2,2.8-6.2,6.2v49.5c0,14.7-12,26.7-26.7,26.7H204.7
			c-14.7,0-26.7-12-26.7-26.7V429.6c0-30.6,13.2-59.4,36.3-79.3H301c23.1,19.9,36.3,48.7,36.3,79.3v64.5c0,3.4,2.8,6.2,6.2,6.2
			c3.4,0,6.2-2.8,6.2-6.2v-64.5c0-31-12.2-60.4-33.7-82.2c3.5-2.6,5.8-6.8,5.8-11.5v-20.5c0-5.8-3.5-10.8-8.4-13.1v-28.4l4.1-8.3
			c3.8-7.6,11.1-12.9,19.6-14.1c11.9-1.7,19.8-13,19.8-25.2c0-12.7-10.3-23-23-23H147.2c-1-7-7-12.3-14.2-12.3h-8.2
			c-7.9,0-14.4,6.4-14.4,14.4v45.9c0,7.9,6.4,14.4,14.4,14.4h8.2c7.2,0,13.2-5.4,14.2-12.3h10.3c-2.1,14.7-6,28.9-11.6,42.5
			c-2.8,6.7-6,13.3-9.7,19.7c-2.3,3.9-2.8,8.5-1.6,12.9c2,7.2,8.8,12.2,16.2,12.2c4.4,0,8.8-1.8,12-5.1c4.5-4.6,8.7-9.7,12.5-14.9
			c9.6-13.1,16.8-27.7,21.7-43.5c1.5,0.7,3.2,1.1,4.9,1.4v23.9c-5,2.3-8.4,7.3-8.4,13.1v20.5c0,4.7,2.3,8.9,5.8,11.5
			c-21.6,21.8-33.7,51.2-33.7,82.2v138.7c0,21.5,17.5,39,39,39h105.9C332.1,607.3,349.6,589.8,349.6,568.2z M135,251.2
			c0,1.1-0.9,2.1-2.1,2.1h-8.2c-1.1,0-2.1-0.9-2.1-2.1v-45.9c0-1.1,0.9-2.1,2.1-2.1h8.2c1.1,0,2.1,0.9,2.1,2.1V251.2z M307.3,338
			H208c-1.1,0-2.1-0.9-2.1-2.1v-20.5c0-1.1,0.9-2.1,2.1-2.1h21.1c3.4,0,6.2-2.8,6.2-6.2c0-3.4-2.8-6.2-6.2-6.2h-14.7v-22.4H301V301
			h-47.3c-3.4,0-6.2,2.8-6.2,6.2c0,3.4,2.8,6.2,6.2,6.2h53.6c1.1,0,2.1,0.9,2.1,2.1v20.5h0C309.4,337,308.5,338,307.3,338z
			 M165.5,313.3c-3.5,4.8-7.3,9.4-11.4,13.6c-3.5,3.7-9.5-1.1-7.1-5.4c3.9-6.8,7.4-13.9,10.3-21.1c6.2-15.1,10.5-30.9,12.6-47.2h9.2
			c3.6,0,6.5,2.9,6.5,6.5c0,2.5,0.5,5,1.4,7.2C182.8,283.9,175.5,299.5,165.5,313.3z M198,259.7c0-10.4-8.4-18.8-18.8-18.8h-31.8
			v-25.3h186.4c5.9,0,10.7,4.8,10.7,10.7c0,6-2.8,12.1-9.2,13c-12.4,1.8-23.2,9.6-28.8,20.8l-3.1,6.2h-98.8
			C200.9,266.3,198,263.3,198,259.7z"/>
		<path d="M257.6,407.3c-36,0-65.3,29.3-65.3,65.3s29.3,65.3,65.3,65.3s65.3-29.3,65.3-65.3S293.7,407.3,257.6,407.3z M257.6,525.6
			c-29.2,0-53-23.8-53-53s23.8-53,53-53s53,23.8,53,53S286.9,525.6,257.6,525.6z"/>
		<path d="M66.6,272.1l14-8.4c2.9-1.7,3.9-5.5,2.1-8.5c-1.7-2.9-5.5-3.9-8.5-2.1l-14,8.4c-2.9,1.7-3.9,5.5-2.1,8.5
			C59.9,272.9,63.7,273.8,66.6,272.1z"/>
		<path d="M77.4,223.7h-14c-3.4,0-6.2,2.8-6.2,6.2s2.8,6.2,6.2,6.2h14c3.4,0,6.2-2.8,6.2-6.2S80.8,223.7,77.4,223.7z"/>
		<path d="M60.2,198.2l14,8.4c2.9,1.7,6.7,0.8,8.5-2.1c1.7-2.9,0.8-6.7-2.1-8.4l-14-8.4c-2.9-1.7-6.7-0.8-8.5,2.1
			C56.4,192.7,57.3,196.4,60.2,198.2z"/>
	</g>
</g>
</svg>
