<?xml version="1.0" encoding="utf-8"?>
<!-- Generator: Adobe Illustrator 24.0.1, SVG Export Plug-In . SVG Version: 6.00 Build 0)  -->
<svg version="1.2" baseProfile="tiny" id="Capa_1" xmlns="http://www.w3.org/2000/svg" xmlns:xlink="http://www.w3.org/1999/xlink"
	 x="0px" y="0px" viewBox="-49 141 512 512" xml:space="preserve">
<g>
	<path d="M348.9,184.2H65.1c-19.6,0-35.4,15.9-35.5,35.5v340.5c0,11.8,9.5,21.3,21.3,21.3v21.3c0,3.9,3.2,7.1,7.1,7.1h298
		c3.9,0,7.1-3.2,7.1-7.1v-21.3c11.8,0,21.3-9.5,21.3-21.3V219.6C384.3,200.1,368.5,184.2,348.9,184.2L348.9,184.2z M65.1,198.4
		h283.8c11.8,0,21.3,9.5,21.3,21.3v49.7H43.8v-49.7C43.8,207.9,53.4,198.4,65.1,198.4L65.1,198.4z M348.9,595.6H65.1v-14.2h283.8
		V595.6z M363.1,567.3H50.9c-3.9,0-7.1-3.2-7.1-7.1V283.5h326.3v276.7C370.2,564.1,367,567.3,363.1,567.3L363.1,567.3z M363.1,567.3
		"/>
	<path d="M65.1,255.1h85.1c3.9,0,7.1-3.2,7.1-7.1v-28.4c0-3.9-3.2-7.1-7.1-7.1H65.1c-3.9,0-7.1,3.2-7.1,7.1V248
		C58,251.9,61.2,255.1,65.1,255.1L65.1,255.1z M72.2,226.7h70.9v14.2H72.2V226.7z M72.2,226.7"/>
	<path d="M192.8,255.1c11.8,0,21.3-9.5,21.3-21.3c0-11.8-9.5-21.3-21.3-21.3c-11.8,0-21.3,9.5-21.3,21.3
		C171.5,245.6,181.1,255.1,192.8,255.1L192.8,255.1z M192.8,226.7c3.9,0,7.1,3.2,7.1,7.1c0,3.9-3.2,7.1-7.1,7.1
		c-3.9,0-7.1-3.2-7.1-7.1C185.7,229.9,188.9,226.7,192.8,226.7L192.8,226.7z M192.8,226.7"/>
	<path d="M249.6,255.1c11.8,0,21.3-9.5,21.3-21.3c0-11.8-9.5-21.3-21.3-21.3c-11.8,0-21.3,9.5-21.3,21.3
		C228.3,245.6,237.8,255.1,249.6,255.1L249.6,255.1z M249.6,226.7c3.9,0,7.1,3.2,7.1,7.1c0,3.9-3.2,7.1-7.1,7.1
		c-3.9,0-7.1-3.2-7.1-7.1C242.5,229.9,245.6,226.7,249.6,226.7L249.6,226.7z M249.6,226.7"/>
	<path d="M292.1,240.9h14.2c3.9,0,7.1-3.2,7.1-7.1c0-3.9-3.2-7.1-7.1-7.1h-14.2c-3.9,0-7.1,3.2-7.1,7.1
		C285,237.8,288.2,240.9,292.1,240.9L292.1,240.9z M292.1,240.9"/>
	<path d="M334.7,240.9h14.2c3.9,0,7.1-3.2,7.1-7.1c0-3.9-3.2-7.1-7.1-7.1h-14.2c-3.9,0-7.1,3.2-7.1,7.1
		C327.6,237.8,330.8,240.9,334.7,240.9L334.7,240.9z M334.7,240.9"/>
	<path d="M207,311.9c-62.7,0-113.5,50.8-113.5,113.5S144.3,538.9,207,538.9c62.7,0,113.5-50.8,113.5-113.5
		C320.4,362.7,269.7,311.9,207,311.9L207,311.9z M207,524.7c-54.8,0-99.3-44.5-99.3-99.3c0-54.9,44.5-99.3,99.3-99.3
		c54.9,0,99.3,44.5,99.3,99.3C306.3,480.2,261.8,524.6,207,524.7L207,524.7z M207,524.7"/>
	<path d="M207,333.2c-50.9,0-92.2,41.2-92.2,92c0,12.1,2.3,24,6.9,35.2c0,0.1,0,0.3,0.1,0.4c0.1,0.1,0.2,0.3,0.3,0.4
		c19.8,46.9,73.8,68.9,120.7,49.1c26.2-11.1,45.9-33.6,53.3-61.1c0-0.1,0.1-0.2,0.1-0.4c13.2-49-15.9-99.4-64.9-112.6
		C223.3,334.2,215.2,333.1,207,333.2L207,333.2z M207,347.3c43-0.1,77.9,34.7,78,77.7c0,5.8-0.6,11.6-1.9,17.3
		c-3.7,1.2-7.3,2.6-10.9,4.3c-9.2,4.8-19.4,7.3-29.8,7.2c-8.8,0.2-17.6-2-25.2-6.4c-9.6-5.4-20.5-8.1-31.5-7.8
		c-18,0.7-35.8,4.1-52.9,9.9c-13.4-40.9,9-84.9,49.9-98.3C190.5,348.6,198.7,347.3,207,347.3L207,347.3z M207,503.4
		c-28.6,0-54.9-15.7-68.6-40.8c15.3-5.2,31.2-8.2,47.3-8.9c8.8-0.2,17.6,2,25.2,6.4c9.6,5.4,20.5,8.1,31.5,7.8
		c11.9,0.1,23.7-2.7,34.4-7.9C263.7,486.6,236.6,503.4,207,503.4L207,503.4z M207,503.4"/>
</g>
</svg>
