<?xml version="1.0" encoding="utf-8"?>
<!-- Generator: Adobe Illustrator 24.0.1, SVG Export Plug-In . SVG Version: 6.00 Build 0)  -->
<svg version="1.2" baseProfile="tiny" id="Capa_1" xmlns="http://www.w3.org/2000/svg" xmlns:xlink="http://www.w3.org/1999/xlink"
	 x="0px" y="0px" viewBox="-49 141 512 512" xml:space="preserve">
<g>
	<path d="M396.9,244.5H98.3c-3.4,0-6.1,2.7-6.1,6.1c0,3.4,2.7,6.1,6.1,6.1h193.3v41.2c0,3.4,2.7,6.1,6.1,6.1c3.4,0,6.1-2.7,6.1-6.1
		v-41.2h93.1c3.4,0,6.1,2.7,6.1,6.1v244c0,3.4-2.7,6.1-6.1,6.1h-93.1V324.4c0-3.4-2.7-6.1-6.1-6.1c-3.4,0-6.1,2.7-6.1,6.1v188.5
		H17.1c-3.4,0-6.1-2.7-6.1-6.1v-244c0-3.4,2.7-6.1,6.1-6.1h54.6c3.4,0,6.1-2.7,6.1-6.1c0-3.4-2.7-6.1-6.1-6.1H17.1
		c-10.1,0-18.3,8.2-18.3,18.3v244c0,10.1,8.2,18.3,18.3,18.3h11.6v2c0,12.3,10,22.4,22.4,22.4h24.4c12.3,0,22.4-10,22.4-22.4v-2
		h218.4v2c0,12.3,10,22.4,22.4,22.4H363c12.3,0,22.4-10,22.4-22.4v-2h11.6c10.1,0,18.3-8.2,18.3-18.3v-244
		C415.2,252.7,407,244.5,396.9,244.5L396.9,244.5z M85.6,527.1c0,5.6-4.6,10.2-10.2,10.2H51c-5.6,0-10.2-4.6-10.2-10.2v-2h44.7
		V527.1z M373.1,527.1c0,5.6-4.6,10.2-10.2,10.2h-24.4c-5.6,0-10.2-4.6-10.2-10.2v-2h44.7V527.1z M373.1,527.1"/>
	<path d="M31.3,283.1v203.3c0,3.4,2.7,6.1,6.1,6.1h227.7c3.4,0,6.1-2.7,6.1-6.1V283.1c0-3.4-2.7-6.1-6.1-6.1H37.4
		C34.1,277,31.3,279.8,31.3,283.1L31.3,283.1z M43.5,480.4V455h215.5v25.3H43.5z M259.1,289.2v153.6h-49.2c2.8-3.8,4.8-8.3,5.7-13.3
		l4.7-28.4c0.2-4.2-1.8-6.6-6-7.1h-49.6c-3.4,0-6.1,2.7-6.1,6.1c0,3.4,2.7,6.1,6.1,6.1H207l-3.6,21.3c-1.5,8.9-9.1,15.3-18,15.3
		h-68.3c-9,0-16.6-6.4-18-15.3l-3.6-21.3H138c3.4,0,6.1-2.7,6.1-6.1c0-3.4-2.7-6.1-6.1-6.1H88.4c-4.2,0.5-6.2,2.9-6,7.1l4.7,28.4
		c0.8,5,2.8,9.5,5.7,13.3H43.5V289.2H259.1z M259.1,289.2"/>
	<path d="M373.7,362.4c3.4,0,6.1-2.7,6.1-6.1v-73.2c0-3.4-2.7-6.1-6.1-6.1h-40.7c-3.4,0-6.1,2.7-6.1,6.1v73.2c0,3.4,2.7,6.1,6.1,6.1
		H373.7z M339.2,289.2h28.5v61h-28.5V289.2z M339.2,289.2"/>
	<path d="M353.4,431.6c14.6,0,26.4-11.9,26.4-26.4s-11.9-26.4-26.4-26.4c-14.6,0-26.4,11.9-26.4,26.4S338.8,431.6,353.4,431.6
		L353.4,431.6z M353.4,390.9c7.8,0,14.2,6.4,14.2,14.2c0,7.8-6.4,14.2-14.2,14.2c-7.8,0-14.2-6.4-14.2-14.2
		C339.2,397.3,345.5,390.9,353.4,390.9L353.4,390.9z M353.4,390.9"/>
	<path d="M333.1,463.2h40.7c3.4,0,6.1-2.7,6.1-6.1c0-3.4-2.7-6.1-6.1-6.1h-40.7c-3.4,0-6.1,2.7-6.1,6.1
		C327,460.4,329.7,463.2,333.1,463.2L333.1,463.2z M333.1,463.2"/>
	<path d="M333.1,492.6h40.7c3.4,0,6.1-2.7,6.1-6.1s-2.7-6.1-6.1-6.1h-40.7c-3.4,0-6.1,2.7-6.1,6.1S329.7,492.6,333.1,492.6
		L333.1,492.6z M333.1,492.6"/>
	<path d="M166,346.3c7.8,6.8,7.4,8.8,0.2,15.1c-2.5,2.2-2.8,6.1-0.5,8.6c2.8,2.6,5.7,2.7,8.6,0.5c12.6-11.1,12-22.8-0.3-33.5
		c-8-6.9-7.1-8.9,0.2-15.2c2.6-2.2,2.9-6,0.7-8.6c-2.2-2.6-6-2.9-8.6-0.7C153.4,323.5,153.4,335.3,166,346.3L166,346.3z M166,346.3"
		/>
	<path d="M128.5,346.3c7.8,6.8,7.4,8.8,0.2,15.1c-2.5,2.2-2.8,6.1-0.5,8.6c2.8,2.6,5.7,2.7,8.6,0.5c12.6-11.1,12-22.8-0.3-33.5
		c-8-6.9-7.1-8.9,0.2-15.2c2.6-2.2,2.9-6,0.7-8.6c-2.2-2.6-6-2.9-8.6-0.7C115.9,323.5,115.9,335.3,128.5,346.3L128.5,346.3z
		 M128.5,346.3"/>
</g>
</svg>
