<?xml version="1.0" encoding="utf-8"?>
<!-- Generator: Adobe Illustrator 24.0.1, SVG Export Plug-In . SVG Version: 6.00 Build 0)  -->
<svg version="1.2" baseProfile="tiny" id="Capa_1" xmlns="http://www.w3.org/2000/svg" xmlns:xlink="http://www.w3.org/1999/xlink"
	 x="0px" y="0px" viewBox="-49 141 512 512" xml:space="preserve">
<g>
	<path d="M402.3,494.7c11.5,0,20.9-9.4,20.9-20.9c0-11.5-9.4-20.9-20.9-20.9h-20.9v14h-11.2l-8-52c-1.6-10.3-10.3-17.7-20.7-17.7
		H205c-10.4,0-19.1,7.5-20.7,17.7l-8,52h-11.2v-14h-20.9c-11.5,0-20.9,9.4-20.9,20.9c0,11.5,9.4,20.9,20.9,20.9h20.9v-14h9l-1.3,8.2
		c-13.1,8.8-21.7,23.7-21.7,40.6v41.9h14v14c0,5.1,1.5,9.8,3.9,14h-59.7V373.8c43.8-9.6,76.7-48.7,76.7-95.3
		c0-53.8-43.8-97.7-97.7-97.7s-97.7,43.8-97.7,97.7c0,46.7,32.9,85.7,76.7,95.3v225.5H18.7v14h48.8h41.9h286v-14h-17.8
		c2.4-4.1,3.9-8.8,3.9-14v-14h14v-41.9c0-16.9-8.6-31.8-21.7-40.6l-1.3-8.2h9v14H402.3z M151.2,480.7h-7c-3.8,0-7-3.1-7-7s3.1-7,7-7
		h7V480.7z M4.7,278.4c0-46.2,37.5-83.7,83.7-83.7s83.7,37.5,83.7,83.7s-37.5,83.7-83.7,83.7S4.7,324.6,4.7,278.4z M88.4,376.1
		c2.4,0,4.7-0.2,7-0.4V390h-14v-14.3C83.8,375.9,86.1,376.1,88.4,376.1z M81.4,599.3V404h14v195.3H81.4z M380.7,522.6h-63.4
		c-2.9-8.1-10.6-14-19.6-14h-48.8c-9.1,0-16.8,5.9-19.6,14h-63.4c3.2-15.9,17.3-27.9,34.2-27.9h146.5
		C363.3,494.7,377.4,506.7,380.7,522.6z M165.1,557.4v-20.9h62.8v20.9H165.1z M221,571.4h104.6v14c0,5.1,1.5,9.8,3.9,14H217.1
		c2.4-4.1,3.9-8.8,3.9-14V571.4z M241.9,557.4v-27.9c0-3.8,3.1-7,7-7h48.8c3.8,0,7,3.1,7,7v27.9H241.9z M179.1,585.3v-14H207v14
		c0,7.7-6.3,14-14,14S179.1,593,179.1,585.3z M367.4,585.3c0,7.7-6.3,14-14,14c-7.7,0-14-6.3-14-14v-14h27.9V585.3z M318.6,557.4
		v-20.9h62.8v20.9H318.6z M346.5,480.7H200c-4.1,0-8.1,0.6-12,1.5l10.1-65.4c0.5-3.4,3.4-5.9,6.9-5.9h136.5c3.5,0,6.4,2.5,6.9,5.9
		l10.1,65.4C354.6,481.3,350.6,480.7,346.5,480.7z M395.3,466.8h7c3.8,0,7,3.1,7,7s-3.1,7-7,7h-7V466.8z"/>
	<path d="M130.3,257.5c0-15.4-12.5-27.9-27.9-27.9H60.5v90.7h14v-34.9h27.9C117.8,285.4,130.3,272.9,130.3,257.5z M74.5,243.5h27.9
		c7.7,0,14,6.3,14,14c0,7.7-6.3,14-14,14H74.5V243.5z"/>
	<rect x="214" y="452.8" width="90.7" height="14"/>
	<rect x="318.6" y="452.8" width="14" height="14"/>
	<rect x="409.3" y="599.3" width="14" height="14"/>
	<rect x="-9.2" y="599.3" width="14" height="14"/>
</g>
</svg>
