<?xml version="1.0" encoding="utf-8"?>
<!-- Generator: Adobe Illustrator 24.0.1, SVG Export Plug-In . SVG Version: 6.00 Build 0)  -->
<svg version="1.2" baseProfile="tiny" id="Capa_1" xmlns="http://www.w3.org/2000/svg" xmlns:xlink="http://www.w3.org/1999/xlink"
	 x="0px" y="0px" viewBox="-49 141 512 512" xml:space="preserve">
<g>
	<path d="M386.6,254c-60.1-16.5-120.6-42.1-174.9-74.2c-2.9-1.7-6.5-1.7-9.3,0C146.5,212.8,89.3,237,27.4,254
		c-4,1.1-6.8,4.7-6.8,8.9v93.9c0,96.7,44.6,160.7,82.1,197.4C143,593.7,190,615.5,207,615.5c17,0,64-21.8,104.3-61.3
		c37.4-36.7,82.1-100.7,82.1-197.4v-93.9C393.3,258.7,390.6,255.1,386.6,254z M375,356.8c0,90.3-41.6,150.1-76.5,184.3
		c-39.6,38.8-82,56.1-91.4,56.1s-51.8-17.2-91.4-56.1C80.7,506.8,39,447.1,39,356.8v-86.9c59.1-16.8,114.2-40.2,168-71.5
		c52.4,30.4,110.2,55,167.9,71.5V356.8z"/>
	<path d="M125.5,268.8c-1.9-4.7-7.2-7-11.9-5.2c-16.4,6.5-33.3,12.4-50.1,17.7c-3.8,1.2-6.4,4.8-6.4,8.8v35.5c0,5.1,4.1,9.2,9.2,9.2
		s9.2-4.1,9.2-9.2v-28.8c15.1-4.9,30.2-10.3,44.9-16.1C125.1,278.8,127.4,273.5,125.5,268.8z"/>
	<path d="M143,270.5c1.2,0,2.5-0.2,3.7-0.8l0.2-0.1c4.7-2,6.7-7.5,4.7-12.1c-2-4.7-7.5-6.8-12.1-4.7l-0.1,0.1
		c-4.7,2-6.8,7.4-4.7,12.1C136.1,268.5,139.4,270.5,143,270.5z"/>
	<path d="M316.5,474.9c-4.2-2.8-9.9-1.6-12.7,2.7c-7.6,11.6-16.5,22.7-26.4,33c-8.2,8.5-17.1,16.4-26.4,23.5
		c-4,3.1-4.8,8.8-1.7,12.9c1.8,2.4,4.5,3.6,7.3,3.6c1.9,0,3.9-0.6,5.6-1.9c10-7.7,19.6-16.2,28.4-25.3
		c10.8-11.1,20.4-23.2,28.6-35.7C322,483.4,320.8,477.7,316.5,474.9z"/>
	<path d="M229.7,548.4l-0.5,0.3c-4.4,2.5-5.9,8.2-3.4,12.6c1.7,2.9,4.8,4.6,8,4.6c1.6,0,3.1-0.4,4.6-1.2l0.6-0.4
		c4.4-2.6,5.9-8.2,3.3-12.6C239.7,547.4,234,545.9,229.7,548.4z"/>
	<path d="M144.3,378.2c-5.6-5.6-13.2-8.8-21.1-8.8s-15.5,3.1-21.1,8.8c-11.7,11.7-11.7,30.6,0,42.3l54.3,54.3
		c5.6,5.6,13.2,8.8,21.1,8.8c8,0,15.5-3.1,21.1-8.8l113.3-113.3c11.7-11.7,11.7-30.6,0-42.3c-5.6-5.6-13.2-8.8-21.1-8.8
		c-8,0-15.5,3.1-21.1,8.8l-92.2,92.2L144.3,378.2z M282.7,332.2c2.2-2.2,5.1-3.4,8.1-3.4c3.1,0,6,1.2,8.1,3.4
		c4.5,4.5,4.5,11.8,0,16.3L185.6,461.8c-2.2,2.2-5.1,3.4-8.1,3.4s-6-1.2-8.1-3.4l-54.3-54.3c-4.5-4.5-4.5-11.8,0-16.3
		c2.2-2.2,5.1-3.4,8.1-3.4c3.1,0,6,1.2,8.1,3.4l39.6,39.6c1.7,1.7,4.1,2.7,6.5,2.7s4.8-1,6.5-2.7L282.7,332.2z"/>
</g>
</svg>
