<?xml version="1.0" encoding="utf-8"?>
<!-- Generator: Adobe Illustrator 24.0.1, SVG Export Plug-In . SVG Version: 6.00 Build 0)  -->
<svg version="1.2" baseProfile="tiny" id="Capa_1" xmlns="http://www.w3.org/2000/svg" xmlns:xlink="http://www.w3.org/1999/xlink"
	 x="0px" y="0px" viewBox="-49 141 512 512" xml:space="preserve">
<g>
	<path d="M-3.7,427.8v16.4c0,5.7,4.7,10.4,10.4,10.4h226.5c5.7,0,10.4-4.7,10.4-10.4v-16.4c0-5.2-3.9-9.5-8.9-10.3V355
		c3.5-4.9,5.5-10.8,5.5-17.2v-12.1c0,0,0,0,0,0c0-0.1,0-0.1,0-0.2c0-0.2,0-0.4,0-0.6c0-0.1,0-0.2,0-0.2c0-0.2-0.1-0.4-0.1-0.5
		c0-0.1,0-0.1-0.1-0.2c-0.1-0.2-0.1-0.4-0.2-0.6c0,0,0-0.1,0-0.1l0-0.1c0,0,0,0,0,0L227,291.2c-1.9-4.8-6.5-7.9-11.7-7.9H82.8
		c-3.7,0-6.7,3-6.7,6.7c0,3.7,3,6.7,6.7,6.7h131.9l8.9,22.2H13l8.8-22.2h29.8c3.7,0,6.7-3,6.7-6.7c0-3.7-3-6.7-6.7-6.7H21.3
		c-5.2,0-9.7,3.1-11.7,7.9L-3,323.1c0,0,0,0,0,0.1l0,0.1c0,0,0,0,0,0.1c-0.1,0.2-0.1,0.4-0.2,0.6c0,0.1,0,0.1,0,0.2
		c0,0.2-0.1,0.4-0.1,0.6c0,0.1,0,0.1,0,0.2c0,0.2,0,0.4,0,0.6c0,0,0,0.1,0,0.1c0,0,0,0,0,0.1v12.1c0,8.4,3.5,15.9,9,21.3v58.4
		C0.3,418.1-3.7,422.5-3.7,427.8L-3.7,427.8z M194.1,332.4h32.6v5.4c0,9-7.3,16.3-16.3,16.3c-9,0-16.3-7.3-16.3-16.3V332.4z
		 M148,332.4h32.6v5.4c0,9-7.3,16.3-16.3,16.3s-16.3-7.3-16.3-16.3V332.4z M102,332.4h32.6v5.4c0,9-7.3,16.3-16.3,16.3
		c-9,0-16.3-7.3-16.3-16.3V332.4z M55.9,332.4h32.6v5.4c0,9-7.3,16.3-16.3,16.3c-9,0-16.3-7.3-16.3-16.3V332.4z M49.2,356.6
		c5.5,6.7,13.8,10.9,23,10.9c9.3,0,17.6-4.3,23-10.9c5.5,6.7,13.8,10.9,23,10.9c9.3,0,17.6-4.3,23-10.9c5.5,6.7,13.8,10.9,23,10.9
		c9.3,0,17.6-4.3,23-10.9c5.5,6.7,13.8,10.9,23,10.9c3.8,0,7.5-0.7,10.8-2v52H18.9v-50.8c2.3,0.6,4.8,0.9,7.3,0.9
		C35.4,367.5,43.7,363.2,49.2,356.6L49.2,356.6z M9.8,332.4h32.7v5.4c0,9-7.3,16.3-16.3,16.3c-9,0-16.3-7.3-16.3-16.3V332.4z
		 M9.8,430.8h220.4v10.4H9.8V430.8z M9.8,430.8"/>
	<path d="M431.4,412.8l-32.8-26.8l-39.3-69.1c-0.1-0.3-0.3-0.5-0.5-0.7c-2.9-3.9-7.6-6.2-12.4-6.2h-84.1c-7.2,0-13.1,5.9-13.1,13.1
		v172H92.4c-1.7-7.1-5.3-13.9-10.9-19.5c-16.1-16.1-42.2-16.1-58.3,0c-5.6,5.6-9.2,12.3-10.9,19.5H-3c-3.3,0-6-2.7-6-6V267.5
		c0-3.3,2.7-6,6-6h299.6c0.4,0,0.8,0.3,0.9,0.7l7.7,26.1c1.1,3.6,4.8,5.6,8.3,4.5c3.6-1.1,5.6-4.8,4.5-8.3l-7.7-26.1
		c-1.8-6.1-7.5-10.3-13.8-10.3H-3c-10.7,0-19.4,8.7-19.4,19.4V489c0,10.7,8.7,19.4,19.4,19.4h14.2c0.8,9.3,4.8,18.3,11.9,25.4
		c8,8,18.6,12.1,29.2,12.1c10.6,0,21.1-4,29.2-12.1c7.1-7.1,11.1-16.1,11.9-25.4h227.3c0.8,9.3,4.8,18.3,11.9,25.4
		c8,8,18.6,12.1,29.2,12.1s21.1-4,29.2-12.1c7.1-7.1,11-16.1,11.9-25.4h15.5c10,0,18.1-8.1,18.1-18.1v-67.2
		C436.4,419.1,434.6,415.4,431.4,412.8L431.4,412.8z M72,524.3c-10.8,10.8-28.5,10.8-39.3,0c-10.8-10.8-10.8-28.5,0-39.3
		c5.3-5.3,12.2-8.1,19.7-8.1c7.4,0,14.4,2.9,19.7,8.1c5.3,5.3,8.2,12.2,8.2,19.7C80.1,512.1,77.2,519.1,72,524.3L72,524.3z
		 M381.3,524.3c-10.8,10.8-28.5,10.8-39.3,0c-10.8-10.8-10.8-28.5,0-39.3c5.4-5.4,12.5-8.1,19.7-8.1c7.1,0,14.2,2.7,19.7,8.1
		C392.2,495.9,392.2,513.5,381.3,524.3L381.3,524.3z M422.9,457.2h-14.7c-0.1,0-0.2-0.1-0.3-0.2l-3.2-14c0-0.1,0-0.1,0-0.2
		c0.1-0.1,0.2-0.1,0.2-0.1h18V457.2z M422.9,429.3h-18c-4.2,0-8.1,1.9-10.7,5.2c-2.6,3.3-3.6,7.5-2.6,11.6l3.2,14
		c1.4,6.2,6.9,10.6,13.3,10.6h14.7v19.7c0,2.6-2.1,4.7-4.7,4.7h-16.5c-1.7-7.1-5.3-13.9-10.9-19.5c-16.1-16.1-42.2-16.1-58.3,0
		c-5.6,5.6-9.2,12.3-10.9,19.5h-59V323.4h83.7c0.6,0,1.2,0.2,1.6,0.7l39.7,69.7c0.4,0.7,0.9,1.3,1.6,1.9l33.7,27.6V429.3z
		 M422.9,429.3"/>
	<path d="M361.7,483c-5.8,0-11.2,2.3-15.3,6.3c-4.1,4.1-6.3,9.5-6.3,15.3c0,5.8,2.2,11.2,6.3,15.3c4.1,4.1,9.5,6.3,15.3,6.3
		s11.2-2.2,15.3-6.3c4.1-4.1,6.3-9.5,6.3-15.3c0-5.8-2.2-11.2-6.3-15.3C372.9,485.3,367.5,483,361.7,483L361.7,483z M367.5,510.5
		c-1.5,1.5-3.6,2.4-5.8,2.4c-2.2,0-4.3-0.9-5.8-2.4c-1.5-1.5-2.4-3.6-2.4-5.8c0-2.2,0.8-4.3,2.4-5.8c1.5-1.5,3.6-2.4,5.8-2.4
		c2.2,0,4.3,0.9,5.8,2.4c1.6,1.6,2.4,3.6,2.4,5.8C369.9,506.9,369,508.9,367.5,510.5L367.5,510.5z M367.5,510.5"/>
	<path d="M52.3,483c-5.8,0-11.2,2.3-15.3,6.3c-4.1,4.1-6.3,9.5-6.3,15.3c0,5.8,2.2,11.2,6.3,15.3c4.1,4.1,9.5,6.3,15.3,6.3
		c5.8,0,11.2-2.2,15.3-6.3c4.1-4.1,6.3-9.5,6.3-15.3c0-5.8-2.3-11.2-6.3-15.3C63.5,485.3,58.1,483,52.3,483L52.3,483z M58.1,510.5
		c-1.5,1.5-3.6,2.4-5.8,2.4s-4.3-0.9-5.8-2.4c-1.5-1.5-2.4-3.6-2.4-5.8c0-2.2,0.9-4.3,2.4-5.8c1.6-1.5,3.6-2.4,5.8-2.4
		s4.3,0.9,5.8,2.4c1.5,1.6,2.4,3.6,2.4,5.8C60.5,506.9,59.7,508.9,58.1,510.5L58.1,510.5z M58.1,510.5"/>
	<path d="M343,340.2c-1.5-2.7-4.4-4.3-7.4-4.3h-55.3c-4.7,0-8.6,3.8-8.6,8.6v52c0,4.7,3.8,8.6,8.6,8.6h75.3c5.1,0,9.7-2.6,12.3-7
		c2.6-4.4,2.6-9.7,0.1-14.1L343,340.2z M356.2,391.2c-0.2,0.4-0.5,0.4-0.7,0.4h-70.4v-42.3h47.6l23.4,41.2
		C356.3,390.6,356.4,390.8,356.2,391.2L356.2,391.2z M356.2,391.2"/>
</g>
</svg>
