<?xml version="1.0" encoding="utf-8"?>
<!-- Generator: Adobe Illustrator 24.0.1, SVG Export Plug-In . SVG Version: 6.00 Build 0)  -->
<svg version="1.2" baseProfile="tiny" id="Capa_1" xmlns="http://www.w3.org/2000/svg" xmlns:xlink="http://www.w3.org/1999/xlink"
	 x="0px" y="0px" viewBox="-49 141 512 512" xml:space="preserve">
<g>
	<path d="M41.8,462.6l22.5,17.1c0.2,0.2,0.4,0.3,0.6,0.5l14.6,11c0,0,57.7,43.7,57.8,43.7c5.2,3.9,11.6,6.2,18.6,6.2h64.8
		c3.6,0,6.5-2.9,6.5-6.5c0-3.6-2.9-6.5-6.5-6.5h-64.8c-9.9,0-17.9-8.1-17.9-17.9c0-9.9,8-17.9,17.9-17.9H246c3.6,0,6.5-2.9,6.5-6.5
		c0-3.6-2.9-6.5-6.5-6.5h-31.6v-38.4c0-3.6-2.9-6.5-6.5-6.5c-3.6,0-6.5,2.9-6.5,6.5v38.4h-45.5c-0.2,0-0.4,0-0.7,0V286.9h46.2v125.7
		c0,3.6,2.9,6.5,6.5,6.5c3.6,0,6.5-2.9,6.5-6.5V286.2c9.9-2.4,17.3-11.3,17.3-21.9v-62.6c0-15.8-12.9-28.7-28.7-28.7H32.8
		c-3.6,0-6.5,2.9-6.5,6.5c0,3.6,2.9,6.5,6.5,6.5H203c8.6,0,15.6,7,15.6,15.6v37.1h-84.4v-18.4c0-3.6-2.9-6.5-6.5-6.5h-23.6
		c-3.6,0-6.5,2.9-6.5,6.5c0,3.6,2.9,6.5,6.5,6.5h17.1v37.4c0,11.9,9.2,21.6,20.9,22.5V435l-4.7-3.5c-9.6-7.3-23.4-5.4-30.6,4.3
		c-1.9,2.5-3.1,5.3-3.8,8.1l-6.8-5.1c-11.4-8.6-27.7-6.3-36.3,5.1c-2.8,3.6-4.5,7.8-5,12.2l-5.1-3.9c-10.6-8-25.4-7.3-35.2,1.6
		c-5.7,5.1-8.9,12.2-9,19.8c-0.2,7.7,2.7,14.8,8.2,20.2l38.5,38.1c2.6,2.5,6.7,2.5,9.3-0.1c2.5-2.6,2.5-6.7-0.1-9.3l-38.5-38.1
		c-2.9-2.8-4.4-6.6-4.3-10.6c0.1-4,1.8-7.7,4.7-10.4C28.5,458.7,36.3,458.4,41.8,462.6L41.8,462.6z M134.3,264.3v-12.4h84.4v12.4
		c0,5.2-4.2,9.5-9.5,9.5h-65.4C138.6,273.8,134.3,269.5,134.3,264.3L134.3,264.3z M117.2,443.6c2.9-3.9,8.4-4.6,12.3-1.7l12.5,9.5
		v22l-23.2-17.6C115.1,452.9,114.3,447.4,117.2,443.6L117.2,443.6z M70.3,451.7c4.3-5.6,12.3-6.8,18-2.5l22.6,17
		c0.1,0.1,0.1,0.1,0.2,0.2l25.5,19.3c-6.9,5.5-11.5,13.9-11.8,23.3l-37.2-28.1l-15-11.4C67.1,465.1,66.1,457.2,70.3,451.7
		L70.3,451.7z M70.3,451.7"/>
	<path d="M316.3,609.4l-33-27.5c-1.2-1-2.7-1.5-4.2-1.5H131.4c-7.4,0-14.3-2.9-19.5-8l-30.6-30.2c-2.6-2.5-6.7-2.5-9.3,0.1
		c-2.5,2.6-2.5,6.7,0.1,9.3l30.6,30.2c7.7,7.6,17.9,11.8,28.7,11.8h145.3l31.2,26c1.2,1,2.7,1.5,4.2,1.5c1.9,0,3.7-0.8,5-2.4
		C319.4,615.9,319.1,611.7,316.3,609.4L316.3,609.4z M316.3,609.4"/>
	<path d="M76.3,213.9H32.8c-3.6,0-6.5,2.9-6.5,6.5c0,3.6,2.9,6.5,6.5,6.5h43.4c3.6,0,6.5-2.9,6.5-6.5
		C82.8,216.8,79.9,213.9,76.3,213.9L76.3,213.9z M76.3,213.9"/>
	<path d="M189.1,354.7v-44c0-3.6-2.9-6.5-6.5-6.5c-3.6,0-6.5,2.9-6.5,6.5v44c0,3.6,2.9,6.5,6.5,6.5
		C186.2,361.3,189.1,358.3,189.1,354.7L189.1,354.7z M189.1,354.7"/>
	<path d="M166.9,433.6v13.8c0,3.6,2.9,6.5,6.5,6.5c3.6,0,6.5-2.9,6.5-6.5v-13.8c0-3.6-2.9-6.5-6.5-6.5
		C169.9,427,166.9,430,166.9,433.6L166.9,433.6z M166.9,433.6"/>
	<path d="M248.2,345.6c5.1,1.8,18.7,6.7,29.1,6.7c2.4,0,4.6-0.3,6.6-0.9c13.7-4.4,21.3-19,16.9-32.7c-4.4-13.7-19-21.3-32.7-16.9
		c-2.5,0.8-10.3,3.3-25.8,25.4c-2.2,3.1-2.8,7-1.6,10.7C241.8,341.5,244.6,344.3,248.2,345.6L248.2,345.6z M272,314.2
		c6.8-2.2,14.1,1.6,16.3,8.4c1,3.3,0.7,6.8-0.8,9.9c-1.6,3.1-4.3,5.3-7.6,6.4c-2.7,0.9-11.2,0-26.2-5.3
		C262.9,320.7,269.3,315.1,272,314.2L272,314.2z M272,314.2"/>
	<path d="M273.5,377.5c-2-0.1-8-0.5-23.8,10.1c-2.7,1.8-4.4,4.7-4.6,8c-0.2,3.3,1.1,6.3,3.6,8.5c14.4,12.4,20.4,12.8,22.4,12.9
		c0.4,0,0.8,0,1.2,0c10.4,0,19.1-8.1,19.7-18.6c0.3-5.3-1.4-10.3-4.9-14.3C283.6,380.2,278.7,377.8,273.5,377.5L273.5,377.5z
		 M278.9,397.7c-0.2,3.7-3.4,6.5-7.1,6.3c-0.9-0.1-4.7-1.6-11.8-7.4c7.8-4.9,11.7-5.9,12.6-5.9c1.8,0.1,3.4,0.9,4.6,2.2
		C278.5,394.2,279,395.9,278.9,397.7L278.9,397.7z M278.9,397.7"/>
	<path d="M69.4,336.6c-2.5,5.8-2.6,12.3-0.2,18.1c2.3,5.9,6.8,10.5,12.7,13c1.2,0.5,3.6,1.6,9.2,1.6c4.9,0,12.2-0.8,23.1-3.6
		c3.5-0.9,6.3-3.3,7.8-6.6c1.4-3.3,1.2-7.1-0.5-10.2c-11.8-20.9-18.5-23.8-20.7-24.8c-5.8-2.5-12.3-2.6-18.1-0.2
		C76.5,326.3,71.9,330.8,69.4,336.6L69.4,336.6z M81.4,341.8c1.1-2.6,3.2-4.6,5.8-5.7c1.3-0.5,2.6-0.8,3.9-0.8
		c1.4,0,2.8,0.3,4.2,0.9c1.7,0.7,6.5,5.3,13.5,17.4c-13.6,3.2-20.1,2.9-21.9,2.2c-2.6-1.1-4.6-3.2-5.7-5.8
		C80.3,347.3,80.3,344.4,81.4,341.8L81.4,341.8z M81.4,341.8"/>
	<path d="M405.9,545.7L352.1,505c-22.3-16.8-50-26.1-77.9-26.1h-0.2c-3.6,0-6.5,2.9-6.5,6.5c0,3.6,2.9,6.5,6.5,6.5h0.2
		c25.1,0,50,8.3,70.1,23.5l53.8,40.6c1.2,0.9,2.6,1.3,3.9,1.3c2,0,3.9-0.9,5.2-2.6C409.4,552,408.8,547.8,405.9,545.7L405.9,545.7z
		 M405.9,545.7"/>
</g>
</svg>
