<?xml version="1.0" encoding="utf-8"?>
<!-- Generator: Adobe Illustrator 24.0.1, SVG Export Plug-In . SVG Version: 6.00 Build 0)  -->
<svg version="1.2" baseProfile="tiny" id="Capa_1" xmlns="http://www.w3.org/2000/svg" xmlns:xlink="http://www.w3.org/1999/xlink"
	 x="0px" y="0px" viewBox="-49 141 512 512" xml:space="preserve">
<g>
	<g>
		<polygon fill="none" points="152.7,233.8 139,239.3 151.9,244.4 		"/>
		<polygon fill="none" points="98.5,612.6 121.4,612.6 121.4,597.3 110,597.3 		"/>
		<path fill="none" d="M207,281.8c-9.3,0-17.1-6-19.9-14.3h-16.4v29.1c0,8.2,6.6,14.8,14.8,14.8h43c8.2,0,14.8-6.6,14.8-14.8v-29.1
			h-16.4C224.1,275.8,216.3,281.8,207,281.8z"/>
		<path fill="none" d="M262.7,252.5c0.1,1,0,2-0.1,2.9l19.2-16.4c1.6-1.4,2.4-3.3,2.2-5.4c-0.2-2.1-1.3-3.8-3.1-4.9l-20.9-11.9
			c0.1,0.6,0.1,1.2,0.2,1.8L262.7,252.5z"/>
		<path fill="none" d="M152.4,259l-33.9-13.6c-2.5-1-4.2-3.5-4.2-6.2c0-2.7,1.7-5.2,4.2-6.2l35.4-14.2l0.1-1.8
			c0.2-2.2,0.5-4.4,1-6.6l-53.6,23c-2.9,1.2-4.7,3.8-4.8,6.9c-0.1,3.1,1.4,5.9,4.2,7.3l56.6,30.5V265c-0.9-0.6-1.6-1.2-2.4-2
			C153.8,261.8,153,260.5,152.4,259z"/>
		<path fill="none" d="M227.9,224.5c0.5-1.7,0.8-3.3,1-5c0.3-3.6-2.1-5.6-3.1-6.3c-2.4-1.6-5.4-1.8-7.9-0.6l-30.3,15.2
			c4.8,9.6,15.6,13.4,24.7,11.3C219.5,237.5,225.7,231.7,227.9,224.5z"/>
		<path fill="none" d="M275.2,476.6c-1.9-8.4-4.9-16.5-9-24.1l-21-39.1l-29.5,21.4l36.3,40.4c2.6,2.9,4.6,6.2,5.8,10l32.9,98.7h8.3
			L275.2,476.6z"/>
		<polygon fill="none" points="292.6,597.3 292.6,612.6 315.5,612.6 304,597.3 		"/>
		<path fill="none" d="M223.9,374L160.2,355l-9.9,11.2c-11.1,12.6-17.8,28-19.4,44.7l-0.3,3.3l43.5,10.6l5-15.6c0.7-2.3,2.6-4,5-4.5
			c2.4-0.5,4.8,0.3,6.4,2.1l16.2,18l32.1-23.3L223.9,374z"/>
		<path fill="none" d="M165.1,254.1H186v-7.9c-6.4-4.8-11.2-11.7-13.3-20.1c-0.7-3,0.7-6.2,3.5-7.6l35.6-17.8
			c6.8-3.4,15.1-2.9,21.5,1.4c6.2,4.2,9.6,11.1,9,18.5c-0.2,2.6-0.7,5.2-1.5,7.8c-2.2,7.2-6.8,13.4-12.7,17.9v7.8h20.8
			c0.1,0,0.2,0,0.3-0.1c0.1-0.1,0.1-0.3,0.1-0.3l-2.6-33.9c-1.5-19.4-15.9-35.3-34.2-37.8c-11.1-1.5-21.9,1.5-30.5,8.4
			c-8.5,6.9-13.8,17-14.7,27.9l-2.7,35.4c0,0.1,0,0.2,0.1,0.3C164.9,254.1,165,254.1,165.1,254.1z"/>
		<path fill="none" d="M199.4,252.3v8.5c0,4.2,3.4,7.6,7.6,7.6c4.2,0,7.6-3.4,7.6-7.6v0c0,0,0,0,0,0v-8.4c-2.6,0.5-5.1,0.8-7.6,0.8
			C204.4,253.1,201.8,252.8,199.4,252.3z"/>
		<path d="M334.9,622.3c1.1-2.3,0.9-5-0.6-7l-20.6-27.5l-25.3-114.1c-2.1-9.6-5.6-18.9-10.2-27.5l-42.8-79.5v-19.8
			c0-3.7-3-6.7-6.7-6.7c-3.7,0-6.7,3-6.7,6.7v12.5L170,343.9c4.7-5.7,7.4-12.8,7.8-20.1c2.5,0.7,5,1.1,7.7,1.1h43
			c15.6,0,28.2-12.7,28.2-28.2v-18.4l33.8-29c4.9-4.2,7.4-10.5,6.8-16.8c-0.6-6.4-4.3-12.1-9.9-15.3l-32.9-18.8
			c-7.7-15.8-22.6-27.4-40.2-29.8c-14.8-2-29.3,2-40.8,11.3c-4.6,3.7-8.5,8.1-11.5,13l-66,28.3c-7.6,3.3-12.6,10.4-12.9,18.7
			c-0.4,8.3,3.9,15.8,11.2,19.7l63,33.9v3.2c0,7.2,2.7,13.8,7.2,18.8v6.3c0,5.3-1.9,10.5-5.5,14.5l-18.7,21.2
			c-13,14.7-20.8,32.8-22.7,52.3l-17.4,178.4l-20.4,27.2c-1.5,2-1.8,4.8-0.6,7c1.1,2.3,3.5,3.7,6,3.7h43c3.7,0,6.7-3,6.7-6.7v-27.6
			l36.4-113.7c1.1-3.5-0.8-7.3-4.3-8.4c-3.5-1.1-7.3,0.8-8.4,4.3l-35.2,110.1H114l15.2-156.1l40.7,10l-2.4,7.4
			c-1.1,3.5,0.8,7.3,4.3,8.4c3.5,1.1,7.3-0.8,8.4-4.3l7.9-24.7l53.7,59.7c1.4,1.5,2.4,3.3,3,5.2l34.1,102.3v27.6
			c0,3.7,3,6.7,6.7,6.7h43C331.4,626,333.8,624.6,334.9,622.3z M280.8,228.7c1.8,1,3,2.8,3.1,4.9c0.2,2.1-0.6,4-2.2,5.4l-19.2,16.4
			c0.1-1,0.2-1.9,0.1-2.9l-2.6-33.9c0-0.6-0.1-1.2-0.2-1.8L280.8,228.7z M157.3,278.2l-56.6-30.5c-2.7-1.5-4.3-4.2-4.2-7.3
			c0.1-3.1,1.9-5.7,4.8-6.9l53.6-23c-0.4,2.2-0.8,4.4-1,6.6l-0.1,1.8L118.5,233c-2.5,1-4.2,3.5-4.2,6.2c0,2.7,1.7,5.2,4.2,6.2
			l33.9,13.6c0.6,1.4,1.5,2.8,2.6,4c0.7,0.8,1.5,1.4,2.4,2V278.2z M152.7,233.8l-0.8,10.6l-12.9-5.1L152.7,233.8z M121.4,597.3v15.3
			H98.5l11.4-15.3H121.4z M243.3,296.6c0,8.2-6.6,14.8-14.8,14.8h-43c-8.2,0-14.8-6.6-14.8-14.8v-29.1h16.4
			c2.8,8.3,10.7,14.3,19.9,14.3s17.1-6,19.9-14.3h16.4V296.6z M212.2,239.1c-9.1,2-19.9-1.7-24.7-11.3l30.3-15.2
			c2.6-1.3,5.5-1.1,7.9,0.6c1,0.7,3.4,2.7,3.1,6.3c-0.1,1.6-0.5,3.3-1,5C225.7,231.7,219.5,237.5,212.2,239.1z M214.6,252.3v8.4
			c0,0,0,0,0,0v0c0,4.2-3.4,7.6-7.6,7.6c-4.2,0-7.6-3.4-7.6-7.6v-8.5c2.5,0.5,5,0.8,7.7,0.8C209.5,253.1,212.1,252.9,214.6,252.3z
			 M167.4,218.1c0.8-10.9,6.2-21,14.7-27.9c8.6-6.9,19.5-9.9,30.5-8.4c18.3,2.5,32.7,18.4,34.2,37.8l2.6,33.9c0,0.1,0,0.2-0.1,0.3
			c-0.1,0.1-0.3,0.1-0.3,0.1H228v-7.8c6-4.4,10.6-10.7,12.7-17.9c0.8-2.6,1.3-5.2,1.5-7.8c0.6-7.4-2.8-14.3-9-18.5
			c-6.4-4.3-14.6-4.9-21.5-1.4l-35.6,17.8c-2.8,1.4-4.3,4.5-3.5,7.6c2,8.4,6.9,15.4,13.3,20.1v7.9h-20.8c-0.1,0-0.2,0-0.3-0.1
			c-0.1-0.1-0.1-0.3-0.1-0.3L167.4,218.1z M190.5,406.9c-1.6-1.8-4-2.6-6.4-2.1c-2.3,0.5-4.2,2.2-5,4.5l-5,15.6l-43.5-10.6l0.3-3.3
			c1.6-16.7,8.3-32.2,19.4-44.7l9.9-11.2l63.7,18.9l14.8,27.5l-32.1,23.3L190.5,406.9z M257.8,485.2c-1.2-3.7-3.2-7-5.8-10
			l-36.3-40.4l29.5-21.4l21,39.1c4.1,7.6,7.1,15.7,9,24.1L299,583.9h-8.3L257.8,485.2z M292.6,612.6v-15.3H304l11.4,15.3H292.6z"/>
	</g>
</g>
</svg>
