<?xml version="1.0" encoding="utf-8"?>
<!-- Generator: Adobe Illustrator 24.0.1, SVG Export Plug-In . SVG Version: 6.00 Build 0)  -->
<svg version="1.2" baseProfile="tiny" id="Layer_1" xmlns="http://www.w3.org/2000/svg" xmlns:xlink="http://www.w3.org/1999/xlink"
	 x="0px" y="0px" viewBox="0 0 886.8 449.1" xml:space="preserve">
<g>
	<path d="M43.6,266.1c0.5-9.5,0.9-13.9,2.1-21c-5.9,6.7-8.6,11.1-13.9,20.5C36.5,265.8,38.9,265.9,43.6,266.1"/>
	<path d="M31.2,291.1c4.8,0.1,7.2,0.1,11.9,0.2c-3.9-8.5-7.7-17.1-11.3-25.8c-4.6,8.2-8.7,16.7-12.5,25.3
		C24.1,290.9,26.4,291,31.2,291.1"/>
	<path d="M43.9,317.1c-0.5-10-0.7-15.4-0.7-25.8c-3.9,8.6-7.5,17.3-11.3,25.9C36.7,317.2,39.1,317.2,43.9,317.1"/>
	<path d="M33.4,340.2c4.9-0.1,7.3-0.2,12.1-0.4c-5.6-7.8-8.3-12.5-13.6-22.6c-4.4,10.1-6.5,15-10.7,23.2
		C26.1,340.4,28.5,340.4,33.4,340.2"/>
	<g>
		<path d="M36.3,422v8.3c1.9-0.2,3.8-0.5,5.8-0.7c0.1-1.1,0.1-2.3,0.2-3.4C40.3,424.8,38.3,423.4,36.3,422z"/>
		<path d="M36.3,362.4c4.5-3.8,9-7.8,13.4-11.8c0-0.3,0-0.6-0.1-1c-3.4,0.2-6.8,0.3-10.2,0.4c-1,0.9-2,1.8-3.1,2.8V362.4z"/>
		<path d="M47.9,386.2c-3.9,0.4-7.7,0.7-11.6,1v6.4c3.5-0.3,7.1-0.6,10.6-1C47.3,390.4,47.6,388.3,47.9,386.2z"/>
	</g>
	<path d="M157.8,267L157.8,267c4.4-0.5,6.6-0.8,11-1.6c-3.6-5.5-5.4-8.2-8.5-12.5C158.9,257.4,158.4,260.4,157.8,267"/>
	<path d="M180.7,263.1c4.8-1.1,7.1-1.7,11.2-3.1c-3.1-4.1-4.7-6.2-8.2-9.3c-6.6,4.7-9.8,7.8-15,14.7
		C173.2,264.6,175.8,264.2,180.7,263.1"/>
	<path d="M210.5,250.8c-6.8,4.5-10.3,6.3-18.6,9.2c5.2-7,7.9-10.2,13.3-15.3C207.2,246.5,208.2,247.9,210.5,250.8"/>
	<path d="M199.6,270.5C199.6,270.5,199.6,270.5,199.6,270.5c-7.3,4.1-11.2,5.8-20.6,8.6c0,0,0,0,0,0c5.1-8.1,7.7-12.1,12.9-19.1
		C195.1,264.1,196.6,266.4,199.6,270.5"/>
	<path d="M179,279.1c-9.4,2.8-13.7,3.8-22.3,5.6c4.5-8.3,6.9-12.3,12-19.3C172.4,270.9,174.8,273.8,179,279.1"/>
	<path d="M218.9,244.6c3.3-2.7,4.9-4.2,8.3-7.5c-2.3-1.7-3.3-2.4-4.9-2.9c-4.9,5.8-7.3,9.2-11.8,16.6
		C213.9,248.5,215.6,247.3,218.9,244.6"/>
	<path d="M235.9,228.3c1-4.9,1.7-7.2,3.3-10.3c-5.3,7-7.6,10.9-12,19.1C230.5,233.8,232.3,232.1,235.9,228.3"/>
	<path d="M225.1,250.5c3.4-3.3,5.1-5.1,8.8-8.8c-3-1.9-4.4-3-6.7-4.6c-4.4,8.2-6.5,12.5-10.4,21.1
		C220.1,255.3,221.7,253.8,225.1,250.5"/>
	<path d="M216.8,258.2C216.8,258.2,216.8,258.2,216.8,258.2c-6.6,5.7-9.8,8.1-17.2,12.3c0,0,0,0,0,0c4.3-8.2,6.5-12.3,10.9-19.7
		C212.8,253.7,214.1,255.3,216.8,258.2"/>
	<path d="M156.7,302.9L156.7,302.9c4.2-1.3,6.3-1.9,10.5-3.4c-4.2-5.2-6.4-8.3-10.5-14.8c0,0,0,0,0,0
		C156.5,292.1,156.6,295.9,156.7,302.9"/>
	<path d="M178.4,295.6c4.5-1.7,6.6-2.7,10.6-4.7c-3.8-4-5.7-6.5-10-11.8c-5.1,8.1-7.7,12.4-11.8,20.4
		C171.4,298.1,173.9,297.3,178.4,295.6"/>
	<path d="M207.2,279.3c-6.8,5.3-10.3,7.6-18.2,11.6c4.2-8,6.3-12.2,10.6-20.4c0,0,0,0,0,0C202.6,274.5,204.1,276.5,207.2,279.3"/>
	<path d="M188.7,304c3.9-2.3,5.7-3.5,9.3-6c-3.5-1.6-5.3-3.2-9.1-7.1c-4.2,8-6.3,11.9-10.5,18.5C182.8,307.4,184.8,306.3,188.7,304"
		/>
	<path d="M178.4,309.4c-8.7,4.1-12.7,5.8-21,9c3.7-6.9,5.6-10.9,9.7-18.9C171.5,304.7,174,306.8,178.4,309.4"/>
	<path d="M215.6,272.3c3.3-3,5-4.6,8.4-7.9c-3.1-1.9-4.6-3.3-7.3-6.2c-3.9,8.6-5.8,13-9.5,21.1C210.6,276.7,212.3,275.3,215.6,272.3
		"/>
	<path d="M232.8,255.5c0.3-5.3,0.5-8.2,1.1-13.8c-4.3,9.4-6.2,14.1-9.9,22.7C227.4,261,229.2,259.3,232.8,255.5"/>
	<path d="M223.6,275.9c3.4-3.4,5.2-5.2,8.8-8.8c-3.5-0.1-5.2-0.7-8.3-2.7c-3.7,8.6-5.4,12.7-8.9,19.6
		C218.5,280.9,220.1,279.3,223.6,275.9"/>
	<path d="M215.1,284c-6.7,6.2-9.9,9-17.1,14c3.7-6.6,5.5-10.6,9.2-18.7C210.3,282.2,211.9,283.3,215.1,284"/>
	<path d="M61.6,368.7L61.6,368.7c4.8-0.6,7.2-0.9,12-1.6c-4.2-6.9-6.6-10.6-12.9-18c0,0,0,0,0,0C62.1,356.9,62.1,360.8,61.6,368.7"
		/>
	<path d="M85.3,365c4.7-0.9,7-1.4,11.6-2.5c-4.1-6.1-6.4-9.3-12.6-16.1c-3.1,8.1-5.5,12.3-10.7,20.6C78.3,366.4,80.6,366,85.3,365"
		/>
	<path d="M118.8,356.2c-8.5,2.9-12.7,4.1-21.9,6.3c5-8.3,7.2-12.4,10.1-20.2C112.8,348.2,115,351,118.8,356.2"/>
	<path d="M105.5,376.9C105.5,376.9,105.5,376.9,105.5,376.9c-8.7,3.1-13.3,4.5-22.8,6.8c0,0,0,0,0,0c6.1-8.6,9.1-12.8,14.1-21.1
		C101,368.6,102.5,371.5,105.5,376.9"/>
	<path d="M82.8,383.7c-9.4,2.3-14.2,3.2-24,4.6c6.3-8.5,9.5-12.8,14.7-21.2C77.8,374,79.4,377.3,82.8,383.7"/>
	<path d="M129.2,352.4c4.1-1.6,6.2-2.5,10.3-4.3c-3.5-4.2-5.5-6.4-11.1-11.4c-2.9,7.6-5,11.5-9.7,19.5
		C123,354.8,125.1,354,129.2,352.4"/>
	<path d="M149.6,343.4c0.7-5.6,0.8-8.4-0.4-14c-2.9,7.2-5,10.9-9.7,18.7C143.6,346.3,145.6,345.4,149.6,343.4"/>
	<path d="M136.7,363c4-2.1,6-3.2,9.9-5.5c-2.4-3.3-3.7-5.2-7.1-9.3c-4.7,7.7-7.4,11.7-12.9,20C130.7,366.1,132.7,365.1,136.7,363"/>
	<path d="M126.6,368.1C126.6,368.1,126.6,368.1,126.6,368.1c-8.2,3.9-12.4,5.7-21.1,8.8c0,0,0,0,0,0c5.7-8.5,8.5-12.6,13.2-20.7
		C122.5,361.4,123.9,363.7,126.6,368.1"/>
	<path d="M55.2,407.8L55.2,407.8c4.9-0.9,7.4-1.3,12.2-2.4c-3.6-6.6-5.2-10-8.6-17.1c0,0,0,0,0,0C57.3,396.1,56.4,400,55.2,407.8"/>
	<path d="M79.4,402.3c4.7-1.4,7.1-2.1,11.7-3.8c-3.5-5.5-5-8.5-8.3-14.8c-6.1,8.6-9.3,12.9-15.4,21.7
		C72.2,404.2,74.6,403.6,79.4,402.3"/>
	<path d="M112.9,389.2c-8.4,4.2-12.6,6-21.8,9.3c5.8-8.8,8.8-13.2,14.4-21.6c0,0,0,0,0,0C108.5,382.2,109.8,384.7,112.9,389.2"/>
	<path d="M89.6,416.5c4.6-1.9,6.8-2.9,11.1-5.1c-4.5-4.8-6.2-7.4-9.7-12.9c-5.8,8.9-8.6,13.3-13.2,22.4
		C82.6,419.3,85,418.4,89.6,416.5"/>
	<path d="M77.9,420.9c-9.5,3.2-14.4,4.5-24.4,6.5c4.9-8.8,7.8-13.3,13.9-22C71,411.9,72.9,415,77.9,420.9"/>
	<path d="M123.2,383.8c4.1-2.3,6.1-3.5,10-5.9c-2.7-3.5-3.8-5.4-6.6-9.8c-5.5,8.2-8.4,12.5-13.7,21.2
		C117.1,387.2,119.1,386.1,123.2,383.8"/>
	<path d="M142.9,371.4c1.3-5.6,2.2-8.4,3.7-14c-5.4,7.9-8.3,12-13.4,20.4C137.1,375.4,139.1,374.1,142.9,371.4"/>
	<path d="M131.4,392.7c3.9-2.8,5.8-4.3,9.5-7.3c-3.7-2.6-5.1-4.1-7.8-7.6c-5.2,8.4-7.7,12.8-11.6,21.6
		C125.6,396.9,127.5,395.5,131.4,392.7"/>
	<path d="M121.6,399.5c-8,5.2-12.1,7.7-20.8,11.9c4.2-9.1,6.8-13.5,12.1-22.2C115.9,393.8,117.5,395.8,121.6,399.5"/>
	<g>
		<path d="M104.3,299.6c11.7,10.1,24.3,18.7,38.7,24.2c1.9-0.6,3.7-1.2,5.6-1.8c-0.1-0.9-0.1-1.9-0.2-2.8
			c-14.7-5.5-27.5-14.5-39.5-25.1c-1.6,0.1-3.2,0.2-4.8,0.3C104.1,296.2,104.2,297.9,104.3,299.6z"/>
		<path d="M96.6,282.5c-11.9-11.9-23.2-24.7-34.7-36.1c-1.7-0.2-3.5-0.3-5.2-0.5c-0.2,1.4-0.4,2.8-0.6,4.3
			c11.8,12.2,23.1,25.2,35.2,37.2c1.8,0,3.6-0.1,5.4-0.1C96.6,285.7,96.6,284.1,96.6,282.5z"/>
		<path d="M149.9,255.7c0.2-0.9,0.3-1.8,0.5-2.6c-1.7,0-3.4-0.1-5.2-0.1c-15.6,6.9-29,17.4-41.4,29.4c0,1.5,0,3.1,0,4.6
			c1.9-0.1,3.8-0.2,5.7-0.3C121.8,274.5,134.9,263.6,149.9,255.7z"/>
		<path d="M91.7,295.1c-12,13.1-23.4,27-35.4,39.7c0.1,1.6,0.3,3.1,0.4,4.7c0,0,0.1,0,0.1,0.1c1.9-0.1,3.9-0.3,5.8-0.5
			c11.6-12.5,22.7-26.1,34.3-39c-0.1-1.8-0.2-3.5-0.2-5.3C95.1,294.9,93.4,295,91.7,295.1z"/>
		<path d="M96.6,287.3c-1.8,0.1-3.6,0.1-5.4,0.1c-12.3,0.3-24.6,0.2-37,0.1c0,3.3,0,5,0.1,8.4c12.5,0,25-0.2,37.4-0.8
			c1.7-0.1,3.4-0.2,5.1-0.2C96.7,292.3,96.6,289.8,96.6,287.3z"/>
		<path d="M104.1,294.4c1.6-0.1,3.2-0.2,4.8-0.3c12.8-1,25.5-2.4,38.2-4.6c0-2.1,0-4.2,0-6.3c-12.5,1.8-25,2.9-37.5,3.6
			c-1.9,0.1-3.8,0.2-5.7,0.3C104,289.5,104,292,104.1,294.4z"/>
		<path d="M103.9,287c0-1.5,0-3.1,0-4.6c0.1-10.7,0.8-21.4,2.5-31.8c-2.3-0.2-3.7-0.4-5.7-0.6c-0.6-0.1-1.2-0.1-1.7-0.2
			c-1.6,10.7-2.3,21.6-2.4,32.6c0,1.6,0,3.2,0,4.8c0,2.5,0.1,5.1,0.2,7.6c0.1,1.8,0.1,3.5,0.2,5.3c0.5,11.5,1.6,23,2.9,34.1
			c2.4-0.4,4.8-0.9,7.2-1.3c-1.2-10.9-2.2-22.1-2.8-33.3c-0.1-1.7-0.1-3.4-0.2-5.2C104,292,104,289.5,103.9,287z"/>
	</g>
	<g>
		<path d="M196,323.4c6.4-2.3,12.6-5.2,19.2-8.1c2.4-2.3,4.7-4.6,7.1-6.9c0-0.1,0.1-0.3,0.1-0.4c-7.5,3.3-14.5,6.6-21.6,9.4
			c-1.2,1.1-2.5,2.2-3.7,3.3C196.8,321.6,196.4,322.5,196,323.4z"/>
		<path d="M192.4,320.2c-8.8,2.6-18.2,4-29.4,3c-1.6,0.8-3.1,1.5-4.7,2.3c0,0,0,0,0,0c0,0.9,0,1.9,0,2.8c11.6,1.4,21.2,0.1,30.3-2.5
			c0.9-0.8,1.9-1.5,2.8-2.3C191.7,322.5,192.1,321.3,192.4,320.2z"/>
		<path d="M149.3,378.7c1.6-1.4,3.2-2.8,4.8-4.2c10.2-14.9,21.1-29,32.3-42.9c-12.5,14.3-25.2,28.4-36.5,43.8
			C149.7,376.4,149.5,377.6,149.3,378.7z"/>
		<path d="M190.1,326.8c-1.3,1.6-2.5,3.1-3.8,4.7c1.2-1.4,2.5-2.8,3.7-4.3c0.1-0.2,0.1-0.4,0.2-0.6
			C190.2,326.7,190.2,326.8,190.1,326.8z"/>
		<path d="M227.3,277.8c-2.7,4.3-5.4,8.5-8.3,12.7c4.2-5.5,8.4-11,12.4-16.7C230.1,275.1,228.7,276.5,227.3,277.8z"/>
		<path d="M219.1,290.4c-6.6,8.6-13.4,17.1-20.2,25.5c-0.2,0.6-0.4,1.1-0.6,1.6c0.1-0.1,0.2-0.2,0.4-0.3c1-1.2,2.1-2.4,3.1-3.7
			C208,306.1,213.7,298.4,219.1,290.4z"/>
		<path d="M191.4,323.6c-0.9,0.8-1.9,1.5-2.8,2.3c-10.3,8.5-21,16.6-32.6,24.1c-0.5,1.7-0.8,2.6-1.3,4.3
			c12.6-8.5,24.2-17.8,35.4-27.4c0.1,0,0.1-0.1,0.2-0.1C190.7,325.6,191,324.6,191.4,323.6z"/>
		<path d="M197.2,320.6c1.2-1.1,2.5-2.2,3.7-3.3c9.6-8.7,19-17.6,28.6-26.6c0.4-1,0.9-2,1.3-2.9c-10.7,10.1-21.2,20-32,29.5
			c-0.1,0.1-0.2,0.2-0.4,0.3C198,318.6,197.6,319.6,197.2,320.6z"/>
		<path d="M198.3,317.6c0.2-0.5,0.4-1.1,0.6-1.6c1.5-4.7,2.5-9.4,2.4-14.3c-2.3,1.8-3.4,2.6-5.8,4.3c-0.5,5.1-1.6,9.8-3,14.3
			c-0.3,1.1-0.7,2.2-1.1,3.3c-0.4,1-0.7,2.1-1.1,3.1c-0.1,0.2-0.1,0.4-0.2,0.6c-2.4,6.6-5.1,13.1-7.3,20.1c1.9-1.8,3.7-3.7,5.6-5.5
			c2-6.1,5.1-12.2,7.7-18.4c0.4-0.9,0.8-1.9,1.1-2.8C197.6,319.6,198,318.6,198.3,317.6z"/>
	</g>
	<path d="M313.8,145.2L313.8,145.2c3.1-3.1,4.7-4.6,7.8-7.6c-3.8-3.6-5.4-5.1-8.3-6.6c0,0,0,0,0,0
		C313.2,135.9,313.3,138.9,313.8,145.2"/>
	<path d="M329.5,130.2c3.2-2.9,4.8-4.4,8-7.2c-4.3-4.4-6.2-6.3-9.6-8.6c-2.6,8.8-3.9,13.6-6.4,23.2
		C324.7,134.6,326.3,133.1,329.5,130.2"/>
	<path d="M354,109.4c-6.6,5.1-10,8-16.5,13.7c2.2-10.1,3.3-15.2,5.6-24.6C347,101.6,349.2,103.9,354,109.4"/>
	<path d="M349.4,136C349.4,136,349.4,136,349.4,136c-7,4.8-10.5,7.3-17.3,12.4c0,0,0,0,0,0c2.2-10.1,3.3-15.3,5.4-25.4
		C341.9,127.5,344.2,130.2,349.4,136"/>
	<path d="M332.1,148.4c-6.8,5.2-10.1,7.8-16.7,13.4c2.5-9.7,3.7-14.6,6.2-24.2C325.4,141.2,327.5,143.5,332.1,148.4"/>
	<path d="M362.4,103.1c3.4-2.5,5.1-3.7,8.7-6.1c-5.4-6.4-7.9-9.3-12.3-13.6c-2,10-3,15.3-4.8,25.9
		C357.3,106.8,359,105.6,362.4,103.1"/>
	<path d="M380,91.2c-2.1-9.2-3-13.6-4.6-21.6c-1.8,10.7-2.7,16.3-4.3,27.4C374.6,94.7,376.4,93.5,380,91.2"/>
	<path d="M376.2,119.8c3.7-2,5.6-3,9.4-4.9c-6.1-7.8-9.1-11.5-14.5-17.9c-1.4,9.3-2.7,18.6-4,27.8
		C370.7,122.8,372.5,121.8,376.2,119.8"/>
	<path d="M367.1,124.9C367.1,124.9,367.1,124.9,367.1,124.9c-7.2,4.2-10.7,6.4-17.7,11.1c0,0,0,0,0,0c1.9-10.6,2.9-16.1,4.7-26.6
		C358.8,114.8,361.5,118.1,367.1,124.9"/>
	<path d="M317.7,178.8L317.7,178.8c3.5-2.5,5.3-3.7,8.8-6.1c-4.8-4.5-7-6.8-11.1-10.9l0,0C316.1,168.7,316.6,172.3,317.7,178.8"/>
	<path d="M335.4,167c3.6-2.3,5.4-3.3,9.1-5.5c-5.3-5.4-7.8-8.2-12.4-13.1c-2.2,10.1-3.3,15.1-5.6,24.3
		C330,170.4,331.8,169.2,335.4,167"/>
	<path d="M363,151.4c-7.4,3.7-11.2,5.8-18.5,10.1c2-9.7,3-14.9,4.9-25.5c0,0,0,0,0,0C354.5,141.8,357.2,145,363,151.4"/>
	<path d="M348.8,179.1c3.8-1.8,5.8-2.6,9.7-4.3c-5.9-5.1-8.7-7.9-14-13.3c-2,9.7-3,14.3-5.2,22.2C343,181.8,345,180.9,348.8,179.1"
		/>
	<path d="M339.3,183.7c-7.6,3.8-11.3,5.9-18.7,10.2c2.5-7.5,3.6-11.9,5.9-21.2C331.3,177.3,333.9,179.6,339.3,183.7"/>
	<path d="M372.4,147c3.8-1.7,5.7-2.6,9.6-4.2c-6.3-7.4-9.3-11.1-14.9-17.9c-1.6,11-2.4,16.4-4.1,26.5
		C366.7,149.6,368.6,148.7,372.4,147"/>
	<path d="M391.7,138.9c-2.6-9.4-3.8-14.3-6.2-24c-1.1,9.3-2.3,18.6-3.6,27.9C385.8,141.2,387.8,140.4,391.7,138.9"/>
	<path d="M388.1,164.2c4-1.2,6.1-1.8,10.2-2.9c-6.8-7.3-10.1-11.1-16.4-18.5c-1.5,10.6-2.2,15.7-3.8,24.6
		C382.1,166.1,384.1,165.4,388.1,164.2"/>
	<path d="M378.1,167.4c-8,2.7-11.8,4.1-19.6,7.4c1.9-8.4,2.8-13.3,4.5-23.4C368.7,157.9,371.8,161.2,378.1,167.4"/>
	<path d="M241.5,272.4L241.5,272.4c3.5-3.3,5.2-5,8.7-8.2c-2.5-0.6-3.9-0.8-7.8-1.3v0C242.9,266.8,242.6,268.6,241.5,272.4"/>
	<path d="M259.1,256.4c3.6-3.1,5.4-4.6,9-7.5c-2.9-1.1-4.5-1.5-8.6-2.2c-2.8,7.1-4.8,10.6-9.3,17.6
		C253.7,261,255.5,259.5,259.1,256.4"/>
	<path d="M286.7,235.1c-7.5,5-11.3,7.8-18.6,13.7c4.4-6.9,6.4-10.5,9.1-17.5C281.6,232.6,283.4,233.3,286.7,235.1"/>
	<path d="M275,252L275,252c-7.7,5.2-11.7,8.1-19.1,14.1l0,0c5.2-6.9,7.8-10.4,12.2-17.3C271.1,249.9,272.4,250.4,275,252"/>
	<path d="M255.9,266.1c-7.4,6-11,9.2-18.1,15.8c5.3-7.1,7.9-10.6,12.4-17.6C252.8,264.9,253.7,265.2,255.9,266.1"/>
	<path d="M296.2,229.1c3.8-2.3,5.7-3.4,9.6-5.5c-3.8-2.7-5.8-3.8-10.6-5.8c-2.5,7-4.3,10.5-8.4,17.3
		C290.5,232.6,292.4,231.4,296.2,229.1"/>
	<path d="M315.5,218.7c-0.2-5-0.4-7.6-1.9-12.6c-2.2,7.2-3.9,10.7-7.8,17.6C309.7,221.5,311.6,220.5,315.5,218.7"/>
	<path d="M304.8,235.5c4.1-1.8,6.1-2.7,10.2-4.3c-3.7-3.4-5.4-4.9-9.3-7.6c-3.9,6.9-6.2,10.2-11.1,16.8
		C298.7,238.3,300.7,237.4,304.8,235.5"/>
	<path d="M294.7,240.4C294.7,240.4,294.7,240.4,294.7,240.4c-8,4.1-12,6.4-19.7,11.6l0,0c5.1-6.7,7.5-10.1,11.7-16.9
		C290.1,236.9,291.6,238,294.7,240.4"/>
	<path d="M233.5,291.3L233.5,291.3c3.6-3.3,5.5-4.9,9.2-8c-2.2-0.7-3-1-4.8-1.5c0,0,0,0,0,0C236.1,285.7,235.1,287.6,233.5,291.3"/>
	<path d="M252.1,275.9c3.8-2.9,5.8-4.3,9.8-7c-2.8-1.3-3.8-1.8-6-2.7c-5.2,6.9-8,10.4-13.2,17.3
		C246.4,280.3,248.3,278.8,252.1,275.9"/>
	<path d="M282.2,256.6c-8.2,4.2-12.4,6.7-20.3,12.2c5.2-6.7,8.1-10.1,13.1-16.8c0,0,0,0,0,0C277.7,253.5,279,254.5,282.2,256.6"/>
	<path d="M259.9,278.8c4.1-2.6,6.3-3.9,10.5-6.2c-4.1-1.9-5.8-2.6-8.5-3.8c-5.2,6.7-7.8,10.1-12.1,16.8
		C253.8,282.8,255.8,281.4,259.9,278.8"/>
	<path d="M249.8,285.6c-7.9,5.7-11.7,8.8-19.1,15.2c4.3-7,6.8-10.5,12-17.4C244.9,284.1,246.2,284.5,249.8,285.6"/>
	<path d="M292.7,251.7c4.2-1.8,6.3-2.7,10.6-4.3c-3.8-3.2-5.4-4.6-8.5-7c-4.8,6.6-7.5,9.8-12.5,16.2
		C286.4,254.5,288.5,253.5,292.7,251.7"/>
	<path d="M314,243.8c0.3-5,0.6-7.6,1-12.6c-4.6,6.6-7,9.9-11.8,16.2C307.5,245.9,309.7,245.1,314,243.8"/>
	<path d="M303,259.3c4.5-1.3,6.7-1.9,11.3-2.9c-5.1-4-7.2-5.8-11-9c-4.8,6.3-7.2,9.4-11.3,15.5C296.3,261.4,298.5,260.6,303,259.3"
		/>
	<path d="M291.9,263c-8.8,3.2-13.1,5.1-21.5,9.7c4.3-6.4,6.8-9.6,11.8-16C285.5,258.8,287.3,260.1,291.9,263"/>
	<g>
		<path d="M281.6,195.6c-1.8,1.7-3.5,3.4-5.3,5.1c0,0.6,0,1.2,0,1.8c10.1-1,20.7-0.7,30.7,0.2c1.8-1.2,3.7-2.5,5.5-3.7
			c-0.1-0.7-0.3-1.4-0.4-2C302.2,195.7,291.7,194.9,281.6,195.6z"/>
		<path d="M271.3,196.9c-8,1.6-15.3,4.6-21.4,9.4c-1,1.2-2.1,2.4-3.1,3.5c-0.3,0.6-0.5,1.3-0.8,2c6.7-4.2,14.5-6.8,22.8-8.3
			c0.8-0.8,1.6-1.6,2.4-2.4C271.2,199.8,271.2,198.3,271.3,196.9z"/>
		<path d="M271,205.9c-1.3,1.3-2.5,2.5-3.8,3.8c-8.6,15.9-17.5,31.6-26.8,47.1c0,0.8,0,1.6,0,2.4c1.4-1.4,2.9-2.8,4.3-4.2
			c9.1-15.4,17.8-31,26.3-46.8C271,207.4,271,206.6,271,205.9z"/>
		<path d="M279,193.3c9.4-17.8,18.7-35.6,28-53.5c0-0.5,0-0.9,0-1.4c-1.5,1.8-3.1,3.7-4.6,5.5c-8.8,16.1-17.4,32.4-26,48.6
			c0,1.1-0.1,2.2-0.1,3.3C277.2,195,278.1,194.1,279,193.3z"/>
		<path d="M276.4,200.7c1.8-1.7,3.5-3.4,5.3-5.1c8.7-8.3,17.5-16.4,26.6-24.3c-0.2-1.8-0.4-3.6-0.5-5.4
			c-9.8,8.9-19.4,18.1-28.7,27.4c-0.9,0.9-1.7,1.7-2.6,2.6C276.3,197.5,276.3,199.1,276.4,200.7z"/>
		<path d="M271.1,201.2c-0.8,0.8-1.6,1.6-2.4,2.4c-9,9.2-17.9,18.5-26.8,27.9c-0.2,1.8-0.3,2.7-0.4,4.6c8.5-8.9,17.1-17.7,25.8-26.4
			c1.3-1.3,2.5-2.5,3.8-3.8C271,204.3,271.1,202.8,271.1,201.2z"/>
		<path d="M276.4,195.9c0-1.1,0-2.2,0.1-3.3c0.3-7,1-13.8,2.6-20.4c-1.9,2.3-2.8,3.4-4.7,5.7c-1.7,6.1-2.6,12.5-3,19
			c-0.1,1.4-0.2,2.8-0.2,4.3c-0.1,1.6-0.1,3.2-0.1,4.7c0,0.7,0,1.5,0,2.2c0.1,7.2,0.5,14.4,0.9,21.2c2.3-2,3.5-3,5.7-4.9
			c-0.6-7.1-1.2-14.5-1.3-21.9c0-0.6,0-1.2,0-1.8C276.3,199.1,276.3,197.5,276.4,195.9z"/>
	</g>
	<g>
		<path d="M363.3,215c-0.2-1.4-0.4-2.8-0.6-4.1c-11.6-5.7-23.7-9.9-36.3-12c-1.5,0.7-3,1.5-4.5,2.3c0,0,0,0,0,0c0.2,1,0.4,2,0.5,3
			c13.1,1.9,25.7,6.3,37.8,12.3c0.6-0.1,1.3-0.2,1.9-0.4C362.6,215.8,363,215.4,363.3,215z"/>
		<path d="M371.3,220.3c0.1,0.8,0.2,1.6,0.3,2.3c15.9,9.3,31,20.9,45.3,32.7c2.2,0.3,4.4,0.6,6.5,0.9c-0.3-1.2-0.6-2.4-0.9-3.6
			c-13.9-11.9-28.6-23.6-44.2-33.1C376,219.7,373.7,220,371.3,220.3z"/>
		<path d="M372.7,214.4c11.8-12.7,22.3-26.3,31.6-41.8c-0.1-0.4-0.2-0.8-0.4-1.2c-3.1,0.7-6.1,1.5-9.2,2.2
			c-7.6,12.4-16,23.7-25.1,34.3c0.3,2.2,0.7,4.5,1,6.7C371.3,214.6,372,214.5,372.7,214.4z"/>
		<path d="M356.1,222.6c-9.6,9.7-20.1,19.1-31.7,28.7c0,1.1,0.1,2.1,0.2,3.2c0,0,0,0,0,0c1.7-0.2,3.4-0.5,5.1-0.7
			c12.6-10.2,24.1-20.2,34.7-30.7c-0.1-0.6-0.1-1.2-0.2-1.8C361.4,221.7,358.7,222.1,356.1,222.6z"/>
		<path d="M363.4,215.9c0-0.3-0.1-0.6-0.1-0.9c-0.4,0.4-0.7,0.8-1.1,1.1C362.7,216.1,363,216,363.4,215.9z"/>
		<path d="M371.3,220.3c2.3-0.3,4.7-0.6,7.1-0.8c12.2-1.3,24.4-1.9,36.8-2c-0.5-2.3-0.9-4.6-1.4-6.9c-13.9,0.6-27.5,1.8-41.1,3.8
			c-0.7,0.1-1.4,0.2-2.1,0.3C370.8,216.6,371.1,218.4,371.3,220.3z"/>
		<path d="M363.4,215.9c-0.4,0.1-0.8,0.2-1.2,0.2c-0.6,0.1-1.3,0.2-1.9,0.4c-12,2.3-23.9,5.3-35.8,9.1c-0.1,1.7-0.1,2.6-0.2,4.3
			c10.6-3.1,21.2-5.5,31.8-7.4c2.7-0.5,5.3-0.9,8-1.3C363.9,219.5,363.7,217.7,363.4,215.9z"/>
		<path d="M370.6,214.7c-0.3-2.2-0.6-4.5-1-6.7c-1.3-8.4-2.9-16.8-5.3-25.1c-2.2,0.8-4.3,1.6-6.5,2.4c2.3,8.5,3.8,17,5,25.6
			c0.2,1.4,0.4,2.8,0.6,4.1c0,0.3,0.1,0.6,0.1,0.9c0.2,1.8,0.4,3.6,0.7,5.4c0.1,0.6,0.1,1.2,0.2,1.8c1.1,9.4,2.1,18.8,3.8,28.2
			c3.1,0,4.7,0.1,7.9,0.2c-1.9-9.6-3.1-19.2-4.3-28.8c-0.1-0.8-0.2-1.6-0.3-2.3C371.1,218.4,370.8,216.6,370.6,214.7z"/>
	</g>
	<path d="M480,52.8L480,52.8c4.2-0.6,6.4-0.9,10.6-1.3c-6-9.7-11.9-19.4-18-29.1c0,0,0,0,0,0C475,32.6,477.4,42.7,480,52.8"/>
	<path d="M501.6,50.9c4.4-0.1,6.7-0.1,11.2,0.1c-6.2-10.5-12.4-21-18.7-31.3c-1.3,10.6-2.4,21.2-3.3,31.9
		C494.9,51.1,497.1,51,501.6,50.9"/>
	<path d="M535.4,53.1c-9.1-1.4-13.7-1.9-22.6-2.2c0.9-10.4,2.1-20.8,3.3-31.2C522.6,30.8,528.9,42,535.4,53.1"/>
	<path d="M532.6,84.8C532.6,84.8,532.6,84.8,532.6,84.8c-9.2-1-13.7-1.3-22.8-1.3c0,0,0,0,0,0c0.9-10.9,1.9-21.7,2.9-32.6
		C519.4,62.2,526,73.5,532.6,84.8"/>
	<path d="M509.9,83.5c-9-0.1-13.2,0.2-21.7,1c0.8-11,1.6-22,2.5-33C497.1,62.2,503.5,72.8,509.9,83.5"/>
	<path d="M546.6,55.3c4.4,1,6.6,1.5,11,2.8c-6.5-11.6-12.8-23.4-19.3-35c-1,10-2.1,20.1-2.9,30.1C539.9,53.9,542.1,54.3,546.6,55.3"
		/>
	<path d="M568.3,61.4c-3-10.7-5.9-21.4-8.8-32.2c-0.7,9.6-1.4,19.2-1.9,28.8C561.9,59.3,564,60,568.3,61.4"/>
	<path d="M566.8,91.3c4.4,1.2,6.6,1.9,11,3.3c-6.7-12.2-13.5-24.4-20.2-36.5c-0.6,10.2-1.3,20.4-2,30.6
		C560.1,89.6,562.3,90.1,566.8,91.3"/>
	<path d="M555.6,88.6L555.6,88.6c-9-2-13.7-2.7-22.9-3.7c0,0,0,0,0,0c0.9-10.6,1.8-21.1,2.7-31.7C542.1,64.9,548.8,76.8,555.6,88.6"
		/>
	<path d="M496.8,116.6L496.8,116.6c4.3-0.2,6.4-0.3,10.7-0.3c-6.4-10.6-12.9-21.1-19.3-31.7v0C491,95.2,493.8,105.9,496.8,116.6"/>
	<path d="M518.6,116.3c4.6,0.2,6.9,0.3,11.5,0.7c-6.8-11.1-13.5-22.3-20.2-33.5c-0.9,10.9-1.7,21.8-2.4,32.7
		C511.8,116.1,514,116.2,518.6,116.3"/>
	<path d="M553.4,119.9c-9.3-1.6-14-2.1-23.3-2.9c0.8-10.7,1.7-21.4,2.5-32.2c0,0,0,0,0,0C539.5,96.6,546.4,108.2,553.4,119.9"/>
	<path d="M539.3,149.1c4.7,0.5,7,0.8,11.7,1.4c-7.1-11.1-14.1-22.3-20.9-33.5c-0.8,10.4-1.6,20.7-2.5,31.1
		C532.3,148.4,534.6,148.6,539.3,149.1"/>
	<path d="M527.6,148.1c-9.3-0.7-13.3-0.7-21.9-0.7c0.6-10.4,1.2-20.8,1.8-31.2C514,127,520.7,137.6,527.6,148.1"/>
	<path d="M564.9,122.1c4.6,1,6.9,1.5,11.4,2.7c-7-12-13.9-24.1-20.7-36.2c-0.7,10.4-1.4,20.9-2.2,31.3
		C558,120.7,560.3,121.1,564.9,122.1"/>
	<path d="M587.5,127.9c-3.3-11.1-6.6-22.2-9.8-33.3c-0.4,10.1-0.9,20.1-1.4,30.2C580.8,125.9,583.1,126.6,587.5,127.9"/>
	<path d="M586.1,157.4c4.6,1.1,6.9,1.7,11.4,3c-7.2-11.8-14.2-23.7-21.2-35.6c-0.5,10-1.1,19.9-1.8,29.9
		C579.2,155.7,581.5,156.2,586.1,157.4"/>
	<path d="M574.5,154.7c-9.3-2-14.1-2.8-23.5-4.1c0.8-10.2,1.6-20.4,2.3-30.7C560.3,131.6,567.3,143.2,574.5,154.7"/>
	<path d="M420.2,191.8L420.2,191.8c4.4-0.4,6.6-0.5,11-0.8c-6.7-8.9-10.2-13.2-17.6-21.2v0C416.8,178.6,418,183,420.2,191.8"/>
	<path d="M442.2,190.4c4.4-0.2,6.6-0.2,11.1-0.3c-5.7-8.2-11.9-16.2-18.4-23.7c-0.8,10.2-1.6,15.1-3.7,24.6
		C435.6,190.7,437.8,190.6,442.2,190.4"/>
	<path d="M475.5,190.1c-8.9-0.2-13.3-0.2-22.2,0c1.8-10.1,2.5-15.3,3.2-26C463.3,172.4,469.4,181.2,475.5,190.1"/>
	<path d="M470.6,215.9C470.6,215.9,470.6,215.9,470.6,215.9c-9.1-0.7-13.7-1-22.8-1.5c0,0,0,0,0,0c2.5-9.4,3.7-14.3,5.5-24.4
		C459.3,198.5,465.1,207.2,470.6,215.9"/>
	<path d="M447.8,214.4c-9.1-0.4-13.7-0.6-22.8-0.6c2.8-8.8,4.2-13.3,6.2-22.8C437,198.6,442.5,206.5,447.8,214.4"/>
	<path d="M486.6,190.4c4.4,0.2,6.6,0.3,11,0.5c-6.3-9.6-12.6-18.9-19.3-28.2c-0.5,11.2-1.2,16.7-2.8,27.4
		C479.9,190.2,482.2,190.2,486.6,190.4"/>
	<path d="M508.6,191.5c-2.5-9.8-5.4-19.6-8.6-29.1c-0.3,9.5-1.1,19.1-2.4,28.5C502,191.1,504.2,191.2,508.6,191.5"/>
	<path d="M504.5,219.3c4.5,0.5,6.7,0.8,11.1,1.4c-5.9-10-11.9-19.9-18.1-29.8c-1.4,11.2-2.3,16.6-4.3,27.2
		C497.8,218.5,500.1,218.8,504.5,219.3"/>
	<path d="M493.3,218C493.3,218,493.3,218,493.3,218c-9-1-13.6-1.4-22.7-2.1c0,0,0,0,0,0c2.2-10,3.3-15.2,4.9-25.8
		C481.6,199.3,487.5,208.6,493.3,218"/>
	<path d="M429.3,235.8L429.3,235.8c4.7,0.4,7.1,0.7,11.8,1.2c-5.3-7.8-10.7-15.5-16.1-23.2c0,0,0,0,0,0
		C426.7,222.6,427.4,227,429.3,235.8"/>
	<path d="M452.9,238.5c4.7,0.6,7.1,0.9,11.8,1.6c-5.6-8.6-11.2-17.2-16.9-25.7c-2.5,9.4-4,13.9-6.7,22.6
		C445.8,237.6,448.2,237.8,452.9,238.5"/>
	<path d="M488.1,243.7c-9.3-1.6-14-2.3-23.4-3.7c2.4-9.3,3.7-14.2,5.9-24.2c0,0,0,0,0,0C476.5,225.2,482.3,234.4,488.1,243.7"/>
	<path d="M471.1,265.1c4.8,1.1,7.2,1.6,12,2.7c-6.2-9.2-12.4-18.4-18.4-27.7c-2.4,9.3-3.7,13.8-5.7,22.4
		C463.9,263.5,466.3,264,471.1,265.1"/>
	<path d="M459,262.5c-9.7-2-14.6-3-24.4-4.7c2.4-8,3.8-12.1,6.5-20.8C447,245.6,452.9,254.1,459,262.5"/>
	<path d="M499.7,245.7c4.6,0.8,6.9,1.2,11.4,2c-5.9-9.9-11.8-19.8-17.8-29.7c-2,10.6-3.1,15.7-5.2,25.7
		C492.8,244.5,495.1,244.9,499.7,245.7"/>
	<path d="M522.4,249.8c-2.3-9.7-4.5-19.4-6.8-29.2c-1.7,11.1-2.7,16.5-4.5,27.1C515.7,248.6,517.9,249,522.4,249.8"/>
	<path d="M518.5,276.2c4.6,1.1,6.9,1.7,11.4,2.8c-6.4-10.3-12.6-20.8-18.8-31.2c-1.8,10.6-2.8,15.7-4.2,25.6
		C511.6,274.5,513.9,275.1,518.5,276.2"/>
	<path d="M506.9,273.4c-9.4-2.3-14.1-3.4-23.7-5.6c1.8-9.3,2.8-14.1,5-24C494.3,253.7,500.5,263.6,506.9,273.4"/>
	<g>
		<path d="M427.7,82.5c-12.9-9-26.2-16.6-39.9-21.9c-1.4,0.9-2.8,1.9-4.2,2.9c0.4,1.7,0.7,3.3,1.1,5c14.8,6.2,29.3,14.8,43.3,24.8
			c0.7-0.2,1.5-0.5,2.2-0.8C429.4,89.2,428.6,85.9,427.7,82.5z"/>
		<path d="M447.6,97.7c-2.7,0.7-5.4,1.4-8.1,2.1c0.2,0.8,0.4,1.6,0.7,2.5c18,14.1,35.1,30.1,51.1,46c1.7-0.1,3.5-0.2,5.2-0.2
			c-0.6-2.1-1.3-4.2-1.9-6.4C479.8,126.6,464.1,111.3,447.6,97.7z"/>
		<path d="M427.8,103.2c-6.6,17.1-13.5,34.1-21.2,50.7c0.5,1.8,1.1,3.5,1.6,5.3c0,0,0,0,0.1,0c1.6-0.4,3.2-0.7,4.9-1.1
			c7.7-16.6,14.7-33.5,21.2-50.6c-0.5-2-1.1-3.9-1.6-5.9C431.1,102.2,429.4,102.7,427.8,103.2z"/>
		<path d="M437,90.4c1.5-0.4,2.9-0.9,4.4-1.3c7.6-20.3,15-40.6,23.2-60.6c-0.3-1.3-0.6-2.6-1-4c-2.3,0.7-4.5,1.3-6.7,2
			c-7.6,18.9-14.6,38-21.7,57.1C435.8,85.9,436.4,88.1,437,90.4z"/>
		<path d="M430.3,92.5c-0.7,0.2-1.5,0.5-2.2,0.8c-11.6,3.9-23,8.4-34.4,13.6c0.7,2.7,1.4,5.4,2.1,8.1c10.7-4.4,21.3-8.4,32.1-11.7
			c1.7-0.5,3.3-1,5-1.5C431.9,98.6,431.1,95.5,430.3,92.5z"/>
		<path d="M437,90.4c0.8,3.1,1.7,6.3,2.5,9.4c2.7-0.7,5.4-1.4,8.1-2.1c10.8-2.7,21.7-4.8,32.9-6.3c-0.9-3.4-1.8-6.9-2.7-10.3
			c-12.4,1.9-24.5,4.6-36.4,8C439.9,89.5,438.4,89.9,437,90.4z"/>
		<path d="M437,90.4c-0.6-2.3-1.2-4.5-1.8-6.8c-3.8-14.6-7.4-29.3-10.9-44.1c-2.1,1-4.2,2.1-6.3,3.2c3.1,13.3,6.4,26.6,9.8,39.8
			c0.8,3.3,1.7,6.6,2.6,9.9c0.8,3.1,1.6,6.2,2.5,9.2c0.5,2,1.1,3.9,1.6,5.9c4.1,14.9,8.4,29.6,13,44.3c2.8-0.4,4.2-0.6,7-0.9
			c-5-16.2-9.7-32.4-14.2-48.7c-0.2-0.8-0.5-1.6-0.7-2.5C438.6,96.6,437.8,93.5,437,90.4z"/>
	</g>
	<g>
		<path d="M565,215.9c-16.4-18.2-33.1-36.2-50.5-53.5c-1.6-0.1-3.3-0.2-4.9-0.2c0,0,0,0,0,0c0.7,2.3,1.4,4.6,2.1,6.8
			c17.2,17.3,33.8,35.3,50.2,53.5c1.7,0.3,3.3,0.6,5,0.9C566.2,220.9,565.6,218.4,565,215.9z"/>
		<path d="M577.3,235.3c0.5,2.1,1,4.2,1.5,6.3c18,20.3,36,40.7,54.4,60.7c2.6,0.6,5.2,1.1,7.8,1.7c-0.5-1.5-0.9-3.1-1.3-4.6
			c-19.1-20.7-37.6-41.9-56.3-62.9C581.3,236,579.3,235.7,577.3,235.3z"/>
		<path d="M562.9,232.6c-8.2,13.9-16.5,27.9-24.6,42c0.6,2.3,1.2,4.6,1.8,6.9c0,0,0,0,0,0c1.7,0.4,3.4,0.8,5.1,1.2
			c8.1-14.8,16.8-29.1,25.4-43.5c-0.4-1.8-0.9-3.7-1.3-5.5C567.2,233.3,565,233,562.9,232.6z"/>
		<path d="M578.9,225.7c9.1-15.1,18.1-30.3,26.5-46c-0.3-1-0.7-2.1-1-3.1c-2.8-0.7-5.7-1.5-8.5-2.1c-7.5,14.1-15.4,28-23.4,41.7
			c0.7,2.9,1.5,5.8,2.2,8.7C576.1,225.1,577.5,225.4,578.9,225.7z"/>
		<path d="M577.3,235.3c2,0.4,4,0.8,6,1.2c13.8,2.8,27.6,5.8,41.3,9.1c-0.9-3.5-1.9-6.9-2.9-10.4c-14.2-3.5-28.5-6.7-42.8-9.5
			c-1.4-0.3-2.8-0.6-4.2-0.8C575.6,228.3,576.4,231.8,577.3,235.3z"/>
		<path d="M566.8,223.4c-1.7-0.3-3.3-0.6-5-0.9c-12.4-2.2-24.9-4-37.4-5.5c0.9,3.9,1.3,5.8,2.2,9.7c12.1,1.7,24.2,3.7,36.3,5.9
			c2.1,0.4,4.3,0.8,6.4,1.2C568.5,230.3,567.7,226.8,566.8,223.4z"/>
		<path d="M574.7,224.9c-0.7-2.9-1.4-5.8-2.2-8.7c-4.2-16.5-8.5-32.9-13.5-49.2c-2.6-0.4-5.1-0.8-7.7-1.1
			c5.1,16.6,9.5,33.3,13.6,50.1c0.6,2.5,1.2,5,1.9,7.5c0.8,3.4,1.7,6.9,2.5,10.4c0.4,1.8,0.9,3.7,1.3,5.5
			c4.2,17.4,8.4,34.8,13.1,52.1c3.3,0.7,4.9,1.1,8.2,1.8c-4.7-17.1-8.9-34.4-13.2-51.6c-0.5-2.1-1-4.2-1.5-6.3
			C576.4,231.8,575.6,228.3,574.7,224.9z"/>
	</g>
	<path d="M665.7,119.5L665.7,119.5c3.5,2.9,5.3,4.3,8.8,7.2c-7.5-11.6-14.5-23.5-21.5-35.4v0C657.2,100.7,661.3,110.2,665.7,119.5"
		/>
	<path d="M683.1,134.1c3.4,3,5.1,4.4,8.5,7.4c-7.7-11.2-15.1-22.8-22.3-34.3c2.2,7.5,3.2,11.4,5.1,19.6
		C678,129.7,679.7,131.2,683.1,134.1"/>
	<path d="M708.4,156.3c-6.8-6.1-10-8.9-16.7-14.8c-2.5-7.6-3.7-11.3-6.4-18.2C692.7,134.4,700.3,145.6,708.4,156.3"/>
	<path d="M715.3,174.7C715.3,174.7,715.3,174.7,715.3,174.7c-7.1-5.4-10.7-8.1-18-13.4c0,0,0,0,0,0c-2.1-8.2-3.2-12.2-5.6-19.8
		C699.3,152.7,707.2,163.8,715.3,174.7"/>
	<path d="M697.3,161.3c-7.3-5.4-11-8-18.4-13.2c-1.6-8.9-2.5-13.1-4.4-21.3C681.9,138.4,689.5,149.9,697.3,161.3"/>
	<path d="M716.9,164c3.4,3.1,5.1,4.6,8.5,7.6c-8.5-10.4-16.5-21.1-24.4-32c3.1,6.4,4.6,9.8,7.5,16.7
		C711.8,159.4,713.5,160.9,716.9,164"/>
	<path d="M733.8,179.2c-5.9-7.5-11.4-15.3-17-23c3.6,5.9,5.2,9,8.6,15.4C728.7,174.7,730.4,176.2,733.8,179.2"/>
	<path d="M742.2,195.3c3.6,2.8,5.4,4.1,9,6.9c-8.8-10-17.4-20.2-25.8-30.5c3.3,6.4,4.9,9.7,7.8,16.8
		C736.8,191.1,738.6,192.5,742.2,195.3"/>
	<path d="M733.2,188.4C733.2,188.4,733.2,188.4,733.2,188.4c-7.2-5.5-10.8-8.3-17.9-13.6c0,0,0,0,0,0c-2.6-7.7-4-11.4-6.9-18.4
		C716.4,167.2,724.7,177.9,733.2,188.4"/>
	<path d="M692.2,176.7L692.2,176.7c3.9,2.3,5.9,3.5,9.7,5.9c-7.9-11.4-15.6-22.9-23.1-34.5v0C683.3,157.6,687.7,167.2,692.2,176.7"
		/>
	<path d="M711.6,188.6c3.8,2.4,5.7,3.6,9.5,6c-8.2-10.9-16.1-22-23.9-33.3c2.1,8.2,3,12.5,4.7,21.3
		C705.8,185,707.8,186.2,711.6,188.6"/>
	<path d="M740,206.6c-7.6-4.9-11.3-7.2-18.9-12c-2.1-8.2-3.3-12.2-5.9-19.8c0,0,0,0,0,0C723.3,185.5,731.5,196.2,740,206.6"/>
	<path d="M736,220.8c4,2.1,6,3.2,10,5.3c-8.5-10.3-16.8-20.9-24.8-31.6c2.1,8.2,3.1,12.4,4.9,20.9C730,217.6,732,218.7,736,220.8"/>
	<path d="M726,215.5c-8.1-4.3-12.1-6.4-20.3-10.6c-1.3-9-2.1-13.5-3.7-22.3C709.7,193.7,717.7,204.7,726,215.5"/>
	<path d="M749.5,212.8c3.8,2.5,5.7,3.7,9.5,6.2c-8.9-10-17.5-20.2-25.9-30.6c2.9,7,4.3,10.7,6.8,18.2
		C743.8,209.1,745.7,210.3,749.5,212.8"/>
	<path d="M768.5,225.1c-5.8-7.6-11.6-15.3-17.4-22.9c3.3,6.4,4.9,9.8,7.9,16.8C762.8,221.4,764.7,222.6,768.5,225.1"/>
	<path d="M775.9,242.5c4,2.2,6,3.3,10,5.5c-9.2-9.5-18.2-19.1-26.9-29c2.9,7,4.3,10.6,6.9,18.1C769.9,239.2,771.9,240.3,775.9,242.5
		"/>
	<path d="M765.9,237c-8-4.4-12-6.5-19.9-10.8c-2.2-8-3.4-12-6-19.6C748.4,216.9,757,227.1,765.9,237"/>
	<path d="M625,211.5L625,211.5c4.6,1.3,6.9,2,11.5,3.4c-7.1-11.7-14.3-23.4-21.6-34.9v0C618.4,190.4,621.8,200.9,625,211.5"/>
	<path d="M648,218.4c4.6,1.5,6.8,2.2,11.4,3.7c-7.3-11.6-14.6-23.2-22-34.8c0.1,10.9-0.1,16.4-0.8,27.6
		C641.1,216.2,643.4,216.9,648,218.4"/>
	<path d="M681.9,229.9c-8.9-3.2-13.4-4.8-22.5-7.8c0.4-10.8,0.4-16.1,0-26.5C666.8,207,674.3,218.5,681.9,229.9"/>
	<path d="M681.2,256.3C681.2,256.3,681.2,256.3,681.2,256.3c-9.3-2.8-14-4.2-23.4-6.8c0,0,0,0,0,0c0.9-11.1,1.3-16.6,1.6-27.4
		C666.6,233.6,673.8,245,681.2,256.3"/>
	<path d="M657.8,249.5c-9.4-2.7-14.2-3.9-23.7-6.4c1-9.4,1.9-18.8,2.5-28.2C643.6,226.4,650.6,238,657.8,249.5"/>
	<path d="M693,234c4.4,1.7,6.7,2.5,11.1,4.2c-7.8-11.2-15.5-22.4-23.1-33.7c0.8,9.9,0.9,15,0.9,25.4
		C686.3,231.6,688.6,232.4,693,234"/>
	<path d="M715.1,242.5c-4.2-9.5-8.5-19-12.9-28.4c1.1,9.4,1.5,14.3,1.9,24.1C708.5,239.9,710.7,240.8,715.1,242.5"/>
	<path d="M715.9,267.2c4.6,1.5,6.9,2.2,11.5,3.7c-7.9-10.8-15.7-21.7-23.3-32.7c0.4,9.9,0.5,15,0.3,25.3
		C709,265,711.3,265.7,715.9,267.2"/>
	<path d="M704.4,263.5C704.4,263.5,704.4,263.5,704.4,263.5c-9.2-2.9-13.9-4.4-23.2-7.2c0,0,0,0,0,0c0.5-10.7,0.7-16,0.7-26.4
		C689.3,241.2,696.8,252.4,704.4,263.5"/>
	<path d="M642.9,274.7L642.9,274.7c4.9,1.2,7.3,1.8,12.2,2.9c-7.2-11.4-14.1-23-21.1-34.5v0C637,253.6,640,264.1,642.9,274.7"/>
	<path d="M667.3,280.6c4.9,1.2,7.3,1.8,12.1,3c-7.4-11.3-14.6-22.7-21.7-34.1c-0.7,9.4-1.6,18.7-2.6,28.1
		C660,278.8,662.5,279.4,667.3,280.6"/>
	<path d="M703.6,289.8c-9.6-2.5-14.5-3.8-24.2-6.2c0.8-11.1,1.2-16.5,1.7-27.3c0,0,0,0,0,0C688.5,267.6,696,278.8,703.6,289.8"/>
	<path d="M689.8,314.4c5,1.1,7.5,1.6,12.5,2.7c-7.9-11-15.5-22.2-22.9-33.5c-0.7,9.4-1.4,18.7-2.1,28.1
		C682.3,312.8,684.8,313.3,689.8,314.4"/>
	<path d="M677.3,311.7c-10-2.2-15-3.3-25-5.5c0.9-9.6,1.9-19.1,2.8-28.6C662.3,289.1,669.7,300.5,677.3,311.7"/>
	<path d="M715.7,293c4.8,1.3,7.2,1.9,12,3.2c-7.9-10.7-15.7-21.6-23.3-32.6c-0.1,10.3-0.3,15.6-0.8,26.3
		C708.4,291.1,710.8,291.7,715.7,293"/>
	<path d="M739.6,299.3c-4.1-9.5-8.2-18.9-12.2-28.4c0.3,9.9,0.3,14.9,0.2,25.2C732.5,297.4,734.8,298.1,739.6,299.3"/>
	<path d="M739.7,325.1c5,1.1,7.5,1.6,12.4,2.6c-8.4-10.3-16.6-20.9-24.5-31.6c-0.1,10.3-0.2,15.6-0.4,26.3
		C732.2,323.5,734.7,324.1,739.7,325.1"/>
	<path d="M727.3,322.5c-10-2.1-15-3.2-24.9-5.4c0.5-11.1,0.8-16.5,1.3-27.3C711.3,300.9,719.1,311.8,727.3,322.5"/>
	<g>
		<path d="M635,124.9c0.5,1.5,1.1,3,1.6,4.5c17.8,23.4,36,46.5,55.1,68.9c1.8,0.9,3.6,1.7,5.4,2.6c-0.8-1.8-1.7-3.7-2.5-5.5
			c-18.5-21.8-36-44.2-53.1-66.9C639.3,127.3,637.1,126.1,635,124.9z"/>
		<path d="M621.5,101.6c-16-21.9-31.7-44-47.5-66.2c-1.6-0.8-3.2-1.6-4.8-2.3c0.7,2.4,1.4,4.9,2.1,7.3
			c16.7,23.1,33.4,46.1,50.3,68.9c1.1,0.6,2.2,1.1,3.2,1.7C623.7,107.9,622.6,104.7,621.5,101.6z"/>
		<path d="M623.7,119c-5.7,12.7-11.7,25.2-17.7,37.7c0.8,2.5,1.6,4.9,2.3,7.4c0,0,0,0,0.1,0.1c1.7,0.6,3.4,1.1,5.2,1.7
			c5.8-12.3,11.8-24.6,17.4-37.2c-0.8-2.4-1.7-4.8-2.5-7.3C626.8,120.6,625.2,119.8,623.7,119z"/>
		<path d="M635.9,117.3c4.1-9.5,7.9-19.2,11.3-28.9c-0.5-1.2-1.1-2.5-1.6-3.7c-1.9-1.6-3.8-3.2-5.7-4.8c-3.5,9.3-7.3,18.6-11.2,27.7
			c0.8,2.4,1.7,4.8,2.5,7.1C632.8,115.5,634.4,116.4,635.9,117.3z"/>
		<path d="M635,124.9c2.2,1.2,4.3,2.3,6.4,3.5c10.7,6,21.2,12.5,31.6,19.2c-1.4-3.2-2.8-6.4-4.2-9.5c-10.8-7.4-21.7-14.4-32.9-20.9
			c-1.5-0.9-3.1-1.8-4.6-2.6C632.5,118.1,633.7,121.5,635,124.9z"/>
		<path d="M624.8,111.1c-1.1-0.6-2.2-1.2-3.2-1.7c-11.3-6-23-11.5-35.1-16.3c1.3,4.3,1.9,6.5,3.2,10.8c11.7,4.5,23,9.6,34,15.2
			c1.6,0.8,3.2,1.6,4.7,2.4C627.2,118,626,114.5,624.8,111.1z"/>
		<path d="M631.3,114.7c-0.8-2.4-1.7-4.8-2.5-7.1c-5.9-16.6-11.7-33.2-17.4-49.9c-2-1.4-4-2.8-6-4.1c5.3,16,10.7,32.1,16.2,48
			c1.1,3.2,2.2,6.3,3.3,9.5c1.2,3.5,2.4,6.9,3.6,10.4c0.8,2.4,1.7,4.8,2.5,7.3c5.9,16.8,11.9,33.5,18.1,50.2c2.8,1.2,4.2,1.7,7,2.9
			c-6.6-17.4-13.1-34.9-19.4-52.4c-0.5-1.5-1.1-3-1.6-4.5C633.7,121.5,632.5,118.1,631.3,114.7z"/>
	</g>
	<g>
		<path d="M772.3,275.8c-19.3-17.5-37.9-35.9-56-55.2c-1.7-0.8-3.3-1.6-5-2.4c0,0,0,0,0,0c1,2.1,2,4.1,3,6.2
			c19.2,20.5,39,40.1,59.5,58.6c1.1,0.4,2.1,0.7,3.2,1.1C775.5,281.3,773.9,278.5,772.3,275.8z"/>
		<path d="M789.3,294.8c0.7,1.1,1.3,2.2,2,3.4c21.5,18.3,43.9,35.5,67.4,51.5c2.3,0.5,4.7,0.9,7,1.4c-1-1.4-2.1-2.7-3.1-4.1
			c-22.9-15.5-44.7-32.1-65.7-49.7C794.3,296.4,791.8,295.6,789.3,294.8z"/>
		<path d="M776.8,290.7c-5.1,11.3-10.9,22.3-16.4,33.1c1,2.2,2,4.3,3,6.5c1.9,0.4,3.8,0.8,5.7,1.2c5.5-10.7,11.2-21.7,16.3-32.9
			c-1.2-2.1-2.4-4.1-3.5-6.2C780.2,291.8,778.5,291.3,776.8,290.7z"/>
		<path d="M784.3,286.5c1.8,0.6,3.6,1.3,5.4,1.9c3.4-8.4,6.3-16.9,8.4-25.6c-0.7-1-1.5-1.9-2.2-2.9c-2.3-1.1-4.6-2.3-6.8-3.4
			c-2,8.3-4.8,16.5-8.1,24.5C782.1,282.8,783.2,284.7,784.3,286.5z"/>
		<path d="M777.1,284c-1.1-0.4-2.1-0.7-3.2-1.1c-12.8-4.4-25.5-8.8-38.3-13.2c1.7,3.6,2.5,5.5,4.1,9.1c12.4,4,24.7,8,37.1,12
			c1.7,0.5,3.4,1.1,5.1,1.6C780.3,289.6,778.7,286.8,777.1,284z"/>
		<path d="M784.3,286.5c1.6,2.7,3.3,5.5,4.9,8.2c2.5,0.8,5,1.6,7.5,2.4c12.3,4,24.6,8,36.8,11.9c-1.9-2.5-3.8-4.9-5.7-7.4
			c-12.7-4.4-25.5-8.9-38.2-13.3C788,287.8,786.2,287.2,784.3,286.5z"/>
		<path d="M784.3,286.5c-1.1-1.9-2.2-3.7-3.3-5.6c-8.2-13.7-16.5-27.4-24.9-41c-2.2-1.1-4.4-2.2-6.6-3.3c7.7,13,15.3,26,22.8,39.1
			c1.6,2.7,3.2,5.5,4.7,8.2c1.6,2.8,3.2,5.6,4.8,8.4c1.2,2.1,2.4,4.1,3.5,6.2c7.9,13.7,15.8,27.5,23.8,41.1c2.7,0.5,5.4,1.1,8.1,1.6
			c-8.7-14.4-17.3-28.8-26-43.2c-0.7-1.1-1.3-2.2-2-3.4C787.6,292,786,289.3,784.3,286.5z"/>
	</g>
</g>
</svg>
