<?xml version="1.0" encoding="utf-8"?>
<!-- Generator: Adobe Illustrator 24.0.1, SVG Export Plug-In . SVG Version: 6.00 Build 0)  -->
<svg version="1.2" baseProfile="tiny" id="Layer_1" xmlns="http://www.w3.org/2000/svg" xmlns:xlink="http://www.w3.org/1999/xlink"
	 x="0px" y="0px" viewBox="0 0 407.3 354" xml:space="preserve">
<g>
	<g>
		<path fill="#010101" d="M303.5,187.6v103.3c0,1.3-1,2.3-2.3,2.3l-154.3-3.3l-41,3.3c-1.2,0-2.3-1-2.3-2.3V189.4
			c1.4,0.4,3,0.6,4.5,0.7L107,290.7l40.2-2.3l88.5,2.5l35.8,0.1h3l12.5,0l2.9,0l10.9,0l-1.8-100.9l0-2.5c0-1.3,1-2.3,2.3-2.3
			C302.5,185.3,303.5,186.4,303.5,187.6z"/>
	</g>
	<g>
		<path fill="#010101" d="M224.4,279.6H119.6c-1.3,0-2.3-1-2.3-2.3v-78.6c0-1.3,1-2.3,2.3-2.3h104.8c1.3,0,2.3,1,2.3,2.3v78.6
			C226.7,278.6,225.7,279.6,224.4,279.6z M119.8,277h104.4v-78.7H119.8V277z"/>
	</g>
	<g>
		<g>
			<g>
				<path fill="#010101" d="M319,156C319,156,319,156,319,156l-18.7-41.5l-0.2-0.4c-0.4-0.8-1.2-1.3-2.1-1.3H109.2
					c-0.9,0-1.7,0.5-2.1,1.3l-0.2,0.4L88.1,157c0,0,0,0,0,0L88,169c0,9.8,6.6,18,15.7,20.4c1.4,0.4,3,0.6,4.5,0.7c0.3,0,0.7,0,1,0
					c8.2,0,15.4-4.7,18.9-11.6c3.5,6.9,10.6,11.6,18.9,11.6c8.2,0,15.4-4.7,18.9-11.6c3.5,6.9,10.6,11.6,18.9,11.6
					c8.2,0,15.4-4.7,18.9-11.6c3.5,6.9,10.6,11.6,18.9,11.6c8.2,0,15.4-4.7,18.9-11.6c3.5,6.9,10.6,11.6,18.9,11.6
					c8.2,0,15.4-4.7,18.9-11.6c3.5,6.9,10.6,11.6,18.9,11.6c0.3,0,0.7,0,1,0l0-2.5c0-1.3,1-2.3,2.3-2.3c1.3,0,2.3,1,2.3,2.3v1.8
					c9-2.4,15.7-10.7,15.7-20.4v-12.1C319.2,156.6,319.2,156.3,319,156z M127.6,169c0,9.2-9.3,18.6-18.4,18.6
					c-10.6,0-18.2-9.4-18.2-18.6v-9.8h36.7V169z M127.5,157.4H90.9l18.2-41.7H140L127.5,157.4z M166.6,169
					c0,9.2-10.4,18.6-19.6,18.6c-9.2,0-17.6-9.4-17.6-18.6v-9.8h37.2V169z M166.6,157.4h-36.8l12.4-41.6l29,0.5L166.6,157.4z
					 M203.6,169c0,9.2-9.6,18.6-18.7,18.6c-9.2,0-16.8-9.4-16.8-18.6v-9.8h35.5V169z M203.6,157.4h-35.5l4.5-41.1l31-0.6
					L203.6,157.4z M205.4,116.3l30.3-0.5l3.2,41.6h-33.5V116.3z M239.1,169c0,9.2-7.5,18.6-16.6,18.6c-10.8,0-17.1-9.4-17.1-18.6
					v-9.8h33.7V169z M238,115.7l28.8,0.1l11.8,41.6h-37.1L238,115.7z M278.6,169c0,9.2-9.2,18.6-18.3,18.6
					c-9.2,0-18.9-9.4-18.9-18.6v-9.8h37.2V169z M269.1,115.5l28.9,0.2l17.4,41.7h-34.9L269.1,115.5z M315.5,169
					c0,9.2-7.2,18.3-17.5,18.3c-10.6,0-17.5-9.1-17.5-18.3v-9.8h35.1V169z"/>
			</g>
			<g>
				<path fill="none" stroke="#010101" stroke-miterlimit="10" d="M301.3,185.3c-1.2,0-2.3,1-2.3,2.3l0,2.5c1.6-0.1,3.1-0.3,4.5-0.7
					v-1.8C303.5,186.4,302.5,185.3,301.3,185.3z"/>
			</g>
		</g>
		<g>
			<g>
				<path fill="#010101" d="M299.6,62l-40.6-1.1L162.4,64l-53.2-2c-1.3,0-2.3,1-2.3,2.3v50.2l0.2-0.4c0.4-0.8,1.2-1.3,2.1-1.3h0
					l1-48.3l52.2,1.3l96.9-2.6l39.1,1.4l-1.7,48.2h1.3c0.9,0,1.7,0.5,2.1,1.3l0.2,0.4V64.3C300.3,63,300.9,62,299.6,62z"/>
			</g>
			<g>
				<g>
					<g>
						<path fill="#010101" d="M154.1,104.5c-7.1,0-12.8-5.8-12.8-12.8v-4.1c0-7.1,5.8-12.8,12.8-12.8c7.1,0,12.8,5.8,12.8,12.8v4.1
							C166.9,98.7,161.2,104.5,154.1,104.5z M154.1,79.3c-4.6,0-8.3,3.7-8.3,8.3v4.1c0,4.6,3.7,8.3,8.3,8.3c4.6,0,8.3-3.7,8.3-8.3
							v-4.1C162.4,83,158.7,79.3,154.1,79.3z"/>
					</g>
					<g>
						<path fill="#010101" d="M129.8,104.5c-1.2,0-2.4-0.2-3.5-0.5c-5.4-1.4-9.9-7.6-9.9-13.5v-1.9c0-6,4.4-12.1,9.8-13.5
							c4.2-1.1,8.6-0.2,12,2.5c1,0.8,1.1,2.2,0.4,3.2c-0.8,1-2.2,1.1-3.2,0.4c-2.2-1.8-5.1-2.4-8-1.6c-3.4,0.9-6.4,5.2-6.4,9.1v1.9
							c0,3.9,3.1,8.2,6.5,9.1c2.9,0.7,5.8,0.1,8-1.7c1-0.8,2.4-0.7,3.2,0.3c0.8,1,0.7,2.4-0.3,3.2
							C135.9,103.5,132.9,104.5,129.8,104.5z"/>
					</g>
					<g>
						<g>
							<path fill="#010101" d="M223.9,104.5h-14.1c-1.3,0-2.3-1-2.3-2.3V77c0-1.3,1-2.3,2.3-2.3h13.5c1.3,0,2.3,1,2.3,2.3
								c0,1.3-1,2.3-2.3,2.3h-11.2V100h11.8c1.3,0,2.3,1,2.3,2.3C226.2,103.5,225.1,104.5,223.9,104.5z"/>
						</g>
						<g>
							<g>
								<path fill="#010101" d="M222.6,91.3h-12.8c-1.3,0-2.3-1-2.3-2.3c0-1.3,1-2.3,2.3-2.3h12.8c1.3,0,2.3,1,2.3,2.3
									C224.9,90.2,223.9,91.3,222.6,91.3z"/>
							</g>
						</g>
					</g>
					<g>
						<g>
							<path fill="#010101" d="M244.6,104.5h-14.1c-1.3,0-2.3-1-2.3-2.3V77c0-1.3,1-2.3,2.3-2.3H244c1.3,0,2.3,1,2.3,2.3
								c0,1.3-1,2.3-2.3,2.3h-11.2V100h11.8c1.3,0,2.3,1,2.3,2.3C246.9,103.5,245.8,104.5,244.6,104.5z"/>
						</g>
						<g>
							<g>
								<path fill="#010101" d="M243.3,91.3h-12.8c-1.3,0-2.3-1-2.3-2.3c0-1.3,1-2.3,2.3-2.3h12.8c1.3,0,2.3,1,2.3,2.3
									C245.6,90.2,244.6,91.3,243.3,91.3z"/>
							</g>
						</g>
					</g>
					<g>
						<g>
							<path fill="#010101" d="M171.3,104.5c-1.3,0-2.3-1-2.3-2.3V77c0-1.3,1-2.3,2.3-2.3h12.7c1.3,0,2.3,1,2.3,2.3
								c0,1.3-1,2.3-2.3,2.3h-10.4v23C173.5,103.5,172.5,104.5,171.3,104.5z"/>
						</g>
						<g>
							<path fill="#010101" d="M183.1,91h-11.8c-1.3,0-2.3-1-2.3-2.3c0-1.3,1-2.3,2.3-2.3h11.8c1.3,0,2.3,1,2.3,2.3
								C185.4,90,184.3,91,183.1,91z"/>
						</g>
					</g>
					<g>
						<g>
							<path fill="#010101" d="M190.5,104.5c-1.3,0-2.3-1-2.3-2.3V77c0-1.3,1-2.3,2.3-2.3h12.7c1.3,0,2.3,1,2.3,2.3
								c0,1.3-1,2.3-2.3,2.3h-10.4v23C192.8,103.5,191.8,104.5,190.5,104.5z"/>
						</g>
						<g>
							<path fill="#010101" d="M202.4,91h-11.8c-1.3,0-2.3-1-2.3-2.3c0-1.3,1-2.3,2.3-2.3h11.8c1.3,0,2.3,1,2.3,2.3
								C204.6,90,203.6,91,202.4,91z"/>
						</g>
					</g>
				</g>
				<g>
					<g>
						<path fill="#010101" d="M258.6,100.6c-0.6,0-1.2-0.2-1.6-0.7c-4.6-4.6-2.5-13.9,4.8-21.2c3.3-3.3,7.2-5.7,11-6.7
							c4.2-1.1,7.8-0.4,10.2,1.9c0.6,0.6,0.8,1.5,0.5,2.4c-2.1,5.8-6.9,10.6-12.7,12.8l0,0c-4.6,1.7-8.4,5.5-10.1,10.1
							c-0.3,0.7-0.9,1.3-1.6,1.4C258.9,100.6,258.8,100.6,258.6,100.6z M276.6,76c-0.8,0-1.7,0.1-2.6,0.4c-3,0.8-6.2,2.8-9,5.5
							c-3.6,3.6-5.5,7.5-5.9,10.5c2.5-3.5,6-6.2,10.1-7.7c4-1.5,7.5-4.6,9.3-8.4C278,76.1,277.3,76,276.6,76z M270,86.9L270,86.9
							L270,86.9z"/>
					</g>
					<g>
						<path fill="#010101" d="M268.8,107.7c-2.6,0-4.8-0.8-6.4-2.4c-0.6-0.6-0.8-1.5-0.5-2.4c2.1-5.9,6.9-10.6,12.8-12.8
							c4.6-1.7,8.4-5.5,10-10c0.3-0.7,0.9-1.3,1.6-1.4c0.8-0.2,1.6,0.1,2.1,0.6c2.4,2.4,3,6,1.9,10.2c-1,3.8-3.4,7.7-6.7,11l0,0l0,0
							c-3.3,3.3-7.2,5.7-11,6.7C271.2,107.6,270,107.7,268.8,107.7z M266.8,102.9c1.2,0.5,2.8,0.4,4.6,0c3-0.8,6.3-2.8,9-5.6l0,0
							c2.8-2.8,4.7-5.9,5.5-9c0.1-0.5,0.2-1.1,0.3-1.5c-2.5,3.5-6,6.2-10.1,7.6C272.2,95.9,268.7,99,266.8,102.9z"/>
					</g>
				</g>
			</g>
		</g>
	</g>
	<g>
		<path fill="#010101" d="M287.9,292l-50.8-0.2c-1.3,0-1.4,0.3-1.4-0.9v-92.2c0-1.3,1-2.3,2.3-2.3h49.7c1.3,0,2.3,1,2.3,2.3v92.2
			C289.9,292.2,289.2,292,287.9,292z M238,290.8L287,291l0.9-91.8l-51-0.9L238,290.8z"/>
	</g>
	<g>
		<g>
			<path fill="#010101" d="M194.9,251.6h-45.9c-1.3,0-2.3-1-2.3-2.3c0-1.3,1.2-2.7,2.5-2.7l43,1.9c1.3,0,4.9-0.4,4.9,0.8
				C197.2,250.6,196.2,251.6,194.9,251.6z"/>
		</g>
		<g>
			<path fill="#010101" d="M174.3,249.4v28c0,1.3-1,2.3-2.3,2.3c-1.3,0-2.3-1-2.3-2.3l2.2-27"/>
		</g>
	</g>
	<g>
		<g>
			<path fill="#010101" d="M203.6,265.6h-16c-1.3,0-2.3-1-2.3-2.3c0-1.3,1-2.3,2.3-2.3l14.1,1.6c0.8-4.7,3.2-17.9,8.4-22.7
				c0.9-0.8,2.3-0.8,3.2,0.1c0.9,0.9,0.8,2.4-0.1,3.2c-4.4,4.1-6.8,16.1-7.4,20.4C205.7,264.8,204.8,265.6,203.6,265.6z"/>
		</g>
		<g>
			<path fill="#010101" d="M203.4,262.7l4.1,14c0.4,1.2-0.3,2.5-1.5,2.8c-0.2,0.1-0.4,0.1-0.6,0.1c-1,0-1.9-0.6-2.2-1.6l-2.1-12.8"
				/>
		</g>
		<g>
			<path fill="#010101" d="M192.2,264l-4.1,14c-0.3,1-1.2,1.6-2.2,1.6c-0.2,0-0.4,0-0.6-0.1c-1.2-0.4-1.9-1.6-1.5-2.8l6.4-12.2"/>
		</g>
	</g>
	<g>
		<g>
			<path fill="#010101" d="M156.4,265.6h-16c-1.1,0-2.1-0.8-2.2-2c-0.6-4.3-3-16.3-7.4-20.4c-0.9-0.9-1-2.3-0.1-3.2
				c0.9-0.9,2.3-1,3.2-0.1c5.2,4.8,7,18.1,7.8,22.7l14.4-0.4c1.3,0,2.6-0.3,2.6,1C158.6,264.6,157.6,265.6,156.4,265.6z"/>
		</g>
		<g>
			<path fill="#010101" d="M144.9,264l-4.1,14c-0.3,1-1.2,1.6-2.2,1.6c-0.2,0-0.4,0-0.6-0.1c-1.2-0.4-1.9-1.6-1.5-2.8l6.6-12.2"/>
		</g>
		<g>
			<path fill="#010101" d="M153.7,263.4l6.6,13.3c0.4,1.2-0.3,2.5-1.5,2.8c-0.2,0.1-0.4,0.1-0.6,0.1c-1,0-1.9-0.6-2.2-1.6l-4.1-14"
				/>
		</g>
	</g>
	<g>
		<path fill="#010101" d="M254.3,247.1h-6.8c-1.3,0-2.3-1-2.3-2.3c0-1.3,1-2.3,2.3-2.3h6.8c1.3,0,2.3,1,2.3,2.3
			C256.6,246.1,255.6,247.1,254.3,247.1z"/>
	</g>
</g>
</svg>