<?xml version="1.0" encoding="utf-8"?>
<!-- Generator: Adobe Illustrator 24.0.1, SVG Export Plug-In . SVG Version: 6.00 Build 0)  -->
<svg version="1.2" baseProfile="tiny" id="Layer_1" xmlns="http://www.w3.org/2000/svg" xmlns:xlink="http://www.w3.org/1999/xlink"
	 x="0px" y="0px" viewBox="0 0 407.3 354" xml:space="preserve">
<g>
	<path display="inline" fill="#373636" d="M170.3,228.9l-21.1-3.1l1.2-15.6h18.9c7.2,0,13-5.2,13.4-12c0.2-3.5-1-7-3.4-9.6
		c-2.3-2.5-5.4-4-8.8-4.1l-19.3-0.6c-1.2-4-3.7-7.7-7.5-10.9c-10.1-8.4-27.2-11.6-36.4-9.3c-10.2,2.2-17,11.8-22.5,19.5
		c-1.1,1.5-2.1,3-3.1,4.3c-3.6,4.7-5.4,10.3-5.2,15.5c0.2,4.4,1.9,10.9,9.1,16.3l11,8.7l0.7,15.7c0,3.6-0.9,5.9,1.1,8.6
		c-2,1.7-3.3,4.2-3.3,7v36.7c0,5,4.1,9.1,9.1,9.1h45.2c2.4,0,4.5-0.9,6.2-2.4c2.1,1.5,4.6,2.4,7.4,2.4h3.1c7,0,12.6-5.6,12.8-12.7
		l1.3-50.3C180.6,236.6,177,229.9,170.3,228.9z M152.1,187.7h20.8c1.1,0,5.1,4.7,5.9,5.5c0.9,0.9,1.1,5.1,0,9.2
		c-1.1,4.2-6.8,4.8-9.4,4.8c0,0-18.8,0.7-18.8,0.7L152.1,187.7z M98.2,301.9c0,0,0.7-45.2,0.9-45.2l54.1-1v45
		C153.2,300.8,94.5,304.5,98.2,301.9z M178.1,245.4c-0.2,14.7-1.8,41.8-1.8,41.4c0.5-3.1-0.9,8.1-2,11s-4.9,5.3-8,5.7
		c-3.7,0.5-8.9-2.3-10.4-5.7c-1.5-3.4-0.2-9.6-0.2-13.4c0.1-9.1,0.2-18.2,0.2-27.4c0-0.9,0-1.9-0.6-2.7c-0.8-1-2.2-1.1-3.4-1.1
		c-13.8-0.2-27.5,0.1-41.3,1c-2.3,0.1-4.8,0.2-6.6-1.2c-1.6-1.2-2.2-3.3-2.6-5.3c-1.3-5.9-1.5-12-0.7-17.9c5.4,1.3,12,1.1,15.6-3.3
		c3.2-3.9,2.6-9.8,0-14.1s-6.9-7.3-11-10.2c2.4-2.9,4.4-6.1,6.1-9.4c0.2-0.5,0.5-1.1,0.3-1.6c-0.5-1.1-2.1-0.5-3,0.2
		c-3,2.5-5.3,5.9-6.5,9.7c-0.2,0.8-0.4,1.6-0.2,2.4c0.3,0.9,1.1,1.5,1.9,2c3.8,2.5,7.8,4.9,10.3,8.6s2.9,9.4-0.6,12.4
		c-3.2,2.7-8.1,2-12,0.5c-5.1-2-9.8-5.1-13.6-9c-5-5-8.6-11.8-8.5-18.8c0.1-6.8,3.6-13,8-18c4.2-4.8,8.8-9.1,14.7-11.8
		c4.7-2.2,9.8-3,15-3.2c14.7-0.7,26.3,6.8,30.8,16.7c6.1,13.2-1.6,27.5-1,42c0,0.9,0.5,2.8,1,3.6c0.6,0.8,1.8,0.1,2.8,0.3
		c6.9,1.6,16.3-0.9,21.8,3.5C178.1,236.6,178.1,245.1,178.1,245.4z"/>
	<path display="inline" fill="#373636" d="M330.8,176.4c0-8.5-8.2-13.1-15.9-13.1h-12.6c-5.5,0-8.6,3.5-8.6,3.5l-9,23.5l-28.2-9.3
		c-3.3-0.9-5.6-1.3-8.6,0.4c-3,1.7-3.2,2.2-3.1,5.6c0.1,5.5,1.9,3.7,8.1,7.2c2.4,1.4,4.1,2,4.1,2.1l25.4,11l-5.3,18.5l-21.3,3.1
		c-6.7,1-10.3,7.7-9.9,13.4l1.3,50.3c0.2,7.1,5.8,12.7,12.8,12.7h3.1c2.7,0,5.3-0.9,7.4-2.4c1.6,1.5,3.6,1.3,6,1.3l46.4-0.9
		c5,0,8.1-2.1,8.1-7.1v-36.7c0-2.8-1.3-5.3-3.3-7c2-2.7,3.3-6,3.3-9.6V176.4z M327.4,301l-53.1,0.4c-0.4,0-0.8-0.4-0.8-0.8
		c0-0.5-0.1-0.9-0.2-1.4c0.1-0.7,0.2-1.5,0.2-2.2c0,0,0,0,0-0.1l2.2-38.3c0,0,51.1-4.3,51.3-4.4C327.8,254.1,327.9,301,327.4,301z
		 M329.6,244.4c0,3.6-4.1,8.1-7.6,8.8l-46.8,2.6c-2.3,0-1.8,2.4-1.8,4.7l-3.4,39.3c-0.1,2.5-5.8,3.4-8.2,3.4h-3.9
		c-2.4,0-7.7-4.2-7.8-6.7l-1.1-40.7c0-0.1-1.9-14.5,0.7-17.5c1.3-1.5,4-5.8,5.8-6.1l15.8-3.4c2-0.3,8.3,0.7,8.3-1.3l4.5-19.7
		l3.1,1.5c2.3-0.3,5.5,3.4,8.3,1.8c3.1-1.3,3.9-1.2,5.3-4.5l8.6-19.6c-0.3-2.3,3.3-4.2,1.9-4.9c-2.1-0.9-5.1,3-5.4,2.3l-8.5,20.8
		c-0.5,1.3-1.4,2.2-2.5,2.6c-0.1,0.1-0.3,0.1-0.4,0.2c-0.9,0.5-1.8,0.5-2.9,0.2l-40.6-17.1c-2.3-0.8-4.1-3-3.4-5.7
		c0.3-1.2,1.1-2.2,2.2-2.8c1.1-0.6,2.3-0.7,3.4-0.4l30.1,9.6c2.1,0.6,4.3-0.5,5-2.5l6.5-20.6c0.8-1.8,5.3-3.4,7.4-3.4h13.5
		c3.1,0,13.2,5.1,13.2,8.3L329.6,244.4z"/>
	<path display="inline" fill="none" stroke="#373636" stroke-width="2" stroke-miterlimit="10" d="M243,70.5l2,21.6
		c0,10.3-8.9,16.5-19.2,16.5l-28.1-0.7l-20,23.6c-0.8,0.8-1.8,1.2-2.9,1.2c-0.5,0-1.1-0.1-1.6-0.3c-1.6-0.6-2.6-2.2-2.6-3.8
		l1.9-21.3c-8.3-1.9-16.4-6.3-16.4-15.2V69.8c0-10.3,11.5-13,21.8-13l49.6-8C237.8,48.8,243,60.3,243,70.5z"/>
	<path display="inline" fill="none" stroke="#373636" stroke-miterlimit="10" d="M232.9,283.6l-7.9,0.7l-2.2-48.7l6.6,0.2
		c2.3,0,4.2-1.9,4.2-4.2v-9.1h33.6c2.3,0,4.2-1.9,4.2-4.2c0-2.3-1.9-4.2-4.2-4.2H160.1c-2.3,0-4.2,1.9-4.2,4.2
		c0,2.3,1.9,4.2,4.2,4.2h33.6v9.1c0,2.3,1.9,4.2,4.2,4.2h6.8l-0.4,47.8l-9.9-0.4c-5,0-9.1,4.1-9.1,9.1v3.8c0,5,4.1,9.1,9.1,9.1h38.5
		c5,0,9.1-4.1,9.1-9.1v-3.8C242,287.3,237.9,283.6,232.9,283.6z M218.1,235.8l3.5,48.2h-14.2l1.7-48.2H218.1z"/>
	<path display="inline" fill="#373636" d="M301.9,159.4c12.4,0,21.6-9,22.8-22.4c0.8-9.4,1-21.2-5.7-28.5c-3.9-4.3-9.7-6.5-17-6.5
		c-7.4,0-13.1,2.2-17,6.5c-6.7,7.3-6.5,19-5.7,28.5C280.3,150.4,289.5,159.4,301.9,159.4z M284.5,110.7c2.3-2.5,10.5-7.4,15.5-7.4
		c5.1,0,12.7,2.3,14.6,3.4c7.7,4.5,9.6,24.1,8.9,31.9c-0.6,7.2-8.5,18.7-18.2,19.8c-16.9,1.8-24.6-14.6-25.2-21.7
		C279.6,128.9,280.1,115.6,284.5,110.7z"/>
	<path display="inline" fill="#373636" d="M132.1,161.2c12.4,0,21.6-9,22.8-22.4c0.8-9.4,1-21.2-5.7-28.5c-3.9-4.3-9.7-6.5-17-6.5
		c-7.4,0-13.1,2.2-17,6.5c-6.7,7.3-6.5,19-5.7,28.5C110.6,152.2,119.7,161.2,132.1,161.2z M115.1,113.1c2.3-2.5,10.3-7.5,15.3-7.5
		c5,0,15.5,4.4,17.9,7c4.5,4.9,4.8,19.9,4.1,27.6c-0.6,7.2-6.4,20-21.7,19.4c-9.7-0.4-20.4-10.5-19.9-20.7
		C111.2,131.1,110.6,118,115.1,113.1z"/>
</g>
</svg>