<?xml version="1.0" encoding="utf-8"?>
<!-- Generator: Adobe Illustrator 24.0.1, SVG Export Plug-In . SVG Version: 6.00 Build 0)  -->
<svg version="1.1" id="Layer_1" xmlns="http://www.w3.org/2000/svg" xmlns:xlink="http://www.w3.org/1999/xlink" x="0px" y="0px"
	 viewBox="0 0 407.3 354" style="enable-background:new 0 0 407.3 354;" xml:space="preserve">
<style type="text/css">
	.st0{fill:none;stroke:#231F20;stroke-width:2;stroke-miterlimit:10;}
	.st1{opacity:5.000000e-02;}
</style>
<g>
	<g>
		<g>
			<g>
				<g>
					<g>
						<path class="st0" d="M298.1,109.4C298.1,109.4,298.1,109.3,298.1,109.4C298.1,109.3,298.1,109.3,298.1,109.4
							C298.1,109.3,298.1,109.3,298.1,109.4z"/>
					</g>
				</g>
			</g>
		</g>
		<g>
			<g>
				<g>
					<g>
						<path class="st0" d="M308.8,96.4c0.5,0.2,1.1,0.5,1.6,0.8c-0.4,0.9-0.9,1.7-1.6,2.4c-1.5,1.5-3.6,2.4-5.9,2.3
							c-0.1,0-0.1,0-0.2,0v0c-0.2,3.2-2,5.9-4.6,7.5c0,0,0,0,0,0c0,0,0,0,0,0c0,0,0,0,0,0c0,0.1,0.1,0.2,0.2,0.3c0,0-0.1,0-0.1,0.1
							c0-0.1-0.1-0.3-0.1-0.4c-0.3-0.7-0.6-1.3-1-1.9c-0.1-0.2-0.3-0.5-0.5-0.7c-0.1-0.2-0.3-0.4-0.4-0.5c-1-1.2-2.3-2.1-3.7-2.7
							c-1.3-0.5-2.6-0.8-4.1-0.8c-0.3,0-0.6,0-0.9,0c-0.7-0.7-1.4-1.2-2.3-1.6c-0.2-0.7-0.4-1.3-0.5-2.1v0c0.1-0.5,0.3-0.9,0.5-1.4
							c0-0.1,0.1-0.2,0.2-0.4c0.1-0.2,0.2-0.4,0.3-0.6c0.1-0.1,0.2-0.3,0.3-0.4c0.4-0.6,0.9-1.2,1.4-1.7c0,0,0.1-0.1,0.1-0.1
							c0.1-0.1,0.3-0.3,0.5-0.4c0.1-0.1,0.2-0.2,0.3-0.3c0.3-0.3,0.7-0.5,1.1-0.7c0.2-0.1,0.4-0.2,0.6-0.3c0.2-0.1,0.3-0.2,0.5-0.2
							c0,0,0.1,0,0.1-0.1c0,0,0.1,0,0.1,0c-0.1-0.1-0.1-0.2-0.2-0.3c0,0,0-0.1,0-0.1c-0.1-0.1-0.1-0.3-0.2-0.4
							c-0.1-0.1-0.1-0.3-0.2-0.4c0-0.2-0.1-0.3-0.1-0.5c0-0.1,0-0.1,0-0.2c3.9-0.4,7-3.7,7.1-7.7c2.4,0.3,4.3,1.8,5.1,3.9
							c0.6-0.1,1.2-0.2,1.8-0.1c3.6,0.2,6.5,2.9,7,6.4C310.4,94.4,309.7,95.5,308.8,96.4z"/>
						<path class="st0" d="M298.1,109.4C298.1,109.4,298.1,109.3,298.1,109.4C298.1,109.3,298.1,109.3,298.1,109.4
							C298.1,109.3,298.1,109.3,298.1,109.4z"/>
					</g>
				</g>
			</g>
		</g>
		<g>
			<g>
				<g>
					<path class="st0" d="M328.7,113.2c-0.1-0.2-0.2-0.4-0.3-0.6c0-0.1-0.1-0.2-0.1-0.3c-0.1-0.2-0.2-0.3-0.2-0.4
						c-0.1-0.1-0.1-0.2-0.2-0.4c-0.3-0.6-0.7-1.1-1.2-1.6c-0.1-0.2-0.3-0.3-0.4-0.4c0.1-0.3,0.2-0.5,0.2-0.8
						c0.1,0.4,0.1,0.7,0.2,1.1c-0.6-5.2-5-9.3-10.4-9.3c-0.9,0-1.7,0.1-2.5,0.3h0v0c-0.8-1.5-1.9-2.8-3.3-3.7
						c-0.4,0.9-0.9,1.7-1.6,2.4c-1.5,1.5-3.6,2.4-5.9,2.3c-0.1,0-0.1,0-0.2,0v0c-0.2,3.2-2,5.9-4.6,7.5c0,0,0,0,0,0c0,0,0,0,0,0
						c0,0.1,0.1,0.2,0.2,0.3c0,0-0.1,0-0.1,0.1c0.1,0.4,0.2,0.8,0.3,1.1c0.1,0.4,0.1,0.7,0.2,1.1c0,0.1,0,0.1,0,0.2
						c0.4,0.5,0.8,1,1.2,1.6c0.2,0.3,0.3,0.5,0.5,0.8c0.1,0.3,0.3,0.6,0.4,0.9c1.2,2.9,1.1,6.1-0.1,8.8h26.7
						C329.6,121.1,330.2,117,328.7,113.2z M312.6,111.7c-0.7,0.7-1.7,1-2.7,0.8c0.3,1.1,0,2.3-0.8,3.2c-1.3,1.2-3.3,1.2-4.5-0.1
						c-0.7-0.7-1-1.7-0.9-2.7c0.1-0.5,0.2-0.9,0.5-1.3c0-0.2,0-0.4,0-0.7c-0.7-1-0.6-2.4,0.3-3.3c1-1,2.6-1,3.6,0l0,0
						c0.1-0.1,0.2-0.2,0.3-0.3c1.2-1.2,3.1-1.1,4.2,0.1c0.6,0.6,0.9,1.4,0.8,2.2C313.4,110.4,313.1,111.1,312.6,111.7z"/>
					<path class="st0" d="M300.7,115.4c-0.1-0.3-0.3-0.6-0.4-0.9c-0.1-0.3-0.3-0.6-0.5-0.8c-0.4-0.6-0.8-1.1-1.2-1.6
						c0,0,0-0.1,0-0.2c0-0.4-0.1-0.7-0.2-1.1c-0.1-0.4-0.2-0.8-0.3-1.1c0-0.1-0.1-0.3-0.1-0.4c-0.3-0.7-0.6-1.3-1-1.9
						c-0.1-0.2-0.3-0.5-0.5-0.7c-0.1-0.2-0.3-0.4-0.4-0.5c-1-1.2-2.3-2.1-3.7-2.7c-1.3-0.5-2.6-0.8-4.1-0.8c-0.3,0-0.6,0-0.9,0
						c-0.7-0.7-1.4-1.2-2.3-1.6c-0.2-0.1-0.5-0.2-0.8-0.3c0,0,0,0-0.1,0c-0.1,0-0.2-0.1-0.3-0.1c-0.6-0.2-1.3-0.3-2-0.3
						c-1.4,2.4-4.1,3.9-7,3.7c0,0,0,0-0.1,0c0,0.1-0.1,0.1-0.1,0.2l0,0c-0.1,1.4-0.5,2.7-1.2,3.8v0c0,0.1,0,0.2,0,0.4c0,0,0,0,0,0
						c-0.1,0-0.2,0-0.3,0c-0.7,1-1.5,1.9-2.5,2.6c-0.7,0.5-1.5,0.9-2.3,1.2c-0.8,0.3-1.6,0.4-2.4,0.5c-0.3,0.5-0.6,1-0.9,1.6
						c-0.4,0.8-0.6,1.5-0.8,2.4c0,0.1,0,0.1,0,0.2c0.4,1.7,1.1,3.2,2.2,4.4c0.7,0.9,1.6,1.6,2.6,2.2c0.5,0.3,1,0.5,1.5,0.7h13.2
						c0-0.1-0.1-0.1-0.1-0.2c0,0.1,0.1,0.1,0.2,0.2h16.7C301.8,121.5,301.9,118.4,300.7,115.4z M284.5,116.3L284.5,116.3
						c-0.1,1.9-1.6,3.5-3.6,3.5c-1.9,0-3.5-1.6-3.5-3.5c0-1.5,0.9-2.7,2.2-3.2c-0.3-0.4-0.4-0.8-0.4-1.3c0-1.3,1.1-2.4,2.4-2.4
						c1,0,1.8,0.6,2.2,1.4c0.2-0.1,0.4-0.1,0.7-0.1c1.6,0,2.9,1.3,2.9,2.9S286,116.3,284.5,116.3z"/>
					<path class="st0" d="M326.7,109.9c-0.1-0.2-0.3-0.3-0.4-0.4c0.1-0.3,0.2-0.5,0.2-0.8c0.1,0.4,0.1,0.7,0.2,1.1
						C326.7,109.8,326.7,109.9,326.7,109.9z"/>
				</g>
			</g>
		</g>
		<g>
			<g>
				<g>
					<path class="st0" d="M326.7,109.9c-0.1-0.2-0.3-0.3-0.4-0.4c0.1-0.3,0.2-0.5,0.2-0.8c0.1,0.4,0.1,0.7,0.2,1.1
						C326.7,109.8,326.7,109.9,326.7,109.9z"/>
				</g>
			</g>
		</g>
		<g>
			<g>
				<g>
					<path class="st0" d="M313.5,109.6c0,0.7-0.3,1.5-0.9,2c-0.7,0.7-1.7,1-2.7,0.8c0.3,1.1,0,2.3-0.8,3.2c-1.3,1.2-3.3,1.2-4.5-0.1
						c-0.7-0.7-1-1.7-0.9-2.7c0.1-0.5,0.2-0.9,0.5-1.3c0-0.2,0-0.4,0-0.7c-0.7-1-0.6-2.4,0.3-3.3c1-1,2.6-1,3.6,0l0,0
						c0.1-0.1,0.2-0.2,0.3-0.3c1.2-1.2,3.1-1.1,4.2,0.1C313.2,108,313.5,108.8,313.5,109.6z"/>
				</g>
			</g>
		</g>
		<g>
			<g>
				<g>
					<path class="st0" d="M303.9,95.1c0,0.7-0.3,1.5-0.9,2c-0.7,0.7-1.7,1-2.7,0.8c0.3,1.1,0,2.3-0.8,3.2c-1.3,1.2-3.3,1.2-4.5-0.1
						c-0.7-0.7-1-1.7-0.9-2.7c0.1-0.5,0.2-0.9,0.5-1.3c0-0.2,0-0.4,0-0.7c-0.7-1-0.6-2.4,0.3-3.3c1-1,2.6-1,3.6,0l0,0
						c0.1-0.1,0.2-0.2,0.3-0.3c1.2-1.2,3.1-1.1,4.2,0.1C303.6,93.5,303.9,94.3,303.9,95.1z"/>
				</g>
			</g>
		</g>
		<g>
			<g>
				<g>
					<g>
						<path class="st0" d="M279.7,90.3c-1.3,0.9-3,1.5-4.7,1.5c-0.4,0-0.8,0-1.2-0.1c-0.2,0-0.4-0.1-0.6-0.1c-2.1-0.4-3.8-1.7-5-3.3
							c0.3-0.8,0.6-1.6,0.7-2.4c0-0.2,0-0.4,0-0.7c2.1,0.3,3.9,1.5,4.8,3.3c0,0,0.1,0,0.1,0h0c0,0.1,0,0.2,0,0.3c0,0,0,0,0,0
							c0.1,0.1,0.1,0.2,0.2,0.3c0.6-0.1,1.2-0.2,1.8-0.1C277.3,89,278.6,89.5,279.7,90.3z"/>
						<path class="st0" d="M285.8,79.1c0,1.3-1.1,2.4-2.4,2.4h0c0,1.6-1.3,2.9-2.9,2.9c-1.6,0-2.9-1.3-2.9-2.9
							c0-1.2,0.7-2.2,1.8-2.7c-0.2-0.3-0.3-0.7-0.3-1.1c0-1.1,0.9-2,2-2c0.8,0,1.5,0.5,1.8,1.1c0.2,0,0.4-0.1,0.6-0.1
							C284.7,76.7,285.8,77.7,285.8,79.1z"/>
					</g>
				</g>
			</g>
			<g>
				<g>
					<g>
						<path class="st0" d="M296.7,81.2c-0.8-3.6-3.9-6.3-7.7-6.3c-0.4,0-0.8,0-1.2,0.1v-0.1c0-3.7-3-6.7-6.7-6.7
							c-3.7,0-6.7,3-6.7,6.7c0,0,0,0,0,0c-2.3,0.2-4.4,1.3-5.8,3c-0.6,0.7-1,1.4-1.3,2.2c0,0,0,0,0,0c0.9,1.1,1.4,2.5,1.6,3.9
							c0,0.3,0,0.6,0,0.9v0.1c2.1,0.3,3.9,1.5,4.8,3.3c0,0,0.1,0,0.1,0h0c0,0.1,0,0.2,0,0.3c0,0,0,0,0,0c0.1,0.1,0.1,0.2,0.2,0.3
							c0.6-0.1,1.2-0.2,1.8-0.1c1.5,0.1,2.8,0.6,3.9,1.4c0.9-0.6,1.7-1.4,2.3-2.3c0.2-0.2,0.3-0.5,0.4-0.7c0.2,0.3,0.4,0.6,0.7,0.9
							h0c1.2,1.3,2.9,2.3,4.8,2.5c0.1,0,0.3,0,0.4,0c0,0,0,0,0,0c0.2,0,0.3,0,0.5,0c0.3,0,0.5,0,0.8,0c0,0,0,0,0,0
							c3.9-0.4,7-3.7,7.1-7.7v-0.1C296.8,82.2,296.8,81.7,296.7,81.2z M283.4,81.4L283.4,81.4c0,1.6-1.3,2.9-2.9,2.9
							c-1.6,0-2.9-1.3-2.9-2.9c0-1.2,0.7-2.2,1.8-2.7c-0.2-0.3-0.3-0.7-0.3-1.1c0-1.1,0.9-2,2-2c0.8,0,1.5,0.5,1.8,1.1
							c0.2,0,0.4-0.1,0.6-0.1c1.3,0,2.4,1.1,2.4,2.4C285.8,80.4,284.7,81.4,283.4,81.4z"/>
						<path class="st0" d="M279.7,90.3c-1.3,0.9-3,1.5-4.7,1.5c-0.4,0-0.8,0-1.2-0.1c-0.2,0-0.4-0.1-0.6-0.1c-2.1-0.4-3.8-1.7-5-3.3
							c0.3-0.8,0.6-1.6,0.7-2.4c0.2,0.2,0.4,0.4,0.6,0.6c1.2,1,2.6,1.7,4.2,2c0,0,0.1,0,0.1,0h0c0,0.1,0,0.2,0,0.3c0,0,0,0,0,0
							c0.1,0.1,0.1,0.2,0.2,0.3c0.6-0.1,1.2-0.2,1.8-0.1C277.3,89,278.6,89.5,279.7,90.3z"/>
					</g>
				</g>
			</g>
			<g>
				<g>
					<g>
						<path class="st0" d="M285.8,79.1c0,1.3-1.1,2.4-2.4,2.4h0c0,1.6-1.3,2.9-2.9,2.9c-1.6,0-2.9-1.3-2.9-2.9
							c0-1.2,0.7-2.2,1.8-2.7c-0.2-0.3-0.3-0.7-0.3-1.1c0-1.1,0.9-2,2-2c0.8,0,1.5,0.5,1.8,1.1c0.2,0,0.4-0.1,0.6-0.1
							C284.7,76.7,285.8,77.7,285.8,79.1z"/>
					</g>
				</g>
			</g>
		</g>
		<g>
			<g>
				<g>
					<g>
						<path class="st0" d="M247.3,93.9c-0.1,1-0.4,2-0.9,2.9c-0.5,1.1-1.3,2-2.2,2.8h0c-0.4,0.3-0.8,0.6-1.2,0.8
							c-0.7,0.4-1.5,0.7-2.3,0.9c-0.3,0.1-0.5,0.1-0.8,0.1c0,0-0.1,0-0.1,0c-0.4,0-0.7,0-1,0c0,0,0,0,0,0c0,0-0.1,0-0.1,0
							c-0.2,0-0.4,0-0.6,0h0c-1.2-0.1-2.4-0.5-3.5-1.2c-0.7-0.4-1.4-1-2-1.6c-0.3-0.3-0.5-0.6-0.7-0.9c-0.1,0.2-0.2,0.4-0.3,0.6
							c-0.3,0.5-0.7,0.9-1.1,1.3c-0.3,0.3-0.7,0.5-1,0.8c-0.4,0.2-0.8,0.4-1.2,0.5c0,0,0,0-0.1,0c0,0,0,0,0,0
							c-0.1,0-0.3,0.1-0.4,0.1c-0.6,0.1-1.2,0.2-1.8,0.1c-0.1,0-0.2,0-0.3,0c-1-0.1-1.9-0.5-2.7-1.1c-0.8-0.6-1.5-1.3-2-2.3
							c-0.2-0.4-0.4-0.9-0.5-1.4c0-0.2-0.1-0.4-0.1-0.6c0-0.2,0-0.4,0-0.6v-0.1c0-0.2,0-0.5,0.1-0.7c0.1-0.8,0.4-1.6,0.8-2.3
							c0.1-0.3,0.3-0.5,0.5-0.8c0.3-0.4,0.7-0.8,1.2-1.1c0.3-0.2,0.6-0.4,1-0.6c0,0,0-0.1,0-0.1c-0.3-1.2-0.3-2.4,0-3.6
							c0.1-0.4,0.2-0.8,0.3-1.2c0-0.1,0.1-0.3,0.2-0.4c0-0.1,0-0.1,0.1-0.2c0.6-1.6,1.7-2.9,3.1-3.9c0.9-0.7,2-1.1,3.2-1.4
							c0.4-0.1,0.8-0.1,1.2-0.2c0.8-0.1,1.5,0,2.2,0.1c2.1,0.3,4,1.4,5.4,3.1c0.5,0.7,1,1.4,1.3,2.2c0.1,0.3,0.2,0.5,0.3,0.8
							c0.4,0.1,0.7,0.2,1.1,0.4c1.5,0.6,2.8,1.6,3.7,2.9c0.4,0.5,0.7,1.1,0.9,1.7v0c0,0,0,0,0,0c0,0.1,0.1,0.2,0.1,0.4
							c0,0.1,0.1,0.2,0.1,0.3c0,0,0,0.1,0,0.1c0.1,0.2,0.1,0.3,0.1,0.5c0,0.1,0,0.1,0,0.2v0C247.4,92.3,247.4,93.1,247.3,93.9z"/>
					</g>
				</g>
			</g>
			<g>
				<g>
					<g>
						<path class="st0" d="M247.3,93.9c-0.1,1-0.4,2-0.9,2.9c-0.5,1.1-1.3,2-2.2,2.8h0c-0.4,0.3-0.8,0.6-1.2,0.8
							c-0.7,0.4-1.5,0.7-2.3,0.9c-0.3,0.1-0.5,0.1-0.8,0.1c0,0-0.1,0-0.1,0c-0.4,0-0.7,0-1,0c0,0,0,0,0,0c0,0-0.1,0-0.1,0
							c-0.2,0-0.4,0-0.6,0h0c-1.2-0.1-2.4-0.5-3.5-1.2c-0.7-0.4-1.4-1-2-1.6c-0.3-0.3-0.5-0.6-0.7-0.9c-0.1,0.2-0.2,0.4-0.3,0.6
							c-0.3,0.5-0.7,0.9-1.1,1.3c-0.3,0.3-0.7,0.5-1,0.8c-0.4,0.2-0.8,0.4-1.2,0.5c0,0,0,0-0.1,0c0,0,0,0,0,0
							c-0.1,0-0.3,0.1-0.4,0.1c-0.6,0.1-1.2,0.2-1.8,0.1c-0.1,0-0.2,0-0.3,0c-1-0.1-1.9-0.5-2.7-1.1c-0.8-0.6-1.5-1.3-2-2.3
							c-0.2-0.4-0.4-0.9-0.5-1.4c0-0.2-0.1-0.4-0.1-0.6c0-0.2,0-0.4,0-0.6v-0.1c0.3,0.7,0.8,1.3,1.4,1.9c1.4,1.3,3.4,1.9,5.4,1.5
							c0.5-0.1,1-0.3,1.5-0.6c0.6-0.3,1.1-0.7,1.6-1.2c0.4-0.5,0.8-1,1.1-1.6c0.3,0.5,0.7,0.9,1.1,1.3c0.2,0.2,0.5,0.5,0.8,0.7
							c1,0.8,2.1,1.3,3.3,1.6c0.4,0.1,0.7,0.1,1.1,0.2c0.2,0,0.4,0,0.6,0h0c0.5,0,0.9,0,1.4-0.1c0.1,0,0.3-0.1,0.4-0.1
							c0.3-0.1,0.5-0.1,0.8-0.2c2-0.7,3.7-2.1,4.7-3.8c0.1-0.2,0.3-0.4,0.4-0.7c0.4-0.8,0.6-1.7,0.7-2.7c0-0.2,0-0.3,0-0.5
							c0-0.3,0-0.5,0-0.8c0,0,0,0,0,0c0,0.1,0.1,0.2,0.1,0.4c0,0.1,0.1,0.2,0.1,0.3c0,0,0,0.1,0,0.1c0.1,0.2,0.1,0.3,0.1,0.5
							c0,0.1,0,0.1,0,0.2v0C247.4,92.3,247.4,93.1,247.3,93.9z"/>
					</g>
				</g>
			</g>
			<g>
				<g>
					<g>
						<path class="st0" d="M234.7,86.5c-0.1,0-0.3,0.1-0.4,0.1c0,0,0,0,0,0c-0.3-1.3-1.6-2.1-2.9-1.8c-1.3,0.3-2.1,1.6-1.8,2.9
							c0,0,0,0,0,0c-1.5,0.5-2.4,2-2,3.5c0.4,1.6,2,2.6,3.6,2.2c1.1-0.3,1.9-1.1,2.2-2.1c0.7,0.6,1.6,0.9,2.5,0.7
							c1.5-0.3,2.4-1.8,2.1-3.4C237.7,87.1,236.2,86.2,234.7,86.5z"/>
					</g>
				</g>
			</g>
		</g>
		<g>
			<g>
				<g>
					<g>
						<path class="st0" d="M256.3,90.7c-0.2,0.1-0.4,0.2-0.5,0.3c-0.1,0-0.2,0.1-0.3,0.1c-0.3,0.1-0.7,0.2-1,0.3c0,0-0.1,0-0.2,0
							c-0.4,0.1-0.7,0.1-1.1,0.1c-0.1,0-0.2,0-0.3,0c-0.1,0-0.2,0-0.3,0c-0.2,0-0.3,0-0.5-0.1c-0.2,0-0.3-0.1-0.5-0.1
							c0,0-0.1,0-0.1,0c0,0,0,0,0,0c-0.2-0.1-0.4-0.1-0.7-0.2c-0.1,0-0.2-0.1-0.3-0.1c-0.2-0.1-0.5-0.3-0.7-0.4
							c1.4-0.4,2.8-0.4,4.2-0.3c0.4,0,0.8,0.1,1.2,0.2C255.6,90.4,256,90.5,256.3,90.7z"/>
						<path class="st0" d="M257.8,81.3c0,1.3-1.1,2.4-2.4,2.4h0c0,0.1,0,0.3,0,0.4c0,0,0,0.1,0,0.1c0,0.1,0,0.3-0.1,0.4c0,0,0,0,0,0
							c0,0,0,0,0,0c0,0.1,0,0.1-0.1,0.2c0,0,0,0.1-0.1,0.1c-0.1,0.2-0.2,0.4-0.4,0.6c-0.1,0.1-0.1,0.2-0.2,0.3
							c-0.1,0.1-0.2,0.2-0.3,0.3c-0.1,0.1-0.1,0.1-0.2,0.1c-0.1,0.1-0.3,0.2-0.4,0.2c-0.1,0-0.3,0.1-0.4,0.1
							c-0.2,0.1-0.5,0.1-0.7,0.1c-0.3,0-0.5,0-0.7-0.1c-0.1,0-0.1,0-0.2-0.1c-0.1,0-0.1,0-0.2-0.1c-0.2-0.1-0.3-0.2-0.5-0.3
							c0,0,0,0,0,0c-0.1-0.1-0.3-0.2-0.4-0.3c-0.4-0.4-0.7-0.9-0.8-1.5c-0.8,0.3-1.6,0.8-2.3,1.5c0.5-1.1,1.3-2,2.2-2.6
							c0.8-0.5,1.7-0.8,2.7-0.9V82c0.2-1.5,0.7-2.9,1.5-4c0.1,0,0.2,0.1,0.3,0.2c0.1,0,0.2,0.1,0.2,0.2c0,0,0.1,0.1,0.1,0.1
							c0,0,0,0,0,0c0,0,0,0,0,0c0.1,0.1,0.2,0.3,0.3,0.4c0.2,0,0.4-0.1,0.6-0.1C256.8,78.9,257.8,79.9,257.8,81.3z"/>
						<path class="st0" d="M273.9,89.7c-0.1,0.2-0.1,0.4-0.2,0.7c-0.1,0.2-0.1,0.3-0.2,0.5c0,0.1-0.1,0.2-0.1,0.2
							c-0.1,0.1-0.1,0.3-0.2,0.4c0,0,0,0.1-0.1,0.1c-0.1,0.2-0.2,0.4-0.3,0.5c-0.1,0.1-0.2,0.3-0.3,0.4c-0.2,0.2-0.4,0.4-0.6,0.6
							c-0.1,0.2-0.3,0.3-0.5,0.4c-0.2,0.2-0.3,0.3-0.5,0.4c-0.1,0.1-0.3,0.2-0.4,0.3c0,0,0,0-0.1,0c-0.1,0.1-0.1,0.1-0.2,0.1
							c0,0-0.1,0.1-0.1,0.1c0,0-0.1,0.1-0.1,0.1c0,0,0,0,0,0c-0.1,0-0.1,0.1-0.2,0.1c-0.2,0.1-0.4,0.2-0.6,0.3
							c-0.2,0.1-0.4,0.2-0.6,0.2c-0.2,0.1-0.3,0.1-0.5,0.2c0,0-0.1,0-0.1,0c-0.1,0-0.3,0.1-0.4,0.1c0,0,0,0,0,0
							c-0.1,0-0.3,0.1-0.4,0.1c-0.2,0-0.5,0.1-0.7,0.1c0,0-0.1,0-0.1,0h0c-0.4,0-0.8,0-1.3,0c-0.2,0-0.4-0.1-0.7-0.1
							c-0.2,0-0.4-0.1-0.6-0.1c-0.1,0-0.1,0-0.2,0c-0.2-0.1-0.5-0.1-0.7-0.2c0,0,0,0,0,0c-0.3-0.1-0.5-0.2-0.8-0.4
							c-0.1,0-0.1-0.1-0.2-0.1c-0.2-0.1-0.3-0.2-0.5-0.3c-0.1,0-0.2-0.1-0.3-0.2c-0.1-0.1-0.3-0.2-0.4-0.3c-0.2-0.1-0.3-0.2-0.4-0.4
							c-0.2-0.2-0.4-0.3-0.5-0.5c-0.2-0.2-0.3-0.4-0.4-0.5c-0.2-0.2-0.3-0.4-0.4-0.6c-0.1-0.1-0.1-0.2-0.2-0.3
							c-0.1-0.1-0.1-0.2-0.2-0.3c0.7,0.3,1.3,0.7,1.9,1.2h0c0.1,0,0.1,0.1,0.2,0.2c0.2,0,0.4,0,0.5,0c0.3,0,0.5,0,0.8,0
							c0-0.1,0-0.1,0-0.2c0,0.1,0,0.1,0,0.2c1-0.1,2-0.4,2.9-0.9c1.5-0.8,2.8-2.1,3.5-3.7c0.3-0.8,0.6-1.6,0.7-2.4
							c0-0.2,0-0.4,0-0.7c2.1,0.3,3.9,1.5,4.8,3.3c0,0,0.1,0,0.1,0h0c0,0.1,0,0.2,0,0.3c0,0,0,0,0,0C273.9,89,273.9,89.4,273.9,89.7
							z"/>
						<path class="st0" d="M273.9,90.1c0,0.3,0,0.6,0,1c0,0.2,0,0.4-0.1,0.6c-0.1,0.9-0.4,1.7-0.8,2.5c-1.1,2-2.9,3.5-5.1,4.1
							c-0.3,0.1-0.5,0.1-0.8,0.2h0c-0.3,0.1-0.6,0.1-0.9,0.1c-0.5,0.1-1.1,0-1.6,0c-0.1,0-0.2,0-0.3,0c-1.8-0.2-3.4-1.1-4.6-2.2
							c-0.5-0.5-1-1.1-1.4-1.7c-0.4-0.7-0.7-1.4-0.9-2.2c-0.3,0.3-0.6,0.5-0.9,0.8c-1.2,0.8-2.6,1.2-4.1,1c-0.8-0.1-1.5-0.3-2.1-0.6
							c-0.1,0-0.2-0.1-0.2-0.1h0c-0.9-0.5-1.7-1.3-2.2-2.2c-0.6-1.1-0.9-2.4-0.8-3.7c0-0.5,0.2-0.9,0.3-1.3c0,0.3,0.1,0.5,0.1,0.7
							c0,0.1,0,0.2,0.1,0.3c0,0.1,0.1,0.3,0.1,0.4c0,0.1,0.1,0.3,0.2,0.4c0,0.1,0.1,0.1,0.1,0.2c0.1,0.1,0.1,0.3,0.2,0.4
							c0.1,0.2,0.2,0.4,0.4,0.5c0.1,0.2,0.3,0.4,0.4,0.5c0.1,0.2,0.3,0.3,0.5,0.4l0,0c0.2,0.1,0.3,0.3,0.5,0.4
							c0.2,0.2,0.4,0.3,0.7,0.4c0.1,0.1,0.2,0.1,0.3,0.1c0.2,0.1,0.4,0.2,0.7,0.2c0,0,0,0,0,0c0,0,0.1,0,0.1,0
							c0.2,0,0.3,0.1,0.5,0.1c0.2,0,0.3,0.1,0.5,0.1c0.1,0,0.2,0,0.3,0c0.1,0,0.2,0,0.3,0c0.4,0,0.8,0,1.1-0.1c0.1,0,0.1,0,0.2,0
							c0.4-0.1,0.7-0.2,1-0.3c0.1,0,0.2-0.1,0.3-0.1c0.2-0.1,0.4-0.2,0.5-0.3h0c0.7,0.2,1.4,0.5,2,0.8c0.1,0.1,0.1,0.2,0.2,0.3
							c0.1,0.1,0.1,0.2,0.2,0.3c0.1,0.2,0.3,0.4,0.4,0.6c0.1,0.2,0.3,0.4,0.4,0.5c0.2,0.2,0.3,0.4,0.5,0.5c0.1,0.1,0.3,0.3,0.4,0.4
							c0.1,0.1,0.3,0.2,0.4,0.3c0.1,0.1,0.2,0.1,0.3,0.2c0.2,0.1,0.3,0.2,0.5,0.3c0.1,0,0.1,0.1,0.2,0.1c0.3,0.1,0.5,0.3,0.8,0.4
							c0,0,0,0,0,0c0.2,0.1,0.5,0.2,0.7,0.2c0,0,0.1,0,0.2,0c0.2,0.1,0.4,0.1,0.6,0.1c0.2,0,0.4,0.1,0.7,0.1c0.4,0,0.9,0.1,1.3,0v0
							c0,0,0,0,0,0c0,0,0.1,0,0.1,0c0.3,0,0.5,0,0.7-0.1c0.1,0,0.3,0,0.4-0.1c0,0,0,0,0,0c0.1,0,0.3,0,0.4-0.1c0,0,0.1,0,0.1,0
							c0.2,0,0.4-0.1,0.5-0.2c0.2-0.1,0.4-0.2,0.6-0.2c0.2-0.1,0.4-0.2,0.6-0.3c0.1,0,0.1-0.1,0.2-0.1c0,0,0,0,0,0v0
							c0,0,0.1,0,0.1-0.1c0,0,0.1-0.1,0.1-0.1c0.1,0,0.1-0.1,0.2-0.1c0,0,0,0,0.1,0c0.1-0.1,0.3-0.2,0.4-0.3
							c0.2-0.1,0.4-0.3,0.5-0.4c0.2-0.1,0.3-0.3,0.5-0.4c0.2-0.2,0.4-0.4,0.6-0.6c0.1-0.1,0.2-0.3,0.3-0.4c0.1-0.2,0.2-0.3,0.3-0.5
							c0,0,0.1-0.1,0.1-0.1c0.1-0.1,0.2-0.3,0.2-0.4c0-0.1,0.1-0.2,0.1-0.2c0.1-0.2,0.1-0.3,0.2-0.5c0.1-0.2,0.2-0.4,0.2-0.7
							C273.9,89.8,273.9,90,273.9,90.1z"/>
					</g>
				</g>
			</g>
			<g>
				<g>
					<g>
						<path class="st0" d="M273.9,90.1c0,0.3,0,0.6,0,1c0,0.2,0,0.4-0.1,0.6c-0.1,0.9-0.4,1.7-0.8,2.5c-1.1,2-2.9,3.5-5.1,4.1
							c-0.3,0.1-0.5,0.1-0.8,0.2h0c-0.3,0.1-0.6,0.1-0.9,0.1c-0.5,0.1-1.1,0-1.6,0c-0.1,0-0.2,0-0.3,0c-1.8-0.2-3.4-1.1-4.6-2.2
							c-0.5-0.5-1-1.1-1.4-1.7c-0.4-0.7-0.7-1.4-0.9-2.2c-0.3,0.3-0.6,0.5-0.9,0.8c-1.2,0.8-2.6,1.2-4.1,1c-0.8-0.1-1.5-0.3-2.1-0.6
							c-0.1,0-0.2-0.1-0.2-0.1h0c-0.9-0.5-1.7-1.3-2.2-2.2c-0.6-1.1-0.9-2.4-0.8-3.7c0.1-0.5,0.2-0.9,0.3-1.3c0,0.3,0.1,0.5,0.1,0.7
							c0,0.1,0,0.2,0.1,0.3c0,0.1,0.1,0.3,0.1,0.4c0,0.1,0.1,0.3,0.2,0.4c0,0.1,0.1,0.1,0.1,0.2c0.1,0.1,0.1,0.3,0.2,0.4
							c0.1,0.2,0.2,0.4,0.4,0.5c0.1,0.2,0.3,0.4,0.4,0.5c0.1,0.2,0.3,0.3,0.5,0.4l0,0c0.2,0.1,0.3,0.3,0.5,0.4
							c0.2,0.2,0.4,0.3,0.7,0.4c0.1,0.1,0.2,0.1,0.3,0.1c0.2,0.1,0.4,0.2,0.7,0.2c0,0,0,0,0,0c0,0,0.1,0,0.1,0
							c0.2,0,0.3,0.1,0.5,0.1c0.2,0,0.3,0.1,0.5,0.1c0.1,0,0.2,0,0.3,0c0.1,0,0.2,0,0.3,0c0.4,0,0.8,0,1.1-0.1c0.1,0,0.1,0,0.2,0
							c0.4-0.1,0.7-0.2,1-0.3c0.1,0,0.2-0.1,0.3-0.1c0.2-0.1,0.4-0.2,0.5-0.3h0c0.7,0.2,1.4,0.5,2,0.8c0.1,0.1,0.1,0.2,0.2,0.3
							c0.1,0.1,0.1,0.2,0.2,0.3c0.1,0.2,0.3,0.4,0.4,0.6c0.1,0.2,0.3,0.4,0.4,0.5c0.2,0.2,0.3,0.4,0.5,0.5c0.1,0.1,0.3,0.3,0.4,0.4
							c0.1,0.1,0.3,0.2,0.4,0.3c0.1,0.1,0.2,0.1,0.3,0.2c0.2,0.1,0.3,0.2,0.5,0.3c0.1,0,0.1,0.1,0.2,0.1c0.3,0.1,0.5,0.3,0.8,0.4
							c0,0,0,0,0,0c0.2,0.1,0.5,0.2,0.7,0.2c0,0,0.1,0,0.2,0c0.2,0.1,0.4,0.1,0.6,0.1c0.2,0,0.4,0.1,0.7,0.1c0.4,0,0.9,0.1,1.3,0v0
							c0,0,0,0,0,0c0,0,0.1,0,0.1,0c0.3,0,0.5,0,0.7-0.1c0.1,0,0.3,0,0.4-0.1c0,0,0,0,0,0c0.1,0,0.3,0,0.4-0.1c0,0,0.1,0,0.1,0
							c0.2,0,0.4-0.1,0.5-0.2c0.2-0.1,0.4-0.2,0.6-0.2c0.2-0.1,0.4-0.2,0.6-0.3c0.1,0,0.1-0.1,0.2-0.1c0,0,0,0,0,0v0
							c0,0,0.1,0,0.1-0.1c0,0,0.1-0.1,0.1-0.1c0.1,0,0.1-0.1,0.2-0.1c0,0,0,0,0.1,0c0.1-0.1,0.3-0.2,0.4-0.3
							c0.2-0.1,0.4-0.3,0.5-0.4c0.2-0.1,0.3-0.3,0.5-0.4c0.2-0.2,0.4-0.4,0.6-0.6c0.1-0.1,0.2-0.3,0.3-0.4c0.1-0.2,0.2-0.3,0.3-0.5
							c0,0,0.1-0.1,0.1-0.1c0.1-0.1,0.2-0.3,0.2-0.4c0-0.1,0.1-0.2,0.1-0.2c0.1-0.2,0.1-0.3,0.2-0.5c0.1-0.2,0.2-0.4,0.2-0.7
							c0,0,0,0,0,0C273.9,89.8,273.9,90,273.9,90.1z"/>
					</g>
				</g>
			</g>
		</g>
		<g>
			<g>
				<g>
					<g>
						<path class="st0" d="M220,124.2h-7.5v0c-0.1-0.2-0.3-0.3-0.4-0.5c-0.2-0.2-0.3-0.4-0.5-0.7c-0.4-0.6-0.7-1.2-1-1.8
							c-0.1-0.3-0.2-0.6-0.3-0.8c-0.1-0.3-0.2-0.5-0.3-0.8v0c0-0.1-0.1-0.3-0.1-0.4c0-0.1-0.1-0.2-0.1-0.4c0-0.1,0-0.2-0.1-0.3
							c0-0.2-0.1-0.5-0.1-0.7c0-0.2-0.1-0.5-0.1-0.7c0-0.1,0-0.3,0-0.4c0-0.2,0-0.4,0-0.6c0-0.4,0-0.8,0.1-1.2c0-0.2,0-0.4,0.1-0.6
							c0-0.2,0.1-0.4,0.1-0.6c0-0.1,0-0.3,0.1-0.4c0-0.2,0.1-0.3,0.1-0.5c0-0.2,0.1-0.4,0.2-0.6c0-0.1,0-0.2,0.1-0.3
							c0.1-0.2,0.1-0.4,0.2-0.6c0,0,0-0.1,0-0.1c0.1-0.2,0.2-0.4,0.3-0.6c0.1-0.2,0.2-0.4,0.3-0.6c0.1-0.1,0.1-0.3,0.2-0.4
							c0.2-0.4,0.4-0.7,0.7-1.1c0.1-0.2,0.2-0.3,0.4-0.5c0.1-0.2,0.3-0.3,0.4-0.5c0.1-0.1,0.2-0.2,0.3-0.4c0.2-0.2,0.3-0.3,0.5-0.5
							c0.3-0.3,0.5-0.5,0.8-0.7c0.1-0.1,0.1-0.1,0.2-0.2v0c0.1-0.1,0.2-0.1,0.3-0.2c0,0,0,0,0,0c0,0,0,0,0,0h0
							c0.2-0.2,0.5-0.3,0.8-0.5c-0.3,0.2-0.5,0.3-0.7,0.5c1,0.4,2,0.6,3.2,0.6c0.2,0,0.3,0,0.5,0c-0.7,1-1.2,2-1.6,3.2
							c-0.3,0.8-0.4,1.7-0.5,2.6c3.2,3.1,4.1,7.7,2.5,11.6C219.3,123.8,219.7,124,220,124.2z"/>
						<path class="st0" d="M248.6,121.9c-0.2,0.5-0.5,0.9-0.8,1.3c0,0.1-0.1,0.1-0.1,0.2c0,0,0,0,0,0c-0.1,0.1-0.1,0.2-0.2,0.3
							c0,0.1-0.1,0.1-0.2,0.2c0,0,0,0,0,0c-0.1,0.1-0.1,0.2-0.2,0.2h-15.9c1.3-0.7,2.6-1.6,3.7-2.7c0,0,0,0,0,0c0,0,0.1,0.1,0.2,0.2
							c0.4,0.4,0.8,0.7,1.3,1c-0.1-0.6-0.2-1.2-0.2-1.9c0-0.5,0-1.1,0.1-1.6c0-0.1,0-0.3,0.1-0.4c0,0,0-0.1,0-0.1
							c-0.2,0.1-0.5,0.1-0.8,0.1c-0.4,0-0.8,0-1.1-0.2c-0.7,0.7-1.7,1.2-2.8,1.2c-0.7,0-1.4-0.2-2-0.5c0,0,0,0,0,0
							c-0.3,0.1-0.6,0.1-0.9,0.1c-0.4,0-0.7,0-1.1-0.1c-0.7,0.7-1.7,1.1-2.8,1.2c-2.2,0-4.1-1.8-4.1-4c0-2.1,1.6-3.9,3.7-4.1
							c0,0,0,0,0,0c0-1.8,1.4-3.2,3.2-3.3c0.5,0,0.9,0.1,1.3,0.3c0.3-0.4,0.8-0.8,1.3-1c0.4-0.2,0.8-0.3,1.2-0.3
							c0.5,0,1,0.1,1.5,0.3c2-0.3,3.7-1.3,4.9-2.8c-0.5-0.6-1-1.1-1.5-1.6c0,0,0,0,0,0c0,0-0.1,0-0.1-0.1c-1.2,0.8-2.8,1.3-4.4,1.3
							c-1.8,0-3.5-0.6-4.9-1.7c0,0,0,0.1,0,0.1c0,0,0-0.1,0-0.1c0-0.1,0-0.2,0.1-0.3c0-0.1,0-0.1,0-0.2c0-0.1,0.1-0.3,0.2-0.4
							c0.2-0.6,0.4-1.1,0.8-1.6c0,0,0,0,0,0c0.1-0.2,0.3-0.5,0.5-0.7c0.2-0.3,0.4-0.5,0.6-0.8c0.3-0.3,0.6-0.6,0.9-0.8
							c0.3-0.3,0.6-0.5,1-0.7c0.4-0.2,0.8-0.4,1.3-0.6c0.3-0.1,0.5-0.2,0.8-0.3c0.1,0,0.3-0.1,0.4-0.1c0.8-0.2,1.5-0.3,2.3-0.3
							c0.7,0,1.3,0.1,2,0.3c0.5,0.1,1,0.3,1.4,0.5c0.2,0.1,0.5,0.2,0.7,0.4c0.3,0.2,0.7,0.4,1,0.6c0.3,0.2,0.6,0.5,0.9,0.8
							c0.1,0.1,0.2,0.2,0.3,0.3c0.3,0.3,0.6,0.7,0.9,1c0.8,1,1.2,2.2,1.5,3.4c0.2,1.1,0.2,2.2,0,3.2c-0.1,0.4-0.1,0.8-0.3,1.1
							c0.1,0.1,0.3,0.2,0.4,0.3c0.4,0.2,0.7,0.4,1,0.7c0.2,0.2,0.4,0.4,0.7,0.6c1.2,1.1,2.1,2.5,2.6,3.9c0.3,0.8,0.5,1.7,0.6,2.6
							C249.7,118.2,249.4,120.2,248.6,121.9z"/>
					</g>
				</g>
			</g>
			<g>
				<g>
					<g>
						<path class="st0" d="M231.2,98c-0.7,0.4-1.3,0.9-1.8,1.5c-0.2,0.2-0.4,0.5-0.6,0.8c0.5,0.1,1,0.3,1.5,0.5
							C230.4,99.8,230.7,98.9,231.2,98z"/>
					</g>
				</g>
			</g>
			<g>
				<g>
					<g>
						<path class="st0" d="M220,124.2h-7.5v0c-0.1-0.2-0.3-0.3-0.4-0.5c-0.2-0.2-0.3-0.4-0.5-0.7c-0.4-0.6-0.7-1.2-1-1.8
							c-0.1-0.3-0.2-0.6-0.3-0.8c-0.1-0.3-0.2-0.5-0.3-0.8v0c0-0.1-0.1-0.3-0.1-0.4c0-0.1-0.1-0.2-0.1-0.4c0-0.1,0-0.2-0.1-0.3
							c0-0.2-0.1-0.5-0.1-0.7c0-0.2-0.1-0.5-0.1-0.7c0-0.1,0-0.3,0-0.4c0-0.2,0-0.4,0-0.6c0-0.4,0-0.8,0.1-1.2c0-0.2,0-0.4,0.1-0.6
							c0-0.2,0.1-0.4,0.1-0.6c0-0.1,0-0.3,0.1-0.4c0-0.2,0.1-0.3,0.1-0.5c0-0.2,0.1-0.4,0.2-0.6c0-0.1,0-0.2,0.1-0.3
							c0.1-0.2,0.1-0.4,0.2-0.6c0,0,0-0.1,0-0.1c0.1-0.2,0.2-0.4,0.3-0.6c0.1-0.2,0.2-0.4,0.3-0.6c0.1-0.1,0.1-0.3,0.2-0.4
							c0.2-0.4,0.4-0.7,0.7-1.1c0.1-0.2,0.2-0.3,0.4-0.5c0.1-0.2,0.3-0.3,0.4-0.5c0.1-0.1,0.2-0.2,0.3-0.4c0.2-0.2,0.3-0.3,0.5-0.5
							c0.3-0.3,0.5-0.5,0.8-0.7c0.1-0.1,0.1-0.1,0.2-0.2c0.1-0.1,0.2-0.1,0.3-0.2c-0.1,0.1-0.2,0.2-0.2,0.4c-0.4,0.7-0.8,1.4-1,2.1
							c-0.8,2.1-1,4.4-0.6,6.7c0.4,2.6,1.7,5.1,3.8,7.1c0.7,0.6,1.4,1.2,2.2,1.7C219.3,123.8,219.7,124,220,124.2z"/>
						<path class="st0" d="M239.6,124.2h-8.4c1.3-0.7,2.6-1.6,3.7-2.7c0,0,0,0,0,0c0,0,0.1,0.1,0.2,0.2c0.4,0.4,0.8,0.7,1.3,1
							c0.9,0.6,1.8,1.1,2.8,1.4C239.3,124.1,239.5,124.1,239.6,124.2z"/>
						<rect x="181" y="124.2" class="st0" width="148.3" height="8.7"/>
						<path class="st0" d="M248.1,122.8c-0.1,0.2-0.2,0.3-0.3,0.5c0,0.1-0.1,0.1-0.1,0.2c0,0,0,0,0,0c-0.1,0.1-0.1,0.2-0.2,0.3
							c0,0.1-0.1,0.1-0.2,0.2c-0.1,0.1-0.1,0.2-0.2,0.2h-2.2c0.2,0,0.3-0.1,0.5-0.1v0c0.2-0.1,0.5-0.1,0.7-0.2h0
							c0.2-0.1,0.4-0.1,0.5-0.2c0.1,0,0.1,0,0.2-0.1C247.3,123.3,247.7,123,248.1,122.8z"/>
					</g>
				</g>
			</g>
			<g>
				<g>
					<g>
						<path class="st0" d="M215.7,105.1c-0.3,0.2-0.5,0.3-0.7,0.5c0,0,0,0-0.1,0c0,0,0,0,0-0.1h0c0,0,0,0,0,0h0
							C215.2,105.5,215.4,105.3,215.7,105.1z"/>
						<path class="st0" d="M228.7,100.2c-0.2,0.2-0.3,0.5-0.5,0.7c0,0,0,0,0,0c-0.3,0.5-0.6,1.1-0.8,1.6c-0.1,0.1-0.1,0.3-0.2,0.4
							c0,0.1,0,0.1,0,0.2c0,0.1,0,0.2-0.1,0.3c0,0,0,0.1,0,0.1c0,0.2-0.1,0.3-0.1,0.5c-0.8-0.3-1.7-0.6-2.6-0.7
							c-0.7-0.1-1.3-0.2-2-0.2c-0.3,0-0.6,0-0.9,0h0c0.6-0.5,1.3-0.9,2.1-1.2c-1,0-1.9-0.6-2.4-1.4c0.6-0.2,1.2-0.4,1.8-0.5
							c1.1-0.2,2.3-0.3,3.5-0.3C227.2,99.9,227.9,100.1,228.7,100.2L228.7,100.2z"/>
					</g>
				</g>
			</g>
			<g>
				<g>
					<g>
						<path class="st0" d="M239.4,114.9c0,1.1-0.4,2-1.1,2.7c-0.1,0.1-0.2,0.2-0.3,0.2c0,0-0.1,0.1-0.2,0.1
							c-0.4,0.3-0.9,0.6-1.5,0.7c-0.2,0.1-0.5,0.1-0.8,0.1c-0.4,0-0.8,0-1.1-0.2c-0.8-0.2-1.5-0.8-2-1.4c-0.5,1.1-1.5,1.8-2.7,2.1
							c0,0,0,0,0,0c-0.3,0.1-0.6,0.1-0.9,0.1c-0.4,0-0.7,0-1.1-0.1c-1.7-0.4-3-2-3-3.9c0-2.1,1.6-3.9,3.7-4.1c0,0,0,0,0,0
							c0-0.7,0.2-1.4,0.6-2c0.3-0.4,0.8-0.8,1.3-1c0.4-0.2,0.8-0.3,1.2-0.3c0.5,0,1,0.1,1.5,0.3c1,0.5,1.8,1.6,1.8,2.8c0,0,0,0,0,0
							c0.2,0,0.4,0,0.6,0c0.3,0,0.6,0,1,0.1c1.2,0.3,2.2,1.2,2.7,2.3v0c0.1,0.3,0.2,0.5,0.2,0.8
							C239.4,114.6,239.4,114.8,239.4,114.9z"/>
					</g>
				</g>
			</g>
		</g>
		<g>
			<g>
				<g>
					<g>
						<path class="st0" d="M269.2,123.5c0.5,0.3,1,0.5,1.5,0.7h-18c0,0,0,0,0-0.1c0,0,0,0-0.1,0.1h-12.9c-1.1-1.4-1.8-3.2-1.8-5.1
							c0-0.2,0-0.4,0-0.6c0-0.1,0-0.1,0-0.2v0c0-0.1,0-0.2,0-0.4c0-0.2,0.1-0.4,0.1-0.6c0,0,0-0.1,0-0.1v0c0.2-1,0.6-1.9,1.2-2.8
							c0.6-0.8,1.3-1.6,2.1-2.1c0.9-0.6,1.9-1.1,3-1.3c0,0,0-0.1,0-0.1v0c0-0.8,0.1-1.6,0.2-2.3c0.1-0.4,0.2-0.9,0.3-1.3
							c0.3-1.1,0.8-2.1,1.4-3c0-0.1,0.1-0.1,0.1-0.2c1.2-1.8,2.9-3.3,4.9-4.2c0,0,0,0,0,0h0c0.6-0.3,1.3-0.5,2-0.7h0
							c0.6-0.1,1.2-0.3,1.8-0.3c0.4,0,0.8-0.1,1.2-0.1h0c0.3,0,0.6,0,0.9,0c2,0.2,3.8,0.8,5.4,1.7h0c0,0,0.1,0.1,0.1,0.1
							c0.5,0.3,1,0.7,1.4,1c0,0,0,0,0.1,0.1c0,0,0,0,0,0c0,0,0,0,0,0l0,0c0.1,0.1,0.2,0.2,0.4,0.3c0.4,0.4,0.8,0.8,1.2,1.3
							c0.1,0.1,0.2,0.3,0.3,0.4h0c0.6,0.8,1.1,1.7,1.5,2.7v0c0.2,0.5,0.4,1.1,0.5,1.7c0.1,0.5,0.2,0.9,0.2,1.4
							c0.1,0.1,0.2,0.1,0.3,0.2c0,0,0.1,0,0.1,0.1c0.1,0.1,0.3,0.1,0.4,0.2c0,0,0,0,0,0c0.5,0.3,0.9,0.6,1.3,0.9
							c-0.7,0.5-1.5,0.9-2.3,1.2c-0.8,0.3-1.6,0.4-2.4,0.5c-0.3,0.5-0.6,1-0.9,1.6c-0.4,0.8-0.6,1.5-0.8,2.4c0,0.1,0,0.1,0,0.2
							c0.4,1.7,1.1,3.2,2.2,4.4C267.4,122.2,268.2,122.9,269.2,123.5z"/>
					</g>
				</g>
			</g>
			<g>
				<g>
					<g>
						<path class="st0" d="M255.2,124.2h-2.4c0,0,0,0,0-0.1c0,0,0,0-0.1,0.1h-12.9c-1.1-1.4-1.8-3.2-1.8-5.1c0-0.2,0-0.4,0-0.6
							c0-0.1,0-0.1,0-0.2v0c0-0.1,0-0.2,0-0.4c0-0.2,0.1-0.4,0.1-0.6c0,0,0-0.1,0-0.1c0,0.2,0.1,0.3,0.1,0.5c0.4,1.2,1,2.4,1.9,3.3
							c0,0,0,0,0,0c0,0,0,0,0,0c0,0,0,0,0.1,0.1c1.1,1.1,2.4,1.9,4,2.3c0,0,0,0,0,0c0,0,0,0,0,0c0.4,0.1,0.9,0.2,1.3,0.2
							c0.2,0,0.3,0,0.5,0c0.1,0,0.3,0,0.4,0c0.1,0,0.1,0,0.2,0c0.3,0,0.6-0.1,0.9-0.1c0,0,0,0,0,0c1.3-0.2,2.5-0.8,3.5-1.6
							c0,0,0,0,0,0c0.6-0.4,1.1-0.9,1.5-1.5c0.2,0.4,0.4,0.8,0.6,1.2c0.1,0.3,0.3,0.5,0.4,0.8c0.2,0.3,0.4,0.5,0.6,0.8
							C254.6,123.5,254.8,123.9,255.2,124.2z"/>
					</g>
				</g>
			</g>
			<g>
				<g>
					<g>
						<path class="st0" d="M259.7,110c-0.2,0-0.4,0-0.6,0.1c0,0,0,0,0,0c0-1.8-1.5-3.2-3.3-3.2c-1.8,0-3.2,1.5-3.2,3.3c0,0,0,0,0,0
							c-2.1,0.2-3.7,1.9-3.7,4.1c0,2.2,1.9,4.1,4.1,4c1.6,0,2.9-0.9,3.6-2.2c0.7,1,1.8,1.6,3.1,1.6c2.1,0,3.8-1.7,3.8-3.8
							C263.5,111.7,261.8,110,259.7,110z"/>
					</g>
				</g>
			</g>
		</g>
		<g>
			<g>
				<g>
					<g>
						<path class="st0" d="M274.7,104.2c-0.1,1.4-0.5,2.7-1.2,3.8C273.6,106.7,274,105.4,274.7,104.2z"/>
						<path class="st0" d="M270.7,124.2h-4.9c-0.1-0.1-0.1-0.2-0.2-0.3c-0.1-0.2-0.2-0.3-0.3-0.5c-0.1-0.2-0.2-0.3-0.3-0.5
							c-0.1-0.1-0.1-0.2-0.2-0.4c-0.1-0.2-0.1-0.3-0.2-0.5c-0.1-0.1-0.1-0.3-0.2-0.5c0-0.1-0.1-0.3-0.1-0.4c0-0.1-0.1-0.3-0.1-0.4
							c0-0.1-0.1-0.3-0.1-0.4c0-0.1,0-0.3-0.1-0.5c0-0.2,0-0.4-0.1-0.6c0-0.2,0-0.5,0-0.7s0-0.5,0-0.7c0-0.2,0-0.5,0.1-0.7
							c0,0,0,0,0,0c0,0,0,0,0,0h0v0c0-0.1,0-0.3,0.1-0.4c0,0,0,0,0,0c0,0.1,0,0.1,0,0.2c0.4,1.7,1.1,3.2,2.2,4.4
							c0.7,0.9,1.6,1.6,2.6,2.2C269.7,123.8,270.2,124,270.7,124.2z"/>
						<path class="st0" d="M273.3,108.5c-0.7,1-1.5,1.9-2.5,2.6c-0.7,0.5-1.5,0.9-2.3,1.2c-0.8,0.3-1.6,0.4-2.4,0.5
							c0.3-0.4,0.7-0.8,1-1.2c0.3-0.3,0.6-0.5,0.9-0.8c0.3-0.3,0.6-0.5,1-0.7c0,0,0.1-0.1,0.2-0.1c0.1,0,0.2-0.1,0.3-0.1
							c0,0,0,0,0,0C270.5,109.1,271.8,108.7,273.3,108.5z"/>
						<path class="st0" d="M281.9,100.4c-1.4,2.4-4.1,3.9-7,3.7c0,0,0,0-0.1,0c0.4-0.6,0.8-1.1,1.3-1.5h0c0,0,0,0,0,0
							c1.4-1.3,3.3-2.1,5.4-2.1C281.7,100.4,281.8,100.4,281.9,100.4z"/>
						<path class="st0" d="M287.3,113.4c0,1.6-1.3,2.9-2.9,2.9h-0.1c0,1.9-1.6,3.5-3.5,3.5c-1.9,0-3.5-1.6-3.5-3.5
							c0-1.5,0.9-2.7,2.2-3.2c-0.3-0.4-0.4-0.8-0.4-1.3c0-1.3,1.1-2.4,2.4-2.4c1,0,1.8,0.6,2.2,1.4c0.2-0.1,0.4-0.1,0.7-0.1
							C286,110.6,287.3,111.9,287.3,113.4z"/>
					</g>
				</g>
			</g>
			<g>
				<g>
					<g>
						<path class="st0" d="M270.7,124.2h-4.9c-0.1-0.1-0.1-0.2-0.2-0.3c-0.1-0.2-0.2-0.3-0.3-0.5c-0.1-0.2-0.2-0.3-0.3-0.5
							c-0.1-0.1-0.1-0.2-0.2-0.4c-0.1-0.2-0.1-0.3-0.2-0.5c-0.1-0.1-0.1-0.3-0.2-0.5c0-0.1-0.1-0.3-0.1-0.4c0-0.1-0.1-0.3-0.1-0.4
							c0-0.1-0.1-0.3-0.1-0.4c0-0.1,0-0.3-0.1-0.5c0-0.2,0-0.4-0.1-0.6c0-0.2,0-0.5,0-0.7s0-0.5,0-0.7c0-0.2,0-0.5,0.1-0.7
							c0,0,0,0,0,0c0,0,0,0,0,0h0v0c0-0.1,0-0.3,0.1-0.4c0,0,0,0,0,0c0,0.1,0,0.1,0,0.2c0.4,1.7,1.1,3.2,2.2,4.4
							c0.7,0.9,1.6,1.6,2.6,2.2C269.7,123.8,270.2,124,270.7,124.2z"/>
						<path class="st0" d="M283.9,124.2L283.9,124.2c-0.1-0.1-0.1-0.1-0.2-0.2C283.8,124.1,283.9,124.1,283.9,124.2z"/>
					</g>
				</g>
			</g>
			<g>
				<g>
					<g>
						<path class="st0" d="M287.3,113.4c0,1.6-1.3,2.9-2.9,2.9h-0.1c0,1.9-1.6,3.5-3.5,3.5c-1.9,0-3.5-1.6-3.5-3.5
							c0-1.5,0.9-2.7,2.2-3.2c-0.3-0.4-0.4-0.8-0.4-1.3c0-1.3,1.1-2.4,2.4-2.4c1,0,1.8,0.6,2.2,1.4c0.2-0.1,0.4-0.1,0.7-0.1
							C286,110.6,287.3,111.9,287.3,113.4z"/>
					</g>
				</g>
			</g>
		</g>
		<g>
			<g>
				<g>
					<g>
						<path class="st0" d="M255.3,84.5C255.3,84.5,255.3,84.5,255.3,84.5c0,0.1,0,0.1-0.1,0.2c0,0,0,0.1-0.1,0.1
							c-0.1,0.2-0.2,0.4-0.4,0.6c-0.1,0.1-0.1,0.2-0.2,0.3c-0.1,0.1-0.2,0.2-0.3,0.3c-0.1,0.1-0.1,0.1-0.2,0.1
							c-0.1,0.1-0.3,0.2-0.4,0.2c-0.1,0-0.3,0.1-0.4,0.1c-0.2,0.1-0.5,0.1-0.7,0.1c-0.3,0-0.5,0-0.7-0.1c-0.1,0-0.1,0-0.2-0.1
							c-0.1,0-0.1,0-0.2-0.1c-0.2-0.1-0.3-0.2-0.5-0.3c0,0,0,0,0,0c-0.1-0.1-0.3-0.2-0.4-0.3c-0.4-0.4-0.7-0.9-0.8-1.5
							c0.8-0.3,1.6-0.5,2.5-0.5C253.3,83.7,254.3,84,255.3,84.5z"/>
						<path class="st0" d="M267.9,98.3L267.9,98.3c0,0.3,0,0.5,0,0.7c0,0.1,0,0.3,0,0.4c0,0.1,0,0.3-0.1,0.4c0,0.1-0.1,0.3-0.1,0.4
							c-0.1,0.3-0.1,0.5-0.2,0.8c-0.1,0.2-0.1,0.3-0.2,0.5c-0.1,0.2-0.2,0.4-0.3,0.5c-0.1,0.1-0.1,0.3-0.2,0.4
							c-0.1,0.1-0.1,0.2-0.2,0.3c-0.1,0.1-0.1,0.2-0.2,0.3c-0.1,0.1-0.1,0.2-0.2,0.3c-0.1,0.1-0.1,0.2-0.2,0.2
							c-0.1,0.2-0.3,0.3-0.4,0.4c-0.3,0.3-0.6,0.6-1,0.8c-0.2,0.1-0.3,0.2-0.5,0.3c-0.2,0.1-0.3,0.2-0.5,0.3c0,0-0.1,0.1-0.2,0.1
							c-0.1,0.1-0.3,0.1-0.4,0.2c-0.2,0.1-0.4,0.2-0.7,0.3c-0.2,0-0.3,0.1-0.5,0.1c-0.2,0.1-0.4,0.1-0.7,0.1c-0.2,0-0.4,0-0.6,0.1
							c-0.2,0-0.4,0-0.6,0c-0.2,0-0.3,0-0.5,0c-0.1,0-0.3,0-0.4,0c-0.2,0-0.4,0-0.6-0.1c-0.2,0-0.3-0.1-0.5-0.1
							c-0.3-0.1-0.5-0.1-0.8-0.2c-0.2-0.1-0.3-0.1-0.5-0.2c-0.1-0.1-0.3-0.1-0.4-0.2c-0.2-0.1-0.4-0.2-0.6-0.4
							c-0.2-0.1-0.4-0.3-0.6-0.4c-0.1,0-0.1-0.1-0.2-0.1c-0.1-0.1-0.3-0.2-0.4-0.4c-0.2-0.2-0.4-0.4-0.6-0.6
							c-0.2-0.2-0.4-0.4-0.5-0.7c-0.4,0.8-1,1.6-1.7,2.2c-0.1,0.1-0.3,0.3-0.4,0.4c-0.4,0.3-0.9,0.6-1.3,0.9
							c-0.1,0.1-0.3,0.2-0.4,0.2c-0.1,0.1-0.3,0.1-0.4,0.2c-0.1,0.1-0.3,0.1-0.4,0.2c-0.3,0.1-0.6,0.2-0.9,0.3
							c-0.6,0.1-1.2,0.2-1.8,0.2c-0.2,0-0.4,0-0.5,0c-0.1,0-0.2,0-0.3,0c-0.1,0-0.2,0-0.3,0c-0.1,0-0.3,0-0.4-0.1
							c-0.2,0-0.4-0.1-0.6-0.1c-0.2,0-0.3-0.1-0.5-0.1c-0.4-0.1-0.8-0.3-1.1-0.4c-0.2-0.1-0.4-0.2-0.5-0.3c-0.2-0.1-0.4-0.2-0.5-0.3
							c-0.3-0.2-0.6-0.4-0.8-0.6c-0.1-0.1-0.2-0.2-0.4-0.3c-0.1-0.1-0.2-0.2-0.3-0.4l-0.3-0.4c-0.1-0.1-0.2-0.3-0.3-0.4
							c-0.1-0.2-0.2-0.4-0.4-0.5c-0.1-0.2-0.2-0.4-0.3-0.6c-0.1-0.2-0.2-0.4-0.3-0.6c0-0.1-0.1-0.2-0.1-0.3c0-0.1-0.1-0.2-0.1-0.2
							c0,0,0,0,0-0.1h0c0,0,0-0.1,0-0.1c0-0.2-0.1-0.3-0.1-0.5c0,0,0,0,0,0c-0.1-0.6-0.2-1.3-0.2-1.9v-0.1c0-0.2,0-0.5,0-0.7
							c0,0,0-0.1,0-0.1c0,0,0-0.1,0-0.1c0-0.2,0-0.4,0.1-0.6v0c0.1-0.5,0.3-1,0.5-1.5c0.6-1.6,1.8-2.9,3.2-3.9
							c1.2-0.8,2.5-1.3,4-1.4c0,0,0,0,0,0c0-0.1,0-0.2,0-0.3c0-0.2,0-0.3,0-0.5c0.1-0.5,0.2-1,0.3-1.4c0.3-0.9,0.9-1.8,1.6-2.5
							c-0.1,0.2-0.1,0.3-0.2,0.5c0,0.3,0.1,0.5,0.1,0.7c0,0.1,0,0.2,0.1,0.3c0,0.1,0.1,0.3,0.1,0.4c0.1,0.1,0.1,0.3,0.2,0.4
							c0,0.1,0.1,0.1,0.1,0.2c0.1,0.1,0.1,0.3,0.2,0.4c0.1,0.2,0.2,0.4,0.4,0.5c0.1,0.2,0.3,0.4,0.4,0.5c0.1,0.2,0.3,0.3,0.5,0.4
							l0,0c0.2,0.1,0.3,0.3,0.5,0.4c1.4-0.4,2.8-0.4,4.2-0.3c0.4,0,0.8,0.1,1.2,0.2c0.4,0.1,0.8,0.2,1.2,0.3h0
							c0.7,0.2,1.4,0.5,2,0.8c0.7,0.3,1.3,0.7,1.9,1.2h0c0.1,0,0.1,0.1,0.2,0.2c0.2,0,0.4,0,0.5,0c0.3,0,0.5,0,0.8,0
							c0-0.1,0-0.1,0-0.2c0,0.1,0,0.1,0,0.2c1-0.1,2-0.4,2.9-0.9c1,0.7,1.8,1.6,2.3,2.7c0.2,0.3,0.3,0.7,0.5,1.1
							c0.1,0.3,0.2,0.7,0.3,1c0,0.1,0,0.3,0.1,0.4c0,0.1,0,0.3,0.1,0.4C267.9,97.8,267.9,98,267.9,98.3z"/>
					</g>
				</g>
			</g>
			<g>
				<g>
					<g>
						<path class="st0" d="M260,103c-2.7,0-5.1-1.4-6.5-3.4c-1.4,2.7-4.2,4.5-7.4,4.5c-4.1,0-7.5-2.9-8.3-6.8
							c-0.1,0.5-0.2,1.1-0.2,1.6c0,4.7,3.8,8.4,8.4,8.4c3.2,0,6-1.8,7.4-4.5c1.4,2.1,3.8,3.4,6.5,3.4c4.4,0,7.9-3.5,7.9-7.9
							c0-0.6-0.1-1.1-0.2-1.6C267,100.3,263.8,103,260,103z"/>
					</g>
				</g>
			</g>
			<g>
				<g>
					<g>
						<path class="st0" d="M254.5,92.2c-0.2,0-0.4,0-0.6,0.1c-0.3-0.7-1-1.1-1.8-1.1c-1.1,0-2,0.9-2,2c0,0.4,0.1,0.8,0.3,1.1
							c-1,0.4-1.8,1.5-1.8,2.7c0,1.6,1.3,2.9,2.9,2.9s2.9-1.3,2.9-2.9v0c0,0,0,0,0,0c1.3,0,2.4-1.1,2.4-2.4
							C256.9,93.3,255.8,92.2,254.5,92.2z"/>
					</g>
				</g>
			</g>
		</g>
		<g>
			<g>
				<g>
					<g>
						<path class="st0" d="M282.9,95.7c0-0.1,0-0.2,0-0.3c0,0,0,0,0,0c0,0,0,0,0,0c0,0,0,0,0-0.1c-0.3-2-1.5-3.8-3.1-5
							c-1.1-0.8-2.4-1.3-3.9-1.4c-0.6,0-1.2,0-1.8,0.1c0-0.1-0.1-0.2-0.2-0.3c0,0,0,0,0,0c0-0.1-0.1-0.2-0.1-0.3
							c-1-1.7-2.7-3-4.8-3.3c0,0.2,0,0.4,0,0.7c-0.1,0.9-0.3,1.7-0.7,2.4c-0.7,1.6-2,2.9-3.5,3.7c-0.9,0.5-1.9,0.8-2.9,0.9
							c0,0,0,0.1,0,0.1c0,0,0,0.1,0,0.1c0,0,0,0,0,0c0,0,0,0.1,0,0.1c0,0,0,0.1,0,0.1c0,0,0,0.1,0,0.1c0,0.1,0,0.1,0,0.2v0
							c0,0,0,0.1,0,0.1c0,0,0,0,0,0.1c0,0,0,0,0,0c0,0,0,0,0,0c0,0,0,0,0,0c0,0,0,0.1,0,0.1c0.1,0.2,0.1,0.3,0.2,0.5
							c0.1,0.1,0.1,0.2,0.2,0.4c0,0-0.1,0-0.1,0c-0.1,0.1-0.3,0.1-0.4,0.2c0,0,0,0-0.1,0c-0.3,0.1-0.6,0.3-0.9,0.5
							c-0.2,0.1-0.3,0.2-0.5,0.3c-0.2,0.1-0.4,0.3-0.6,0.5c0,0-0.1,0-0.1,0.1c-0.1,0-0.1,0.1-0.2,0.1c-0.3,0.2-0.6,0.5-0.8,0.8
							c-0.1,0.1-0.3,0.3-0.4,0.4c-0.1,0.1-0.2,0.3-0.4,0.5c-0.1,0.1-0.2,0.3-0.3,0.4c-0.1,0.2-0.3,0.4-0.4,0.6
							c-0.2,0.3-0.3,0.6-0.4,0.9c-0.1,0.1-0.1,0.3-0.2,0.4c0,0.1-0.1,0.2-0.1,0.4c0,0.1-0.1,0.2-0.1,0.3c0,0,0,0,0,0
							c-0.1,0.3-0.1,0.5-0.2,0.8v0c0,0.3-0.1,0.6-0.1,0.9v0.1c0,0.8,0,1.6,0.2,2.3c0.1,0.6,0.3,1.1,0.5,1.7c0.8,1.8,2.1,3.4,3.8,4.4
							c0.8,0.5,1.6,0.8,2.6,1.1c0.5,0.1,1.1,0.2,1.7,0.3c0.4,0,0.7,0,1.1,0c0.8,0,1.6-0.2,2.4-0.5c0.8-0.3,1.6-0.7,2.3-1.2
							c1-0.7,1.8-1.6,2.5-2.6c0.1-0.1,0.2-0.3,0.3-0.4v0c0.7-1.1,1.1-2.4,1.2-3.8l0,0c0-0.1,0-0.1,0-0.2v0c0,0,0.1,0,0.1,0
							c0,0,0,0,0.1,0c2.9,0.2,5.6-1.3,7-3.7c0.6-1,1-2.2,1.1-3.4c0-0.1,0-0.2,0-0.2v-0.4C282.9,96.1,282.9,95.9,282.9,95.7z
							 M274.1,98.9c-0.7,0.6-1.6,0.8-2.5,0.6c0.2,1-0.1,2.1-0.9,2.9c-0.1,0.1-0.3,0.2-0.4,0.3c-0.2,0.1-0.3,0.2-0.5,0.2
							c-0.2,0.1-0.4,0.1-0.5,0.1c-0.3,0-0.6,0.1-0.9,0c-0.3,0-0.6-0.1-0.8-0.3c-0.1-0.1-0.3-0.1-0.4-0.2c-0.1-0.1-0.2-0.1-0.3-0.2
							c-0.1-0.1-0.2-0.2-0.3-0.3c-0.2-0.2-0.4-0.5-0.5-0.8c-0.1-0.1-0.1-0.3-0.1-0.4c0-0.1-0.1-0.3-0.1-0.4c0-0.1,0-0.2,0-0.3
							c0-0.1,0-0.3,0-0.4c0-0.1,0-0.3,0.1-0.4c0-0.1,0.1-0.2,0.1-0.3c0-0.1,0.1-0.2,0.2-0.4c0.1-0.2,0.3-0.4,0.4-0.6c0,0,0,0,0,0
							c-0.1-0.1-0.1-0.2-0.2-0.3c0,0,0,0,0,0c0,0,0-0.1-0.1-0.1c0,0,0,0,0,0c0,0,0-0.1,0-0.1c0,0,0,0,0,0c0,0,0,0,0,0c0,0,0,0,0,0
							c0-0.1-0.1-0.1-0.1-0.2c0-0.1-0.1-0.2-0.1-0.3c0,0,0,0,0-0.1c0-0.1,0-0.1,0-0.2c0-0.1,0-0.2,0-0.2c0-0.1,0-0.2,0-0.3
							c0,0,0,0,0,0c0-0.1,0-0.2,0.1-0.3v0c0-0.1,0-0.2,0.1-0.3c0-0.1,0.1-0.2,0.1-0.3c0.1-0.1,0.2-0.3,0.3-0.4
							c0-0.1,0.1-0.1,0.2-0.2c0,0,0.1-0.1,0.1-0.1c0.1-0.1,0.2-0.1,0.3-0.2c0.1-0.1,0.2-0.1,0.4-0.1c0.1,0,0.2-0.1,0.3-0.1
							c0.1,0,0.3,0,0.4,0c0.1,0,0.3,0,0.4,0c0.1,0,0.1,0,0.2,0c0.2,0,0.5,0.1,0.7,0.3c0.1,0.1,0.2,0.1,0.3,0.2c0,0,0,0,0,0
							c0.1,0.1,0.1,0.1,0.2,0.2c0,0,0,0,0,0c0.1-0.1,0.2-0.2,0.3-0.3c0.1-0.1,0.3-0.2,0.4-0.3c0.1-0.1,0.3-0.1,0.4-0.2
							c0.5-0.2,1.1-0.2,1.6-0.1c0,0,0,0,0,0c0.1,0,0.2,0,0.3,0.1c0.1,0,0.2,0.1,0.3,0.1c0,0,0.1,0,0.1,0.1c0.2,0.1,0.3,0.2,0.4,0.3
							c0.1,0.1,0.1,0.1,0.2,0.2C275.3,96.2,275.2,97.9,274.1,98.9z"/>
						<path class="st0" d="M261.8,92.9C261.8,92.9,261.8,92.9,261.8,92.9c0-0.2-0.1-0.2-0.1-0.3C261.7,92.7,261.7,92.8,261.8,92.9
							C261.8,92.9,261.8,92.9,261.8,92.9z"/>
						<path class="st0" d="M261.8,93c0,0.1,0,0.1,0,0.2C261.8,93.2,261.8,93.1,261.8,93C261.8,93,261.8,93,261.8,93z"/>
						<path class="st0" d="M262,93.7c0,0.1,0,0.1,0.1,0.2c0-0.1-0.1-0.2-0.1-0.4c0-0.1,0-0.1-0.1-0.2c0,0,0,0,0,0c0,0,0,0.1,0,0.1
							C261.9,93.5,262,93.6,262,93.7z"/>
						<path class="st0" d="M274.1,98.9c-0.7,0.6-1.6,0.8-2.5,0.6c0.2,1-0.1,2.1-0.9,2.9c-1.2,1.1-3.1,0.9-4.1-0.3
							c-1-1.2-0.9-2.9,0.1-4c0,0,0,0,0,0c-0.8-1-0.7-2.4,0.3-3.3c1-0.8,2.4-0.7,3.3,0.2c0,0,0,0,0,0c0.1-0.1,0.2-0.2,0.3-0.3
							c1.2-1,2.9-0.9,3.9,0.3C275.3,96.2,275.2,97.9,274.1,98.9z"/>
					</g>
				</g>
			</g>
			<g>
				<g>
					<g>
						<path class="st0" d="M282.8,95.3c0,0.2,0,0.3,0.1,0.5C282.9,95.6,282.9,95.4,282.8,95.3C282.8,95.3,282.8,95.3,282.8,95.3z"/>
						<path class="st0" d="M282.9,96.3c0-0.2,0-0.4,0-0.6C282.9,95.9,282.9,96.1,282.9,96.3z"/>
						<path class="st0" d="M282.9,96.3c0,0.2,0,0.4,0,0.6C282.9,96.7,282.9,96.5,282.9,96.3z"/>
					</g>
				</g>
			</g>
			<g>
				<g>
					<g>
						<path class="st0" d="M262.5,94.7c0,0-0.1,0-0.1,0c-0.1,0.1-0.3,0.1-0.4,0.2c0,0,0,0-0.1,0c-0.3,0.1-0.6,0.3-0.9,0.5
							c-0.2,0.1-0.3,0.2-0.5,0.3c-0.2,0.1-0.4,0.3-0.6,0.5c0,0-0.1,0-0.1,0.1c-0.1,0-0.1,0.1-0.2,0.1c-0.3,0.2-0.6,0.5-0.8,0.8
							c-0.1,0.1-0.3,0.3-0.4,0.4c-0.1,0.1-0.2,0.3-0.4,0.5c-0.1,0.1-0.2,0.3-0.3,0.4c-0.1,0.2-0.3,0.4-0.4,0.6
							c-0.2,0.3-0.3,0.6-0.4,0.9c-0.1,0.1-0.1,0.3-0.2,0.4c0,0.1-0.1,0.2-0.1,0.4c0,0.1-0.1,0.2-0.1,0.3c-0.1-0.5-0.1-1.1,0-1.7
							c0.1-1.9,0.8-3.6,1.8-5c0.4-0.5,0.8-1,1.3-1.4c0.1-0.1,0.3-0.2,0.4-0.4c0.1,0,0.1-0.1,0.2-0.1h0c0.1,0,0.1,0.1,0.2,0.2
							c0.2,0,0.4,0,0.5,0c0.3,0,0.5,0,0.8,0c0-0.1,0-0.1,0-0.2c0,0.1,0,0.1,0,0.2c0,0,0,0.1,0,0.1c0,0,0,0.1,0,0.1c0,0,0,0,0,0
							c0,0,0,0.1,0,0.1c0,0,0,0.1,0,0.1c0,0,0,0.1,0,0.1c0,0.1,0,0.1,0,0.2v0c0,0,0,0.1,0,0.1c0,0,0,0,0,0.1c0,0,0,0,0,0
							c0,0,0,0,0,0c0,0,0,0,0,0c0,0,0,0.1,0,0.1c0.1,0.2,0.1,0.3,0.2,0.5C262.3,94.5,262.4,94.6,262.5,94.7z"/>
					</g>
				</g>
			</g>
			<g>
				<g>
					<g>
						<path class="st0" d="M274.1,98.9c-0.7,0.6-1.6,0.8-2.5,0.6c0.2,1-0.1,2.1-0.9,2.9c-1.2,1.1-3.1,0.9-4.1-0.3
							c-1-1.2-0.9-2.9,0.1-4c0,0,0,0,0,0c-0.8-1-0.7-2.4,0.3-3.3c1-0.8,2.4-0.7,3.3,0.2c0,0,0,0,0,0c0.1-0.1,0.2-0.2,0.3-0.3
							c1.2-1,2.9-0.9,3.9,0.3C275.3,96.2,275.2,97.9,274.1,98.9z"/>
					</g>
				</g>
			</g>
		</g>
		<g>
			<g>
				<g>
					<g>
						<path class="st0" d="M238.6,63.3L238.6,63.3c0-0.2,0-0.3,0-0.5C238.6,63,238.6,63.1,238.6,63.3z"/>
						<path class="st0" d="M251.1,70.4c-0.7,0.6-1.6,0.8-2.5,0.6c0.2,1-0.1,2.1-1,2.9c-1.2,1.1-3.1,0.9-4.1-0.3
							c-1-1.2-0.9-2.9,0.1-4c0,0,0,0,0,0c-0.8-1-0.7-2.5,0.3-3.3c1-0.8,2.4-0.7,3.3,0.2c0,0,0,0,0,0c0.1-0.1,0.2-0.2,0.3-0.3
							c1.2-1,2.9-0.9,3.9,0.3C252.3,67.6,252.2,69.4,251.1,70.4z"/>
					</g>
				</g>
			</g>
			<g>
				<g>
					<g>
						<path class="st0" d="M259.8,66.9c0,0,0-0.1,0-0.1c0,0,0,0,0,0C259.8,66.8,259.8,66.9,259.8,66.9z"/>
					</g>
				</g>
			</g>
			<g>
				<g>
					<g>
						<path class="st0" d="M259.9,67.5c0-0.1,0-0.5-0.1-0.6c0,0,0-0.1,0-0.1c-0.5-3.4-3.4-6.2-7-6.4c-0.6,0-1.2,0-1.8,0.1
							c-0.9-2.2-3-3.8-5.5-4c-3-0.2-5.6,1.7-6.5,4.4v0c0,0.1,0,0.1,0,0.2c-0.1,0.2-0.1,0.4-0.2,0.6c0,0,0,0,0,0c0,0.1,0,0.2-0.1,0.3
							c0,0.2,0,0.4-0.1,0.5v0.2c0,0.2,0,0.3,0,0.5l0,0c-2.9,1.4-5,4.3-5.2,7.7c0,0.6,0,1.1,0,1.7c-0.1,0.3-0.1,0.5-0.2,0.8
							c0,0.3-0.1,0.6-0.1,0.8c-0.3,5.1,3.6,9.5,8.7,9.8c5.1,0.3,9.5-3.6,9.8-8.7c0,0,0,0,0,0c0.1,0,0.1,0,0.2,0
							c4.2,0.3,7.8-2.9,8-7.1c0-0.2,0-0.3,0-0.5C259.9,67.9,259.9,67.6,259.9,67.5z M251.1,70.4c-0.7,0.6-1.6,0.8-2.5,0.6
							c0.2,1-0.1,2.1-1,2.9c-1.2,1.1-3.1,0.9-4.1-0.3c-1-1.2-0.9-2.9,0.1-4c0,0,0,0,0,0c-0.8-1-0.7-2.5,0.3-3.3
							c1-0.8,2.4-0.7,3.3,0.2c0,0,0,0,0,0c0.1-0.1,0.2-0.2,0.3-0.3c1.2-1,2.9-0.9,3.9,0.3C252.3,67.6,252.2,69.4,251.1,70.4z"/>
					</g>
				</g>
			</g>
			<g>
				<g>
					<g>
						<path class="st0" d="M251.1,70.4c-0.7,0.6-1.6,0.8-2.5,0.6c0.2,1-0.1,2.1-1,2.9c-1.2,1.1-3.1,0.9-4.1-0.3
							c-1-1.2-0.9-2.9,0.1-4c0,0,0,0,0,0c-0.8-1-0.7-2.5,0.3-3.3c1-0.8,2.4-0.7,3.3,0.2c0,0,0,0,0,0c0.1-0.1,0.2-0.2,0.3-0.3
							c1.2-1,2.9-0.9,3.9,0.3C252.3,67.6,252.2,69.4,251.1,70.4z"/>
					</g>
				</g>
			</g>
		</g>
		<g>
			<g>
				<g>
					<g>
						<path class="st0" d="M261.7,92.6c0,0.1,0,0.1,0,0.2c0,0,0,0,0,0C261.7,92.8,261.7,92.7,261.7,92.6z M260.2,92.7L260.2,92.7
							c-0.6-0.5-1.2-0.9-1.9-1.2c-0.6-0.3-1.3-0.6-2-0.8h0c-0.4-0.1-0.8-0.2-1.2-0.3c0.2,0.2,0.4,0.4,0.6,0.6
							c0.9,0.8,2.1,1.4,3.3,1.7c0.3,0.1,0.6,0.1,0.9,0.2l0.4,0C260.4,92.8,260.3,92.7,260.2,92.7z"/>
						<path class="st0" d="M268.8,84.1c-0.2-1.5-0.7-2.8-1.6-3.9c0,0,0,0,0,0c0.3-0.8,0.8-1.6,1.3-2.2c-1.4-2.1-3.7-3.5-6.4-3.8
							c-1-0.1-2,0-3,0.2c-0.2-0.6-0.6-1.1-1-1.5c-1.2-1.5-3.1-2.4-5.1-2.4c-1.7,0-3.3,0.7-4.5,1.8c-0.6,0.6-1.2,1.3-1.5,2v0
							c-0.4,0.9-0.7,1.8-0.7,2.9v0c-2.3,0.2-4.4,1.3-5.8,3c-0.4,0.5-0.8,1.1-1.1,1.8c-0.3,0.5-0.4,1-0.6,1.6
							c-0.1,0.4-0.2,0.7-0.2,1.1c0,0.3,0,0.6,0,0.9c0,1.1,0.2,2.2,0.6,3.2c0.5,1.2,1.3,2.3,2.3,3.2c1,0.9,2.3,1.6,3.7,1.9
							c0.2,0,0.4,0.1,0.6,0.1c0.1,0,0.1,0,0.2,0c0.3,0,0.7,0.1,1,0.1c0.1,0,0.2,0,0.3,0c0.9,0,1.8-0.2,2.6-0.5h0
							c0.1,0,0.1,0,0.2-0.1c1.1-0.4,2-1,2.8-1.8c0,0,0.1-0.1,0.1-0.1c0.4-0.4,0.7-0.8,1-1.2c0.4,0,0.8,0.1,1.2,0.2
							c0.4,0.1,0.8,0.2,1.2,0.3h0c0.7,0.2,1.4,0.5,2,0.8c0.7,0.3,1.3,0.7,1.9,1.2h0c0.1,0,0.1,0.1,0.2,0.2c0.2,0,0.4,0,0.5,0
							c0.3,0,0.5,0,0.8,0c0-0.1,0-0.1,0-0.2c0,0.1,0,0.1,0,0.2c1-0.1,2-0.4,2.9-0.9c1.5-0.8,2.8-2.1,3.5-3.7
							c0.3-0.8,0.6-1.6,0.7-2.4c0-0.2,0-0.4,0-0.7V85C268.8,84.7,268.8,84.4,268.8,84.1z M255.4,83.6L255.4,83.6
							c0,0.1-0.1,0.3-0.1,0.4c0,0,0,0.1,0,0.1c0,0.1,0,0.3-0.1,0.4c0,0,0,0,0,0c0,0,0,0,0,0c0,0.1,0,0.1-0.1,0.2c0,0,0,0.1-0.1,0.1
							c-0.1,0.2-0.2,0.4-0.4,0.6c-0.1,0.1-0.1,0.2-0.2,0.3c-0.1,0.1-0.2,0.2-0.3,0.3c-0.1,0.1-0.1,0.1-0.2,0.1
							c-0.1,0.1-0.3,0.2-0.4,0.2c-0.1,0-0.3,0.1-0.4,0.1c-0.2,0.1-0.5,0.1-0.7,0.1c-0.3,0-0.5,0-0.7-0.1c-0.1,0-0.1,0-0.2-0.1
							c-0.1,0-0.1,0-0.2-0.1c-0.2-0.1-0.3-0.2-0.5-0.3c0,0,0,0,0,0c-0.1-0.1-0.3-0.2-0.4-0.3c-0.4-0.4-0.7-0.9-0.8-1.5v0
							c0-0.2-0.1-0.4-0.1-0.6c0-0.1,0-0.3,0-0.4c0,0,0-0.1,0-0.1c0,0,0,0,0-0.1c0.1-0.4,0.2-0.7,0.4-1c0,0,0.1-0.1,0.1-0.1
							c0,0,0.1-0.1,0.1-0.1c0-0.1,0.1-0.1,0.1-0.1c0,0,0,0,0,0c0.1-0.1,0.1-0.1,0.2-0.2c0,0,0,0,0,0c0.1-0.1,0.1-0.1,0.2-0.2
							c0,0,0,0,0.1,0c0,0,0.1,0,0.1-0.1c0.1-0.1,0.2-0.1,0.3-0.2c-0.2-0.3-0.3-0.7-0.3-1.1c0-1.1,0.9-2,2-2c0.1,0,0.2,0,0.2,0
							c0,0,0.1,0,0.1,0c0,0,0,0,0,0c0.1,0,0.1,0,0.2,0c0.1,0,0.1,0,0.2,0.1c0.1,0,0.2,0.1,0.3,0.2c0.1,0,0.2,0.1,0.2,0.2
							c0,0,0.1,0.1,0.1,0.1c0,0,0,0,0,0c0,0,0,0,0,0c0.1,0.1,0.2,0.3,0.3,0.4c0.2,0,0.4-0.1,0.6-0.1c1.3,0,2.4,1.1,2.4,2.4
							C257.8,82.6,256.8,83.6,255.4,83.6z"/>
						<path class="st0" d="M257.8,81.3c0,1.3-1.1,2.4-2.4,2.4h0c0,0.1,0,0.3,0,0.4c0,0,0,0.1,0,0.1c0,0.1,0,0.3-0.1,0.4c0,0,0,0,0,0
							c0,0,0,0,0,0c0,0.1,0,0.1-0.1,0.2c0,0,0,0.1-0.1,0.1c-0.1,0.2-0.2,0.4-0.4,0.6c-0.1,0.1-0.1,0.2-0.2,0.3
							c-0.1,0.1-0.2,0.2-0.3,0.3c-0.1,0.1-0.1,0.1-0.2,0.1c-0.1,0.1-0.3,0.2-0.4,0.2c-0.1,0-0.3,0.1-0.4,0.1
							c-0.2,0.1-0.5,0.1-0.7,0.1c-0.3,0-0.5,0-0.7-0.1c-0.1,0-0.1,0-0.2-0.1c-0.1,0-0.1,0-0.2-0.1c-0.2-0.1-0.3-0.2-0.5-0.3
							c0,0,0,0,0,0c-0.1-0.1-0.3-0.2-0.4-0.3c-0.4-0.4-0.7-0.9-0.8-1.5v0c0-0.2-0.1-0.4-0.1-0.6c0-0.1,0-0.3,0-0.4c0,0,0-0.1,0-0.1
							c0,0,0,0,0-0.1c0.1-0.4,0.2-0.7,0.4-1c0,0,0.1-0.1,0.1-0.1c0,0,0.1-0.1,0.1-0.1c0-0.1,0.1-0.1,0.1-0.1c0,0,0,0,0,0
							c0.1-0.1,0.1-0.1,0.2-0.2c0,0,0,0,0,0c0.1-0.1,0.1-0.1,0.2-0.2c0,0,0,0,0.1,0c0,0,0.1,0,0.1-0.1c0.1-0.1,0.2-0.1,0.3-0.2
							c-0.2-0.3-0.3-0.7-0.3-1.1c0-1.1,0.9-2,2-2c0.1,0,0.2,0,0.2,0c0,0,0.1,0,0.1,0c0,0,0,0,0,0c0.1,0,0.1,0,0.2,0
							c0.1,0,0.1,0,0.2,0.1c0.1,0,0.2,0.1,0.3,0.2c0.1,0,0.2,0.1,0.2,0.2c0,0,0.1,0.1,0.1,0.1c0,0,0,0,0,0c0,0,0,0,0,0
							c0.1,0.1,0.2,0.3,0.3,0.4c0.2,0,0.4-0.1,0.6-0.1C256.8,78.9,257.8,79.9,257.8,81.3z"/>
					</g>
				</g>
			</g>
			<g>
				<g>
					<g>
						<path class="st0" d="M257.8,81.3c0,1.3-1.1,2.4-2.4,2.4h0c0,0.1,0,0.3,0,0.4c0,0,0,0.1,0,0.1c0,0.1,0,0.3-0.1,0.4c0,0,0,0,0,0
							c0,0,0,0,0,0c0,0.1,0,0.1-0.1,0.2c0,0,0,0.1-0.1,0.1c-0.1,0.2-0.2,0.4-0.4,0.6c-0.1,0.1-0.1,0.2-0.2,0.3
							c-0.1,0.1-0.2,0.2-0.3,0.3c-0.1,0.1-0.1,0.1-0.2,0.1c-0.1,0.1-0.3,0.2-0.4,0.2c-0.1,0-0.3,0.1-0.4,0.1
							c-0.2,0.1-0.5,0.1-0.7,0.1c-0.3,0-0.5,0-0.7-0.1c-0.1,0-0.1,0-0.2-0.1c-0.1,0-0.1,0-0.2-0.1c-0.2-0.1-0.3-0.2-0.5-0.3
							c0,0,0,0,0,0c-0.1-0.1-0.3-0.2-0.4-0.3c-0.4-0.4-0.7-0.9-0.8-1.5v0c0-0.2-0.1-0.4-0.1-0.6c0-0.1,0-0.3,0-0.4c0,0,0-0.1,0-0.1
							c0,0,0,0,0-0.1c0.1-0.4,0.2-0.7,0.4-1c0,0,0.1-0.1,0.1-0.1c0,0,0.1-0.1,0.1-0.1c0-0.1,0.1-0.1,0.1-0.1c0,0,0,0,0,0
							c0.1-0.1,0.1-0.1,0.2-0.2c0,0,0,0,0,0c0.1-0.1,0.1-0.1,0.2-0.2c0,0,0,0,0.1,0c0,0,0.1,0,0.1-0.1c0.1-0.1,0.2-0.1,0.3-0.2
							c-0.2-0.3-0.3-0.7-0.3-1.1c0-1.1,0.9-2,2-2c0.1,0,0.2,0,0.2,0c0,0,0.1,0,0.1,0c0,0,0,0,0,0c0.1,0,0.1,0,0.2,0
							c0.1,0,0.1,0,0.2,0.1c0.1,0,0.2,0.1,0.3,0.2c0.1,0,0.2,0.1,0.2,0.2c0,0,0.1,0.1,0.1,0.1c0,0,0,0,0,0c0,0,0,0,0,0
							c0.1,0.1,0.2,0.3,0.3,0.4c0.2,0,0.4-0.1,0.6-0.1C256.8,78.9,257.8,79.9,257.8,81.3z"/>
					</g>
				</g>
			</g>
		</g>
		<g>
			<g>
				<g>
					<g>
						<path class="st0" d="M211.1,100.6c-0.3,0.1-0.5,0.2-0.8,0.2c0,0-0.1,0-0.1,0c-0.2,0-0.4,0.1-0.6,0.1c-2.3,0.3-4.5-0.3-6.3-1.7
							c2.1-0.6,4.4-0.5,6.4,0.5c0-0.1,0-0.2,0.1-0.3v0c0.6-2.9,2.7-5.3,5.5-6.3c-2.8-0.3-5.1-2.6-5.3-5.5c0-0.3,0-0.7,0-1
							c0-0.1,0-0.3,0-0.4c0.1-0.4,0.2-0.8,0.3-1.2c-2-3.1-5.7-4.8-9.5-3.9C196,82.2,193,87,194,91.8c0,0,0,0.1,0,0.1
							c-2.1,1-3.5,3.1-3.5,5.5v0c0,0.1,0,0.2,0,0.2v0.1c0,0.3,0.1,0.7,0.1,1c0.3,1.5,1.2,2.8,2.4,3.7c1.3,0.9,3.1,1.3,4.8,1
							c0.2,0,0.3-0.1,0.4-0.1c0,0,0,0,0,0c0.4-0.1,0.8-0.3,1.2-0.5c0.4-0.2,0.7-0.5,1-0.8c0.6-0.5,1.1-1.2,1.4-1.9
							c1.7,2.6,4.8,4.1,8,3.7c0.3,0,0.6-0.1,0.8-0.1c0.3-0.1,0.5-0.1,0.8-0.2c0.5-0.2,1-0.4,1.5-0.6c-0.3-0.5-0.7-0.9-1.1-1.3
							C211.8,101.1,211.5,100.8,211.1,100.6z M199.8,89.9C199.8,89.9,199.8,89.9,199.8,89.9c-0.3-1.3,0.5-2.6,1.8-2.9
							c1.3-0.3,2.6,0.5,2.8,1.8v0c0.1,0,0.3-0.1,0.4-0.1c1.5-0.4,3,0.6,3.4,2.1c0.4,1.5-0.6,3-2.1,3.4c-0.9,0.2-1.9-0.1-2.5-0.7
							c-0.3,1-1.1,1.9-2.2,2.1c-1.6,0.4-3.2-0.6-3.6-2.2C197.4,91.9,198.3,90.4,199.8,89.9z"/>
						<path class="st0" d="M190.5,97.4L190.5,97.4c0,0.1,0,0.2,0,0.3C190.5,97.5,190.5,97.4,190.5,97.4
							C190.5,97.3,190.5,97.3,190.5,97.4z"/>
						<path class="st0" d="M206.1,94.2c-0.9,0.2-1.9-0.1-2.5-0.7c-0.3,1-1.1,1.9-2.2,2.1c-1.6,0.4-3.2-0.6-3.6-2.2
							c-0.4-1.5,0.5-3.1,2-3.5c0,0,0,0,0,0c-0.3-1.3,0.5-2.6,1.8-2.8c1.3-0.3,2.6,0.5,2.8,1.8v0c0.1,0,0.3-0.1,0.4-0.1
							c1.5-0.4,3,0.6,3.4,2.1C208.6,92.4,207.6,93.9,206.1,94.2z"/>
						<path class="st0" d="M190.5,97.3C190.5,97.3,190.5,97.3,190.5,97.3L190.5,97.3c0,0.1,0,0.2,0,0.3
							C190.5,97.5,190.5,97.4,190.5,97.3z"/>
						<path class="st0" d="M211.1,100.6c-0.3,0.1-0.5,0.2-0.8,0.2c0,0-0.1,0-0.1,0c-0.2,0-0.4,0.1-0.6,0.1c-2.3,0.3-4.5-0.3-6.3-1.7
							c2.1-0.6,4.4-0.5,6.4,0.5c0-0.1,0-0.2,0.1-0.3c0,0.1,0.1,0.3,0.1,0.4C210.4,100.1,210.8,100.3,211.1,100.6z"/>
						<path class="st0" d="M217.3,93.1c-0.1,0-0.2,0-0.3,0.1c-0.1,0-0.3,0-0.4,0c-0.4,0-0.8,0-1.3,0c-2.8-0.3-5.1-2.6-5.3-5.5
							c0-0.3,0-0.7,0-1c0-0.1,0-0.3,0-0.4c0.1-0.4,0.2-0.8,0.3-1.2c0.4,0.6,0.7,1.3,0.9,2c2,0.5,3.7,1.7,4.8,3.4
							c0.4,0.5,0.7,1.1,0.9,1.7v0c0,0,0,0,0,0c0,0.1,0.1,0.2,0.1,0.4c0,0,0,0.1,0,0.1c0,0,0,0.1,0,0.1c0,0,0,0.1,0,0.1
							C217.2,92.9,217.3,93,217.3,93.1z"/>
					</g>
				</g>
			</g>
			<g>
				<g>
					<g>
						<path class="st0" d="M190.5,97.4L190.5,97.4c0,0.1,0,0.2,0,0.3C190.5,97.5,190.5,97.4,190.5,97.4
							C190.5,97.3,190.5,97.3,190.5,97.4z"/>
						<path class="st0" d="M217.3,93.1c-0.1,0-0.2,0-0.3,0.1c0-0.1,0-0.3,0-0.4c0-0.2,0-0.4,0-0.6c0,0,0,0,0,0
							c0,0.1,0.1,0.2,0.1,0.4c0,0,0,0.1,0,0.1c0,0,0,0.1,0,0.1c0,0,0,0.1,0,0.1C217.2,92.9,217.3,93,217.3,93.1z"/>
					</g>
				</g>
			</g>
			<g>
				<g>
					<g>
						<path class="st0" d="M206.1,94.2c-0.9,0.2-1.9-0.1-2.5-0.7c-0.3,1-1.1,1.9-2.2,2.1c-1.6,0.4-3.2-0.6-3.6-2.2
							c-0.4-1.5,0.5-3.1,2-3.5c0,0,0,0,0,0c-0.3-1.3,0.5-2.6,1.8-2.8c1.3-0.3,2.6,0.5,2.8,1.8v0c0.1,0,0.3-0.1,0.4-0.1
							c1.5-0.4,3,0.6,3.4,2.1C208.6,92.4,207.6,93.9,206.1,94.2z"/>
					</g>
				</g>
			</g>
		</g>
		<g>
			<g>
				<g>
					<g>
						<path class="st0" d="M237.1,85.8c0-0.1,0-0.2,0-0.3c0-0.1,0-0.2,0-0.4c0-0.2-0.1-0.4-0.1-0.7c0,0,0,0,0,0
							c-0.7-2.6-2.6-4.7-5-5.7c0,0,0,0,0,0c-0.1-0.8-0.4-1.5-0.7-2.2c-1.6-3.3-5-5.4-8.8-5c-4.9,0.4-8.5,4.8-8.1,9.7
							c0,0,0,0.1,0,0.1c-1.8,0.6-3.3,2-3.9,3.7c-0.1,0.4-0.2,0.8-0.3,1.2c0,0.1,0,0.3,0,0.4c0,0.3,0,0.6,0,1
							c0.3,2.9,2.5,5.2,5.3,5.5c0.4,0.1,0.8,0.1,1.3,0c0.1,0,0.3,0,0.4,0c0.1,0,0.2,0,0.3-0.1c0.7-0.1,1.4-0.4,2-0.8
							c0.4-0.3,0.8-0.6,1.2-1c0.3-0.3,0.5-0.6,0.7-0.9c0.2,0.4,0.4,0.7,0.6,1c0.6,0.8,1.2,1.5,2,2.1c0.1,0.1,0.1,0.1,0.2,0.2
							c0,0,0,0,0,0c1.2,0.8,2.6,1.3,4.2,1.4h0c0.2,0,0.5,0,0.7,0c0.2,0,0.4,0,0.6,0h0c0.5-0.1,1.1-0.2,1.6-0.3
							c0.7-0.2,1.3-0.5,2-0.8c0.4-0.3,0.9-0.6,1.2-0.9c0.3-0.3,0.6-0.6,0.9-0.9c0.5-0.6,0.9-1.2,1.2-1.8c0.1-0.2,0.2-0.4,0.2-0.6
							c0.3-0.8,0.5-1.6,0.6-2.5C237.2,86.7,237.1,86.3,237.1,85.8z M220.1,80.1C220.1,80.1,220.1,80.1,220.1,80.1
							c-0.1-1.3,0.8-2.5,2.1-2.6c1.3-0.1,2.5,0.8,2.6,2.1c0,0,0,0,0,0c0.1,0,0.3-0.1,0.4-0.1c1.5-0.2,2.9,1,3.1,2.5
							c0.2,1.5-1,2.9-2.5,3.1c-1,0.1-1.8-0.3-2.4-1c-0.4,1-1.3,1.7-2.5,1.9c-1.6,0.2-3.1-1-3.3-2.7
							C217.5,81.8,218.6,80.4,220.1,80.1z"/>
						<path class="st0" d="M228.3,82.1c0.2,1.5-1,2.9-2.5,3.1c-1,0.1-1.8-0.3-2.4-1c-0.4,1-1.3,1.7-2.5,1.9c-1.6,0.2-3.1-1-3.3-2.7
							c-0.2-1.6,0.9-3,2.4-3.2c0,0,0,0,0,0c-0.1-1.3,0.8-2.5,2.1-2.6c1.3-0.1,2.5,0.8,2.6,2.1c0,0,0,0,0,0c0.1,0,0.3-0.1,0.4-0.1
							C226.8,79.4,228.2,80.5,228.3,82.1z"/>
						<path class="st0" d="M237.1,85.8c0-0.1,0-0.2,0-0.3c0-0.1,0-0.2,0-0.4c0,0.1,0,0.2,0.1,0.4C237.1,85.6,237.1,85.7,237.1,85.8z
							"/>
					</g>
				</g>
			</g>
			<g>
				<g>
					<g>
						<path class="st0" d="M228.3,82.1c0.2,1.5-1,2.9-2.5,3.1c-1,0.1-1.8-0.3-2.4-1c-0.4,1-1.3,1.7-2.5,1.9c-1.6,0.2-3.1-1-3.3-2.7
							c-0.2-1.6,0.9-3,2.4-3.2c0,0,0,0,0,0c-0.1-1.3,0.8-2.5,2.1-2.6c1.3-0.1,2.5,0.8,2.6,2.1c0,0,0,0,0,0c0.1,0,0.3-0.1,0.4-0.1
							C226.8,79.4,228.2,80.5,228.3,82.1z"/>
					</g>
				</g>
			</g>
		</g>
		<g>
			<g>
				<g>
					<g>
						<path class="st0" d="M245.9,93.3c0,0.2,0,0.4-0.1,0.6c0,0.2-0.1,0.5-0.2,0.7c-0.5,2-1.8,3.7-3.5,4.8c-0.7,0.5-1.4,0.8-2.2,1.1
							c-0.2,0.1-0.4,0.1-0.6,0.2c0,0-0.1,0-0.1,0c-0.4,0.1-0.7,0.1-1.1,0.1h0c0,0-0.1,0-0.1,0c-0.4,0-0.9,0-1.3,0
							c-0.7-0.1-1.4-0.2-2-0.5c-0.6-0.2-1.2-0.5-1.7-0.9c-0.5-0.3-0.9-0.7-1.3-1.1c-0.1-0.1-0.3-0.3-0.4-0.4c-0.4-0.4-0.7-0.8-1-1.3
							c-0.3-0.5-0.6-1.1-0.8-1.7c0-0.1-0.1-0.3-0.1-0.4c-0.2,0.2-0.3,0.3-0.5,0.4c-0.1,0.1-0.3,0.2-0.4,0.3
							c-1.2,0.8-2.6,1.2-4.1,1.1c-0.8-0.1-1.5-0.3-2.1-0.6c-0.7-0.4-1.3-0.8-1.8-1.4c-0.5-0.6-1-1.3-1.2-2.1
							c-0.3-0.8-0.4-1.7-0.3-2.5c0-0.1,0-0.1,0-0.2v0c0-0.1,0-0.1,0-0.2c0-0.1,0-0.2,0.1-0.3c0-0.2,0.1-0.4,0.1-0.5c0,0,0-0.1,0-0.1
							c0-0.2,0.1-0.3,0.2-0.5l0,0c0.3-0.7,0.8-1.3,1.3-1.9c0.7-0.7,1.5-1.2,2.5-1.5h0c0.2-0.1,0.3-0.1,0.5-0.1
							c0.2,0,0.4-0.1,0.6-0.1c0,0,0,0,0,0c0,0,0-0.1,0-0.1c0,0,0,0,0,0c0.2-1.7,0.9-3.3,1.9-4.5c1.2-1.5,2.9-2.6,4.9-3.1
							c0.7-0.2,1.4-0.3,2.2-0.3c0.3,0,0.6,0,0.9,0.1c0.2,0,0.4,0,0.6,0.1h0c2.4,0.4,4.5,1.8,5.8,3.7c0.1,0.2,0.3,0.4,0.4,0.6
							c0.6,1.1,1,2.3,1.2,3.5c0,0.3,0,0.7,0,1v0.1c1.6,1,2.8,2.5,3.4,4.3c0.1,0.2,0.1,0.4,0.2,0.6v0c0,0.1,0.1,0.2,0.1,0.4
							c0.1,0.4,0.2,0.8,0.2,1.3C246,92.3,246,92.8,245.9,93.3z"/>
					</g>
				</g>
			</g>
			<g>
				<g>
					<g>
						<path class="st0" d="M245.9,93.3c0,0.2,0,0.4-0.1,0.6c0,0.2-0.1,0.5-0.2,0.7c-0.5,2-1.8,3.7-3.5,4.8c-0.7,0.5-1.4,0.8-2.2,1.1
							c-0.2,0.1-0.4,0.1-0.6,0.2c0,0-0.1,0-0.1,0c-0.4,0.1-0.7,0.1-1.1,0.1h0c0,0-0.1,0-0.1,0c-0.4,0-0.9,0-1.3,0
							c-0.7-0.1-1.4-0.2-2-0.5c-0.6-0.2-1.2-0.5-1.7-0.9c-0.5-0.3-0.9-0.7-1.3-1.1c-0.1-0.1-0.3-0.3-0.4-0.4c-0.4-0.4-0.7-0.8-1-1.3
							c-0.3-0.5-0.6-1.1-0.8-1.7c0-0.1-0.1-0.3-0.1-0.4c-0.2,0.2-0.3,0.3-0.5,0.4c-0.1,0.1-0.3,0.2-0.4,0.3
							c-1.2,0.8-2.6,1.2-4.1,1.1c-0.8-0.1-1.5-0.3-2.1-0.6c-0.7-0.4-1.3-0.8-1.8-1.4c-0.5-0.6-1-1.3-1.2-2.1
							c-0.3-0.8-0.4-1.7-0.3-2.5c0-0.1,0-0.1,0-0.2v0c0-0.1,0-0.1,0-0.2c0-0.1,0-0.2,0.1-0.3c0-0.2,0.1-0.4,0.1-0.5c0,0,0-0.1,0-0.1
							c0,0.3,0.1,0.6,0.2,0.8c0.2,0.8,0.5,1.4,1,2c0.2,0.3,0.5,0.6,0.8,0.9c0.7,0.6,1.5,1.1,2.4,1.3c0.1,0,0.3,0.1,0.4,0.1
							c0,0,0,0,0,0c0.2,0,0.4,0.1,0.7,0.1c0.2,0,0.5,0,0.7,0c1.2,0,2.3-0.4,3.2-1c0.2-0.1,0.5-0.3,0.7-0.5c0.2-0.1,0.3-0.3,0.4-0.4
							c0,0.1,0.1,0.2,0.1,0.3c0.1,0.5,0.3,0.9,0.6,1.4c0.2,0.4,0.4,0.8,0.7,1.2c0.4,0.6,0.9,1.1,1.4,1.5c0.4,0.3,0.8,0.6,1.2,0.8
							c0.8,0.5,1.7,0.8,2.6,1c0.2,0,0.4,0.1,0.6,0.1c0.3,0,0.5,0,0.8,0c0.1,0,0.2,0,0.3,0c0.5,0,1-0.1,1.4-0.2
							c0.2,0,0.4-0.1,0.5-0.1c2.2-0.6,4.1-2.1,5.2-4.1c0.3-0.6,0.6-1.2,0.8-1.9C246,92.3,246,92.8,245.9,93.3z"/>
					</g>
				</g>
			</g>
			<g>
				<g>
					<g>
						<path class="st0" d="M235.6,84.8c-0.1,0-0.3,0-0.4,0c0,0,0,0,0,0c0.1-1.3-0.8-2.5-2.1-2.6c-1.3-0.1-2.5,0.8-2.6,2.1
							c0,0,0,0,0,0c-1.5,0-2.9,1.1-3,2.7c-0.2,1.6,1,3.1,2.7,3.3c1.1,0.1,2.2-0.4,2.8-1.3c0.4,0.8,1.2,1.3,2.2,1.4
							c1.5,0.2,2.9-1,3.1-2.5C238.2,86.4,237.1,85,235.6,84.8z"/>
					</g>
				</g>
			</g>
		</g>
		<g>
			<g>
				<g>
					<path class="st0" d="M214.7,106.1c0-0.1,0-0.1,0-0.2v0c0-0.1-0.1-0.3-0.1-0.4c-0.3-1-0.7-1.9-1.3-2.8c-0.3-0.5-0.7-0.9-1.1-1.3
						c-0.3-0.3-0.6-0.5-0.9-0.8c-0.4-0.3-0.8-0.5-1.2-0.7c-0.1,0-0.1-0.1-0.2-0.1c-0.1,0.4-0.1,0.8-0.1,1.2v0.1
						c0,0.9,0.1,1.8,0.4,2.6c0.5,1.6,1.4,2.9,2.7,3.9c0.3,0.2,0.5,0.4,0.8,0.6c0.4,0.2,0.8,0.4,1.2,0.6
						C214.9,107.9,214.9,107,214.7,106.1z"/>
					<path class="st0" d="M216.5,112C216.5,112,216.5,112,216.5,112c-0.7-0.6-1.3-1.1-2.1-1.5c0.2-0.5,0.3-1.1,0.3-1.7
						c-0.4-0.2-0.8-0.4-1.2-0.6c-0.3-0.2-0.6-0.4-0.8-0.6c-1.2-1-2.2-2.4-2.7-3.9c-0.3-0.8-0.4-1.7-0.4-2.6V101c0-0.4,0-0.8,0.1-1.2
						v0c-2-1-4.3-1.1-6.4-0.5c-0.7,0.2-1.4,0.5-2,0.9c0,0,0,0,0,0c-0.7,0.4-1.3,0.9-1.9,1.5c-0.1,0.1-0.2,0.2-0.3,0.4
						c-0.1,0.1-0.2,0.3-0.3,0.4c-4.3-1.1-9.1,0.1-12.4,3.6c-0.5,0.6-1,1.2-1.4,1.8c0,0,0,0,0,0c-0.4,0.3-0.9,0.7-1.3,1.1
						c-0.2,0.2-0.3,0.3-0.5,0.5c-0.6,0.6-1.1,1.3-1.5,2c-0.2,0.3-0.4,0.7-0.6,1.1c-0.2,0.3-0.3,0.6-0.4,1c-0.1,0.1-0.1,0.3-0.2,0.4
						c-0.1,0.1-0.1,0.3-0.1,0.4c-0.1,0.1-0.1,0.3-0.1,0.4c-0.1,0.4-0.2,0.8-0.3,1.2c-0.1,0.4-0.1,0.8-0.2,1.2c0,0.2,0,0.4,0,0.5
						c0,0,0,0,0,0c0,0.4,0,0.8,0,1.1c0,0.2,0,0.3,0,0.5c0,0.2,0,0.4,0.1,0.6c0,0.2,0.1,0.4,0.1,0.7c0,0.2,0.1,0.4,0.1,0.7
						c0,0.2,0.1,0.3,0.1,0.4c0.1,0.2,0.1,0.4,0.2,0.6c0.1,0.2,0.1,0.4,0.2,0.6c0.1,0.2,0.1,0.3,0.2,0.5c0,0.1,0.1,0.2,0.2,0.4
						c0,0.1,0.1,0.2,0.1,0.3c0,0.1,0.1,0.1,0.1,0.2h29.2c-0.1-0.3-0.2-0.6-0.3-0.8c0-0.2-0.1-0.4-0.1-0.5c0-0.1-0.1-0.3-0.1-0.4
						c0-0.1,0-0.3,0-0.4c0-0.2,0-0.4,0-0.7c0-0.2,0-0.4,0-0.6c0-0.1,0-0.2,0-0.4c0-0.1,0-0.2,0-0.4c0-0.1,0-0.2,0-0.3v0
						c0-0.1,0-0.1,0-0.2v0c0.4-1.8,1.4-3.4,2.8-4.5c1-0.8,2.2-1.4,3.5-1.7c0,0,0-0.1,0-0.1C216.5,112.7,216.5,112.4,216.5,112z
						 M202.3,116.5c-0.9,0-1.8-0.5-2.3-1.2c-0.5,0.9-1.5,1.6-2.6,1.6c-1.6,0-3-1.3-3-2.9c0-1.6,1.2-2.8,2.7-3c0,0,0,0,0,0
						c0-1.3,1-2.4,2.3-2.4c1.3,0,2.4,1,2.4,2.3v0c0.1,0,0.3,0,0.4,0c1.5,0,2.8,1.2,2.8,2.7C205.1,115.2,203.9,116.5,202.3,116.5z"/>
					<path class="st0" d="M205.1,113.7c0,1.5-1.2,2.8-2.7,2.8c-0.9,0-1.8-0.5-2.3-1.2c-0.5,0.9-1.5,1.6-2.6,1.6c-1.6,0-3-1.3-3-2.9
						c0-1.6,1.2-2.8,2.7-3c0,0,0,0,0,0c0-1.3,1-2.4,2.3-2.4c1.3,0,2.4,1,2.4,2.3v0c0.1,0,0.3,0,0.4,0
						C203.8,110.9,205,112.2,205.1,113.7z"/>
				</g>
			</g>
		</g>
		<g>
			<g>
				<g>
					<path class="st0" d="M205.1,113.7c0,1.5-1.2,2.8-2.7,2.8c-0.9,0-1.8-0.5-2.3-1.2c-0.5,0.9-1.5,1.6-2.6,1.6c-1.6,0-3-1.3-3-2.9
						c0-1.6,1.2-2.8,2.7-3c0,0,0,0,0,0c0-1.3,1-2.4,2.3-2.4c1.3,0,2.4,1,2.4,2.3v0c0.1,0,0.3,0,0.4,0
						C203.8,110.9,205,112.2,205.1,113.7z"/>
				</g>
			</g>
		</g>
		<g>
			<g>
				<g>
					<g>
						<path class="st0" d="M236.5,103.9c0,0-0.1,0-0.1-0.1c-1.2,0.8-2.8,1.3-4.4,1.3c-1.8,0-3.5-0.6-4.9-1.7c0,0,0,0.1,0,0.1
							c0,0.2-0.1,0.3-0.1,0.5c-0.8-0.3-1.7-0.6-2.6-0.7c-0.7-0.1-1.3-0.2-2-0.2c-0.3,0-0.6,0-0.9,0h0c0.6-0.5,1.3-0.9,2.1-1.2
							c0.6-0.3,1.3-0.5,2-0.7c0.2,0,0.3-0.1,0.5-0.1c0.7-0.2,1.5-0.3,2.2-0.3h0c0,0,0,0,0,0c0.1,0,0.2,0,0.3,0
							c2.4,0,4.5,0.7,6.4,1.8c0,0,0,0,0,0c0.5,0.3,1,0.7,1.4,1C236.5,103.9,236.5,103.9,236.5,103.9z"/>
						<path class="st0" d="M231.7,108c-0.4,0-0.8,0.1-1.2,0.3c0.5,0.1,1,0.2,1.6,0.2c0.4,0,0.8,0,1.1-0.1
							C232.7,108.1,232.2,108,231.7,108z"/>
						<path class="st0" d="M246.9,121.4c0-0.2,0-0.4,0-0.6c0-0.2,0-0.4-0.1-0.6v0c-0.5-3.3-2.5-6.2-5.3-7.9
							c-0.1-0.1-0.2-0.1-0.4-0.2c-0.1-0.1-0.3-0.2-0.4-0.2c-0.1-1.1-0.4-2.1-0.7-3.1c0,0,0,0,0,0c-0.4-1-0.9-1.9-1.5-2.8
							c-0.1-0.1-0.2-0.3-0.3-0.4c-1.2,1.5-2.9,2.5-4.9,2.8c-0.4,0-0.8,0.1-1.1,0.1c-0.5,0-1.1-0.1-1.6-0.2c-2-0.4-3.8-1.6-4.9-3.2
							c-1.4,2.7-4.2,4.5-7.4,4.5c-0.4,0-0.7,0-1.1-0.1c-0.8-0.1-1.5-0.3-2.2-0.6c-0.1,0.6-0.2,1.1-0.3,1.7c0.7,0.4,1.4,0.9,2,1.5
							c0,0,0,0,0,0c0,0.4,0,0.7,0,1.1c0,0,0,0.1,0,0.1c-1.3,0.3-2.5,0.9-3.5,1.7c-1.4,1.1-2.4,2.7-2.8,4.5v0c0,0.1,0,0.1,0,0.2v0
							c0,0.1,0,0.2,0,0.3c0,0.1,0,0.2,0,0.4c0,0.1,0,0.3,0,0.4c0,0.2,0,0.4,0,0.6c0,0.2,0,0.4,0,0.7c0,0.1,0,0.3,0,0.4
							c0,0.1,0,0.3,0.1,0.4c0,0.2,0.1,0.4,0.1,0.5c0.1,0.3,0.2,0.6,0.3,0.8h36.2c0-0.1,0-0.2,0-0.3c0-0.1,0-0.2,0-0.3c0,0,0,0,0-0.1
							c0-0.1,0-0.2,0-0.4c0-0.1,0-0.3,0-0.4c0-0.2,0-0.4,0-0.6C246.9,121.9,246.9,121.6,246.9,121.4z M234.5,118.6
							c-0.7,0.7-1.7,1.2-2.8,1.2c-0.7,0-1.4-0.2-2-0.5c0,0,0,0,0,0c-0.5-0.3-0.9-0.6-1.2-1.1c-0.2,0.4-0.5,0.8-0.8,1
							c-0.7,0.7-1.7,1.1-2.8,1.2c-2.2,0-4.1-1.8-4.1-4c0-2.1,1.6-3.9,3.7-4.1c0,0,0,0,0,0c0-1.8,1.4-3.2,3.2-3.3
							c0.5,0,0.9,0.1,1.3,0.3c1.2,0.5,2,1.6,2,3v0c0.2,0,0.4-0.1,0.6-0.1c2.1,0,3.8,1.7,3.8,3.8C235.5,117,235.1,117.9,234.5,118.6z
							"/>
						<path class="st0" d="M235.5,116c0,1-0.4,1.9-1,2.6c-0.7,0.7-1.7,1.2-2.8,1.2c-0.7,0-1.4-0.2-2-0.5c0,0,0,0,0,0
							c-0.5-0.3-0.9-0.6-1.2-1.1c-0.2,0.4-0.5,0.8-0.8,1c-0.7,0.7-1.7,1.1-2.8,1.2c-2.2,0-4.1-1.8-4.1-4c0-2.1,1.6-3.9,3.7-4.1
							c0,0,0,0,0,0c0-1.8,1.4-3.2,3.2-3.3c0.5,0,0.9,0.1,1.3,0.3c1.2,0.5,2,1.6,2,3v0c0.2,0,0.4-0.1,0.6-0.1
							C233.8,112.2,235.5,113.9,235.5,116z"/>
					</g>
				</g>
			</g>
			<g>
				<g>
					<g>
						<path class="st0" d="M235.5,116c0,1-0.4,1.9-1,2.6c-0.7,0.7-1.7,1.2-2.8,1.2c-0.7,0-1.4-0.2-2-0.5c0,0,0,0,0,0
							c-0.5-0.3-0.9-0.6-1.2-1.1c-0.2,0.4-0.5,0.8-0.8,1c-0.7,0.7-1.7,1.1-2.8,1.2c-2.2,0-4.1-1.8-4.1-4c0-2.1,1.6-3.9,3.7-4.1
							c0,0,0,0,0,0c0-1.8,1.4-3.2,3.2-3.3c0.5,0,0.9,0.1,1.3,0.3c1.2,0.5,2,1.6,2,3v0c0.2,0,0.4-0.1,0.6-0.1
							C233.8,112.2,235.5,113.9,235.5,116z"/>
					</g>
				</g>
			</g>
		</g>
		<g>
			<g>
				<g>
					<g>
						<path class="st0" d="M264.9,101.9c0-0.2,0-0.4,0-0.6c-0.1-0.9-0.2-1.9-0.5-2.8c-0.2-0.7-0.5-1.3-0.8-1.9
							c-0.2-0.5-0.5-0.9-0.8-1.3c-0.1-0.2-0.2-0.4-0.4-0.5c-0.5-0.7-1.1-1.3-1.8-1.8c0,0-0.1-0.1-0.1-0.1c-0.1-0.1-0.1-0.1-0.2-0.2
							h0c-0.6-0.5-1.2-0.9-1.9-1.2c-0.6-0.3-1.3-0.6-2-0.8h0c-0.4-0.1-0.8-0.2-1.2-0.3c-0.4-0.1-0.8-0.1-1.2-0.2
							c-1.4-0.2-2.8-0.1-4.2,0.3c-0.7,0.2-1.4,0.4-2.1,0.8c-0.2,0.1-0.3,0.1-0.5,0.2v0c0,0,0,0-0.1,0c0,0-0.1,0-0.1,0.1
							c-0.1-0.1-0.2-0.2-0.3-0.3c-0.2-0.2-0.4-0.4-0.6-0.5c-0.2-0.1-0.3-0.3-0.5-0.4v0c-0.1-0.1-0.2-0.1-0.2-0.2
							c-1.2-0.9-2.6-1.4-4-1.5c-0.7-0.1-1.5,0-2.2,0.1c-0.2,0-0.4,0.1-0.6,0.2l0,0c-0.1,0-0.3,0.1-0.4,0.1c0,0-0.1,0-0.1,0
							c-0.1,0-0.2,0.1-0.4,0.1c0,0-0.1,0-0.1,0l0,0c-0.1,0-0.2,0.1-0.3,0.1c-0.1,0.1-0.3,0.1-0.4,0.2c-0.1,0.1-0.2,0.1-0.3,0.2
							c-0.4,0.2-0.7,0.5-1.1,0.7c-0.5,0.4-1,0.9-1.4,1.4c-0.2,0.3-0.4,0.6-0.6,1c-0.2,0.3-0.4,0.7-0.5,1.1c-0.3,0.8-0.5,1.5-0.5,2.3
							c0,0.1,0,0.2,0,0.2c0,0.3,0,0.6,0,0.9c0,0.4,0.1,0.9,0.2,1.3c0,0.2,0.1,0.5,0.2,0.7c0.1,0.4,0.3,0.8,0.5,1.2
							c0.4,0.8,1,1.6,1.6,2.1c0,0,0,0,0,0c0.4,0.4,0.9,0.8,1.4,1.1c0,0,0.1,0.1,0.1,0.1c0,0,0,0,0,0c0.7,0.4,1.4,0.7,2.1,0.9
							c0.2,0,0.4,0.1,0.6,0.1c-0.3,0.3-0.6,0.7-0.8,1.1c-1.1,1.6-1.7,3.4-1.9,5.3c-0.2,1.7,0,3.5,0.7,5.2c0.2,0.4,0.4,0.9,0.6,1.3
							c0,0.1,0.1,0.2,0.1,0.2c0,0.1,0.1,0.2,0.1,0.2v0c0.6,1,1.3,1.9,2.2,2.7c0,0,0,0,0,0c0,0,0,0,0,0c1.2,1.1,2.6,1.9,4.1,2.4
							c0,0,0,0,0,0c0.4,0.2,0.8,0.3,1.3,0.4c0.2,0,0.3,0.1,0.5,0.1h0c0.2,0,0.4,0.1,0.7,0.1c0.2,0,0.4,0,0.5,0c0,0,0,0,0,0
							c2,0.1,4-0.3,5.9-1.3c0.2-0.1,0.3-0.2,0.5-0.3c0.2-0.1,0.5-0.3,0.7-0.4c0.1-0.1,0.2-0.1,0.3-0.2c0,0,0,0,0.1,0h0
							c1.5-1.2,2.7-2.6,3.5-4.3c0.7-1.6,1.1-3.3,1.1-5c0.4-0.3,0.9-0.6,1.3-1c0.3-0.3,0.6-0.6,0.9-0.9l0.1-0.1
							c0.4-0.5,0.8-1,1.2-1.5c0.9-1.3,1.5-2.7,1.8-4.2c0.2-0.9,0.3-1.8,0.3-2.7C264.9,102,264.9,102,264.9,101.9z M253.4,109.7
							c-1.9,1-4.2,0.3-5.2-1.6c-0.1-0.1-0.1-0.3-0.2-0.4c0-0.1-0.1-0.2-0.1-0.4c0-0.1,0-0.2-0.1-0.3c-0.1-0.4-0.1-0.8,0-1.1
							c0-0.1,0-0.1,0-0.1c0-0.2,0.1-0.4,0.1-0.6c0-0.1,0-0.2,0.1-0.2c0-0.1,0.1-0.2,0.2-0.3c-0.7,0-1.4-0.2-2.1-0.6
							c-0.6-0.4-1.2-0.9-1.5-1.6c-0.4-0.8-0.5-1.6-0.4-2.4c0-0.1,0-0.2,0-0.3c0,0,0-0.1,0-0.2h0c0-0.1,0-0.2,0.1-0.3c0,0,0,0,0-0.1
							c0-0.1,0.1-0.2,0.1-0.3c0,0,0,0,0,0c0.1-0.1,0.1-0.3,0.2-0.4c0.1-0.1,0.2-0.3,0.3-0.4c0.1-0.1,0.2-0.3,0.4-0.4
							c0,0,0.1-0.1,0.2-0.1c0.1-0.1,0.3-0.2,0.4-0.3c0.1-0.1,0.3-0.2,0.4-0.3c0.1,0,0.1-0.1,0.2-0.1c0.1,0,0.1-0.1,0.2-0.1
							c0.1,0,0.1,0,0.2-0.1c0.1,0,0.1-0.1,0.2-0.1c0.1,0,0.1,0,0.2-0.1c0.1,0,0.2,0,0.3-0.1c0,0,0.1,0,0.1,0c0.3,0,0.6,0,1,0
							c0.2,0,0.3,0.1,0.5,0.1c0.1,0,0.3,0.1,0.4,0.1c0,0,0,0,0.1,0c0.1,0,0.2,0.1,0.3,0.1c0.1,0,0.1,0.1,0.2,0.1
							c0.1,0,0.1,0.1,0.2,0.1c0.1,0.1,0.2,0.1,0.3,0.2c0,0,0,0,0,0c0.1,0,0.2,0.1,0.2,0.2c0,0,0,0,0,0c0.1,0.1,0.2,0.2,0.3,0.3
							c0,0,0,0,0,0c0,0,0.1,0.1,0.1,0.1c0.1,0.1,0.2,0.2,0.3,0.4c0,0,0,0,0,0c0.2-0.1,0.5-0.2,0.7-0.3c0.1,0,0.2,0,0.3-0.1l0.2,0
							c0.2,0,0.5,0,0.7,0c0,0,0.1,0,0.1,0h0c0.1,0,0.2,0,0.3,0.1c0.1,0,0.1,0,0.2,0.1c0,0,0.1,0,0.1,0c0,0,0.1,0,0.1,0
							c0.1,0,0.1,0.1,0.2,0.1c0,0,0,0,0.1,0c0.1,0,0.1,0.1,0.2,0.1c0.1,0,0.1,0.1,0.2,0.1c0.1,0,0.1,0.1,0.2,0.1
							c0.1,0.1,0.1,0.1,0.2,0.2l0.1,0.1c0.2,0.2,0.4,0.4,0.5,0.7c0.4,0.7,0.5,1.6,0.3,2.3c0,0.1-0.1,0.2-0.1,0.3
							c0,0.1-0.1,0.1-0.1,0.2c0,0.1-0.1,0.2-0.2,0.3c-0.1,0.1-0.1,0.2-0.2,0.3c-0.1,0.1-0.1,0.2-0.2,0.3c0,0.1-0.1,0.1-0.2,0.2
							c-0.2,0.2-0.4,0.3-0.6,0.4c0,0,0,0,0,0c0,0,0,0,0,0c0.1,0.1,0.2,0.3,0.3,0.5C255.9,106.4,255.2,108.7,253.4,109.7z"/>
						<path class="st0" d="M254.9,104.6c1,1.9,0.3,4.2-1.6,5.2c-1.9,1-4.2,0.3-5.2-1.6c-0.6-1.1-0.6-2.5,0-3.5
							c-1.5,0-2.9-0.8-3.6-2.2c-1.1-2-0.3-4.4,1.7-5.5c1.9-1,4.2-0.4,5.3,1.4c0,0,0,0,0,0c1.6-0.8,3.5-0.2,4.4,1.3
							c0.8,1.6,0.2,3.5-1.3,4.4c0,0,0,0,0,0C254.7,104.2,254.8,104.4,254.9,104.6z"/>
					</g>
				</g>
			</g>
			<g>
				<g>
					<g>
						<path class="st0" d="M254.9,104.6c1,1.9,0.3,4.2-1.6,5.2c-1.9,1-4.2,0.3-5.2-1.6c-0.6-1.1-0.6-2.5,0-3.5
							c-1.5,0-2.9-0.8-3.6-2.2c-1.1-2-0.3-4.4,1.7-5.5c1.9-1,4.2-0.4,5.3,1.4c0,0,0,0,0,0c1.6-0.8,3.5-0.2,4.4,1.3
							c0.8,1.6,0.2,3.5-1.3,4.4c0,0,0,0,0,0C254.7,104.2,254.8,104.4,254.9,104.6z"/>
					</g>
				</g>
			</g>
		</g>
		<g>
			<g>
				<g>
					<path class="st0" d="M270.7,124.2h-34c-0.2-0.5-0.3-1-0.4-1.5c-0.1-0.6-0.2-1.2-0.2-1.9c0-0.5,0-1.1,0.1-1.6
						c0-0.1,0-0.3,0.1-0.4c0,0,0-0.1,0-0.1c0.2-0.8,0.4-1.5,0.8-2.2c0.5-1.1,1.2-2,2-2.8v0c0.6-0.6,1.2-1.1,1.9-1.5
						c1-0.6,2.2-1.1,3.4-1.3c0.4-0.1,0.7-0.1,1.1-0.1v0c0-0.5,0-1,0.1-1.4c0.1-0.7,0.3-1.3,0.6-1.9c0.5-1,1.1-1.9,1.9-2.6
						c0,0,0,0,0,0c1.4-1.3,3.3-2.1,5.4-2.1c0.8,0,1.6,0.1,2.3,0.3c0.1,0,0.2,0.1,0.3,0.1c1.7,0.6,3.1,1.7,4.1,3.2
						c0.8,1.2,1.3,2.7,1.3,4.2v0.2c0,0,0,0.1,0,0.1c0.1,0,0.2,0,0.2,0c0.4-0.1,0.8-0.1,1.2-0.1c0.4,0,0.9,0,1.3,0.1c0,0,0,0,0,0
						c0.3,0,0.6,0.1,0.9,0.2c0.6,0.1,1.2,0.3,1.7,0.6c0.4,0.2,0.9,0.4,1.3,0.7c0,0,0,0,0.1,0c0,0,0,0,0.1,0
						c-0.8,0.3-1.6,0.4-2.4,0.5c-0.3,0.5-0.6,1-0.9,1.6c-0.4,0.8-0.6,1.5-0.8,2.4c0,0.1,0,0.1,0,0.2c0.4,1.7,1.1,3.2,2.2,4.4
						c0.7,0.9,1.6,1.6,2.6,2.2C269.7,123.8,270.2,124,270.7,124.2z"/>
				</g>
			</g>
		</g>
		<g>
			<g>
				<g>
					<path class="st0" d="M254.4,115.5c-0.2,0-0.3,0-0.5,0.1c-0.3-0.6-0.9-1-1.5-1c-0.9,0-1.7,0.8-1.7,1.7c0,0.4,0.1,0.7,0.3,0.9
						c-0.9,0.4-1.5,1.2-1.5,2.3c0,1.4,1.1,2.5,2.5,2.5c1.4,0,2.5-1.1,2.5-2.5v0c0,0,0,0,0,0c1.1,0,2-0.9,2-2
						C256.4,116.4,255.5,115.5,254.4,115.5z"/>
				</g>
			</g>
		</g>
		<g>
			<g>
				<g>
					<g>
						<path class="st0" d="M239.8,98.9c0-0.1,0-0.1,0-0.2c-0.1-0.3-0.1-0.5-0.2-0.8c-0.1-0.2-0.1-0.3-0.2-0.5
							c-0.3-0.6-0.6-1.2-1-1.7c-0.7-0.8-1.5-1.6-2.4-2.1c-0.5-0.3-1.1-0.5-1.6-0.7c-0.2-0.1-0.5-0.1-0.7-0.2
							c-0.3-0.1-0.6-0.1-0.8-0.1h0c-0.2,0-0.4,0-0.6,0c-0.4,0-0.8,0-1.2,0.1c0,0,0-0.1,0-0.1c0-0.2,0-0.5,0-0.7
							c-0.1-0.6-0.2-1.1-0.4-1.7c-0.3-0.9-0.8-1.6-1.5-2.3c-0.5-0.5-1-0.9-1.6-1.2c-1-0.5-2.1-0.8-3.2-0.8c-0.1,0-0.2,0-0.3,0
							c-1.7,0.1-3.2,0.8-4.4,1.9l0,0c-0.6,0.6-1.1,1.3-1.4,2.1c-0.3,0.8-0.5,1.7-0.5,2.6v0c-0.1,0-0.2,0-0.3,0h0c-0.1,0-0.1,0-0.2,0
							c-0.6,0.1-1.1,0.2-1.6,0.4c-2.8,1-4.9,3.4-5.5,6.3v0c0,0.1,0,0.2-0.1,0.3v0c-0.1,0.4-0.1,0.8-0.1,1.2v0.1
							c0,0.9,0.1,1.8,0.4,2.6c0.5,1.6,1.4,2.9,2.7,3.9c0.3,0.2,0.5,0.4,0.8,0.6c0.4,0.2,0.8,0.4,1.2,0.6c0.7,0.3,1.5,0.5,2.2,0.6
							c0.4,0,0.7,0.1,1.1,0.1c3.2,0,6-1.8,7.4-4.5c1.1,1.6,2.9,2.8,4.9,3.2c0.5,0.1,1,0.2,1.6,0.2c0.4,0,0.8,0,1.1-0.1
							c2-0.3,3.7-1.3,4.9-2.8c0.2-0.2,0.4-0.5,0.6-0.8c0.2-0.3,0.4-0.7,0.6-1.1c0.2-0.5,0.4-1,0.5-1.6c0-0.2,0.1-0.5,0.1-0.7
							c0-0.1,0-0.1,0-0.2c0-0.3,0-0.5,0-0.8v-0.1C239.9,99.9,239.9,99.4,239.8,98.9z M228.7,97.9c-0.4,0.8-1.2,1.3-2.1,1.3h0
							c0,0.2,0,0.5-0.1,0.7c-0.1,0.5-0.4,1-0.7,1.3c0,0-0.1,0.1-0.2,0.1c-0.5,0.5-1.2,0.7-1.9,0.7c0,0,0,0-0.1,0
							c-1,0-1.9-0.6-2.4-1.4c-0.3-0.4-0.4-0.9-0.4-1.5c0-0.5,0.1-0.9,0.3-1.3c0.2-0.4,0.4-0.7,0.7-0.9c0.2-0.2,0.5-0.4,0.8-0.5
							c-0.1-0.2-0.3-0.5-0.3-0.7c0-0.1,0-0.3,0-0.4c0-0.9,0.6-1.6,1.4-1.9c0.1,0,0.1,0,0.2-0.1c0.1,0,0.3,0,0.4,0
							c0.4,0,0.8,0.1,1.1,0.4c0.3,0.2,0.5,0.5,0.7,0.8c0.2,0,0.4-0.1,0.6-0.1c0.6,0,1.2,0.2,1.6,0.6h0c0.1,0.1,0.2,0.2,0.3,0.4
							c0.3,0.4,0.5,0.9,0.5,1.4C228.9,97.2,228.8,97.6,228.7,97.9z"/>
					</g>
				</g>
			</g>
			<g>
				<g>
					<g>
						<path class="st0" d="M228.9,96.8c0,0.4-0.1,0.8-0.3,1.1c-0.4,0.8-1.2,1.3-2.1,1.3h0c0,0.2,0,0.5-0.1,0.7
							c-0.1,0.5-0.4,1-0.7,1.3c0,0-0.1,0.1-0.2,0.1c-0.5,0.5-1.2,0.7-1.9,0.7c0,0,0,0-0.1,0c-1,0-1.9-0.6-2.4-1.4
							c-0.3-0.4-0.4-0.9-0.4-1.5c0-0.5,0.1-0.9,0.3-1.3c0.2-0.4,0.4-0.7,0.7-0.9c0.2-0.2,0.5-0.4,0.8-0.5c-0.1-0.2-0.3-0.5-0.3-0.7
							c0-0.1,0-0.3,0-0.4c0-0.9,0.6-1.6,1.4-1.9c0.1,0,0.1,0,0.2-0.1c0.1,0,0.3,0,0.4,0c0.4,0,0.8,0.1,1.1,0.4
							c0.3,0.2,0.5,0.5,0.7,0.8c0.2,0,0.4-0.1,0.6-0.1c0.6,0,1.2,0.2,1.6,0.6h0c0.1,0.1,0.2,0.2,0.3,0.4
							C228.7,95.8,228.9,96.3,228.9,96.8z"/>
					</g>
				</g>
			</g>
		</g>
		<g>
			<g>
				<g>
					<path class="st0" d="M216.3,290.6h-11.1c-3.8-24.9-5.3-47.9-9.1-72.8c-2.9-18.7-6-38.6-8.9-57.3c-1.3-8.2-4.5-17.1-5.8-25.3
						c-0.2-0.8-0.4-1.6-0.4-2.4h16.5c0,0.6,0.1,1.3,0.2,1.9C203.9,186.7,210.1,238.7,216.3,290.6z"/>
				</g>
			</g>
		</g>
		<g>
			<g>
				<g>
					<path class="st0" d="M279.9,132.9c0,0.9-0.1,1.9-0.1,2.8c-2.6,51.6-5.3,103.3-7.9,154.9h-11.1c0.9-52.6,1.8-105.1,2.7-157.7
						h5.4H279.9z"/>
				</g>
			</g>
		</g>
		<g>
			<g>
				<g>
					<path class="st0" d="M296.3,132.9c-1.4,17-2.9,33.9-4.3,50.9c-1.6,19.1-3.2,38.2-4.9,57.2c-1.4,16.5-2.8,33.1-4.2,49.6h-11.1
						c1.5-29.8,3-59.6,4.6-89.4c1.1-21.8,2.2-43.7,3.4-65.5c0-0.9,0.1-1.9,0.1-2.8H296.3z"/>
				</g>
			</g>
		</g>
		<g>
			<g>
				<g>
					<path class="st0" d="M263.4,132.9c-0.9,52.6-1.8,105.1-2.7,157.7h-11.1c-0.9-52.6-1.8-105.1-2.7-157.7H263.4z"/>
				</g>
			</g>
		</g>
		<g>
			<g>
				<g>
					<path class="st0" d="M312.8,132.9c0,0.6-0.1,1.3-0.2,1.9c-6.2,51.9-12.4,103.9-18.6,155.8h-11.1c4.5-52.6,8.9-105.1,13.4-157.7
						h5.2H312.8z"/>
				</g>
			</g>
		</g>
		<g>
			<g>
				<g>
					<path class="st0" d="M329.3,132.9c0,0.8-0.2,1.6-0.4,2.4c-1.8,11.8-3.6,23.7-5.4,35.5c-2.5,16.5-5.1,33.1-7.6,49.6
						c-3,19.7-6,39.4-9.1,59.2c-0.6,3.7-1.1,7.3-1.7,11H294c4.8-40.7,9.7-81.3,14.5-122c1.3-11.3,2.7-22.5,4-33.8
						c0.1-0.6,0.2-1.2,0.2-1.9h7.5H329.3z"/>
				</g>
			</g>
		</g>
		<g>
			<g>
				<g>
					<path class="st0" d="M249.6,290.6h-11.1c-2.7-52.6-5.4-105.1-8.1-157.7h6.7h9.8c0.4,23.9,0.8,47.7,1.2,71.6
						c0.3,20.5,0.7,41,1,61.5C249.3,274.2,249.5,282.4,249.6,290.6z"/>
				</g>
			</g>
		</g>
		<g>
			<g>
				<g>
					<path class="st0" d="M238.5,290.6h-11.1c-4.5-52.6-9-105.1-13.4-157.7h1.7h14.7c2.2,42.3,4.3,84.6,6.5,126.9
						C237.5,270.1,238,280.4,238.5,290.6z"/>
				</g>
			</g>
		</g>
		<g>
			<g>
				<g>
					<path class="st0" d="M227.4,290.6h-11.1c-3.3-27.4-6.5-54.8-9.8-82.2c-2.5-20.8-5-41.6-7.4-62.5c-0.4-3.7-0.9-7.5-1.3-11.2
						c-0.1-0.6-0.2-1.2-0.2-1.9H214c2.2,25.8,4.4,51.6,6.6,77.4C222.8,237.1,225.1,263.9,227.4,290.6z"/>
				</g>
			</g>
		</g>
		<g>
			<g>
				<g>
					<polygon class="st0" points="305.4,290.6 305.4,297.4 281,295.6 216.9,295.4 204.8,297.4 204.8,290.6 					"/>
				</g>
			</g>
		</g>
	</g>
	<g>
		<g>
			<g>
				<g>
					<g>
						<g>
							<path class="st0" d="M163.7,82l-0.5,3l-0.6,3.4l-22.7,7.1l-2.9,0.9c-5.4,1.7-9.1,6.7-9.1,12.4v9.7h15.4c0.2,0,0.4,0,0.7,0
								c0.2,0,0.3,0,0.5,0c0.1,0,0.2,0,0.4,0c1,0.1,2,0.4,2.9,0.8c0.3,0.1,0.6,0.3,0.8,0.4c0,0,0.1,0,0.1,0.1c0,0,0,0,0,0
								c0.1,0,0.2,0.1,0.3,0.1c0.1,0.1,0.3,0.2,0.4,0.3c0.7,0.5,1.4,1,1.9,1.6c0.1,0.2,0.3,0.3,0.4,0.5c0.1,0.1,0.1,0.2,0.2,0.2
								c0.1,0.1,0.1,0.2,0.2,0.2c0.8,1,1.3,2.1,1.7,3.3h-57c0.5-1.7,1.5-3.2,2.7-4.4c0,0,0.1-0.1,0.1-0.1c0,0,0,0-0.1,0.1
								c0.1-0.1,0.2-0.2,0.4-0.4c0.1-0.1,0.2-0.2,0.3-0.2c0.1-0.1,0.2-0.2,0.3-0.3c0.2-0.1,0.3-0.3,0.5-0.4c0,0,0,0,0,0
								c0.1-0.1,0.2-0.1,0.3-0.2c0,0,0,0,0,0c0.2-0.1,0.3-0.2,0.5-0.3c0.2-0.1,0.4-0.2,0.6-0.3s0.4-0.2,0.6-0.3
								c0.1-0.1,0.3-0.1,0.4-0.2c0.8-0.3,1.6-0.5,2.5-0.6c0.1,0,0.2,0,0.4,0c0.2,0,0.3,0,0.5,0c0.2,0,0.4,0,0.7,0h14.8v-9.7
								c0-8.2,5.3-15.4,13.1-17.8L163.7,82z"/>
						</g>
					</g>
				</g>
			</g>
		</g>
		<g>
			<g>
				<g>
					<path class="st0" d="M101.4,120.2C101.4,120.3,101.4,120.3,101.4,120.2c-0.1,0.1-0.2,0.2-0.3,0.2
						C101.1,120.4,101.3,120.3,101.4,120.2C101.4,120.3,101.4,120.3,101.4,120.2z"/>
					<path class="st0" d="M152.1,122.9L152.1,122.9c-0.1-0.1-0.1-0.2-0.2-0.2C152,122.7,152.1,122.8,152.1,122.9z"/>
					<path class="st0" d="M100,121.3c-0.1,0.1-0.3,0.2-0.4,0.4c0,0,0,0,0.1-0.1C99.8,121.5,99.9,121.4,100,121.3z"/>
				</g>
			</g>
		</g>
		<g>
			<g>
				<g>
					<path class="st0" d="M80.2,136.6c0,0.1-0.1,0.3-0.1,0.4l0-0.4H80.2z"/>
					<path class="st0" d="M165.9,144.2l-8.6,130l1.4,7.2H89.6l-3-45.8l-1.9-28.3l-3.3-63l-1.3-7.2l1.5,7.2l0.4,14.8
						c11.4,32.6,39.1,61.4,75.4,61.4c1.2,0,2.4,0,3.5-0.1L165.9,144.2z"/>
				</g>
			</g>
		</g>
		<g>
			<g>
				<g>
					<polygon class="st0" points="158.8,281.4 158.8,287.1 147.2,286.2 135.8,287.1 128.9,287.1 100.4,288 89.6,287.1 89.6,281.4 
											"/>
				</g>
			</g>
		</g>
		<g>
			<g>
				<g>
					<path class="st0" d="M84.5,127c-0.6,0.3-1.3,0.6-1.8,1C83.2,127.5,83.8,127.2,84.5,127z"/>
					<path class="st0" d="M167.5,127.9"/>
					<path class="st0" d="M172.5,136.6H77.7c0.1-1.9,0.7-3.7,1.6-5.2h91.5C171.8,132.9,172.4,134.7,172.5,136.6z"/>
				</g>
			</g>
		</g>
		<g class="st1">
			<g>
				<g>
					<g>
						<path class="st0" d="M80.2,136.6c0,0.1-0.1,0.3-0.1,0.4l0-0.4H80.2z"/>
						<polygon class="st0" points="81.6,144.2 81.5,144.2 80.1,137 						"/>
					</g>
				</g>
			</g>
		</g>
		<path class="st0" d="M157.7,273.9l1.1,7.5H89.6l-4.7-71C98.1,245.2,65.3,263,157.7,273.9z"/>
		<path class="st0" d="M80.2,136.6c0,0.1-0.1,0.3-0.1,0.4l0-0.4H80.2z"/>
		<path class="st0" d="M169.6,136.6l-0.5,7.6l-3.5,53.6l-4.7,22.6c-1.2,0.1-2.4,0.1-3.5,0.1c-36.4,0-64-28.9-75.4-61.4l-0.4-14.8
			l-1.5-7.2l0.2,1.2c0-0.1-0.1-1.4-0.1-1.6H169.6z"/>
		<path class="st0" d="M80.2,136.6c0,0.1-0.1,0.3-0.1,0.4l0-0.4H80.2z"/>
		<path class="st0" d="M170.9,131.4H79.3c0.2-0.3,0.3-0.5,0.5-0.8c0.2-0.3,1.6-1.7,1.8-1.9c0.2-0.1,0.8-0.6,1-0.8
			c0.6-0.4,1.2-0.7,1.8-1c0,0,0,0,0,0c0.2-0.1,3.7-0.8,4.2-0.8h72.9c0.5,0,4.8,2,5.4,2.4C167.1,128.6,170.6,131,170.9,131.4z"/>
		<path class="st0" d="M100,121.3c-0.1,0.1-0.3,0.2-0.4,0.4c0,0,0,0,0.1-0.1C99.8,121.5,99.9,121.4,100,121.3z"/>
		<path class="st0" d="M101.4,120.2C101.4,120.3,101.4,120.3,101.4,120.2L101.4,120.2C101.4,120.3,101.4,120.3,101.4,120.2z"/>
		<path class="st0" d="M152.1,122.9L152.1,122.9c-0.1-0.1-0.1-0.2-0.2-0.2C152,122.7,152.1,122.8,152.1,122.9z"/>
	</g>
</g>
</svg>
