<?xml version="1.0" encoding="utf-8"?>
<!-- Generator: Adobe Illustrator 24.0.1, SVG Export Plug-In . SVG Version: 6.00 Build 0)  -->
<svg version="1.2" baseProfile="tiny" id="Layer_1" xmlns="http://www.w3.org/2000/svg" xmlns:xlink="http://www.w3.org/1999/xlink"
	 x="0px" y="0px" viewBox="0 0 407.3 354" xml:space="preserve">
<g>
	<polyline display="inline" fill="none" stroke="#313131" stroke-width="2" stroke-miterlimit="10" points="87.1,204.3 108.6,288.8 
		156.9,292.3 247.8,285 299.3,288.8 320.1,204.3 	"/>
	<path display="inline" fill="none" stroke="#313131" stroke-width="2" stroke-miterlimit="10" d="M103.6,181.6h-21
		c-5.7,0-10.3,4.6-10.3,10.3v2.2c0,5.7,4.6,10.3,10.3,10.3h20.2"/>
	<path display="inline" fill="none" stroke="#313131" stroke-width="2" stroke-miterlimit="10" d="M153.1,185.2
		c0,0,8.1,17.9,8.1,24.7c0,11.4,0,26.6,9.8,26.6s8.8-17.9,8.8-26.6c0-8.7,0-28.3,0-28.3l0.2-6c0.1-4-3.1-7.3-7.1-7.3h-58.5
		c-9.3,0-9.3,13.3-9.3,13.3s0,19.2,0,24.5c0,8.9,0,20.9,9.8,20.9c9.8,0,8.8-14,8.8-20.9c0-6.8-2.3-14.6-2.3-14.6"/>
	<path display="inline" fill="none" stroke="#313131" stroke-width="2" stroke-miterlimit="10" d="M184.3,204.3h140.3
		c5.7,0,10.3-4.6,10.3-10.3v-2.2c0-5.7-4.6-10.3-10.3-10.3H185.4"/>
	<path display="inline" fill="none" stroke="#313131" stroke-width="2" stroke-miterlimit="10" d="M135.2,189.2c0,0,7.3,12.6,7.3,22
		c0,9.4,1,28.6-8.8,28.6c-9.8,0-9.8-16.4-9.8-28.6c0-7.3-3.6-27.2-3.6-27.2"/>
	<path display="inline" fill="none" stroke="#313131" stroke-width="2" stroke-miterlimit="10" d="M151.3,184c0,0,9.8,18.3,9.8,28.1
		c0,9.8,1,30-8.8,30c-9.8,0-9.8-17.2-9.8-30c0-7.6-9.7-28.5-9.7-28.5"/>
	<path display="inline" fill="none" stroke="#313131" stroke-width="2" stroke-miterlimit="10" d="M305.3,179.3l3.7-36.2
		c1.6-15.5-9.7-29.4-25.3-31l-9.9-1c-15.5-1.6-29.4,9.7-31,25.3l-4.2,41.6"/>
	<polyline display="inline" fill="#313131" points="293.7,112.4 296.2,90.3 268.9,87.1 266.3,109.2 	"/>
	<path display="inline" fill="none" stroke="#313131" stroke-width="2" stroke-miterlimit="10" d="M203.5,61.7l14.8,11.2
		c4.2,3.2,6.6,4.2,6.6,9.5v2.3c0,9.3-7.5,16.8-16.8,16.8h-33.4l-17-18h-24.2V61.7H203.5z"/>
	<path display="inline" fill="none" stroke="#313131" stroke-width="2" stroke-miterlimit="10" d="M159.1,85.1
		c0,0-0.7,13.1-4.6,19.8c-3.8,6.6-10.9,12.2-10.9,12.2l5.8,5.7c0,0,18-7.3,20.6-25.9"/>
	<path display="inline" fill="none" stroke="#313131" stroke-width="2" stroke-miterlimit="10" d="M183.8,101.5v15.1l-2.6,0
		c-4.4,0-8.3,3-9.4,7.2l-12.3,44.5"/>
	<path display="inline" fill="none" stroke="#313131" stroke-width="2" stroke-miterlimit="10" d="M210,101.5v15.1h4.3
		c3.4,0,6.2,2.5,6.5,5.9l9.1,57.2"/>
</g>
</svg>