<?xml version="1.0" encoding="utf-8"?>
<!-- Generator: Adobe Illustrator 24.0.1, SVG Export Plug-In . SVG Version: 6.00 Build 0)  -->
<svg version="1.2" baseProfile="tiny" id="Layer_1" xmlns="http://www.w3.org/2000/svg" xmlns:xlink="http://www.w3.org/1999/xlink"
	 x="0px" y="0px" viewBox="0 0 685.1 623.3" xml:space="preserve">
<g>
	<path fill="#40E9AF" d="M295.5,45.9c-31.5,16.6-62,34.9-92.8,52.5c-29.6,16.9-59.9,33.1-87.9,51.9c-25.1,16.9-49,36.5-64.2,60.9
		c-15.2,24.3-19.7,51.3-15,78.5c4.8,27.8,18.1,54.2,32.5,79.2c28.8,49.9,61.7,100.4,109.3,139c7.1,5.8,14.6,11.3,22.4,16.4
		c29.6,27.2,69.3,46.1,111.5,54.6c61,12.3,125.3,2.4,181.1-20.6c58-23.9,112.4-62.7,139.4-113.9c28.1-53.4,19.9-113.9-0.5-168.3
		c-20.9-55.6-52.8-108.4-92.6-155.7c-36.8-43.7-87-95.5-154.8-98.6C351.9,20.3,322.2,31.9,295.5,45.9z"/>
	<g>
		<g>
			<g>
				
					<path fill="none" stroke="#000000" stroke-width="2" stroke-linecap="round" stroke-linejoin="round" stroke-miterlimit="10" d="
					M440.6,149.1c0,0.1-0.1,0.2-0.1,0.3c-0.5,1.7-1,3.4-1.4,5.1c-0.4,1.6-0.9,3.1-1.3,4.7c-0.2,0.6-0.4,1.3-0.5,2
					c-0.6,2.2-1.2,4.6-1.9,7.1c-1.6-2.8-3.4-5.6-5.6-8.4c0.5,0,2-0.8,3.9-2c-0.7-0.6-2.9-2.4-4.2-3.5l3.5-7.6l0.5-1l0.6-1.2l0.2-0.5
					c0.1,0.1,0.2,0.2,0.3,0.4c0.2,0.2,0.4,0.4,0.7,0.7c0.4,0.4,1,0.9,1.6,1.4C438.4,147.9,440.2,149.2,440.6,149.1L440.6,149.1z"/>
			</g>
			<g>
				
					<polygon fill="none" stroke="#000000" stroke-width="2" stroke-linecap="round" stroke-linejoin="round" stroke-miterlimit="10" points="
					334,269.8 331.6,274.5 331.5,274.5 331.5,274.5 331.4,274.7 330.3,274.1 325.9,272 325.9,272 325,271.6 325.2,271.1 
					325.2,270.9 325.6,270.8 327.7,266.2 				"/>
			</g>
			<g>
				<g>
					
						<path fill="none" stroke="#000000" stroke-width="2" stroke-linecap="round" stroke-linejoin="round" stroke-miterlimit="10" d="
						M334,269.8l-2.4,4.6l0,0l-3,5.7c-3-1.7-6.1-3.6-8.3-5c-0.2-0.1-0.4-0.2-0.5-0.3l2.4-2.7c0.5-0.6,1.2-1,2-1.1l1-0.2l0.2,0
						l0.4-0.1l2.1-4.6L334,269.8z"/>
				</g>
			</g>
			<g>
				
					<path fill="none" stroke="#000000" stroke-width="2" stroke-linecap="round" stroke-linejoin="round" stroke-miterlimit="10" d="
					M451.4,335.8c-0.5-0.3-1.1-0.6-1.7-1C450.5,335.2,451.1,335.6,451.4,335.8z"/>
			</g>
			<g>
				
					<path fill="none" stroke="#000000" stroke-width="2" stroke-linecap="round" stroke-linejoin="round" stroke-miterlimit="10" d="
					M397.4,192.3c0,0-2.9-0.4-3.5,1c0,0-0.2-2.4-0.7-4.6v0c0.4-0.8,0.7-1.7,0.9-2.6C395.7,187.4,397.7,189.6,397.4,192.3z"/>
			</g>
			<g>
				<g>
					
						<polygon fill="none" stroke="#000000" stroke-width="2" stroke-linecap="round" stroke-linejoin="round" stroke-miterlimit="10" points="
						429.2,451.9 428.2,451.9 428.1,451.3 					"/>
				</g>
				<g>
					<g>
						<g>
							<g>
								
									<path fill="none" stroke="#000000" stroke-width="2" stroke-linecap="round" stroke-linejoin="round" stroke-miterlimit="10" d="
									M458.1,459.2l-26.7,0.6c-1.6,0-2.9-1.1-3-2.6l-0.3-5.9h0v0l1.1,0.5l3,1.5c0,0,7.5,4.1,15.9-0.4l10.7,3.7
									C460,457.3,459.5,459.1,458.1,459.2z"/>
							</g>
							<g>
								
									<polygon fill="none" stroke="#000000" stroke-width="2" stroke-linecap="round" stroke-linejoin="round" stroke-miterlimit="10" points="
									448,453 442.3,451 441.4,451 441.1,450.1 								"/>
							</g>
						</g>
					</g>
				</g>
			</g>
			<g>
				<g>
					
						<polygon fill="none" stroke="#000000" stroke-width="2" stroke-linecap="round" stroke-linejoin="round" stroke-miterlimit="10" points="
						336.6,443.4 335.6,443.1 335.7,442.6 335.7,442.6 					"/>
				</g>
				<g>
					<g>
						<g>
							<g>
								
									<path fill="none" stroke="#000000" stroke-width="2" stroke-linecap="round" stroke-linejoin="round" stroke-miterlimit="10" d="
									M360.8,459.3l-25.3-7.8c-1.5-0.5-2.3-1.9-1.8-3.3l2-5.6l0-0.1l0.8,0.9h0l2.2,2.3c0,0,5.4,6.2,15,4.6l8.6,6.8
									C363.3,458.2,362.2,459.7,360.8,459.3z"/>
							</g>
						</g>
					</g>
				</g>
			</g>
			<g>
				
					<path fill="none" stroke="#000000" stroke-width="2" stroke-linecap="round" stroke-linejoin="round" stroke-miterlimit="10" d="
					M385.4,165.1C385.4,165.1,385.4,165.1,385.4,165.1C385.4,165.1,385.4,165.1,385.4,165.1L385.4,165.1z"/>
				
					<path fill="none" stroke="#000000" stroke-width="2" stroke-linecap="round" stroke-linejoin="round" stroke-miterlimit="10" d="
					M404,174.6c-2.3,2.4-5.7,3.6-8.9,3.4c-0.1,1.3-0.4,2.2-0.4,2.4c0,0,0,0,0,0c-0.6-0.1-1.2-0.3-1.8-0.4c-4.2-1.3-6.7-4.2-6.7-4.2
					c-2.5,6.9-14.6,6-14.6,6s-0.1-0.1-0.4-0.3c-0.1-0.1-0.3-0.2-0.5-0.3c-0.3-0.2-0.5-0.3-0.9-0.4c0,0,0,0-0.1,0
					c-0.1,0-0.2-0.1-0.3-0.1c-0.1,0-0.2-0.1-0.3-0.1c-0.1,0-0.3,0-0.4,0c-0.1,0-0.2,0-0.3,0c-0.1,0-0.2,0-0.3,0.1
					c-0.1,0-0.2,0-0.2,0.1c-0.1,0-0.2,0.1-0.3,0.1c-0.3,0.2-0.6,0.4-0.9,0.8c0,0-0.1,0.1-0.1,0.3c-0.2,0.3-0.3,0.8-0.2,1.2
					c-0.7-0.6-1.5-1.3-2.1-2c-3.4,0.8-7.1,0.1-9.9-2.1c-4.6-3.6-5-9.8-1.1-13.9c4-4.1,10.8-4.5,15.4-1c1,0.8,1.8,1.8,2.4,2.8
					c4.7-2.3,10.1-2.9,14.4-1.9c0,0,0,0,0,0s0,0,0,0c0.4-1.2,1.1-2.3,2.1-3.3c3.9-4.1,10.8-4.5,15.4-1
					C407.4,164.3,407.9,170.5,404,174.6z"/>
			</g>
			<g>
				
					<path fill="none" stroke="#000000" stroke-width="2" stroke-linecap="round" stroke-linejoin="round" stroke-miterlimit="10" d="
					M448,453c-8.4,4.5-15.9,0.4-15.9,0.4l-3-1.5l-1.1-0.5v0l-2.2-10.7c-6.7-21.6-19.5-67.6-25.7-90c9-1,17.8-3,25.4-5.2l13.1,95.2
					l2.4,9.4l0.2,0.9l0.9,0L448,453z"/>
			</g>
			<g>
				
					<path fill="none" stroke="#000000" stroke-width="2" stroke-linecap="round" stroke-linejoin="round" stroke-miterlimit="10" d="
					M345.3,443.4l8.5,7c-9.6,1.6-15-4.6-15-4.6l-2.2-2.3h0l-0.8-0.9c0,0,0-0.1,0-0.1v-0.1c1.4-15.7,3.6-68.6,6.3-110.3
					c4.8,9.4,14.5,16,26.2,17c1.2,0.3,2.5,0.6,3.8,0.9l-23.7,79.4l0,0.1l0,0.1l0,0.1v0l0,0.1v0l0,0L345.3,443.4L345.3,443.4z"/>
				
					<path fill="none" stroke="#000000" stroke-width="2" stroke-linecap="round" stroke-linejoin="round" stroke-miterlimit="10" d="
					M364.2,245.6c-2,1.3-3.8,2.7-5.5,4.3C360.3,247.9,362.1,246.3,364.2,245.6L364.2,245.6z"/>
			</g>
			<g>
				
					<path fill="none" stroke="#000000" stroke-width="2" stroke-linecap="round" stroke-linejoin="round" stroke-miterlimit="10" d="
					M394.1,186.1c-0.2,0.9-0.5,1.8-0.9,2.6v0c-1.2,2.6-3.6,4.7-7.9,4.7c0,0-5.5-0.6-8.3-2.8c0,0,2.8,4,8.3,4.8v9.5
					c0,0-9.1,3.5-15.5,0v-17c0.1-0.6,0.1-1.1,0.1-1.4c0.6-0.2,1.1-0.7,1.1-1.3c0-0.7-0.7-1.4-1.5-1.4c-0.8,0-1.5,0.6-1.5,1.4
					c0,0.1,0,0.2,0,0.3c-0.5-0.3-0.9-0.7-1.3-1.1c-0.3-0.4-0.5-0.8-0.5-1.2l0.1,0.1c-0.1-0.5,0-1,0.1-1.3c0.1-0.2,0.1-0.3,0.1-0.3
					c0.3-0.3,0.6-0.6,0.9-0.8c0.1,0,0.2-0.1,0.3-0.1c0.1,0,0.1-0.1,0.2-0.1c0.1,0,0.2-0.1,0.3-0.1c0.1,0,0.2,0,0.3,0
					c0.1,0,0.3,0,0.4,0c0.1,0,0.2,0,0.3,0.1c0.1,0,0.2,0.1,0.3,0.1c0,0,0.1,0,0.1,0c0.3,0.1,0.6,0.2,0.9,0.4
					c0.2,0.1,0.3,0.2,0.5,0.3c0.2,0.1,0.4,0.3,0.4,0.3s12.1,0.8,14.6-6c0,0,2.5,2.9,6.7,4.2c0.6,0.2,1.2,0.3,1.8,0.4
					C394.7,181.8,394.6,183.9,394.1,186.1z"/>
				
					<path fill="none" stroke="#000000" stroke-width="2" stroke-linecap="round" stroke-linejoin="round" stroke-miterlimit="10" d="
					M366.4,183.3l-0.1-0.1c-0.1-0.4,0-0.8,0.2-1.2C366.4,182.3,366.3,182.8,366.4,183.3z"/>
				
					<path fill="none" stroke="#000000" stroke-width="2" stroke-linecap="round" stroke-linejoin="round" stroke-miterlimit="10" d="
					M371,185.2c0,0.6-0.4,1.1-1.1,1.3c0,0.4,0,0.8-0.1,1.4v-1.5c0,0-0.3-0.1-0.8-0.3c-0.3-0.1-0.7-0.3-1-0.6c0-0.1,0-0.2,0-0.3
					c0-0.7,0.7-1.4,1.5-1.4C370.4,183.8,371,184.4,371,185.2z"/>
				
					<path fill="none" stroke="#000000" stroke-width="2" stroke-linecap="round" stroke-linejoin="round" stroke-miterlimit="10" d="
					M385.4,193.4v2c-5.5-0.8-8.3-4.8-8.3-4.8C379.9,192.8,385.4,193.4,385.4,193.4z"/>
			</g>
			<g>
				
					<path fill="none" stroke="#000000" stroke-width="2" stroke-linecap="round" stroke-linejoin="round" stroke-miterlimit="10" d="
					M366.4,183.3l-0.1-0.1c-0.1-0.4,0-0.8,0.2-1.2C366.4,182.3,366.3,182.8,366.4,183.3z"/>
			</g>
			<g>
				
					<path fill="none" stroke="#000000" stroke-width="2" stroke-linecap="round" stroke-linejoin="round" stroke-miterlimit="10" d="
					M385.4,193.4v2c-5.5-0.8-8.3-4.8-8.3-4.8C379.9,192.8,385.4,193.4,385.4,193.4z"/>
			</g>
			<g>
				
					<path fill="none" stroke="#000000" stroke-width="2" stroke-linecap="round" stroke-linejoin="round" stroke-miterlimit="10" d="
					M435.4,168.3c-1.4,5.6-3,11.5-4.3,16.8c-0.2,0.9-0.6,1.7-1.2,2.5c-8.1,11-17,24.3-25,34.6c0.1,1.9-0.3,3.8-1.1,5.6l-7.5,11.6
					c-0.6,3.4-1.3,6.6-2,9.4l-30.1-3.3l0-0.1l-3.7-7.9l-0.7-1.5l-0.8-1.7l-27.4,40l2.4-4.6l-6.3-3.6l-2.1,4.6l-0.4,0.1l30.5-70.6
					c0.2,0.1,0.4,0.3,0.6,0.4l2.5-0.2l10.5-0.8l0.5,0v5.2c6.4,3.5,15.5,0,15.5,0v-4l7.9,0.5l1.3,0.1l1.3,0.1c0.3,0,0.6,0.1,0.9,0.1
					c0.8,0.2,1.4,0.1,2,0.4l19-22.4l0,0l10.5-22.8l1.1-2.4c1.2,1,3.5,2.9,4.2,3.5c-2,1.2-3.5,2-3.9,2
					C431.9,162.7,433.8,165.5,435.4,168.3z"/>
				
					<path fill="none" stroke="#000000" stroke-width="2" stroke-linecap="round" stroke-linejoin="round" stroke-miterlimit="10" d="
					M396.9,201.7c-0.3-0.1-0.6-0.1-0.9-0.1l-1.3-0.1l-1.3-0.1C393.3,201.4,396.3,201.4,396.9,201.7z"/>
			</g>
			<g>
				
					<path fill="none" stroke="#000000" stroke-width="2" stroke-linecap="round" stroke-linejoin="round" stroke-miterlimit="10" d="
					M370,186.5c0,0.4,0,0.8-0.1,1.4c-0.2,1.9-1,4.8-3.6,6.1c0,0-1.3-2.4-3-2c0,0,4.6-3.5,5.7-5.6c0.1-0.1,0.1-0.2,0.2-0.4
					c0-0.1,0-0.1,0-0.2h0.8C370,185.8,370,186.1,370,186.5z"/>
			</g>
			<g>
				
					<path fill="none" stroke="#000000" stroke-width="2" stroke-linecap="round" stroke-linejoin="round" stroke-miterlimit="10" d="
					M371,185.2c0,0.6-0.4,1.1-1.1,1.3c0,0-0.1,0-0.1,0c-0.1,0-0.2,0-0.4,0c-0.2,0-0.4,0-0.6-0.1c-0.4-0.2-0.8-0.5-0.9-0.9
					c0-0.1,0-0.2,0-0.3c0-0.7,0.7-1.4,1.5-1.4C370.4,183.8,371,184.4,371,185.2z"/>
			</g>
			<g>
				
					<path fill="none" stroke="#000000" stroke-width="2" stroke-linecap="round" stroke-linejoin="round" stroke-miterlimit="10" d="
					M451.6,335.9c-1.4-1-2.8-2-4.3-2.9c-20.6-16.6-51.3-76-51.3-76l-1.7-8.1l-30.1-3.3c-2,1.3-3.8,2.7-5.5,4.3
					c-25.3,23.9-17.7,79.6-17.7,79.6c0.3,0.8,0.7,1.7,1.1,2.5c4.8,9.4,14.5,16,26.2,17c1.2,0.3,2.5,0.6,3.8,0.9
					c9.1,1.9,18.8,1.8,28.2,0.7c9-1,17.8-3,25.4-5.2C440.8,341,451.7,335.9,451.6,335.9C451.6,335.9,451.6,335.9,451.6,335.9z
					 M449.7,334.8c0.8,0.5,1.4,0.8,1.7,1C450.9,335.5,450.3,335.1,449.7,334.8z"/>
				
					<path fill="none" stroke="#000000" stroke-width="2" stroke-linecap="round" stroke-linejoin="round" stroke-miterlimit="10" d="
					M451.4,335.8c-0.5-0.3-1.1-0.6-1.7-1C450.5,335.2,451.1,335.6,451.4,335.8z"/>
			</g>
		</g>
		<g>
			<g>
				<g>
					
						<path fill="none" stroke="#000000" stroke-width="2" stroke-linecap="round" stroke-linejoin="round" stroke-miterlimit="10" d="
						M149.5,403.3l-5.3,14.5c-0.1,0.2-0.3,0.4-0.6,0.4c-0.1,0-0.1,0-0.2,0c-0.3-0.1-0.5-0.4-0.4-0.7l5.1-13.9L149.5,403.3z"/>
					
						<path fill="none" stroke="#000000" stroke-width="2" stroke-linecap="round" stroke-linejoin="round" stroke-miterlimit="10" d="
						M168.1,459.2h-15.7c-0.8,0-9.4-0.1-9.4-0.1h-1.4c0.1-0.2,0.3-0.3,0.4-0.5l3.4-5.7c0.1-0.7,0.2-1.5,0.3-2.2v0
						c0.6-3.4,1.9-6.8,3.3-10.1c0,0,0,0,0,0l2.3-3.1l2.6,3.2l-1.2,6.6l8,7.4l4.5,1c0.9,0.2,1.6,0.7,2.2,1.3
						C167.8,457.4,168.1,458.3,168.1,459.2z"/>
				</g>
			</g>
			<g>
				
					<path fill="none" stroke="#000000" stroke-width="2" stroke-linecap="round" stroke-linejoin="round" stroke-miterlimit="10" d="
					M151.3,437.4l-2.3,3.1c0,0,0,0,0,0c-1.4,3.2-2.7,6.7-3.3,10.1v0c-0.1,0.8-0.3,1.5-0.3,2.2l-3.4,5.7c-0.1,0.2-0.2,0.4-0.4,0.5
					c-0.5,0.5-1.1,0.7-1.8,0.7c-1.1,0-2.1-0.7-2.5-1.8l-0.1-0.3c-0.4-1.2-1.8-15-2.3-20.3c-0.1-1.3,0.4-2.7,1.4-3.6l2.3-2.3
					c0.5-0.7,0.9-1.2,1.4-1.5l-0.7-9.7l4.2-1l-2.2,5.9l2.4,3l0.2,0.2l6.9,8.6L151.3,437.4z"/>
			</g>
			<g>
				
					<path fill="none" stroke="#000000" stroke-width="2" stroke-linecap="round" stroke-linejoin="round" stroke-miterlimit="10" d="
					M163.3,255.5c0.2,0.3,0,0.6-0.3,0.8l-18.4,8.8h0c-0.5-0.1-1-0.1-1.5-0.2c-4.4,1.6-9.3,1.9-13.4,0.6c0,0,0,0,0,0
					c0,0-0.1-0.1-0.1-0.1c-0.5-0.1-0.9-0.3-1.3-0.5l-0.9-28.7c1.2-6.7,1.6-13.2,0.6-19.4c1,0.8,3,2.5,6.4,6.2
					c0.1,0.1,0.2,0.2,0.3,0.3l1.3,21.3l1,6.6l22-6.8c0.3-0.1,0.7,0.1,0.8,0.4c0.1,0.3,0,0.6-0.4,0.7l0.8,1.8l2.7,6.1l0.8,1.8
					L163.3,255.5z"/>
				
					<path fill="none" stroke="#000000" stroke-width="2" stroke-linecap="round" stroke-linejoin="round" stroke-miterlimit="10" d="
					M192.5,374L156,443.3l-2.1-2.7l-2.6-3.2l-0.5-0.7l-6.9-8.6l-0.2-0.2l-2.4-3l2.2-5.9l-4.2,1l-3.4,0.8l-2.4-89.7l26.9,38.5
					l-12.4,33.8l-5.1,13.9c-0.1,0.3,0.1,0.6,0.4,0.7c0.1,0,0.1,0,0.2,0c0.3,0,0.5-0.1,0.6-0.4l5.3-14.5l12.3-33.5
					c0.1-0.2,0-0.3-0.1-0.5l-27.6-39.6c-0.2-0.3-0.6-0.4-0.9-0.2c0,0,0,0,0,0c-9.3-12.7-13.6-26.6-13.6-26.6
					c-4.4-19.4,3.4-31,8.7-36.3c0.5-0.5,0.9-0.9,1.4-1.3c0,0,0,0,0,0c4.2,1.2,9.1,0.9,13.4-0.6c0.5,0.1,1,0.1,1.5,0.2h0
					c17.1,2.1,21.4,0.7,21.4,0.7v0c4.7,13.2,10.6,42.5,12.1,49.8l0.9,1.3c0.2,0.3,0.1,0.6-0.2,0.8c0,0-0.1,0-0.1,0l14.8,40.6
					C195.3,363.5,195,369.1,192.5,374z"/>
				
					<path fill="none" stroke="#000000" stroke-width="2" stroke-linecap="round" stroke-linejoin="round" stroke-miterlimit="10" d="
					M161.7,369.9l-12.3,33.5l-5.3,14.5c-0.1,0.2-0.3,0.4-0.6,0.4c-0.1,0-0.1,0-0.2,0c-0.3-0.1-0.5-0.4-0.4-0.7l5.1-13.9l12.4-33.8
					l-26.9-38.5l0-1.1l-0.4-0.5c0,0,0,0,0,0c0.3-0.2,0.7-0.1,0.9,0.2l27.6,39.6C161.8,369.5,161.8,369.7,161.7,369.9z"/>
			</g>
			<g>
				
					<path fill="none" stroke="#000000" stroke-width="2" stroke-linecap="round" stroke-linejoin="round" stroke-miterlimit="10" d="
					M169,203.7c-0.8-7.8-1.3-15.9-2.8-23.6c-0.8-4.2-2.6-8.5-6.3-11.2c-10-7.3-23.3-2.5-28.9,6.9c-0.4,0.7-0.8,1.4-1,2.1
					c-0.6,2.2,0.1,4.7,0.1,7c0,2.2,0,4.4-0.1,6.6c-0.2,4.2-0.5,8.4-1.1,12.6c-0.3,1.9-0.5,3.8-0.9,5.7c0.5-0.2,1-0.4,1.6-0.5v0h0
					c2.7-0.8,5.6-1.2,8.5-1l3.1,0l0.1,0.1v0l1.1,1.3c7.8,6.9,14.3-0.6,14.3-0.6h0c4.1,0.2,10.1,1.8,12.9,2.3
					C169.6,208.9,169.3,206.3,169,203.7z M161.3,193.3v0.2c0,0.1,0,0.2,0,0.3c-0.5,4.9-4.8,8.8-10.2,9.3c-0.1,0-0.1,0-0.2,0
					l-1.9,0.1c-0.1,0-0.1,0-0.2,0c-5.2,0.3-9.8-3.2-10.2-8l-0.7-8c7.3-3.7,6.1-7.6,6.1-7.6c6.7,6.7,16.3,4.9,16.3,4.9
					C161.2,188,161.4,190.9,161.3,193.3z"/>
				
					<path fill="none" stroke="#000000" stroke-width="2" stroke-linecap="round" stroke-linejoin="round" stroke-miterlimit="10" d="
					M161.3,193.3c0,0.1,0,0.3,0,0.4c-0.5,4.9-4.8,8.8-10.2,9.3c-0.1,0-0.1,0-0.2,0l-1.9,0.1c-0.1,0-0.1,0-0.2,0
					c-5.2,0.3-9.8-3.2-10.2-8l-0.7-8c7.3-3.7,6.1-7.6,6.1-7.6c6.7,6.7,16.3,4.9,16.3,4.9C161.2,188,161.4,190.9,161.3,193.3z"/>
			</g>
			<g>
				
					<path fill="none" stroke="#000000" stroke-width="2" stroke-linecap="round" stroke-linejoin="round" stroke-miterlimit="10" d="
					M166.1,213.6c0.2,3.7-4.8,6.4-7.4,7.4c-2.8,1.1-6.1,1.3-9,0.4c-7.6-2.2-8.3-9.3-8.3-9.3l0.1-3.6l1.1,1.3
					c7.8,6.9,14.3-0.6,14.3-0.6h0l0.4,4.1L166.1,213.6z"/>
			</g>
			<g>
				
					<path fill="none" stroke="#000000" stroke-width="2" stroke-linecap="round" stroke-linejoin="round" stroke-miterlimit="10" d="
					M161.7,369.9l-12.3,33.5l-5.3,14.5c-0.1,0.2-0.3,0.4-0.6,0.4c-0.1,0-0.1,0-0.2,0c-0.3-0.1-0.5-0.4-0.4-0.7l5.1-13.9l12.4-33.8
					l-26.9-38.5l-0.6-0.8c-0.2-0.3-0.1-0.6,0.2-0.8c0,0,0,0,0,0c0.3-0.2,0.7-0.1,0.9,0.2l27.6,39.6
					C161.8,369.5,161.8,369.7,161.7,369.9z"/>
			</g>
			<g>
				<g>
					<g>
						
							<path fill="none" stroke="#000000" stroke-width="2" stroke-linecap="round" stroke-linejoin="round" stroke-miterlimit="10" d="
							M208.9,281.7c-0.3,0.4-0.8,0.7-1.4,0.8c-0.4,0.1-0.9,0-1.2-0.2l-1.7-0.7c0.9,0.8,1.7,1.6,2.5,2.3c-1.4,0.9-2.6,2-3.4,3.4l0,0
							c-1.5,1.2-3.8,1.1-5.1-0.3l-1.2-1.3c-0.1-0.1-0.1-0.2-0.2-0.2l-5-5.1l-1.8-1.9l3.4-4.7l2.5,2.5l1.5,1.4l1-0.2h0l0.6-0.1
							c0.8-0.1,1.7,0,2.4,0.4l3.5,1.9L208.9,281.7z"/>
					</g>
				</g>
				<g>
					
						<path fill="none" stroke="#000000" stroke-width="2" stroke-linecap="round" stroke-linejoin="round" stroke-miterlimit="10" d="
						M171.3,250.7l-2.2,6.2c0,0,0,0,0,0l-3.1,8.8c0,0-4.4,1.4-21.4-0.7l18.4-8.8c0.3-0.1,0.4-0.5,0.3-0.8l0.4-0.2l-0.8-1.8l3.4-2.3
						l1.8-0.2L171.3,250.7z"/>
					
						<path fill="none" stroke="#000000" stroke-width="2" stroke-linecap="round" stroke-linejoin="round" stroke-miterlimit="10" d="
						M173.4,229.4l-4.4-8.8l-0.4,2.1l-2.9,16.5l0.2,1.1v0l-2.1,6.1l-3.7,1l-0.8-1.8c0.3-0.1,0.5-0.4,0.4-0.7
						c-0.1-0.3-0.5-0.5-0.8-0.4l-22,6.8l-1-6.6l-1.3-21.3c-0.1-0.1-0.2-0.2-0.3-0.3c-3.5-3.6-5.4-5.4-6.4-6.2
						c-0.2-1.1-0.4-2.2-0.7-3.4c-0.2-1-0.5-2-0.8-3c0,0,0-0.1,0-0.1c0.4-0.2,0.8-0.3,1.2-0.5c0,0,0.1,0,0.1,0c0.1,0,0.2-0.1,0.3-0.1
						c0.5-0.2,1-0.4,1.6-0.5h0c2.7-0.8,5.6-1.2,8.5-1l3.1,0l0.1,0.1v0l1.1,1.3c7.8,6.9,14.3-0.6,14.3-0.6h0
						c4.1,0.2,10.1,1.8,12.9,2.3c0.1,0,0.1,0,0.1,0c0.3,0.1,0.5,0.1,0.7,0.2c0.9,0.3,1,0.7,2.2,1.2L173.4,229.4z"/>
					
						<polygon fill="none" stroke="#000000" stroke-width="2" stroke-linecap="round" stroke-linejoin="round" stroke-miterlimit="10" points="
						172.9,244.1 172.9,244.2 172.6,244.2 					"/>
				</g>
				<g>
					
						<path fill="none" stroke="#000000" stroke-width="2" stroke-linecap="round" stroke-linejoin="round" stroke-miterlimit="10" d="
						M199,273.6l-2.7,2.7l-2.5-2.5l-3.4,4.7l1.8,1.9l-2,1.9l-15.4-14.7c-3-2.9-5-6.6-5.7-10.7c0,0,0,0,0,0l2.2-6.2l6.2-0.6
						c0.4,0,0.7-0.3,0.7-0.6c0-0.4-0.2-0.7-0.6-0.7l-4.6-0.7l6.3-0.4c0.4,0,0.7-0.3,0.7-0.6V247c0-0.3-0.3-0.6-0.7-0.6l-6.4-0.1
						l7-1.6c0.4-0.1,0.6-0.4,0.6-0.7c0,0,0,0,0,0c0-0.4-0.4-0.8-0.9-0.7l-5.2,0.7l-0.3,0l-1,0.1v-0.1l1-0.3v0l0.5-0.1l3.9-1.2
						c0.3-0.1,0.5-0.4,0.5-0.6v-0.1c-0.1-0.4-0.5-0.7-1-0.6L175,242l0.9-2.8c0.6-1.9,0.5-3.9-0.4-5.7l-2.1-4.2v0l-0.7-16.6
						c-1.2-0.5-1.3-0.9-2.2-1.2c4.2,1,5.7,2.3,6.3,6.1c2.5,15.7,8,40.5,8,40.5l12.9,14.2L199,273.6z"/>
					
						<path fill="none" stroke="#000000" stroke-width="2" stroke-linecap="round" stroke-linejoin="round" stroke-miterlimit="10" d="
						M175.9,239.2L175,242h0l-1.1,0.3l-0.4,0.1l-6.7,1.9l0.3-2.3c0-0.1,0-0.2,0-0.2c0-0.7-0.4-1.3-1.1-1.6l0,0.1l-0.2-1.1l2.9-16.5
						l0.4-2.1l4.4,8.8v0l2.1,4.2C176.4,235.3,176.5,237.3,175.9,239.2z"/>
					
						<path fill="none" stroke="#000000" stroke-width="2" stroke-linecap="round" stroke-linejoin="round" stroke-miterlimit="10" d="
						M173.4,229.4l-4.4-8.8l1.6-9c0.9,0.3,1,0.7,2.2,1.2L173.4,229.4z"/>
					
						<path fill="none" stroke="#000000" stroke-width="2" stroke-linecap="round" stroke-linejoin="round" stroke-miterlimit="10" d="
						M171.3,250.7l-2.2,6.2c-0.1-0.4-0.1-0.7-0.1-1.1L168,251L171.3,250.7z"/>
					
						<polygon fill="none" stroke="#000000" stroke-width="2" stroke-linecap="round" stroke-linejoin="round" stroke-miterlimit="10" points="
						172.9,244.1 172.9,244.2 172.6,244.2 					"/>
					
						<polygon fill="none" stroke="#000000" stroke-width="2" stroke-linecap="round" stroke-linejoin="round" stroke-miterlimit="10" points="
						196.2,276.3 192.1,280.4 190.3,278.5 193.7,273.8 					"/>
				</g>
				<g>
					
						<path fill="none" stroke="#000000" stroke-width="2" stroke-linecap="round" stroke-linejoin="round" stroke-miterlimit="10" d="
						M169,220.6l-0.4,2.1l-1-2c-0.1-0.3,0-0.6,0.3-0.8c0.3-0.1,0.7,0,0.8,0.3L169,220.6z"/>
				</g>
				<g>
					
						<path fill="none" stroke="#000000" stroke-width="2" stroke-linecap="round" stroke-linejoin="round" stroke-miterlimit="10" d="
						M180.4,244C180.4,244,180.4,244,180.4,244c0,0.3-0.3,0.6-0.6,0.7l-7,1.6l6.4,0.1c0.4,0,0.7,0.3,0.7,0.6v0.1
						c0,0.3-0.3,0.6-0.7,0.6l-6.3,0.4l4.6,0.7c0.4,0.1,0.7,0.4,0.6,0.7c0,0.3-0.3,0.6-0.7,0.6l-6.2,0.6L168,251l-1.8,0.2l-3.4,2.3
						l-2.7-6.1l3.7-1l2.1-6.1v0l0-0.1c0.7,0.3,1.1,0.9,1.1,1.6c0,0.1,0,0.2,0,0.2l-0.3,2.3l6.7-1.9l0.4-0.1l1.1-0.3h0l2.8-0.8
						c0.5-0.1,0.9,0.1,1,0.6v0.1c0,0.3-0.2,0.6-0.5,0.6l-3.9,1.2l-0.5,0.1v0l-1,0.3l-0.3,0.1l0.3-0.1l1-0.1l0.3,0l5.2-0.7
						C180,243.2,180.4,243.5,180.4,244z"/>
				</g>
				<g>
					
						<path fill="none" stroke="#000000" stroke-width="2" stroke-linecap="round" stroke-linejoin="round" stroke-miterlimit="10" d="
						M134.7,223.3c-0.1-0.1-0.2-0.2-0.3-0.3c-3.5-3.6-5.4-5.4-6.4-6.2c1,6.3,0.6,12.7-0.6,19.4l0.9,28.7c-2.1-0.8-3.9-2.2-5.3-4
						c-1.5-1.9-2.4-6-2.9-9.8l-1.7-10.4c-1.3-8-2.4-16.2,1.7-23.4c1.7-2.9,3.8-5.4,6.5-6.9c0.4-0.2,0.8-0.4,1.2-0.6c0,0,0.1,0,0.1,0
						c0.1,0,0.2-0.1,0.3-0.1c0.5-0.2,1-0.4,1.6-0.5v0h0c0.9,1.2,1.7,1.7,2.3,3.1l0.8,1.7c1,2.3,1.7,4.7,1.8,7.2L134.7,223.3z"/>
				</g>
			</g>
			<g>
				
					<path fill="none" stroke="#000000" stroke-width="2" stroke-linecap="round" stroke-linejoin="round" stroke-miterlimit="10" d="
					M161.3,193.3v0.2c0,0.1,0,0.2,0,0.3c-0.5,4.9-4.8,8.8-10.2,9.3c-0.1,0-0.1,0-0.2,0l-1.9,0.1c-0.1,0-0.1,0-0.2,0
					c-5.2,0.3-9.8-3.2-10.2-8l-0.7-8c7.3-3.7,6.1-7.6,6.1-7.6c6.7,6.7,16.3,4.9,16.3,4.9C161.2,188,161.4,190.9,161.3,193.3z"/>
				
					<path fill="none" stroke="#000000" stroke-width="2" stroke-linecap="round" stroke-linejoin="round" stroke-miterlimit="10" d="
					M169.7,211.4c0,1.9-0.2,3.9-0.8,5.9c-2.1,6.5-7.9,10.6-15.1,12.1c0,0-11.6,1.4-19.1-6.1c-0.1-0.1-0.2-0.2-0.3-0.3
					c-3.5-3.6-5.4-5.4-6.4-6.2c-1-0.7-1.2-0.7-1.3-0.6c0.2-0.9,0.4-1.8,0.6-2.7c0.3-1.2,0.5-2.5,0.7-3.7v0c0.5-0.2,1-0.4,1.6-0.5v0
					h0c2.7-0.8,5.6-1.2,8.5-1l3.1,0l0.1,0.1v0l1.1,1.3c7.8,6.9,14.3-0.6,14.3-0.6h0C160.9,209.3,166.9,210.9,169.7,211.4z"/>
			</g>
			<g>
				
					<path fill="none" stroke="#000000" stroke-width="2" stroke-linecap="round" stroke-linejoin="round" stroke-miterlimit="10" d="
					M161.3,193.3v0.2c0,0.1,0,0.2,0,0.3c-0.5,4.9-4.8,8.8-10.2,9.3c-0.1,0-0.1,0-0.2,0l-1.9,0.1c-0.1,0-0.1,0-0.2,0
					c-5.2,0.3-9.8-3.2-10.2-8l-0.7-8c7.3-3.7,6.1-7.6,6.1-7.6c6.7,6.7,16.3,4.9,16.3,4.9C161.2,188,161.4,190.9,161.3,193.3z"/>
			</g>
		</g>
		<g>
			<g>
				<g>
					<g>
						<g>
							
								<polygon fill="none" stroke="#000000" stroke-width="2" stroke-linecap="round" stroke-linejoin="round" stroke-miterlimit="10" points="
								494.8,440.9 494.8,452.8 481.1,452.8 481.1,439.9 							"/>
						</g>
					</g>
					<g>
						<g>
							
								<path fill="none" stroke="#000000" stroke-width="2" stroke-linecap="round" stroke-linejoin="round" stroke-miterlimit="10" d="
								M494.8,452.8v7H464c0,0-1.4-2.8,1.8-3.8c3.2-1,12.8-2.4,15.2-5.3v2H494.8z"/>
						</g>
					</g>
				</g>
				<g>
					<g>
						<g>
							
								<polygon fill="none" stroke="#000000" stroke-width="2" stroke-linecap="round" stroke-linejoin="round" stroke-miterlimit="10" points="
								549.9,440.1 549.9,452.8 536.1,452.8 536.1,441 							"/>
						</g>
					</g>
					<g>
						<g>
							
								<path fill="none" stroke="#000000" stroke-width="2" stroke-linecap="round" stroke-linejoin="round" stroke-miterlimit="10" d="
								M566.9,459.8h-30.7v-7h13.7v-2c2.4,2.9,12.1,4.3,15.2,5.3C568.2,457,566.9,459.8,566.9,459.8z"/>
						</g>
					</g>
				</g>
				<g>
					<g>
						
							<polygon fill="none" stroke="#000000" stroke-width="2" stroke-linecap="round" stroke-linejoin="round" stroke-miterlimit="10" points="
							557.7,432.7 557.7,439.5 549.9,440.1 536.1,441 533,441.2 533,433.8 533.5,433.8 533.8,436.4 555.6,434.9 555.5,432.8 						
							"/>
					</g>
				</g>
				<g>
					<g>
						
							<polygon fill="none" stroke="#000000" stroke-width="2" stroke-linecap="round" stroke-linejoin="round" stroke-miterlimit="10" points="
							499.8,433.8 499.8,441.2 494.8,440.9 481.1,439.9 475.1,439.5 475.1,432.7 477.2,432.8 477.2,434.9 499,436.4 499.3,433.8 
													"/>
					</g>
				</g>
				<g>
					
						<path fill="none" stroke="#000000" stroke-width="2" stroke-linecap="round" stroke-linejoin="round" stroke-miterlimit="10" d="
						M555.6,434.9l-21.8,1.5l-0.3-2.6l-6.8-68.1h-0.2l-7.4-66.1l-6.2,0.5l-7,65.7l-6.5,68.1l-0.3,2.6l-21.8-1.5l0-2.2l0.7-67.1v-0.6
						l1.7-77c1.8-0.7,3.3-2.2,3.8-4.1l3.6-13c9.4,1.1,23.1,1.4,35.5,1.3l-1.4,11.4c-0.4,3.8,3.2,7.1,7.4,6.8l21.6-1.4l2.3,75.1h0
						l3,68.6L555.6,434.9z"/>
					
						<polygon fill="none" stroke="#000000" stroke-width="2" stroke-linecap="round" stroke-linejoin="round" stroke-miterlimit="10" points="
						477.9,365.2 477.9,365.7 477.9,365.7 					"/>
					
						<path fill="none" stroke="#000000" stroke-width="2" stroke-linecap="round" stroke-linejoin="round" stroke-miterlimit="10" d="
						M523.3,266.5l-0.7,5.9c-12.4,0.1-26.1-0.1-35.5-1.3l1.3-4.6H523.3z"/>
				</g>
			</g>
			<g>
				<g>
					<g>
						
							<path fill="none" stroke="#000000" stroke-width="2" stroke-linecap="round" stroke-linejoin="round" stroke-miterlimit="10" d="
							M538.3,167.4c0,5.2-5,5.3-5.2,5.3l0.7,6.2l0.4,3.7c0,0,0,0.3-0.2,0.7c-0.1,0.4-0.4,1.1-0.7,1.8v0c-1.3,2.5-4.6,6.2-12.5,6.6
							c-10.3,0.6-9.7-6.2-9.3-8.3l0-0.2l0.1-0.3h0l0-0.1l0.3-2.3l0.1-0.6l0.3-2.1c-5.2-1.6-2.8-17.3-2.8-17.3l1.5-3c0,0,0-0.1,0-0.1
							l0.3-0.6c0,0,0,0,0,0c0.8-1.1,2.8-0.6,3.7,0.3c1.1,1,2.3,0.7,2.9-0.2c0.6-0.9,2.2-1.3,3.3-0.1c1.1,1.2,1.1,1.3,3.4,0.6
							c2.3-0.7,3.8-0.1,4.4,3.6c0.6,3.8,4.7,3,4.7,3c2.3-0.3,3.4,0.4,3.9,1.2c0.1,0.1,0.1,0.1,0.1,0.1
							C538.5,166.3,538.3,167.4,538.3,167.4z"/>
					</g>
				</g>
				<g>
					<g>
						
							<path fill="none" stroke="#000000" stroke-width="2" stroke-linecap="round" stroke-linejoin="round" stroke-miterlimit="10" d="
							M542.4,159.7c-0.7,3.7-4.4,5.6-4.4,5.6s0,0-0.1-0.1c-0.5-0.8-1.7-1.4-3.9-1.2c0,0-4.2,0.8-4.7-3c-0.6-3.8-2.2-4.3-4.4-3.6
							c-2.2,0.7-2.3,0.6-3.4-0.6c-1.1-1.2-2.7-0.8-3.3,0.1c-0.6,0.9-1.8,1.2-2.9,0.2c-1-0.9-2.9-1.3-3.7-0.3c0,0,0,0,0,0
							c-0.1,0.2-0.2,0.4-0.3,0.6c0,0,0,0.1,0,0.1l-1.5,3c0,0-1.7-3-2-6c0,0-0.1-1.4-0.1-2.2c0-0.6,0.1-1.3,0.5-1.8
							c0.4-0.5,1.4-0.6,1.8-0.1c-0.2-1-0.1-2.1,0.2-3.1c0.2-0.6,0.6-1.2,1.2-1.2c0.8,0,1.2,0.8,1.9,1c-0.3-1.5,0-3.1,1-4.4
							c0.2-0.3,0.5-0.6,0.9-0.6c0.7-0.1,1.1,0.7,1.3,1.3c0.4-1,0.6-2,1.2-3c0.5-0.9,1.5-1.7,2.7-1.8c1.3-0.1,2.6,1,2.6,2.2
							c0.5-0.4,0.6-1,1.1-1.4c0.8-0.5,2,0.1,2.5,0.9c0.5,0.7,0.9,1.5,1,2.4c0.1-1,0.8-2,1.8-2.5c0.4-0.2,0.8-0.3,1.2-0.3
							c0.9,0.1,1.5,0.7,1.7,1.5c0.2,0.7,0.1,1.5,0,2.3c0.2-0.4,0.5-0.8,0.9-1.1c0.4-0.3,1-0.4,1.5-0.2c0.2,0.1,0.4,0.3,0.5,0.5
							c0.9,1.2,0.6,2.8,0.3,4.2c0.5-0.5,1.2-1.1,1.9-1c0.6,0.1,1.1,0.6,1.3,1.1c0.2,0.5,0.1,1.1,0,1.7c-0.1,0.5-0.1,1-0.2,1.6
							c0.8-0.5,2-0.9,2.6-0.2c0.2,0.2,0.3,0.5,0.3,0.7c0.6,2.4-0.9,4.8-2.2,6.9c0.8-0.2,1.6-0.2,2.3,0.2
							C542.2,158.7,542.4,159.7,542.4,159.7z"/>
						
							<path fill="none" stroke="#000000" stroke-width="2" stroke-linecap="round" stroke-linejoin="round" stroke-miterlimit="10" d="
							M509.5,160.5l1.5-3C510.5,159.4,509.5,160.5,509.5,160.5z"/>
						
							<path fill="none" stroke="#000000" stroke-width="2" stroke-linecap="round" stroke-linejoin="round" stroke-miterlimit="10" d="
							M537.8,165.1c-0.3-0.3-1.4-1.2-3.9-1.2C536.1,163.7,537.3,164.3,537.8,165.1z"/>
					</g>
				</g>
				<g>
					<g>
						
							<path fill="none" stroke="#000000" stroke-width="2" stroke-linecap="round" stroke-linejoin="round" stroke-miterlimit="10" d="
							M512.3,177.8c0,0,6,2,12.7-2.1c0,0-2.9,4.4-12.9,4.2L512.3,177.8z"/>
					</g>
				</g>
			</g>
			<g>
				<g>
					
						<path fill="none" stroke="#000000" stroke-width="2" stroke-linecap="round" stroke-linejoin="round" stroke-miterlimit="10" d="
						M592.5,291c-0.4-0.3-0.8-0.7-1.2-1l2.1,4.1c0.1,0.2,0,0.4-0.2,0.6c-0.2,0.1-0.4,0.2-0.7,0.1c0.3,0.6,0.6,1.1,0.8,1.7
						c0.1,0.3-0.1,0.6-0.4,0.8c-0.3,0.1-0.7,0.1-0.9-0.1c-1.4-1.6-2.8-3.2-4.3-4.8l-2.9-1.2l2.8,2.6l3.3,4.2
						c0.1,0.2,0.1,0.4-0.1,0.6c-0.2,0.2-0.5,0.3-0.8,0.1c-3.6-2.4-7.1-4.8-10.7-7.2l-3.5-2.6l-0.6,0.5l0.5,2.5
						c0.2,0.8,0.1,1.7-0.2,2.5c-0.4,1-1.6,1.6-2.7,1.4l0.1-3.5c0,0-0.9-4-1-4.1c0-0.1-1.1-4.9-1.3-6c3.1-1.3,7.4-2.9,11-4.1l0.1,0.2
						l3.9,6l3.7,1.1c0.5,0.1,0.9,0.4,1.2,0.8l3.1,3.9c0.4,0.3,0.3,0.9-0.1,1.1C593.3,291.3,592.8,291.3,592.5,291z"/>
				</g>
			</g>
			<g>
				<g>
					
						<path fill="none" stroke="#000000" stroke-width="2" stroke-linecap="round" stroke-linejoin="round" stroke-miterlimit="10" d="
						M528.8,252.1c-0.9,0.1-1.6,0.9-1.4,1.7c0.1,0.8,1,1.4,1.9,1.3c0.9-0.1,1.6-0.9,1.4-1.8C530.6,252.5,529.7,252,528.8,252.1z
						 M530.8,232.9c-0.9,0.1-1.6,0.9-1.5,1.8c0.1,0.8,1,1.4,1.9,1.3c0.9-0.1,1.6-0.9,1.4-1.7C532.6,233.3,531.7,232.7,530.8,232.9z
						 M533.5,183.2c0,0-10.7,3.6-17.1,3.3c-2.3-0.1-4.2-1.6-4.7-3.6l-1.3,0.4l1.3-0.4l-0.1,0.3l0,0.2l-23.2,83l-1.3,4.6
						c9.4,1.1,23.1,1.4,35.5,1.3l0.7-5.9l10-81.4v0c0.4-0.7,0.6-1.3,0.7-1.8L533.5,183.2z M532.4,213.2c-0.9,0.1-1.6,0.9-1.4,1.7
						c0.1,0.8,1,1.4,1.9,1.3c0.9-0.1,1.6-0.9,1.4-1.7C534.2,213.7,533.3,213.1,532.4,213.2z M537.8,184.1L537.8,184.1l-2.7-0.6
						L537.8,184.1L537.8,184.1z"/>
					
						<path fill="none" stroke="#000000" stroke-width="2" stroke-linecap="round" stroke-linejoin="round" stroke-miterlimit="10" d="
						M556.7,263.9l-0.3-20.8v-0.2l0,0v0l0-1.8v0l-0.5-37.9v0c-0.1,0-0.1-0.1-0.2-0.1c0-9,0-15,0-15l-17.8-3.8l0,0l-2.7-0.6l-1.1-0.3
						c-0.1,0.4-0.4,1.1-0.7,1.8v0l-10,81.4l-0.7,5.9l-1.4,11.4c-0.4,3.8,3.2,7.1,7.4,6.8l21.6-1.4l6.9-0.5L556.7,263.9z
						 M529.3,255.1c-0.9,0.1-1.8-0.5-1.9-1.3c-0.1-0.8,0.5-1.6,1.4-1.7c0.9-0.1,1.8,0.5,1.9,1.3C530.9,254.2,530.2,255,529.3,255.1z
						 M531.3,235.9c-0.9,0.1-1.8-0.5-1.9-1.3c-0.1-0.8,0.5-1.6,1.5-1.8c0.9-0.1,1.8,0.5,1.9,1.3C532.9,235,532.2,235.8,531.3,235.9z
						 M532.9,216.3c-0.9,0.1-1.8-0.5-1.9-1.3c-0.1-0.8,0.5-1.6,1.4-1.7c0.9-0.1,1.8,0.5,1.9,1.3
						C534.4,215.4,533.8,216.1,532.9,216.3z"/>
				</g>
			</g>
			<g>
				
					<path fill="none" stroke="#000000" stroke-width="2" stroke-linecap="round" stroke-linejoin="round" stroke-miterlimit="10" d="
					M587.6,276.5c-0.5-0.1-2.9,0.5-5.9,1.5c-3.5,1.2-7.9,2.8-11,4.1c-2.1,0.9-3.7,1.7-3.9,2c-3.7-7.6-7-14.1-10.1-20.2l-0.3-20.8
					v-0.3l0-1.8l-0.2-37.5c0-0.2-0.1-0.4-0.3-0.5v0l-0.2-15.1c7.2,16.1,12,32.6,14.9,49.5v0L587.6,276.5z"/>
				
					<path fill="none" stroke="#000000" stroke-width="2" stroke-linecap="round" stroke-linejoin="round" stroke-miterlimit="10" d="
					M555.6,203c0-9,0-15,0-15l0.2,15.1C555.8,203,555.7,203,555.6,203z"/>
				
					<path fill="none" stroke="#000000" stroke-width="2" stroke-linecap="round" stroke-linejoin="round" stroke-miterlimit="10" d="
					M556.4,242.8L556.4,242.8l0-1.8v0l-0.5-37.9c0.2,0.1,0.3,0.3,0.3,0.5l0.2,37.5L556.4,242.8z"/>
			</g>
			<g>
				
					<polygon fill="none" stroke="#000000" stroke-width="2" stroke-linecap="round" stroke-linejoin="round" stroke-miterlimit="10" points="
					556.4,242.8 556.4,242.9 556.4,242.8 556.4,242.8 556.4,241 556.4,241 556.4,241 				"/>
			</g>
			<g>
				<g>
					
						<path fill="none" stroke="#000000" stroke-width="2" stroke-linecap="round" stroke-linejoin="round" stroke-miterlimit="10" d="
						M445.2,153.7l-8,7.5l-0.3,0.3l-3-3.4c0,0-0.1-0.1-0.2-0.2c-0.7-0.6-2.9-2.4-4.2-3.5c-0.5-0.4-0.8-0.7-0.8-0.7
						c-0.1-0.1-3.4-2.9-3.4-2.9l-3.3-1.7c0.4-1,1.6-1.6,2.7-1.4c0.9,0.2,1.8,0.6,2.5,1.1l2.1,1.7l0.7-0.2l-0.6-4.1
						c-0.4-4-0.9-8-1.3-12c0-0.3,0.3-0.5,0.6-0.6c0.2,0,0.4,0.1,0.6,0.2l2.2,4.6l0.1,0.1l0.1,0.5l0.4,1.4l0.5,1.6l0.3-1.8v0l0.1-1
						c0,0,0-0.1,0-0.1c-0.2-0.4-0.3-0.8-0.5-1.2c-0.6-1.5-1.2-3-1.8-4.4c0-0.3,0.1-0.6,0.4-0.8c0.3-0.2,0.7-0.1,1,0.1
						c0.4,0.5,0.8,1,1.2,1.5c0-0.2,0.2-0.4,0.4-0.5c0.2-0.1,0.5,0,0.6,0.2l2,2.7l0.8,1.1c-0.1-0.4-0.2-0.7-0.3-1.1
						c0-0.1,0-0.2-0.1-0.3c-0.1-0.4,0.1-0.8,0.4-0.9c0.4-0.2,1,0,1.1,0.5l0.8,1.6l1.3,2.9c0.2,0.4,0.2,0.8,0.1,1.3l-0.9,3.5l0.6,1
						l0.4,0.6c0,0,0,0,0,0l0.3,0.6v0l2.3,3.8l0.2,0.2L445.2,153.7z"/>
				</g>
			</g>
			<g>
				
					<path fill="none" stroke="#000000" stroke-width="2" stroke-linecap="round" stroke-linejoin="round" stroke-miterlimit="10" d="
					M511.7,182.9l-0.1,0.3l0,0.2l-23.2,83l-1.3,4.6l-3.6,13c-0.5,1.9-2,3.4-3.8,4.1c-1.9,0.8-4.2,0.8-6.2-0.2l-22.6-11.2l30.4-50.1
					l1.8-17.4l2-19.1l21.3-5.8l-0.4,0.2l0.8-0.2l0.5,0h0l3.1-1l0.1,0L511.7,182.9z"/>
				
					<polygon fill="none" stroke="#000000" stroke-width="2" stroke-linecap="round" stroke-linejoin="round" stroke-miterlimit="10" points="
					506.7,184.3 505.8,184.6 506.2,184.3 506.2,184.3 506.2,184.3 				"/>
			</g>
			<g>
				
					<path fill="none" stroke="#000000" stroke-width="2" stroke-linecap="round" stroke-linejoin="round" stroke-miterlimit="10" d="
					M506.2,184.3L506.2,184.3l-21.3,5.8l-2,19.1L451.2,198c-6.3-8.5-9.5-18.9-15.8-29.7c0.6-2.4,1.3-4.8,1.9-7.1l8-7.5l-1.9-2.1
					c2.5-1.8,4.3-3.3,4.5-3.8l20,34.7L506.2,184.3z"/>
				
					<path fill="none" stroke="#000000" stroke-width="2" stroke-linecap="round" stroke-linejoin="round" stroke-miterlimit="10" d="
					M445.2,153.7l-8,7.5c-0.6,2.2-1.2,4.6-1.9,7.1c-1.6-2.8-3.4-5.6-5.6-8.4c0.5,0,2-0.8,3.9-2c1.6-0.9,3.5-2.1,5.3-3.4
					c1.5-1,2.9-2,4.2-2.9L445.2,153.7z"/>
			</g>
			<g>
				
					<path fill="none" stroke="#000000" stroke-width="2" stroke-linecap="round" stroke-linejoin="round" stroke-miterlimit="10" d="
					M530.7,253.4c0.1,0.8-0.5,1.6-1.4,1.8c-0.9,0.1-1.8-0.5-1.9-1.3c-0.1-0.8,0.5-1.6,1.4-1.7C529.7,252,530.6,252.5,530.7,253.4z"
					/>
				
					<path fill="none" stroke="#000000" stroke-width="2" stroke-linecap="round" stroke-linejoin="round" stroke-miterlimit="10" d="
					M532.7,234.2c0.1,0.8-0.5,1.6-1.4,1.7c-0.9,0.1-1.8-0.5-1.9-1.3c-0.1-0.8,0.5-1.6,1.5-1.8C531.7,232.7,532.6,233.3,532.7,234.2z
					"/>
				
					<path fill="none" stroke="#000000" stroke-width="2" stroke-linecap="round" stroke-linejoin="round" stroke-miterlimit="10" d="
					M534,183.3c-0.1,0.4-0.4,1.1-0.7,1.8l0.2-1.9L534,183.3z"/>
				
					<path fill="none" stroke="#000000" stroke-width="2" stroke-linecap="round" stroke-linejoin="round" stroke-miterlimit="10" d="
					M534.3,214.5c0.1,0.8-0.5,1.6-1.4,1.7c-0.9,0.1-1.8-0.5-1.9-1.3c-0.1-0.8,0.5-1.6,1.4-1.7C533.3,213.1,534.2,213.7,534.3,214.5z
					"/>
				
					<polygon fill="none" stroke="#000000" stroke-width="2" stroke-linecap="round" stroke-linejoin="round" stroke-miterlimit="10" points="
					537.9,184.1 535.2,183.5 537.8,184.1 537.8,184.1 				"/>
				
					<path fill="none" stroke="#000000" stroke-width="2" stroke-linecap="round" stroke-linejoin="round" stroke-miterlimit="10" d="
					M555.6,203c0-9,0-15,0-15l0.2,15.1C555.8,203,555.7,203,555.6,203z"/>
			</g>
			<g>
				
					<polygon fill="none" stroke="#000000" stroke-width="2" stroke-linecap="round" stroke-linejoin="round" stroke-miterlimit="10" points="
					511.7,182.8 511.7,182.9 511.7,182.9 510.4,183.3 510.3,183.3 507.2,184.4 507.2,184.4 506.7,184.3 505.8,184.6 506.2,184.3 
					506.2,184.3 506.2,184.3 				"/>
			</g>
			<g>
				
					<polygon fill="none" stroke="#000000" stroke-width="2" stroke-linecap="round" stroke-linejoin="round" stroke-miterlimit="10" points="
					537.9,184.1 535.2,183.5 534,183.3 533.5,183.2 533.8,178.9 537.8,184.1 537.8,184.1 				"/>
			</g>
			<g>
				
					<polygon fill="none" stroke="#000000" stroke-width="2" stroke-linecap="round" stroke-linejoin="round" stroke-miterlimit="10" points="
					512,180.5 511.7,182.8 511.7,182.9 511.7,182.9 510.4,183.3 510.3,183.3 506.7,184.3 505.8,184.6 506.2,184.3 506.2,184.3 				
					"/>
			</g>
			<g>
				
					<path fill="none" stroke="#000000" stroke-width="2" stroke-linecap="round" stroke-linejoin="round" stroke-miterlimit="10" d="
					M556.4,242.8L556.4,242.8L556.4,242.8L556.4,242.8l0-1.8v0l-0.5-37.9c0.2,0.1,0.3,0.3,0.3,0.5l0.2,37.5L556.4,242.8z"/>
			</g>
			<g>
				
					<path fill="none" stroke="#000000" stroke-width="2" stroke-linecap="round" stroke-linejoin="round" stroke-miterlimit="10" d="
					M534.3,214.5c0.1,0.8-0.5,1.6-1.4,1.7c-0.9,0.1-1.8-0.5-1.9-1.3c-0.1-0.8,0.5-1.6,1.4-1.7C533.3,213.1,534.2,213.7,534.3,214.5z
					"/>
			</g>
			<g>
				
					<path fill="none" stroke="#000000" stroke-width="2" stroke-linecap="round" stroke-linejoin="round" stroke-miterlimit="10" d="
					M532.7,234.2c0.1,0.8-0.5,1.6-1.4,1.7c-0.9,0.1-1.8-0.5-1.9-1.3c-0.1-0.8,0.5-1.6,1.5-1.8C531.7,232.7,532.6,233.3,532.7,234.2z
					"/>
			</g>
			<g>
				
					<path fill="none" stroke="#000000" stroke-width="2" stroke-linecap="round" stroke-linejoin="round" stroke-miterlimit="10" d="
					M530.7,253.4c0.1,0.8-0.5,1.6-1.4,1.8c-0.9,0.1-1.8-0.5-1.9-1.3c-0.1-0.8,0.5-1.6,1.4-1.7C529.7,252,530.6,252.5,530.7,253.4z"
					/>
			</g>
			<g>
				
					<path fill="none" stroke="#000000" stroke-width="2" stroke-linecap="round" stroke-linejoin="round" stroke-miterlimit="10" d="
					M431.4,142.4c-0.4,0.1-0.9,0.2-1.3-0.1c-0.2-0.2-0.4-0.5-0.3-0.7c0.1-0.2,0.2-0.4,0.4-0.5c0.6-0.3,1.3-0.4,1.9-0.6
					c0.7-0.2,1.4-0.4,2.1-0.6c0.9-0.3,1.7-0.5,2.6-0.8c-0.2,0.1-0.5,0-0.7,0c-0.1-0.1-1.5,0-1.7,0c-0.6,0-1.2,0-1.8,0.1
					c-0.3,0-0.9,0.1-1.1-0.1c-0.2-0.2-0.2-0.5,0-0.7c0.3-0.3,0.9-0.4,1.4-0.6c0.5-0.2,0.9-0.3,1.4-0.5c0.6-0.2,1.1-0.4,1.7-0.6
					c0.8-0.2,1.9-0.1,2.5,0.4c3.8,2.9,3.9,5.2,3.9,6.5c0,0.5-0.2,1.4-0.5,1.8l-1,1.9c-0.3,0-0.4-1.2-0.7-1.2c-0.8,0-1.1-0.1-1.8,0.1
					l0,0c-0.6,0.1-1.1,0.2-1.7,0.3c-0.9,0.1-1.7,0.4-2.7,0.5c-0.1,0-0.3,0-0.4,0c-0.6-0.1-0.7-1-0.1-1.2c0,0,5.4-1.8,5.4-1.8
					c-0.3,0.1-0.6,0.1-0.9,0.1c-1.6,0.2-3.2,0.4-4.8,0.6c-0.5,0.1-1,0.1-1.5,0.2c-0.4,0-0.8,0.1-1.1-0.1c-0.2-0.1-0.3-0.3-0.2-0.5
					c0.1-0.3,0.4-0.4,0.7-0.5c2.3-0.7,4.7-1.5,7-2.2c-1.6,0.2-3.2,0.4-4.8,0.6C432.6,142.3,432,142.4,431.4,142.4z"/>
			</g>
		</g>
		<g>
			<g>
				<g>
					<g>
						
							<path fill="none" stroke="#000000" stroke-width="2" stroke-linecap="round" stroke-linejoin="round" stroke-miterlimit="10" d="
							M239.2,447.6v5c-3.6-3.7-6.2-1.2-9.3-0.5c-3.1,0.7-4.6-1.6-4.6-1.6v-5.1L239.2,447.6z"/>
					</g>
				</g>
				<g>
					<g>
						
							<path fill="none" stroke="#000000" stroke-width="2" stroke-linecap="round" stroke-linejoin="round" stroke-miterlimit="10" d="
							M239.2,452.6v7.1H208c0,0-1.4-2.8,1.8-3.8c3.2-1,13-2.4,15.5-5.3c0,0,1.4,2.3,4.6,1.6C233,451.5,235.6,448.9,239.2,452.6z"/>
					</g>
				</g>
			</g>
			<g>
				<g>
					<g>
						
							<path fill="none" stroke="#000000" stroke-width="2" stroke-linecap="round" stroke-linejoin="round" stroke-miterlimit="10" d="
							M295.1,445.7v4.9c0,0-1.5,2.3-4.6,1.6c-3.1-0.7-5.7-3.2-9.3,0.5v-4.7L295.1,445.7z"/>
					</g>
				</g>
				<g>
					<g>
						
							<path fill="none" stroke="#000000" stroke-width="2" stroke-linecap="round" stroke-linejoin="round" stroke-miterlimit="10" d="
							M312.4,459.8h-31.2v-7.1c3.6-3.7,6.2-1.2,9.3-0.5c3.1,0.7,4.6-1.6,4.6-1.6c2.4,2.9,12.2,4.4,15.4,5.3
							C313.8,457,312.4,459.8,312.4,459.8z"/>
					</g>
				</g>
			</g>
			<g>
				
					<path fill="none" stroke="#000000" stroke-width="2" stroke-linecap="round" stroke-linejoin="round" stroke-miterlimit="10" d="
					M301.4,444.7l-6.3,1l-13.9,2.2l-1.2,0.2l-8.4-83.9h-0.2l-7.6-67.2l-6.3,0.5l-7.1,66.7l-8.1,83.9l-3.2-0.5l-13.9-2.1l-5.9-0.9
					l2.7-81h0l1.6-74.8h9.2c9.6,0,17.4-7.2,17-15.9l-0.2-6.6h19.8l-0.3,6.4c-0.4,8.7,7.4,16,17,16h9.3l2.3,73.8h0L301.4,444.7z"/>
				
					<polygon fill="none" stroke="#000000" stroke-width="2" stroke-linecap="round" stroke-linejoin="round" stroke-miterlimit="10" points="
					270,263.4 269.9,266.4 249.4,266.4 249.3,263.4 				"/>
			</g>
			<g>
				<g>
					<g>
						
							<path fill="none" stroke="#000000" stroke-width="2" stroke-linecap="round" stroke-linejoin="round" stroke-miterlimit="10" d="
							M271.6,149c0,1.5,0.3,2.8,1.6,3.1c-0.4,1.1-0.9,2.1-1.6,3.1c0,0,0,0,0,0c0,0,0,0,0,0v0c0,0,0,0,0,0c-0.1,0.2-0.5,0.7-1.3,1.4
							c-0.2,0.2-0.4,0.4-0.7,0.6c-1.7,1.4-4.7,3.2-8.8,3.3c-0.2,0-0.5,0-0.7,0c-4.3-0.1-8-2-10.4-4.9c0,0,0,0,0-0.1c0,0,0,0,0,0v0
							c-0.9-1.1-1.6-2.4-2.1-3.8c0.8-0.5,1-1.6,1-2.9c0-1.1-0.6-2.1-1.5-2.6v-7.8c0,0,5-0.7,9.1,3.1c4.1,3.8,17.6-0.6,17.6-0.6v4.9
							C272.5,146.5,271.6,147.7,271.6,149z"/>
						
							<path fill="none" stroke="#000000" stroke-width="2" stroke-linecap="round" stroke-linejoin="round" stroke-miterlimit="10" d="
							M248.5,149c0,1.3-0.2,2.4-1,2.9c-0.3-1-0.5-2.1-0.5-3.3v-2.2C247.9,146.9,248.5,147.9,248.5,149z"/>
						
							<path fill="none" stroke="#000000" stroke-width="2" stroke-linecap="round" stroke-linejoin="round" stroke-miterlimit="10" d="
							M270.3,156.7c-2.4,2.4-5.7,3.9-9.5,4C265.5,160.4,268.7,158.2,270.3,156.7z"/>
						
							<path fill="none" stroke="#000000" stroke-width="2" stroke-linecap="round" stroke-linejoin="round" stroke-miterlimit="10" d="
							M273.8,146.1v2.5c0,1.2-0.2,2.4-0.6,3.5c-1.3-0.3-1.6-1.6-1.6-3.1C271.6,147.7,272.5,146.5,273.8,146.1z"/>
					</g>
				</g>
				<g>
					<g>
						
							<path fill="none" stroke="#000000" stroke-width="2" stroke-linecap="round" stroke-linejoin="round" stroke-miterlimit="10" d="
							M248.5,149c0,1.3-0.2,2.4-1,2.9c-0.3,0.2-0.7,0.3-1.2,0.3c-1.9,0-4.6-1.4-4.6-3.2c0-1.4,0.9-2.5,2.2-3c0,0,0,0,0.1,0
							c0,0,0.1,0,0.1,0c0.1,0,0.3-0.1,0.4-0.1c0.1,0,0.2,0,0.3,0c0.1,0,0.2,0,0.3,0c0.7,0,1.3,0.2,1.9,0.5v0
							C247.9,146.9,248.5,147.9,248.5,149z"/>
					</g>
				</g>
				<g>
					<g>
						
							<path fill="none" stroke="#000000" stroke-width="2" stroke-linecap="round" stroke-linejoin="round" stroke-miterlimit="10" d="
							M278.4,149c0,1.8-2.7,3.2-4.6,3.2c-0.2,0-0.4,0-0.6-0.1c-1.3-0.3-1.6-1.6-1.6-3.1c0-1.4,0.9-2.5,2.2-2.9c0,0,0,0,0,0
							s0,0,0.1,0c0.4-0.1,0.7-0.2,1.1-0.2c0.1,0,0.3,0,0.4,0c0.1,0,0.2,0,0.3,0.1c0.2,0.1,0.5,0.1,0.7,0.2c0.1,0,0.2,0.1,0.3,0.1
							c0.1,0,0.1,0.1,0.2,0.1c0.1,0.1,0.2,0.1,0.3,0.2c0.1,0.1,0.2,0.1,0.2,0.2c0.2,0.2,0.4,0.4,0.5,0.6
							C278.2,147.8,278.4,148.4,278.4,149z"/>
					</g>
				</g>
				<g>
					<g>
						
							<path fill="none" stroke="#000000" stroke-width="2" stroke-linecap="round" stroke-linejoin="round" stroke-miterlimit="10" d="
							M271.7,158.9l-4.6,4.4l-0.3,0.3l-5.8,5.7l-1.2,0.7l-1-0.6l0,0l-5.5-5.7l-0.3-0.3l-4.1-4.2l0.6-3.4c0,0,0,0,0,0
							c0.6,3.7,4.4,5.3,7.1,6c1.9,0.5,3.9,0.6,5.8,0.3c6.3-1.2,8.7-6.1,9-6.8v0c0,0,0,0,0,0c0,0,0,0,0,0L271.7,158.9z"/>
						
							<path fill="none" stroke="#000000" stroke-width="2" stroke-linecap="round" stroke-linejoin="round" stroke-miterlimit="10" d="
							M249.6,155.7C249.6,155.7,249.6,155.7,249.6,155.7c2.4,2.9,6.1,4.9,10.4,5c0.3,0,0.5,0,0.7,0c4.2-0.2,7.1-1.9,8.8-3.3
							c0.2-0.2,0.5-0.4,0.7-0.6c0.7-0.7,1.1-1.3,1.3-1.4c0,0,0,0,0,0c-0.3,0.6-2.6,5.5-9,6.8c-1.9,0.4-3.9,0.2-5.8-0.3
							C254,161,250.2,159.4,249.6,155.7z"/>
						
							<polygon fill="none" stroke="#000000" stroke-width="2" stroke-linecap="round" stroke-linejoin="round" stroke-miterlimit="10" points="
							260,170.5 259.9,170.6 259.8,170.5 259.9,170.4 						"/>
						
							<polygon fill="none" stroke="#000000" stroke-width="2" stroke-linecap="round" stroke-linejoin="round" stroke-miterlimit="10" points="
							261.1,169.2 260.8,169.5 260.8,169.5 259.9,170.4 259.2,169.6 258.9,169.3 259.9,169.9 						"/>
					</g>
				</g>
				<g>
					<g>
						
							<path fill="none" stroke="#000000" stroke-width="2" stroke-linecap="round" stroke-linejoin="round" stroke-miterlimit="10" d="
							M271.5,155.3c-0.3,0.6-2.6,5.5-9,6.8c-1.9,0.4-3.9,0.2-5.8-0.3c-2.8-0.7-6.5-2.3-7.1-6c0,0,0,0,0,0.1
							c0.3,0.6,2.7,4.8,10.2,4.9h0.2c0.3,0,0.5,0,0.7,0c4.2-0.2,7.1-1.9,8.8-3.3c0.2-0.2,0.5-0.4,0.7-0.6
							C271,156,271.4,155.4,271.5,155.3C271.5,155.3,271.5,155.3,271.5,155.3z"/>
					</g>
				</g>
				<g>
					
						<path fill="none" stroke="#000000" stroke-width="2" stroke-linecap="round" stroke-linejoin="round" stroke-miterlimit="10" d="
						M279.5,143.2c-2.2,1.9-1.7,4.2-1.7,4.2c-0.1-0.2-0.3-0.4-0.5-0.6c-0.1-0.1-0.1-0.1-0.2-0.2c-0.1-0.1-0.2-0.1-0.3-0.2
						c-0.1-0.1-0.2-0.1-0.2-0.1c-0.3-0.2-0.6-0.3-0.9-0.3c-0.1,0-0.2-0.1-0.3-0.1c-0.1,0-0.3,0-0.4,0c-0.4,0-0.8,0.1-1.1,0.2
						c0,0,0,0-0.1,0s0,0,0,0v-4.9c0,0-13.5,4.4-17.6,0.6c-4.1-3.8-9.1-3.1-9.1-3.1v7.8c-0.5-0.5-1.3-0.6-1.9-0.5c-0.1,0-0.2,0-0.3,0
						c-0.1,0-0.2,0-0.3,0c-0.1,0-0.3,0-0.4,0.1c0,0-0.1,0-0.1,0c-0.1,0-0.1,0-0.1,0l-1.6-6.4c-2.4-6.9,2-10.5,6.2-12.8
						c4.2-2.3,7.9,3.5,7.9,3.5s3.7-5.1,11.8-4.8c8.2,0.3,5.5,8.5,5.5,8.5C280.2,134.8,281.8,141.3,279.5,143.2z"/>
					
						<path fill="none" stroke="#000000" stroke-width="2" stroke-linecap="round" stroke-linejoin="round" stroke-miterlimit="10" d="
						M276.4,146.2c-1.1-0.4-2.4-0.2-2.6-0.1c0.4-0.1,0.8-0.2,1.2-0.2C275.5,145.9,276,146,276.4,146.2z"/>
					
						<path fill="none" stroke="#000000" stroke-width="2" stroke-linecap="round" stroke-linejoin="round" stroke-miterlimit="10" d="
						M276.9,146.4c-0.1-0.1-0.3-0.1-0.5-0.2C276.6,146.2,276.7,146.3,276.9,146.4z"/>
				</g>
			</g>
			<g>
				<g>
					
						<polygon fill="none" stroke="#000000" stroke-width="2" stroke-linecap="round" stroke-linejoin="round" stroke-miterlimit="10" points="
						249.7,266.4 249.4,266.4 249.3,263.4 246.3,170.1 246.3,170.1 249.6,263.4 					"/>
				</g>
				<g>
					
						<polygon fill="none" stroke="#000000" stroke-width="2" stroke-linecap="round" stroke-linejoin="round" stroke-miterlimit="10" points="
						273.7,169.9 270,263.4 269.9,266.4 269.5,266.4 269.6,263.4 273.6,170 					"/>
					
						<path fill="none" stroke="#000000" stroke-width="2" stroke-linecap="round" stroke-linejoin="round" stroke-miterlimit="10" d="
						M300.2,259.4v1.4c-0.2-0.4-0.4-0.8-0.7-1.2c0.1,0,0.1,0,0.2,0h0.1C300,259.6,300.2,259.6,300.2,259.4z"/>
				</g>
				<g>
					
						<polygon fill="none" stroke="#000000" stroke-width="2" stroke-linecap="round" stroke-linejoin="round" stroke-miterlimit="10" points="
						260,170.5 259.9,170.6 259.8,170.5 259.9,170.4 					"/>
					
						<polygon fill="none" stroke="#000000" stroke-width="2" stroke-linecap="round" stroke-linejoin="round" stroke-miterlimit="10" points="
						261.1,169.2 260.8,169.5 260.8,169.5 259.9,170.4 259.2,169.6 258.9,169.3 259.9,169.9 					"/>
				</g>
				<g>
					
						<polygon fill="none" stroke="#000000" stroke-width="2" stroke-linecap="round" stroke-linejoin="round" stroke-miterlimit="10" points="
						260,170.5 259.9,170.6 259.8,170.5 259.9,170.4 					"/>
					
						<polygon fill="none" stroke="#000000" stroke-width="2" stroke-linecap="round" stroke-linejoin="round" stroke-miterlimit="10" points="
						261.1,169.2 260.8,169.5 260.8,169.5 259.9,170.4 259.2,169.6 258.9,169.3 259.9,169.9 					"/>
					
						<polygon fill="none" stroke="#000000" stroke-width="2" stroke-linecap="round" stroke-linejoin="round" stroke-miterlimit="10" points="
						273.6,170 269.6,263.4 249.6,263.4 246.3,170.1 254,179 257.4,174.2 258.4,172.7 259.9,170.6 261.5,172.9 262.6,174.5 
						265.8,179 					"/>
					
						<polygon fill="none" stroke="#000000" stroke-width="2" stroke-linecap="round" stroke-linejoin="round" stroke-miterlimit="10" points="
						273.7,169.9 270,263.4 269.9,266.4 249.4,266.4 249.3,263.4 246.3,170.1 246.3,170.1 249.6,263.4 269.6,263.4 273.6,170 					
						"/>
				</g>
			</g>
			<g>
				
					<polygon fill="none" stroke="#000000" stroke-width="2" stroke-linecap="round" stroke-linejoin="round" stroke-miterlimit="10" points="
					259.9,169.9 259.2,169.6 258.9,169.3 				"/>
				
					<polygon fill="none" stroke="#000000" stroke-width="2" stroke-linecap="round" stroke-linejoin="round" stroke-miterlimit="10" points="
					261.1,169.2 260.8,169.5 260.8,169.5 259.9,169.9 				"/>
			</g>
			<g>
				
					<polygon fill="none" stroke="#000000" stroke-width="2" stroke-linecap="round" stroke-linejoin="round" stroke-miterlimit="10" points="
					276.9,165.9 276.7,166.1 274.5,169 273.7,169.9 273.6,170 265.8,179 262.6,174.5 261.5,172.9 259.9,170.6 260,170.5 
					259.9,170.4 260.8,169.5 260.8,169.5 261.1,169.2 266.9,163.6 267.2,163.3 271.7,158.9 271.8,158.9 				"/>
				
					<polygon fill="none" stroke="#000000" stroke-width="2" stroke-linecap="round" stroke-linejoin="round" stroke-miterlimit="10" points="
					260,170.5 259.9,170.6 259.8,170.5 259.9,170.4 				"/>
			</g>
			<g>
				
					<polygon fill="none" stroke="#000000" stroke-width="2" stroke-linecap="round" stroke-linejoin="round" stroke-miterlimit="10" points="
					259.8,170.5 259.9,170.6 258.4,172.7 257.4,174.2 254,179 246.3,170.1 246.3,170.1 245.3,169 243,165.9 242.9,165.7 248.9,159 
					249,159.1 253.1,163.3 253.3,163.6 258.8,169.3 258.9,169.3 259.2,169.6 259.9,170.4 				"/>
				
					<polygon fill="none" stroke="#000000" stroke-width="2" stroke-linecap="round" stroke-linejoin="round" stroke-miterlimit="10" points="
					260,170.5 259.9,170.6 259.8,170.5 259.9,170.4 				"/>
			</g>
			<g>
				<g>
					
						<path fill="none" stroke="#000000" stroke-width="2" stroke-linecap="round" stroke-linejoin="round" stroke-miterlimit="10" d="
						M211.7,285.8l0.7,3.4c-1.1,0.4-2.4-0.1-2.9-0.9c-0.5-0.8-0.7-1.6-0.7-2.4l0.1-2.6l-0.6-0.4l-3,3.1c-0.4,0.4-0.8,0.8-1.2,1.2
						c-1.4,1.4-3.9,1.4-5.3,0c-0.5-0.6-1-1.1-1.4-1.5c-0.1-0.1-0.1-0.2-0.2-0.2c-1.1-1.2-1.7-1.8-1.9-2c0.1-0.1,2.7-3.7,2.7-3.7
						l0.9-2.2h0l1.8-4.2l0.1-0.8l0.4-2.2l12,0.6l-0.9,4.3c0,0,0,0,0,0.1c0,0.6-0.2,6.2-0.2,6.3C211.9,281.8,211.7,285.8,211.7,285.8
						z"/>
				</g>
			</g>
			<g>
				
					<path fill="none" stroke="#000000" stroke-width="2" stroke-linecap="round" stroke-linejoin="round" stroke-miterlimit="10" d="
					M218.6,269.4c-0.7,2.4-1.4,4.9-2.2,7.5c-0.3-0.4-2-1-4.2-1.6c0,0,0-0.1,0-0.1l0.9-4.3l-12-0.6l-0.4,2.2
					c-1.5-0.3-2.5-0.4-2.9-0.2l18-95.9l2.6,90.8l0,0.4c0,0.1,0,0.2,0.1,0.3L218.6,269.4z"/>
				
					<path fill="none" stroke="#000000" stroke-width="2" stroke-linecap="round" stroke-linejoin="round" stroke-miterlimit="10" d="
					M201.1,270.4l12,0.6l-0.9,4.3c0,0,0,0,0,0.1c-3.5-1-8.4-2.2-11.5-2.7L201.1,270.4z"/>
				
					<path fill="none" stroke="#000000" stroke-width="2" stroke-linecap="round" stroke-linejoin="round" stroke-miterlimit="10" d="
					M250,273c0.3,8.7-7.4,15.9-17,15.9h-13.8l-0.6-19.5l0-1.5l0-0.6l-2.6-90.8l27.2-10.5l2.3,3.1l1,1.1l3,93.3l0.1,3h0.4L250,273z"
					/>
				
					<path fill="none" stroke="#000000" stroke-width="2" stroke-linecap="round" stroke-linejoin="round" stroke-miterlimit="10" d="
					M218.5,267.9c0-0.1-0.1-0.2-0.1-0.3l0-0.4L218.5,267.9z"/>
			</g>
			<g>
				<g>
					
						<path fill="none" stroke="#000000" stroke-width="2" stroke-linecap="round" stroke-linejoin="round" stroke-miterlimit="10" d="
						M335.7,285.8c-0.3,0.2-0.7,0.2-1,0c-1.6-1.5-3.1-2.9-4.7-4.4l-3-0.9l3,2.3l3.7,3.9c0.1,0.2,0.1,0.4,0,0.6
						c-0.2,0.2-0.5,0.3-0.8,0.2c-3.8-2.1-7.6-4.2-11.4-6.3l-3.8-2.3l-0.5,0.5l0.8,2.5c0.3,0.8,0.3,1.7,0,2.5c-0.3,1-1.4,1.7-2.6,1.6
						l-0.2-3.4c0,0-1.3-3.9-1.4-4c-0.1-0.1-1.8-5.5-2-6.1c3.1-1.8,7.5-4.1,10.3-5.3l0.4,0.7l2.4,3.1l0.1,0.1l0.8,1v0l1.1,1.4
						l3.2,0.7l0.6,0.1c0.2,0.1,0.4,0.1,0.6,0.2h0c0.2,0.1,0.4,0.3,0.6,0.4l3.5,3.7c0.4,0.3,0.4,0.8,0,1.1c-0.3,0.2-0.8,0.2-1.1-0.1
						c-0.4-0.3-0.8-0.6-1.3-0.9l2.5,3.9c0.1,0.2,0.1,0.4-0.1,0.6c-0.2,0.1-0.4,0.2-0.7,0.1c0.3,0.5,0.7,1.1,1,1.6
						C336.2,285.3,336,285.6,335.7,285.8z"/>
				</g>
			</g>
			<g>
				
					<path fill="none" stroke="#000000" stroke-width="2" stroke-linecap="round" stroke-linejoin="round" stroke-miterlimit="10" d="
					M300.2,259.4v1.4c-0.2-0.4-0.4-0.8-0.7-1.2c0.1,0,0.1,0,0.2,0h0.1C300,259.6,300.2,259.6,300.2,259.4z"/>
				
					<path fill="none" stroke="#000000" stroke-width="2" stroke-linecap="round" stroke-linejoin="round" stroke-miterlimit="10" d="
					M300.4,259c0,0.2,0,0.3-0.1,0.4v-1.7L300.4,259z"/>
			</g>
			<g>
				
					<path fill="none" stroke="#000000" stroke-width="2" stroke-linecap="round" stroke-linejoin="round" stroke-miterlimit="10" d="
					M325,266.3c-0.4-0.1-1.4,0.3-2.7,0.9c-2.9,1.2-7.2,3.5-10.3,5.3c-2,1.2-3.4,2.1-3.6,2.5c-2.9-4.6-5.5-9.4-8.1-14.1v-1.4
					c0.1-0.1,0.2-0.3,0.1-0.4l-0.1-1.2l-2.5-21.5l-0.2-1.9l-3.3-28.2l5.9-29.3l11.2,55.8L325,266.3z"/>
				
					<path fill="none" stroke="#000000" stroke-width="2" stroke-linecap="round" stroke-linejoin="round" stroke-miterlimit="10" d="
					M300.3,288.9h-14c-9.7,0-17.4-7.3-17-16l0.3-6.4h0.4l0.1-3l3.6-93.5l0.8-0.9l2.2-2.9l23.4,10.8l-5.9,29.3l3.3,28.2l0.2,1.9
					l2.5,21.5v1.7c-0.1,0.1-0.3,0.2-0.4,0.2h-0.1c-0.1,0-0.1,0-0.2,0c0.2,0.4,0.4,0.8,0.7,1.2L300.3,288.9z"/>
				
					<path fill="none" stroke="#000000" stroke-width="2" stroke-linecap="round" stroke-linejoin="round" stroke-miterlimit="10" d="
					M300.4,259c0,0.2,0,0.3-0.1,0.4v-1.7L300.4,259z"/>
			</g>
			<g>
				
					<path fill="none" stroke="#000000" stroke-width="2" stroke-linecap="round" stroke-linejoin="round" stroke-miterlimit="10" d="
					M218.5,267.9c0-0.1-0.1-0.2-0.1-0.3l0-0.4L218.5,267.9z"/>
			</g>
		</g>
	</g>
</g>
<g>
	<rect x="524.8" y="565.7" width="27.9" height="27.9"/>
	<rect x="457.5" y="498.4" width="27.9" height="27.9"/>
	<path d="M505.2,546h67.3v-67.3h-67.3V546z M552.8,526.3h-27.9v-27.9h27.9V526.3z"/>
	<path d="M437.9,613.3h67.3V546h-67.3V613.3z M457.5,565.7h27.9v27.9h-27.9V565.7z"/>
</g>
</svg>
