<?xml version="1.0" encoding="utf-8"?>
<!-- Generator: Adobe Illustrator 24.0.1, SVG Export Plug-In . SVG Version: 6.00 Build 0)  -->
<svg version="1.2" baseProfile="tiny" id="Layer_1" xmlns="http://www.w3.org/2000/svg" xmlns:xlink="http://www.w3.org/1999/xlink"
	 x="0px" y="0px" viewBox="0 0 2543 550" xml:space="preserve">
<g>
	<path d="M198.1,43.7l-13.3-13.4l6.7-6.7l33.7,33.8l-6.7,6.7L205,50.7l-38,37.8l-7-7L198.1,43.7z"/>
	<path d="M229.8,61.9l6.6,6.2l-17.9,19c1.6-0.4,3.2-0.5,4.9-0.3c2.9,0.2,6.5,1.2,9.9,4.4c7.2,6.8,7.6,16.9-0.5,25.5l-17.3,18.3
		l-6.6-6.2l17.3-18.3c4.4-4.7,4.1-10.3-0.1-14.3c-4.9-4.6-11.9-4.4-16.8,0.8l-16,17l-6.6-6.2L229.8,61.9z"/>
	<path d="M259.1,164.4c-1.9,0.4-3.9,0.4-6.1,0c-3.7-0.6-8.3-2-13.1-6.3c-9.4-8.4-10.2-22.4-1.8-31.8c8.4-9.4,22.4-10.2,31.4-2.1
		c9.1,8.1,9.9,20.7,1.7,29.9c-0.9,1-1.8,1.7-2.4,2.2l-1,0.8L243,135c-3.2,5-2.6,12.2,2.9,17c2.9,2.6,6.2,3.6,8.8,4
		c1.5,0.2,3,0.3,4.5,0.1L259.1,164.4z M266.3,145.5c2.9-5.3,2.6-10.9-2.1-15.2c-5.1-4.6-10.8-4.2-16-1L266.3,145.5z"/>
	<path d="M292.7,145.8l6.8,5.8l-3.8,4.4c1.5-0.2,3.1-0.4,4.7-0.4c2.8,0.1,6.3,0.9,9.6,3.7l1.7,1.5l-6.1,7.2l-0.8-0.9
		c-0.5-0.5-0.9-1.1-1.7-1.8c-4.7-4-12.4-3.5-17.4,2.3l-14.3,16.8l-6.8-5.8L292.7,145.8z"/>
	<path d="M323.9,218.7c-1.9,0.4-3.9,0.5-6,0.3c-3.7-0.4-8.4-1.7-13.4-5.7c-9.8-8-11.1-21.9-3.2-31.7s21.9-11.1,31.3-3.4
		c9.5,7.8,10.7,20.3,3,29.8c-0.9,1-1.7,1.8-2.3,2.3l-0.9,0.9L306.6,190c-2.9,5.2-2,12.3,3.6,16.9c3,2.5,6.3,3.3,8.9,3.6
		c1.5,0.2,3,0.1,4.5-0.1L323.9,218.7z M330.3,199.5c2.7-5.4,2.2-11-2.8-15.1c-5.3-4.3-10.9-3.7-16-0.3L330.3,199.5z"/>
	<path d="M370,255.6c-1.5,0.5-3.2,0.8-4.9,0.8c-3,0-6.8-0.7-10.6-3.5c-6.9-5.2-7.9-13.4-3.8-18.7c4.4-5.7,11.3-6.7,18.2-3.1
		l14.2,7.4c2.8-3.7,2-8.6-2.3-11.9c-2.8-2.1-5.8-2.5-8.3-2.6c-1.4-0.1-2.8,0.1-4.2,0.4l-1.1-8.2c1.9-0.5,3.8-0.7,5.9-0.6
		c3.5,0.1,8,1,12.6,4.5c8.6,6.5,10,16.6,4.3,24.1l-16.6,21.9l-7.2-5.4L370,255.6z M378.7,244.1l-11.4-5.8c-4.1-2.1-7.2-1.6-8.9,0.6
		c-1.9,2.5-1.5,6.2,2.2,9c5.4,4.1,12.9,3.1,17.3-2.7L378.7,244.1z"/>
	<path d="M410.1,239.4l7.3,5.3l-3.4,4.7c1.5-0.4,3-0.7,4.7-0.7c2.8-0.1,6.4,0.4,9.9,2.9l1.8,1.3l-5.6,7.6l-0.8-0.8
		c-0.5-0.5-1-1.1-1.8-1.6c-5-3.6-12.6-2.5-17.1,3.7l-13,17.8l-7.3-5.3L410.1,239.4z"/>
	<path d="M447,309.5c-1.8,0.6-3.9,0.8-6,0.8c-3.8-0.1-8.5-1-13.8-4.6c-10.4-7.2-12.9-20.9-5.7-31.3s20.9-12.9,30.9-6
		c10.1,7,12.3,19.4,5.4,29.4c-0.8,1.1-1.5,1.9-2.1,2.5l-0.9,0.9l-27.4-18.9c-2.5,5.4-1,12.4,5,16.6c3.2,2.2,6.6,2.8,9.2,2.8
		c1.5,0,3-0.1,4.5-0.5L447,309.5z M451.8,289.9c2.2-5.6,1.3-11.2-4-14.8c-5.6-3.9-11.2-2.8-16,1L451.8,289.9z"/>
	<path d="M494.2,297.6l7.6,4.8l-3.3,5.3c1.5-0.7,3-1.1,4.7-1.3c2.9-0.3,6.6-0.1,10.5,2.4c8.4,5.3,10.7,15.1,4.4,25.1l-13.4,21.3
		l-7.6-4.8l13.4-21.3c3.4-5.4,2.1-10.9-2.9-14c-5.7-3.6-12.5-2-16.4,4.1L478.9,339l-7.6-4.8L494.2,297.6z"/>
	<path d="M556.9,334.7c10.9,6.3,14.5,19.8,8.2,30.7s-19.8,14.5-30.7,8.2c-10.9-6.3-14.5-19.8-8.2-30.7
		C532.5,332,546,328.4,556.9,334.7z M557.3,361c4.1-7.1,1.9-15-4.7-18.8c-6.6-3.8-14.6-1.8-18.7,5.3c-4.1,7.1-1.9,15,4.7,18.8
		C545.3,370.1,553.2,368.1,557.3,361z"/>
	<path d="M592.1,389.6c0.3,1.5,0.7,2.8,1.4,4c1.2,2.2,2.9,4.7,6,6.3c4.5,2.3,8,1.2,9.3-1.3c3.3-6.4-18.8-13.6-11.8-27.3
		c3.1-6,11-8.5,19.8-4c4.6,2.3,7.3,5.5,8.9,7.9c1,1.4,1.7,2.9,2.1,4.3l-7.9,2.5c-0.4-0.9-0.8-1.8-1.4-2.8c-1.1-1.7-2.8-3.4-5.3-4.8
		c-4.1-2.1-7-1.1-8.1,0.9c-3.3,6.4,18.8,13.7,11.8,27.3c-3.3,6.4-11.7,9.2-21,4.4c-5.1-2.6-7.9-6.3-9.5-9.4c-1-1.8-1.7-3.7-2-5.6
		L592.1,389.6z"/>
	<path d="M641.1,390l-7.3-3.5l3.6-7.7l4.5,2.1c2.5,1.2,4.2,0.5,5.8-2.8l4-8.5l7.3,3.5l-6.1,13l9,4.2l-3.6,7.7l-9-4.2l-8.6,18.3
		c-1.9,4.1-1,7,2.8,8.8c1.2,0.6,2.4,0.8,3.4,0.9l1.6,0l-3.6,7.7l-2-0.2c-1.2-0.2-2.8-0.6-4.7-1.5c-7.8-3.7-10.1-10.2-6.1-18.8
		L641.1,390z"/>
	<path d="M674.4,395.9l8.3,3.6l-2.3,5.4c1.4-0.7,2.8-1.3,4.4-1.7c2.7-0.7,6.3-1,10.3,0.7l2.1,0.9l-3.8,8.7l-1-0.6
		c-0.6-0.4-1.2-0.8-2.1-1.2c-5.7-2.5-12.9,0.3-15.9,7.3l-8.8,20.2l-8.3-3.6L674.4,395.9z"/>
	<path d="M715.9,452.8c-1.3,0.9-2.8,1.6-4.5,2.1c-2.9,0.8-6.8,1.3-11.1-0.4c-8.1-3.1-11.3-10.6-8.9-16.9c2.6-6.7,9-9.6,16.6-8.1
		l15.7,3.1c1.7-4.3-0.4-8.9-5.5-10.8c-3.3-1.3-6.3-0.8-8.7-0.2c-1.4,0.3-2.7,0.9-3.9,1.6l-3.4-7.6c1.6-1,3.5-1.7,5.5-2.2
		c3.4-0.9,8-1.3,13.4,0.8c10.1,3.9,14.2,13.2,10.8,22l-9.9,25.6l-8.4-3.2L715.9,452.8z M721.1,439.4l-12.6-2.4
		c-4.6-0.9-7.4,0.4-8.4,3c-1.1,2.9,0.3,6.4,4.6,8c6.3,2.4,13.3-0.7,15.9-7.4L721.1,439.4z"/>
	<path d="M750.9,426.4l8.6,2.8l-1.9,6c1.3-1,2.7-1.8,4.3-2.4c2.7-1,6.4-1.7,10.8-0.3c9.4,3,14.1,12,10.4,23.3l-7.8,24l-8.6-2.8
		l7.8-24c2-6.1-0.7-11.1-6.2-12.9c-6.4-2.1-12.7,1.1-14.9,8l-7.2,22.3l-8.6-2.8L750.9,426.4z"/>
	<path d="M795.3,489.6c0.7,1.4,1.5,2.7,2.4,3.8c1.6,2.2,4.1,4.3,7.9,5.2c7.9,2,14.4-1.8,16.5-10.2l1-3.9c-1.2,1-2.6,1.8-4.2,2.5
		c-2.8,1.1-6.5,1.8-11,0.6c-10-2.5-16.5-13.5-13.5-25.7s14-18.7,24.1-16.2c4.5,1.1,7.4,3.6,9.4,5.9c1.1,1.3,1.9,2.7,2.5,4.1l1.4-5.7
		l8.7,2.2l-9.7,38.4c-3.2,12.7-14.7,19.5-27.3,16.3c-5.9-1.5-9.7-4.8-12.2-7.7c-1.4-1.8-2.5-3.5-3.4-5.5L795.3,489.6z M826.7,470.2
		c1.9-7.4-2-14-8.6-15.6c-6.5-1.7-13.1,2.3-15,9.7c-1.9,7.4,2,14,8.6,15.6C818.2,481.5,824.8,477.6,826.7,470.2z"/>
	<path d="M885.6,497.4c-1.4,1.3-3.2,2.4-5.1,3.2c-3.5,1.5-8.2,2.7-14.4,1.5c-12.4-2.2-20.4-13.7-18.2-26.1s13.7-20.4,25.7-18.3
		c12.1,2.1,19.3,12.5,17.1,24.5c-0.2,1.3-0.6,2.4-0.8,3.1l-0.4,1.2l-32.8-5.8c-0.1,5.9,4.2,11.7,11.4,13c3.8,0.7,7.2-0.2,9.5-1.2
		c1.4-0.6,2.7-1.3,3.9-2.3L885.6,497.4z M881.8,477.5c-0.3-6-3.5-10.7-9.8-11.8c-6.7-1.2-11.3,2.1-14.1,7.5L881.8,477.5z"/>
	<path d="M905.2,463.6l8.9,1.1l-0.7,5.8c1.1-1,2.3-2.1,3.7-2.9c2.4-1.4,5.8-2.7,10.1-2.2l2.2,0.3l-1.2,9.4l-1.1-0.3
		c-0.7-0.2-1.4-0.4-2.4-0.6c-6.2-0.8-12.3,3.9-13.2,11.5l-2.7,21.9l-8.9-1.1L905.2,463.6z"/>
	<path d="M936.7,497.7c0.8,1.3,1.7,2.3,2.7,3.3c1.9,1.6,4.4,3.3,7.9,3.7c5,0.5,7.9-1.8,8.2-4.6c0.7-7.2-22.5-5.8-20.9-21.1
		c0.7-6.7,7.2-11.9,16.9-11c5.1,0.5,8.8,2.4,11.2,4.1c1.4,1,2.6,2.1,3.5,3.2l-6.4,5.2c-0.7-0.7-1.4-1.4-2.3-2
		c-1.6-1.2-3.9-2.2-6.7-2.5c-4.6-0.5-6.9,1.6-7.2,3.8c-0.7,7.2,22.5,5.9,20.9,21.1c-0.7,7.2-7.5,12.8-17.9,11.8
		c-5.7-0.6-9.7-3-12.3-5.3c-1.6-1.3-2.9-2.8-3.9-4.5L936.7,497.7z"/>
	<path d="M1000,453.2l9,0.5l-1.4,26.1c1-1.3,2.1-2.4,3.5-3.4c2.3-1.7,5.8-3.3,10.3-3.1c9.9,0.5,16.7,8,16.1,19.8l-1.3,25.2l-9-0.5
		l1.3-25.2c0.3-6.4-3.5-10.5-9.3-10.9c-6.7-0.4-11.9,4.3-12.3,11.5l-1.2,23.4l-9-0.5L1000,453.2z"/>
	<path d="M1090.5,511.9c-1.2,1.5-2.7,2.8-4.5,4c-3.2,2-7.6,4-14,3.9c-12.6-0.1-22.4-10.2-22.2-22.8c0.1-12.6,10.2-22.4,22.3-22.2
		c12.2,0.1,21,9.2,20.9,21.4c0,1.3-0.2,2.4-0.3,3.2l-0.2,1.3l-33.3-0.4c0.9,5.9,6.1,10.9,13.4,11c3.9,0,7-1.4,9.2-2.8
		c1.3-0.8,2.5-1.8,3.5-2.9L1090.5,511.9z M1083.6,492.9c-1.3-5.9-5.2-10-11.6-10c-6.8-0.1-10.8,3.9-12.7,9.8L1083.6,492.9z"/>
	<path d="M1104.7,475.7l9-0.2l0.1,5.8c1-1.2,2-2.4,3.3-3.4c2.1-1.8,5.3-3.5,9.6-3.6l2.2,0l0.2,9.4l-1.2-0.2
		c-0.7-0.1-1.4-0.2-2.4-0.2c-6.2,0.1-11.6,5.7-11.4,13.3l0.5,22l-9,0.2L1104.7,475.7z"/>
	<path d="M1178,508.7c-1.1,1.6-2.5,3-4.3,4.3c-3,2.2-7.3,4.5-13.7,4.8c-12.6,0.7-23-8.6-23.7-21.2c-0.7-12.6,8.6-23,20.8-23.7
		c12.2-0.7,21.6,7.7,22.3,19.9c0.1,1.3,0,2.4-0.1,3.2l-0.1,1.3l-33.2,1.8c1.3,5.8,6.8,10.4,14.1,10c3.9-0.2,6.9-1.8,9-3.4
		c1.2-0.9,2.3-1.9,3.3-3.2L1178,508.7z M1169.8,490.2c-1.7-5.8-5.8-9.6-12.2-9.2c-6.8,0.4-10.6,4.6-12,10.6L1169.8,490.2z"/>
	<path d="M1194.3,503.7l8.5,3.8l-9.7,18.9l-6.1-2.6L1194.3,503.7z"/>
	<path d="M1251.2,464.1c12.5-1.6,23.6,6.9,25.2,19.4c1.6,12.5-6.9,23.6-19.4,25.2s-23.6-6.9-25.2-19.4
		C1230.2,476.9,1238.7,465.8,1251.2,464.1z M1267.5,484.7c-1.1-8.1-7.6-13.1-15.2-12.1c-7.6,1-12.6,7.5-11.6,15.6
		c1.1,8.1,7.6,13.1,15.2,12.1C1263.5,499.3,1268.6,492.8,1267.5,484.7z"/>
	<path d="M1285,460.3l8.9-1.5l1.1,6.2c0.7-1.5,1.5-2.8,2.7-4.1c1.9-2.2,4.9-4.5,9.4-5.3c9.8-1.7,18.1,4.1,20.1,15.7l4.3,24.8
		l-8.9,1.5l-4.3-24.8c-1.1-6.3-5.8-9.5-11.5-8.5c-6.6,1.2-10.7,6.9-9.4,14l4,23.1l-8.9,1.5L1285,460.3z"/>
	<path d="M1334.4,431.1l8.8-1.8l12.6,61.7l-8.8,1.8L1334.4,431.1z"/>
	<path d="M1370.9,497.2c0.5,0.2,1,0.2,1.7,0.4c1,0.1,2.2,0.1,3.9-0.3c3.5-0.8,5.5-3.6,6.1-7.4l0.7-4.8l-26.9-38.1l9.6-2.2l19.1,28.4
		l4.6-33.9l9.6-2.2l-7.5,51.2c-1.4,9.7-5.2,15.5-12.2,17.2c-2,0.5-3.7,0.6-4.9,0.5l-2-0.3L1370.9,497.2z"/>
	<path d="M1431.2,437.2l-6.5,1.9l-2.4-8.2l6.5-1.9l-1.8-6.1c-2.6-9.1,0.7-15.2,9-17.6c2-0.6,3.6-0.7,4.9-0.7c0.7,0.1,1.3,0.1,2,0.1
		l2.4,8.2l-1.6-0.2c-1.1-0.1-2.3-0.1-3.6,0.3c-4.1,1.2-5.4,3.9-4.2,8.2l1.5,5.2l9.9-2.9l2.4,8.2l-9.9,2.9l9.6,33.3l-8.6,2.5
		L1431.2,437.2z"/>
	<path d="M1457.5,420.4l8.6-2.8l1.8,5.6c0.6-1.4,1.3-2.9,2.1-4.2c1.5-2.3,4.1-4.9,8.2-6.2l2.1-0.7l2.9,9l-1.2,0.2
		c-0.7,0.1-1.5,0.2-2.4,0.5c-5.9,1.9-9.5,8.7-7.1,16l6.8,21l-8.6,2.8L1457.5,420.4z"/>
	<path d="M1488.3,390.2c2.6-0.9,5.8,0.3,6.9,3.3c1,3-0.7,6-3.3,6.9c-2.6,0.9-5.8-0.3-6.9-3.3C1484,394.1,1485.7,391.2,1488.3,390.2z
		 M1490.3,409.6l8.5-3l14.2,40.8l-8.5,3L1490.3,409.6z"/>
	<path d="M1560.8,422.1c-0.6,1.8-1.5,3.6-2.8,5.4c-2.2,3-5.6,6.5-11.6,8.7c-11.8,4.5-24.5-1.3-29-13.1c-4.5-11.8,1.3-24.5,12.7-28.8
		c11.4-4.3,22.9,0.9,27.3,12.3c0.5,1.3,0.7,2.3,0.9,3.1l0.3,1.2l-31.1,11.8c3,5.1,9.6,7.9,16.4,5.3c3.6-1.4,6.1-3.8,7.6-5.9
		c0.9-1.2,1.6-2.5,2.1-4L1560.8,422.1z M1547.4,406.9c-3.3-5-8.5-7.4-14.4-5.1c-6.4,2.4-8.7,7.6-8.3,13.7L1547.4,406.9z"/>
	<path d="M1559.5,383.8l8.3-3.4l2.4,5.8c0.3-1.6,0.9-3.1,1.7-4.6c1.4-2.5,3.8-5.4,8-7.2c9.2-3.8,18.5,0.1,23,11l9.6,23.3l-8.3,3.4
		l-9.6-23.3c-2.4-5.9-7.7-8-13.1-5.8c-6.2,2.6-8.9,9-6.2,15.7l8.9,21.6l-8.3,3.4L1559.5,383.8z"/>
	<path d="M1652.6,384.5c-0.3,1.6-0.9,3.1-1.8,4.7c-1.5,2.6-4.2,5.8-8.9,7.8c-9.9,4.3-22.3-0.5-27.6-12.5c-5.2-12-0.4-24.4,9.5-28.7
		c4.7-2.1,8.9-1.9,11.8-1.2c1.8,0.4,3.3,1,4.7,1.9l-10.5-23.9l8.2-3.6l25.2,57.7l-8.2,3.6L1652.6,384.5z M1646.5,370.5
		c-3.3-7.5-11-10.4-17.5-7.6s-9.6,10.5-6.4,18c3.3,7.5,11,10.4,17.5,7.6S1649.8,378,1646.5,370.5z"/>
	<path d="M1672.9,368c1.3,0.7,2.6,1.2,4,1.4c2.5,0.5,5.5,0.7,8.6-0.8c4.6-2.1,5.9-5.5,4.7-8.1c-3-6.6-22.3,6.3-28.7-7.7
		c-2.8-6.1,0.2-13.9,9.1-18c4.7-2.1,8.8-2.3,11.7-2.1c1.7,0.1,3.3,0.5,4.6,1.1l-2.9,7.8c-0.9-0.3-1.9-0.5-3-0.6
		c-2-0.2-4.4,0-7.1,1.2c-4.2,1.9-5.2,4.8-4.3,6.9c3,6.6,22.4-6.2,28.7,7.7c3,6.6,0,14.9-9.5,19.2c-5.2,2.4-9.8,2.3-13.3,1.6
		c-2-0.4-3.9-1-5.6-1.9L1672.9,368z"/>
	<path d="M1707.4,319.1l8.9-4.3l21.5,22.1l-4.1-30.5l7.3-3.5l21.1,22.3l-3.7-30.7l8.9-4.3l4.8,45.6l-7.7,3.7l-20.9-21.9l3.9,30.1
		l-7.7,3.7L1707.4,319.1z"/>
	<path d="M1766.9,268.7l8.1-3.9l11.4,23.5c0.2-1.6,0.7-3.1,1.4-4.7c1.2-2.6,3.4-5.7,7.6-7.7c8.9-4.3,18.5-1.1,23.7,9.5l11,22.7
		l-8.1,3.9l-11-22.7c-2.8-5.7-8.2-7.5-13.4-5c-6.1,3-8.3,9.6-5.2,16l10.3,21l-8.1,3.9L1766.9,268.7z"/>
	<path d="M1841.5,253.2c11.3-5.5,24.6-0.9,30,10.5s0.9,24.6-10.5,30c-11.3,5.5-24.6,0.9-30-10.5
		C1825.5,271.9,1830.1,258.7,1841.5,253.2z M1863.4,267.6c-3.6-7.4-11.3-10-18.2-6.7c-6.9,3.3-9.7,11.1-6.1,18.4
		c3.6,7.4,11.3,10,18.2,6.7C1864.2,282.7,1867,275,1863.4,267.6z"/>
	<path d="M1884.3,212.2l8.2-3.7l10.8,23.8c0.3-1.6,0.8-3.1,1.5-4.7c1.3-2.6,3.6-5.6,7.8-7.5c9-4.1,18.5-0.6,23.4,10.1l10.4,22.9
		l-8.2,3.7l-10.4-22.9c-2.6-5.8-8-7.7-13.3-5.3c-6.1,2.8-8.6,9.3-5.6,15.9l9.7,21.3l-8.2,3.7L1884.3,212.2z"/>
	<path d="M1980,231.4c-0.3,1.6-0.9,3.1-1.7,4.7c-1.5,2.6-3.9,5.7-8.2,7.6c-7.9,3.5-15.5,0.5-18.3-5.7c-2.9-6.6-0.4-13.1,6.1-17.4
		l13.3-8.8c-1.9-4.2-6.6-5.9-11.5-3.8c-3.2,1.4-5,3.9-6.3,6c-0.7,1.2-1.2,2.5-1.6,3.9l-7.7-3c0.5-1.9,1.2-3.7,2.3-5.5
		c1.8-3.1,4.8-6.5,10-8.9c9.9-4.4,19.4-0.7,23.2,7.9l11.1,25.1l-8.2,3.6L1980,231.4z M1974.1,218.2l-10.6,7.2
		c-3.9,2.6-4.9,5.5-3.8,8.1c1.3,2.9,4.8,4.3,9,2.4c6.2-2.7,8.9-9.9,6-16.4L1974.1,218.2z"/>
	<path d="M1980.8,190.7l9.1-4l23.9,24.4l-1.6-34.1l9.1-4l1.6,46.4l-9.1,4L1980.8,190.7z"/>
	<path d="M2079,187.4c-0.5,1.9-1.3,3.7-2.5,5.5c-2.1,3.1-5.3,6.7-11.2,9.2c-11.6,5-24.6-0.2-29.6-11.8c-5-11.6,0.2-24.6,11.4-29.4
		c11.2-4.8,23-0.2,27.8,11.1c0.5,1.2,0.8,2.3,1,3.1l0.3,1.2l-30.6,13.1c3.2,5,10,7.5,16.7,4.6c3.6-1.5,5.9-4.1,7.3-6.3
		c0.8-1.2,1.5-2.6,2-4.1L2079,187.4z M2065,172.9c-3.5-4.8-8.8-7-14.7-4.5c-6.3,2.7-8.3,8-7.7,14.1L2065,172.9z"/>
	<path d="M2077.8,148.8l8.3-3.5l2.5,5.8c0.3-1.6,0.8-3.1,1.7-4.6c1.4-2.5,3.7-5.5,8-7.3c9.1-3.9,18.5-0.1,23.1,10.7l9.8,23.2
		l-8.3,3.5l-9.8-23.2c-2.5-5.9-7.8-7.9-13.2-5.7c-6.2,2.6-8.8,9.1-6,15.8l9.1,21.5l-8.3,3.5L2077.8,148.8z"/>
	<path d="M2123.3,106.1l9.2,1l-3.4,21l-6.6-0.6L2123.3,106.1z"/>
	<path d="M2155.8,125.1l-7.5,3.1l-3.3-7.9l4.6-1.9c2.6-1.1,3.2-2.8,1.8-6.1l-3.7-8.7l7.5-3.1l5.6,13.3l9.1-3.8l3.3,7.9l-9.1,3.8
		l7.8,18.7c1.7,4.1,4.5,5.4,8.4,3.8c1.2-0.5,2.2-1.2,3-1.9l1-1.2l3.3,7.9l-1.5,1.4c-0.9,0.8-2.3,1.7-4.2,2.5c-8,3.3-14.4,0.7-18-8.1
		L2155.8,125.1z"/>
	<path d="M2202,96.5l8.3-3.5l2.4,5.8c0.1-1.5,0.6-3,1.3-4.4c1.2-2.5,3.4-5.3,7.6-7.1c4.3-1.8,8.2-1.4,10.9-0.6
		c1.6,0.5,3,1.2,4.4,2.1c0.2-1.6,0.9-3.1,1.7-4.6c1.6-2.6,4.3-5.7,9.3-7.7c7.9-3.3,17.3,0.6,21.6,11l9.8,23.7l-8.3,3.5l-9.8-23.7
		c-2.4-5.9-7.5-7.6-12.1-5.7c-5.4,2.2-7.8,8.1-5.1,14.8l9.1,22l-8.3,3.4l-9.8-23.7c-2.5-5.9-7.5-7.6-12.1-5.7
		c-5.4,2.2-7.8,8.1-5.1,14.8l9.1,22l-8.3,3.5L2202,96.5z"/>
	<path d="M2325.1,84.5c-0.5,1.9-1.4,3.7-2.6,5.5c-2.1,3.1-5.4,6.6-11.4,9.1c-11.6,4.8-24.6-0.6-29.4-12.2
		c-4.8-11.6,0.6-24.6,11.8-29.2c11.3-4.7,23,0.2,27.6,11.5c0.5,1.2,0.8,2.3,1,3.1l0.3,1.2l-30.8,12.7c3.1,5,9.9,7.6,16.6,4.8
		c3.6-1.5,5.9-4,7.4-6.2c0.9-1.2,1.6-2.6,2-4L2325.1,84.5z M2311.2,69.8c-3.5-4.9-8.7-7.1-14.6-4.7c-6.3,2.6-8.4,7.9-7.9,14
		L2311.2,69.8z"/>
	<path d="M2331.7,52.1l-7.5,3.1l-3.3-7.9l4.6-1.9c2.6-1.1,3.2-2.8,1.9-6.1l-3.6-8.7l7.5-3.1l5.5,13.3l9.2-3.8l3.3,7.9l-9.2,3.8
		l7.7,18.7c1.7,4.2,4.5,5.5,8.4,3.8c1.2-0.5,2.2-1.2,3-1.9l1.1-1.2l3.3,7.9l-1.5,1.4c-0.9,0.8-2.3,1.6-4.3,2.4
		c-8,3.3-14.4,0.6-18-8.2L2331.7,52.1z"/>
	<path d="M2371.3,68c-1.2-2.9,0.3-6.4,3.2-7.6c2.9-1.2,6.4,0.3,7.6,3.2c1.2,2.9-0.3,6.4-3.2,7.6C2376,72.4,2372.5,70.9,2371.3,68z"
		/>
</g>
</svg>
