<?xml version="1.0" encoding="utf-8"?>
<!-- Generator: Adobe Illustrator 24.0.1, SVG Export Plug-In . SVG Version: 6.00 Build 0)  -->
<svg version="1.2" baseProfile="tiny" id="Layer_1" xmlns="http://www.w3.org/2000/svg" xmlns:xlink="http://www.w3.org/1999/xlink"
	 x="0px" y="0px" viewBox="0 0 107.7 107.7" xml:space="preserve">
<g>
	<path d="M33.7,3.4c0,1.9,1.5,3.4,3.4,3.4c1.9,0,3.4-1.5,3.4-3.4C40.4,1.5,38.9,0,37,0h0C35.2,0,33.7,1.5,33.7,3.4z"/>
	<path d="M37,40.4c1.9,0,3.4-1.5,3.4-3.4c0-1.9-1.5-3.4-3.4-3.4c-1.9,0-3.4,1.5-3.4,3.4C33.7,38.9,35.2,40.4,37,40.4z"/>
	<path d="M67.3,3.4c0,1.9,1.5,3.4,3.4,3.4c1.9,0,3.4-1.5,3.4-3.4C74,1.5,72.5,0,70.7,0h0C68.8,0,67.3,1.5,67.3,3.4z"/>
	<path d="M101,3.4c0,1.9,1.5,3.4,3.4,3.4c1.9,0,3.4-1.5,3.4-3.4c0-1.9-1.5-3.4-3.4-3.4h0C102.5,0,101,1.5,101,3.4z"/>
	<path d="M70.7,40.4c1.9,0,3.4-1.5,3.4-3.4c0-1.9-1.5-3.4-3.4-3.4c-1.9,0-3.4,1.5-3.4,3.4C67.3,38.9,68.8,40.4,70.7,40.4z"/>
	<path d="M104.3,40.4c1.9,0,3.4-1.5,3.4-3.4c0-1.9-1.5-3.4-3.4-3.4c-1.9,0-3.4,1.5-3.4,3.4C101,38.9,102.5,40.4,104.3,40.4z"/>
	<path d="M37,74c1.9,0,3.4-1.5,3.4-3.4c0-1.9-1.5-3.4-3.4-3.4c-1.9,0-3.4,1.5-3.4,3.4C33.7,72.5,35.2,74,37,74z"/>
	<path d="M3.4,6.7c1.9,0,3.4-1.5,3.4-3.4C6.7,1.5,5.2,0,3.4,0h0C1.5,0,0,1.5,0,3.4C0,5.2,1.5,6.7,3.4,6.7z"/>
	<path d="M3.4,40.4c1.9,0,3.4-1.5,3.4-3.4c0-1.9-1.5-3.4-3.4-3.4S0,35.2,0,37C0,38.9,1.5,40.4,3.4,40.4z"/>
	<path d="M3.4,74c1.9,0,3.4-1.5,3.4-3.4c0-1.9-1.5-3.4-3.4-3.4S0,68.8,0,70.7C0,72.5,1.5,74,3.4,74z"/>
	<circle cx="3.4" cy="104.3" r="3.4"/>
	<circle cx="37" cy="104.3" r="3.4"/>
	<path d="M70.7,74c1.9,0,3.4-1.5,3.4-3.4c0-1.9-1.5-3.4-3.4-3.4c-1.9,0-3.4,1.5-3.4,3.4C67.3,72.5,68.8,74,70.7,74z"/>
	<path d="M104.3,74c1.9,0,3.4-1.5,3.4-3.4c0-1.9-1.5-3.4-3.4-3.4c-1.9,0-3.4,1.5-3.4,3.4C101,72.5,102.5,74,104.3,74z"/>
	<path d="M74,104.3c0-1.9-1.5-3.4-3.4-3.4c-1.9,0-3.4,1.5-3.4,3.4s1.5,3.4,3.4,3.4C72.5,107.7,74,106.2,74,104.3z"/>
	<circle cx="104.3" cy="104.3" r="3.4"/>
</g>
</svg>
