<?xml version="1.0" encoding="utf-8"?>
<!-- Generator: Adobe Illustrator 24.0.1, SVG Export Plug-In . SVG Version: 6.00 Build 0)  -->
<svg version="1.2" baseProfile="tiny" id="Layer_1" xmlns="http://www.w3.org/2000/svg" xmlns:xlink="http://www.w3.org/1999/xlink"
	 x="0px" y="0px" viewBox="0 0 407.3 354" xml:space="preserve">
<g>
	<path display="inline" fill="#010101" d="M299.3,88.2l-12.5,1.6l-98.3-5L70.5,86c-3.4,0-5.3,0.6-5.3,4v5.4c0,3.4,2.7,6.1,6.1,6.1
		h230.1c3.4,0,6.2-2.7,6.2-6.1v-5.4C307.6,86.5,302.7,88.2,299.3,88.2z M301.7,99.2H70.4c-0.9,0-3.6-1.1-3.6-1.9l-0.5-5.6
		c0-0.8,0.5-4.9,1.4-4.9L188,85.9l98.7,4.6l14.1-1.3c0.9,0,3.9,0,3.9,0.9l0.7,6.8C305.3,97.7,302.5,99.2,301.7,99.2z"/>
	<path display="inline" fill="#010101" d="M309.4,155.8h-20.2c-4,0-7.2-3.2-7.2-7.2V123c0-4,3.1-5.7,7.1-5.7l12.5,0
		c1.3,0,2.7-0.5,2.6,0.8c0,1.1-1.5-1.4-2.4,0.3l-13.2,0c-3.5,0-5,2-5,3.4l-0.5,29.3c0,1.4,5.2,3.3,6.6,3.3l20.2-0.4
		c1.3,0,1.9-1.8,1.9-0.5C311.7,154.8,310.7,155.8,309.4,155.8z"/>
	<path display="inline" fill="#010101" d="M264.4,118.4l-17.9,0.4c-3.6,0-4.2-1.1-4.2,2.4l0,28.6c0,3.5-0.7,5.1,2.9,5.1L263,155
		c3.6,0,5.5,0.6,5.5-2.9l0.5-29C269,119.5,268,118.4,264.4,118.4z M266.2,151.3c0,1-0.8,1.8-1.8,1.8h-18.3c-1,0-1.8-0.8-1.8-1.8
		v-29.1c0-1,0.8-1.8,1.8-1.8h18.3c1,0,1.8,0.8,1.8,1.8V151.3z"/>
	<path display="inline" fill="#010101" d="M218,253.2c-1.3,0-0.8-0.7-0.8-1.9L232,101.5c0-1.3,0-2.4,1.3-2.4c1.3,0,0.8,1.2,0.8,2.5
		l-15.3,149.6C218.8,252.5,219.3,253.2,218,253.2z"/>
	<path display="inline" fill="#010101" d="M261.9,236.1c-1.3,0-1.2-0.8-1.2-2.1l15.5-132.2c0-1.3,0.1-1.7,1.4-1.7
		c1.3,0,1.3,0.3,1.3,1.6l-15.6,132C263.2,235,263.2,236.1,261.9,236.1z"/>
	<path display="inline" fill="#010101" d="M323.4,253c-1.3,0-2.3-1-2.3-2.3c0-17-13.8-30.8-30.8-30.8c-17,0-30.8,13.8-30.8,30.8
		c0,1.3-1,2.3-2.3,2.3c-1.3,0,0.3-1,0.3-2.3c0-19.5,14.1-33.6,33.6-33.6s32.8,14.4,32.8,34C323.9,252.3,324.6,253,323.4,253z"/>
	<path display="inline" fill="#010101" d="M323.4,253.2h-9.3c-1.3,0-2.3-1-2.3-2.3c0-11.9-9.7-21.6-21.6-21.6
		c-11.9,0-21.6,9.7-21.6,21.6c0,1.3-1,2.3-2.3,2.3h-9.3c-1.3,0-2.6-1.8-2.6-0.5c0,0.3,2-1,3.3-1l6.2-0.1
		c1.2-13.4,12.6-26.9,26.2-26.9c13.6,0,25.5,13.5,26.6,26.8l3.9-0.7c1.3,0,4.9-1.3,4.9,0C325.7,252.2,324.6,253.2,323.4,253.2z"/>
	<path display="inline" fill="#010101" d="M323.4,253.2h-9.3c-1.3,0-2.3-1-2.3-2.3c0-11.9-9.7-21.6-21.6-21.6
		c-11.9,0-21.6,9.7-21.6,21.6c0,1.3-1,2.3-2.3,2.3h-9.3c-1.3,0-2.3,0.4-2.3-0.8c0-1.3,0.9-0.1,2.1-0.1l7-1.3
		c1.2-13.4,12.7-26.2,26.4-26.2c13.6,0,25.5,13.5,26.6,26.8l3.6-0.3c1.3,0,4.9-0.8,4.9,0.5C325.3,253,324.6,253.2,323.4,253.2z"/>
	<path display="inline" fill="#010101" d="M290.3,232.6c-10.1,0-18.3,8.2-18.3,18.3c0,5.8,2.7,11,7,14.4c1.9,1.5,4.1,2.6,6.5,3.3
		c1.6,0.4,3.2,0.7,4.9,0.7c1.7,0,3.3-0.2,4.8-0.7c2.4-0.7,4.6-1.8,6.5-3.3c4.2-3.4,7-8.5,7-14.4
		C308.6,240.8,300.4,232.6,290.3,232.6z M290.3,264.6c-7.6,0-13.7-6.2-13.7-13.7c0-7.6,6.2-13.7,13.7-13.7c7.6,0,13.7,6.2,13.7,13.7
		C304,258.5,297.8,264.6,290.3,264.6z"/>
	<path display="inline" fill="#010101" d="M113.7,232.6c-10.1,0-18.3,8.2-18.3,18.3c0,5.8,2.7,11,7,14.4c1.6,1.3,3.4,2.3,5.4,3
		c1.9,0.7,3.9,1,6,1c2.1,0,4.1-0.4,5.9-1c2-0.7,3.8-1.7,5.4-3c4.2-3.4,7-8.5,7-14.4C132,240.8,123.8,232.6,113.7,232.6z
		 M113.7,264.6c-7.6,0-13.7-6.2-13.7-13.7c0-7.6,6.2-13.7,13.7-13.7c7.6,0,13.7,6.2,13.7,13.7C127.4,258.5,121.2,264.6,113.7,264.6z
		"/>
	<path display="inline" fill="#010101" d="M333.1,253.2h-9.7c-1.3,0-2.3-1-2.3-2.3c0-17-13.8-30.8-30.8-30.8
		c-17,0-30.8,13.8-30.8,30.8c0,1.3-1,2.3-2.3,2.3h-20.5h-89.8c-1.3,0-2.1,0-2.1-1.3c0-1.3,1.1-0.6,2.4-0.6l89.8,1l21-0.6
		c1.2-18.5,13.5-33.1,32.3-33.1c18.8,0,32.6,13.8,33.8,32.2l9.6-0.5c4.3,0,9.3-5.4,9.3-9.7l14.8-38.4c0-14.7-6.1-31.7-24.1-35
		l-15.5-6.1c-4.8-1.8-7.9-5.2-9-10.2l-10.8-49.8H74.9L60.6,237.2c0,6.2,7.3,13.4,13.5,13.4l7.9-1.4c1.3,0,0.8,0.5,0.8,1.8
		c0,1.3-1,2.3-2.3,2.3H74c-8.8,0-15.9-7.1-15.9-15.9l15.2-135.5c0-1.3,0.8-2.4,2.1-2.4l220.9-0.1c1.1,0,4-0.5,4.2,0.5l10.7,51
		c0.7,3.4,3.1,6.2,6.4,7.4l17.1,6.3c15.6,5.7,26.1,20.8,26.1,37.4l-15.3,38.9C345.5,247.7,339.9,253.2,333.1,253.2z"/>
	<path display="inline" fill="#010101" d="M323.4,253.2c-1.3,0-2.3-1-2.3-2.3c0-17-13.8-30.8-30.8-30.8c-17,0-30.8,13.8-30.8,30.8
		c0,1.3-1,2.3-2.3,2.3c-1.3,0-0.3-0.5-0.3-1.8c0-19.5,14.8-34.2,34.3-34.2s31.9,14.1,31.9,33.6C323,252.2,324.6,253.2,323.4,253.2z"
		/>
	<path display="inline" fill="#010101" d="M146.8,253.2h-9.3c-1.3,0-2.3-1-2.3-2.3c0-11.9-9.7-21.6-21.6-21.6
		c-11.9,0-21.6,9.7-21.6,21.6c0,1.3-1,2.3-2.3,2.3h-9.3c-1.3,0-1.4-0.2-1.4-1.4c0-1.3,0.5-1.8,1.8-1.8l8.3,0.2
		c1.2-13.4,11.1-23,24.7-23c13.7,0,23.2,10.7,24.3,24.1l8.7-0.6c1.3,0,2.6,0,2.6,1.3C149.7,253.1,148.1,253.2,146.8,253.2z"/>
	<path display="inline" fill="#010101" d="M146.8,253.2c-1.3,0-0.9-1-0.9-2.3c0-17-15.2-31.6-32.2-31.6c-17,0-30.8,14.7-30.8,31.6
		c0,1.3-1,2.3-2.3,2.3c-1.3,0,0.4-1,0.4-2.3c0-19.5,13.2-33.6,32.7-33.6S148,231,148,250.5C148,251.8,148.1,253.2,146.8,253.2z"/>
	<path display="inline" fill="#010101" d="M251.1,182h-9.2c-1.3,0-2.3-1-2.3-2.3l1.1-7.8c0-1.3-0.1-2.4,1.2-2.4
		c1.3,0,1.2,1.2,1.2,2.5l-1.1,7.6l10.1-0.3c1.3,0,1.6,0.4,1.6,1.7C253.7,182.3,252.4,182,251.1,182z"/>
	<path display="inline" fill="#010101" d="M358,198.1h-14.4c-4.7,0-8.4-3.8-8.4-8.4c0-4.6,3.8-8.4,8.4-8.4h10.1c1.3,0,2.3,1,2.3,2.3
		c0,1.3-1,2.3-2.3,2.3h-10.1c-2.1,0-3.8,1.7-3.8,3.8c0,2.1,1.7,3.8,3.8,3.8H358c1.3,0,2.3,1,2.3,2.3
		C360.3,197.1,359.2,198.1,358,198.1z"/>
	<path display="inline" fill="#010101" d="M358.5,205.5h-5.3c-3.1,0-20.8,2.5-20.8,5.5v8.9c0,3.1,2.5,5.5,5.5,5.5h5.3
		c1.3,0,2.3-1,2.3-2.3l15.3-15.4C360.7,206.6,359.7,205.5,358.5,205.5z M340.9,220.9h-3c-0.5,0-0.9-0.4-0.9-0.9v-8.9
		c0-0.5,0.4-0.9,0.9-0.9h3V220.9z"/>
	<path display="inline" fill="#010101" d="M75.7,201.4c-0.4-0.5-0.9-0.8-1.6-0.8l-0.7,0l-3.5,0.2c-5.5,0-23.4,4.3-23.4,9.9v8.6
		c0,5.5,4.5,10.1,10.1,10.1h1.9c1.3,0,1.7,0.9,1.7-0.3l0.3-10.2L76.2,203C76.2,202.4,76,201.9,75.7,201.4z M58.1,224.7h-1.5
		c-3,0-5.5-2.5-5.5-5.5v-8.6c0-3,17.7-5.5,20.8-5.5h1.5L58.1,224.7z"/>
	<path display="inline" fill="none" stroke="#010101" stroke-miterlimit="10" d="M220.4,135c-0.4-0.4-0.9-0.6-1.5-0.6H89.4
		c-0.6,0-1.1,0.2-1.5,0.6c0,0,0.1-0.1,0.1-0.1l20.2-16.5c0.4-0.3,0.9-0.5,1.5-0.5h89c0.5,0,1.1,0.2,1.5,0.5L220.4,135
		C220.3,135,220.4,135,220.4,135z"/>
	<path display="inline" fill="none" stroke="#010101" stroke-miterlimit="10" d="M221.1,136.7c0,6.4-4.7,11.8-10.8,12.9
		c-0.8,0.1-1.5,0.2-2.3,0.2c-0.8,0-1.6-0.1-2.3-0.2c-3.5-0.6-6.5-2.6-8.5-5.5c-1.9,2.8-5,4.9-8.5,5.5c-0.8,0.1-1.5,0.2-2.3,0.2
		c-0.8,0-1.5-0.1-2.3-0.2c-3.5-0.6-6.6-2.7-8.5-5.5c-2.3,3.4-6.3,5.7-10.8,5.7c-4.5,0-8.4-2.2-10.8-5.7c-2.4,3.4-6.3,5.7-10.8,5.7
		c-4.5,0-8.4-2.3-10.8-5.7c-2.3,3.4-6.3,5.7-10.8,5.7s-8.4-2.2-10.8-5.7c-1.9,2.8-5,4.9-8.5,5.5h-4.6c-6.1-1.1-10.8-6.5-10.8-12.9
		c0-0.5,0.1-0.9,0.4-1.3c0.1-0.1,0.1-0.2,0.2-0.2c0.1-0.1,0.1-0.1,0.2-0.2c0.4-0.4,0.9-0.6,1.5-0.6h129.4c0.6,0,1.1,0.2,1.5,0.6
		c0.1,0,0.1,0.1,0.2,0.2c0.1,0.1,0.1,0.2,0.2,0.2c0.1,0.2,0.2,0.3,0.2,0.5c0.1,0.1,0.1,0.3,0.1,0.4
		C221.1,136.4,221.1,136.6,221.1,136.7z"/>
	<path display="inline" fill="#010101" d="M101.1,151.4l-0.3,34.2c0,1.3,0.1,1.3-1.2,1.3s-1-0.5-1-1.8l0.3-34.4c0-1.3,0-1.4,1.3-1.4
		C101.5,149.3,101.1,150.1,101.1,151.4z"/>
	<path display="inline" fill="#010101" d="M209.6,149.7l-0.2,37.3c0,1.3,0,1.5-1.2,1.5c-1.3,0-1.1-0.2-1.1-1.5l0-37.2
		c0.8,0.1,0.2,0,1,0C208.8,149.8,208.8,149.9,209.6,149.7z"/>
	<path display="inline" fill="#010101" d="M218.5,200.1c-1.3,0-1,0.1-1-1.2l-0.4-10.4l-121.9-1.2l-0.7,11.3c0,1.3,0.3,1.6-1,1.6
		c-1.3,0-1.2-0.4-1.2-1.7v-11.6c0-1.3,1-2.3,2.3-2.3l122.6,2.1c1.3,0,1.8,0.3,1.8,1.5l0.5,10.3C219.4,199.7,219.7,200.1,218.5,200.1
		z"/>
	<path display="inline" fill="#010101" d="M198.2,152.7h-23.4c-1.3,0-2.3,1-2.3,2.3v24.3c0,1.3,1,2.3,2.3,2.3h23.4
		c1.3,0,2.3-1,2.3-2.3V155C200.5,153.7,199.4,152.7,198.2,152.7z M198.4,180h-24l-0.2-25.4h24.7L198.4,180z"/>
	<path display="inline" fill="#010101" d="M188.7,149v3.9c-0.8,1.9-1.7,1.2-3,1.2c-1.3,0-1.6-0.1-1.6-1.4v-3.1
		c0.8,0.1,1.5,0.3,2.3,0.2C187.1,149.8,188.1,150.9,188.7,149z"/>
	<path display="inline" fill="#010101" d="M189.8,164.9h-6.7c-1.3,0-2.3-1-2.3-2.3c0-1.3,1-2.3,2.3-2.3h6.7c1.3,0,2.3,1,2.3,2.3
		C192.1,163.8,191.1,164.9,189.8,164.9z"/>
	<path display="inline" fill="#010101" d="M189.8,172.5h-6.7c-1.3,0-2.3-1-2.3-2.3c0-1.3,1-2.3,2.3-2.3h6.7c1.3,0,2.3,1,2.3,2.3
		C192.1,171.5,191.1,172.5,189.8,172.5z"/>
	<path display="inline" fill="#010101" d="M123.6,173.4c-0.4-0.5-1.1-0.8-1.7-0.8h-11.7c-0.7,0-1.3,0.3-1.7,0.8
		c-0.4,0.5-0.6,1.2-0.5,1.8l1.3,8.4c0.1,0.4,0.2,0.8,0.5,1.2c0.5,0.7,1.2,1.3,2,1.3h8.2c1,0,2.2-0.3,2.6-1.1
		c0.1-0.2,0.2-0.3,0.2-0.5l1.5-9.3C124.2,174.6,124,173.9,123.6,173.4z M119.8,184.6l-7.9-0.2l-1.8-10.5l12.5,0.3L119.8,184.6z"/>
	<path display="inline" fill="#010101" d="M141.6,174c-0.4-0.5-1.1-0.8-1.7-0.8h-11.7c-0.7,0-1.3,0.3-1.7,0.8
		c-0.4,0.5-0.6,1.2-0.5,1.9l1.3,8.3c0,0.3,0.1,0.6,0.3,0.8c0.5,0.9,1.3,1.7,2.2,1.7h8.2c1.1,0,2.5-0.4,2.8-1.4
		c0-0.1,0.1-0.1,0.1-0.1l1.4-9.3C142.2,175.2,142,174.6,141.6,174z M137.8,185.3L137.8,185.3l-6.4-0.1l-1.5,0l-1.8-10.4l12.5,0.3
		L137.8,185.3z"/>
	<path display="inline" fill="#010101" d="M160.1,236.1h-6.9c-1.3,0-2.3-1-2.3-2.3c0-1.3,1-2.3,2.3-2.3h6.9c1.3,0,2.3,1,2.3,2.3
		C162.4,235.1,161.4,236.1,160.1,236.1z"/>
	<path display="inline" fill="#010101" d="M187.7,236.1h-13.8c-1.3,0-2.3-1-2.3-2.3c0-1.3,1-2.3,2.3-2.3h13.8c1.3,0,2.3,1,2.3,2.3
		C190,235.1,189,236.1,187.7,236.1z"/>
	<path display="inline" fill="#010101" d="M208.4,236.1h-6.9c-1.3,0-2.3-1-2.3-2.3c0-1.3,1-2.3,2.3-2.3h6.9c1.3,0,2.3,1,2.3,2.3
		C210.7,235.1,209.7,236.1,208.4,236.1z"/>
	<path display="inline" fill="#010101" d="M340.1,268.7l-254.3-0.5c-1.3,0-2.3,0.7-2.3-0.6c0-1.3,1-2.3,2.3-2.3h254.4
		c1.3,0,2.3,1,2.3,2.3C342.5,268.8,341.3,268.7,340.1,268.7z"/>
	<path display="inline" fill="#010101" d="M54.6,268.7h-5.8c-1.3,0-2.3-1-2.3-2.3c0-1.3,1-2.3,2.3-2.3h5.8c1.3,0,2.3,1,2.3,2.3
		C56.9,267.7,55.8,268.7,54.6,268.7z"/>
	<path display="inline" fill="#010101" d="M73.2,268.7h-9.3c-1.3,0-2.3-1-2.3-2.3c0-1.3,1-2.3,2.3-2.3h9.3c1.3,0,2.3,1,2.3,2.3
		C75.5,267.7,74.5,268.7,73.2,268.7z"/>
</g>
</svg>
