<?xml version="1.0" encoding="utf-8"?>
<!-- Generator: Adobe Illustrator 24.0.1, SVG Export Plug-In . SVG Version: 6.00 Build 0)  -->
<svg version="1.2" baseProfile="tiny" id="Layer_1" xmlns="http://www.w3.org/2000/svg" xmlns:xlink="http://www.w3.org/1999/xlink"
	 x="0px" y="0px" viewBox="0 0 407.3 354" xml:space="preserve">
<g>
	<path display="inline" fill="none" stroke="#010101" stroke-miterlimit="10" d="M153.7,193.6l-18.4,3.7l1.2-20.8
		c0-1.7-1.4-3.1-3.1-3.1h-22c-1.7,0-3.1,1.4-3.1,3.1l1.5,16.2l-18.6,1c-1.7,0-3.1,1.4-3.1,3.1v22c0,1.7,1.4,3.1,3.1,3.1l20.1-1.6
		l-3,18.7c0,1.7,1.4,3.1,3.1,3.1h22c1.7,0,3.1-1.4,3.1-3.1l-1.7-15.7l18.8-1.4c1.7,0,3.1-1.4,3.1-3.1v-22
		C156.8,195,155.4,193.6,153.7,193.6z"/>
	<path display="inline" fill="none" stroke="#010101" stroke-miterlimit="10" d="M278.9,198.3c6.9,0,12.4-5.6,12.4-12.4
		c0-6.9-5.6-13.9-12.4-13.9c-6.9,0-12.4,7.1-12.4,13.9C266.4,192.7,272,198.3,278.9,198.3z"/>
	<path display="inline" fill="none" stroke="#010101" stroke-miterlimit="10" d="M278.9,217c-6.9,0-12.4,5.6-12.4,12.4
		c0,6.9,5.6,12.4,12.4,12.4c6.9,0,13.9-5.6,13.9-12.4C292.7,222.6,285.7,217,278.9,217z"/>
	<path display="inline" fill="none" stroke="#010101" stroke-miterlimit="10" d="M300.7,195.2c-6.9,0-12.4,5.6-12.4,12.4
		c0,6.9,5.6,12.4,12.4,12.4c6.9,0,14-5.6,14-12.4C314.7,200.8,307.5,195.2,300.7,195.2z"/>
	<path display="inline" fill="none" stroke="#010101" stroke-miterlimit="10" d="M257.1,195.2c-6.9,0-12.4,5.6-12.4,12.4
		c0,6.9,5.6,12.4,12.4,12.4s14.9-5.6,14.9-12.4C271.9,200.8,263.9,195.2,257.1,195.2z"/>
	<path display="inline" fill="none" stroke="#010101" stroke-width="2" stroke-miterlimit="10" d="M278.9,138.4l-72.8-2.3
		c0.9-6-0.7-9.9,1.8-15.6c3.1-7.1,7.9-12.4,13.6-15c4.9-2.3,10.6-2.7,17.4-2.6c10.7,0.1,21.4,1.1,31.9,2.9l4.9,0.9
		c9.7,1.8,19.7,3.7,29.7,1.6c14.6-3,28.5-18.4,38.6-29.7l3.2-3.6c1.1-1.3,1-3.2-0.2-4.3c-1.2-1.1-3.2-1.1-4.3,0.2l-3.2,3.6
		c-9.6,10.6-22.7,25.2-35.3,27.8c-8.8,1.8-18.2,0.1-27.3-1.6l-5-0.9c-10.8-1.9-21.9-2.9-32.9-3c-6.7-0.1-13.8,0.3-20.1,3.2
		c-7,3.2-12.9,9.7-16.6,18.1c-2.9,6.6-6.9,13.6-7.9,20.3h-27h-44.8c-21.5,0-40.7,9.8-53.4,25.2c-9.9,12-12.3,27.3-12.3,44
		c0,17.5,1.4,24.5,8.1,38.4c3.7,7.7,10,18.7,16.6,25c7.5,7.2,15.1,13.1,28.7,13c12.5-0.1,23.8-6.1,34.1-15.9
		c6.5-6.2,12.6-13.9,18.4-22.6l32.6-5.7l33.9-1c7.8,26,29.4,40,49.6,38c23.2-2.4,44.2-13.7,56.8-31.1c7.8-10.7,14.7-23.6,14.7-38.1
		c0-18-11.1-33.8-22.4-46.1C315.3,147.7,299,138.4,278.9,138.4z"/>
	<path display="inline" fill="none" stroke="#010101" stroke-miterlimit="10" d="M220.6,182.8h-41.9c-1.7,0-3.1,1.4-3.1,3.1
		c0,1.7,1.4,3.1,3.1,3.1h41.9c1.7,0,3.1-1.4,3.1-3.1C223.7,184.1,222.3,182.8,220.6,182.8z"/>
	<path display="inline" fill="none" stroke="#010101" stroke-miterlimit="10" d="M220.6,212.7h-41.9c-1.7,0-3.1,1.4-3.1,3.1
		c0,1.7,1.4,3.1,3.1,3.1h41.9c1.7,0,3.1-1.4,3.1-3.1C223.7,214.1,222.3,212.7,220.6,212.7z"/>
</g>
</svg>