<?xml version="1.0" encoding="utf-8"?>
<!-- Generator: Adobe Illustrator 24.0.1, SVG Export Plug-In . SVG Version: 6.00 Build 0)  -->
<svg version="1.2" baseProfile="tiny" id="Layer_1" xmlns="http://www.w3.org/2000/svg" xmlns:xlink="http://www.w3.org/1999/xlink"
	 x="0px" y="0px" viewBox="0 0 685.1 623.3" xml:space="preserve">
<g>
	<path fill="#40E9AF" d="M303.1,66.6c-28.4,14.9-55.8,31.4-83.5,47.2c-26.7,15.2-53.9,29.8-79.1,46.7
		c-22.6,15.2-44.1,32.9-57.8,54.9c-13.7,21.8-17.8,46.2-13.5,70.7c4.3,25.1,16.3,48.8,29.3,71.3c26,44.9,55.6,90.4,98.5,125.2
		c6.4,5.2,13.2,10.1,20.2,14.8c26.6,24.5,62.4,41.5,100.4,49.1c54.9,11.1,112.8,2.1,163-18.5c52.2-21.5,101.3-56.5,125.5-102.6
		c25.3-48.1,17.9-102.6-0.5-151.5c-18.8-50.1-47.6-97.6-83.4-140.2c-33.1-39.4-78.3-86-139.4-88.8C353.8,43.6,327.1,54,303.1,66.6z"
		/>
	<ellipse fill="#40E9AF" stroke="#000000" stroke-width="2" stroke-miterlimit="10" cx="351.1" cy="418.4" rx="274.2" ry="9"/>
	<g>
		<rect x="116.8" y="332.3" fill="#40E9AF" stroke="#000000" stroke-width="2" stroke-miterlimit="10" width="62.9" height="82.6"/>
		<rect x="94.4" y="332.3" fill="#40E9AF" stroke="#000000" stroke-width="2" stroke-miterlimit="10" width="22.4" height="82.6"/>
		<g>
			<g>
				<path fill="#40E9AF" stroke="#000000" stroke-width="2" stroke-miterlimit="10" d="M177.1,359h-57.8v-24.6h57.8V359z
					 M119.9,358.5h56.6v-23.6h-56.6V358.5z"/>
			</g>
			<g>
				<path fill="#40E9AF" stroke="#000000" stroke-width="2" stroke-miterlimit="10" d="M177.1,385.9h-57.8v-24.6h57.8V385.9z
					 M119.9,385.3h56.6v-23.6h-56.6V385.3z"/>
			</g>
			<g>
				<path fill="#40E9AF" stroke="#000000" stroke-width="2" stroke-miterlimit="10" d="M177.1,412.7h-57.8v-24.6h57.8V412.7z
					 M119.9,412.2h56.6v-23.6h-56.6V412.2z"/>
			</g>
		</g>
		<ellipse fill="#40E9AF" stroke="#000000" stroke-width="2" stroke-miterlimit="10" cx="148.3" cy="340.8" rx="3.5" ry="3.2"/>
		<ellipse fill="#40E9AF" stroke="#000000" stroke-width="2" stroke-miterlimit="10" cx="148.3" cy="367.3" rx="3.5" ry="3.2"/>
		<ellipse fill="#40E9AF" stroke="#000000" stroke-width="2" stroke-miterlimit="10" cx="148.3" cy="393.8" rx="3.5" ry="3.2"/>
	</g>
	<g>
		
			<ellipse fill-rule="evenodd" fill="none" stroke="#000000" stroke-width="2" stroke-miterlimit="10" cx="184.4" cy="202.1" rx="45.3" ry="40.6"/>
		
			<ellipse fill-rule="evenodd" fill="none" stroke="#000000" stroke-width="2" stroke-miterlimit="10" cx="184.4" cy="202.1" rx="43.4" ry="38.9"/>
		<g>
			<polygon fill-rule="evenodd" fill="none" stroke="#000000" stroke-width="2" stroke-miterlimit="10" points="190.8,176.4 
				185.4,201.9 183.9,201.6 189.3,176.2 			"/>
			<polygon fill-rule="evenodd" fill="none" stroke="#000000" stroke-width="2" stroke-miterlimit="10" points="192.9,176.8 
				187.2,175.8 191.7,168.8 			"/>
		</g>
		<g>
			<polygon fill-rule="evenodd" fill="none" stroke="#000000" stroke-width="2" stroke-miterlimit="10" points="172,223.1 
				185.3,201.6 183.5,200.7 170.2,222.2 			"/>
			<polygon fill-rule="evenodd" fill="none" stroke="#000000" stroke-width="2" stroke-miterlimit="10" points="174.6,224.4 
				167.6,220.9 165.5,231.8 			"/>
		</g>
		<g>
			
				<ellipse fill-rule="evenodd" fill="none" stroke="#000000" stroke-width="2" stroke-miterlimit="10" cx="223.2" cy="202.1" rx="1.6" ry="1.5"/>
			<path fill-rule="evenodd" fill="none" stroke="#000000" stroke-width="2" stroke-miterlimit="10" d="M147.1,202.1
				c0,0.8-0.7,1.5-1.6,1.5c-0.9,0-1.6-0.7-1.6-1.5c0-0.8,0.7-1.5,1.6-1.5C146.4,200.7,147.1,201.3,147.1,202.1z"/>
		</g>
		<g>
			<path fill-rule="evenodd" fill="none" stroke="#000000" stroke-width="2" stroke-miterlimit="10" d="M184.4,165.8
				c0.9,0,1.6,0.7,1.6,1.5c0,0.8-0.7,1.5-1.6,1.5s-1.6-0.7-1.6-1.5C182.7,166.5,183.5,165.8,184.4,165.8z"/>
			
				<ellipse fill-rule="evenodd" fill="none" stroke="#000000" stroke-width="2" stroke-miterlimit="10" cx="184.4" cy="237" rx="1.6" ry="1.5"/>
		</g>
		<g>
			<path fill-rule="evenodd" fill="none" stroke="#000000" stroke-width="2" stroke-miterlimit="10" d="M213,176.5
				c0.6,0.6,0.6,1.5,0,2.1c-0.6,0.6-1.7,0.6-2.3,0c-0.6-0.6-0.6-1.5,0-2.1C211.3,175.9,212.4,175.9,213,176.5z"/>
			
				<ellipse fill-rule="evenodd" fill="none" stroke="#000000" stroke-width="2" stroke-miterlimit="10" cx="156.9" cy="226.8" rx="1.6" ry="1.5"/>
		</g>
		<g>
			<path fill-rule="evenodd" fill="none" stroke="#000000" stroke-width="2" stroke-miterlimit="10" d="M155.8,176.5
				c-0.6,0.6-0.6,1.5,0,2.1c0.6,0.6,1.7,0.6,2.3,0c0.6-0.6,0.6-1.5,0-2.1C157.4,175.9,156.4,175.9,155.8,176.5z"/>
			<path fill-rule="evenodd" fill="none" stroke="#000000" stroke-width="2" stroke-miterlimit="10" d="M210.7,225.8
				c-0.6,0.6-0.6,1.5,0,2.1c0.6,0.6,1.7,0.6,2.3,0c0.6-0.6,0.6-1.5,0-2.1C212.4,225.2,211.3,225.2,210.7,225.8z"/>
		</g>
		
			<ellipse fill-rule="evenodd" fill="none" stroke="#000000" stroke-width="2" stroke-miterlimit="10" cx="184.4" cy="202.1" rx="5.9" ry="5.3"/>
	</g>
	<g>
		<path fill="none" stroke="#000000" stroke-width="3" stroke-miterlimit="10" d="M271.6,400h-74c-1.3,0-2.4-1-2.4-2.2V279.5
			c0-1.2,1.1-2.2,2.4-2.2h74c1.3,0,2.4,1,2.4,2.2v7.3v111.1C274,399.1,273,400,271.6,400z"/>
		<g>
			<rect x="195.6" y="397" fill="none" stroke="#000000" stroke-width="3" stroke-miterlimit="10" width="7.5" height="17.9"/>
			<rect x="203.1" y="397" fill="none" stroke="#000000" stroke-width="3" stroke-miterlimit="10" width="7.5" height="17.9"/>
		</g>
		<g>
			<rect x="509.1" y="397" fill="none" stroke="#000000" stroke-width="3" stroke-miterlimit="10" width="7.5" height="17.9"/>
			<rect x="516.6" y="397" fill="none" stroke="#000000" stroke-width="3" stroke-miterlimit="10" width="7.5" height="17.9"/>
		</g>
		<g>
			<rect x="260.4" y="397" fill="none" stroke="#000000" stroke-width="3" stroke-miterlimit="10" width="7.5" height="17.9"/>
			<rect x="267.9" y="397" fill="none" stroke="#000000" stroke-width="3" stroke-miterlimit="10" width="7.5" height="17.9"/>
		</g>
		<g>
			<rect x="579.9" y="397" fill="none" stroke="#000000" stroke-width="3" stroke-miterlimit="10" width="7.5" height="17.9"/>
			<rect x="587.4" y="397" fill="none" stroke="#000000" stroke-width="3" stroke-miterlimit="10" width="7.5" height="17.9"/>
		</g>
		<path fill="none" stroke="#000000" stroke-width="3" stroke-miterlimit="10" d="M600.5,400H450.9c-1.3,0-2.4-1-2.4-2.2v-27.3
			c0-1.2,1.1-2.2,2.4-2.2h149.6c1.3,0,2.4,1,2.4,2.2v14.6v12.7C602.9,399.1,601.8,400,600.5,400z"/>
		<path fill="none" stroke="#000000" stroke-width="3" stroke-miterlimit="10" d="M529.6,368.4H204.1v-88.9c0-1.2-1.1-2.2-2.4-2.2
			h-10.5c-1.3,0-2.4,1-2.4,2.2v118.4c0,1.2,1.1,2.2,2.4,2.2h7.7h2.9h327.9c1.3,0,2.4-1,2.4-2.2v-27.3
			C532,369.4,530.9,368.4,529.6,368.4z"/>
		<path fill="none" stroke="#000000" stroke-width="3" stroke-miterlimit="10" d="M511.5,346.4h80.9c1.3,0,2.4,1,2.4,2.2v8.9v8.9
			c0,1.2-1.1,2.2-2.4,2.2h-80.9c-1.3,0-2.4-1-2.4-2.2v-17.7C509.1,347.3,510.2,346.4,511.5,346.4z"/>
		<path fill="none" stroke="#000000" stroke-width="3" stroke-miterlimit="10" d="M519.4,346.4H206.5c-1.3,0-2.4,1-2.4,2.2v17.7
			c0,1.2,1.1,2.2,2.4,2.2h312.9c1.3,0,2.4-1,2.4-2.2v-8.9v-8.9C521.8,347.3,520.7,346.4,519.4,346.4z"/>
		<path fill="none" stroke="#000000" stroke-width="3" stroke-miterlimit="10" d="M282.7,346.4h-59.1c-1.3,0-2.3-0.9-2.3-2.1
			l-10.2-23.2c0-1.1,1-2.1,2.3-2.1h59.1c1.3,0,2.3,0.9,2.3,2.1l10.2,23.2C285,345.4,283.9,346.4,282.7,346.4z"/>
		
			<ellipse transform="matrix(0.8972 -0.4416 0.4416 0.8972 -124.58 130.3494)" fill="none" stroke="#000000" stroke-width="3" stroke-miterlimit="10" cx="217.7" cy="332.8" rx="5.1" ry="14.8"/>
	</g>
	<g>
		<g>
			<path fill="none" stroke="#000000" stroke-width="2" stroke-miterlimit="10" d="M107.6,264.9c-0.2,10.5,8.1,30.3,10.7,30.3
				c2.6,0,13.1-19.4,13.3-29.9c0.2-10.5-4.2-18.7-12.3-18.8C111.2,246.3,107.8,254.4,107.6,264.9z"/>
			<path fill="none" stroke="#000000" stroke-width="2" stroke-miterlimit="10" d="M88.7,294.1c5,8.8,22.7,20,24.8,19
				c2-0.9,1.2-21.1-3.8-29.9c-5-8.8-13-13.8-19.2-10.9C84.2,275.1,83.8,285.3,88.7,294.1z"/>
			<path fill="none" stroke="#000000" stroke-width="2" stroke-miterlimit="10" d="M127.9,287.7c-4.4,6.5-6.6,21.6-3.8,23.1
				c2.8,1.5,16.6-7.3,20.9-13.8c4.4-6.5,7.9-11.8-0.7-16.4C135.8,275.9,132.3,281.2,127.9,287.7z"/>
			<g>
				<path fill="none" stroke="#000000" stroke-width="2" stroke-miterlimit="10" d="M90.2,272.5c1.4,2.3,2.9,4.6,4.3,6.9
					c2.2,3.7,4.4,7.3,6.5,11c2.5,4.3,4.9,8.7,7.2,13.1c2.2,4.3,4.3,8.6,6.1,13c1.4,3.5,2.8,7.1,3.4,10.8c0.1,0.4,0.1,0.7,0.2,1.1
					c0,0.3-0.5,0.3-0.5,0c-0.4-3.6-1.7-7-3-10.4c-1.7-4.3-3.7-8.6-5.9-12.8c-2.2-4.4-4.6-8.8-7.1-13.1c-2.2-3.8-4.4-7.6-6.7-11.4
					c-1.5-2.5-3.1-5-4.6-7.5c-0.1-0.2-0.2-0.4-0.3-0.5C89.6,272.5,90,272.2,90.2,272.5L90.2,272.5z"/>
			</g>
			<g>
				<path fill="none" stroke="#000000" stroke-width="2" stroke-miterlimit="10" d="M119.6,246.4c0.1,3.5,0,6.9-0.1,10.4
					c-0.1,5.4-0.3,10.8-0.4,16.3c-0.2,6.2-0.3,12.4-0.4,18.7c-0.1,5.8-0.2,11.7-0.2,17.5c0,4.3,0,8.6,0.3,12.9c0,0.4,0,0.7,0.1,1.1
					c0,0.3-0.5,0.3-0.5,0c-0.3-4-0.3-8.1-0.3-12.2c0-5.7,0.1-11.5,0.2-17.2c0.1-6.2,0.3-12.5,0.4-18.7c0.1-5.6,0.3-11.2,0.4-16.7
					c0.1-3.8,0.2-7.5,0.2-11.3c0-0.3,0-0.5,0-0.8C119.1,246.2,119.6,246.1,119.6,246.4L119.6,246.4z"/>
			</g>
			<g>
				<path fill="none" stroke="#000000" stroke-width="2" stroke-miterlimit="10" d="M144.4,280.8c-1.6,2.4-3.4,4.8-5.1,7.2
					c-1.9,2.5-3.7,5-5.6,7.6c-1.9,2.6-3.7,5.2-5.4,8c-1.6,2.6-3.1,5.3-4.4,8.1c-1.2,2.7-2.2,5.5-2.8,8.3c-0.1,0.3-0.1,0.7-0.2,1
					c-0.1,0.3-0.6,0.2-0.5-0.1c0.5-2.8,1.4-5.6,2.6-8.3c1.2-2.8,2.7-5.6,4.3-8.2c1.6-2.7,3.4-5.3,5.3-7.9c1.8-2.6,3.7-5.1,5.6-7.7
					c1.8-2.4,3.6-4.8,5.3-7.3c0.2-0.3,0.4-0.6,0.6-0.9C144.1,280.3,144.6,280.5,144.4,280.8L144.4,280.8z"/>
			</g>
			<g>
				<polygon fill="none" stroke="#000000" stroke-width="2" stroke-miterlimit="10" points="112.1,332.3 124.2,332.3 127.1,316.9 
					109.1,316.9 				"/>
				<polygon fill="none" stroke="#000000" stroke-width="2" stroke-miterlimit="10" points="112.1,332.3 124.2,332.3 125.9,323.5 
					110.4,323.5 				"/>
			</g>
		</g>
		<g>
			<path fill-rule="evenodd" fill="none" stroke="#000000" stroke-width="2" stroke-miterlimit="10" d="M165.2,331.2h-2.3H162v-31.6
				h-1.4v31.6h-3.2c-0.3,0-0.6,0.2-0.6,0.5c0,0.3,0.3,0.5,0.6,0.5h7.8c0.3,0,0.6-0.2,0.6-0.5C165.8,331.4,165.6,331.2,165.2,331.2z"
				/>
			<polygon fill-rule="evenodd" fill="none" stroke="#000000" stroke-width="2" stroke-miterlimit="10" points="172.3,307 
				150.4,307 154.3,279.9 168.4,279.9 			"/>
		</g>
	</g>
	<path fill-rule="evenodd" fill="none" stroke="#000000" stroke-width="2" stroke-miterlimit="10" d="M408.1,318.6
		c0,0,0.2,6.8-1.4,17.6l-22-2c-2.7-0.8-5.4-2.6-7.5-2.7c-1.3,0-2.5-0.2-5,0.5c-2.5,0.7-4.7,0.9-4.3,1.9c0.4,1,5.9-0.7,5.6-0.4
		c-0.5,0.2-1.2,0.4-1.6,1c-0.2,0.3-2.6,3.8-1.3,4.4c0.7,0.4,1.3-1.7,2.3-2.9c0.2,0.1-0.4,1.3-0.3,2.2c0,0.3,0.2,1.6,1.2,1.7
		c0.2,0.3,1.7,0.8,1.8,0.3c0.1-0.3-0.7-1.4-0.9-1.7c0.3-0.2,0.3-0.6,0.4-1c0.5,0.1,1.2-0.4,1.6-0.6c0.9,0.1,1.6,0,1.6,0
		c1.1,0.8,4.5,1.3,7.7,1.1c4.7,1.7,19.6,7.2,24.2,6.7c5.6-0.6,9.6-25.6,9.6-25.6L408.1,318.6z"/>
	<path fill-rule="evenodd" fill="none" stroke="#000000" stroke-width="2" stroke-miterlimit="10" d="M486,300.3
		c3.6-1.6,8.6,8.9,8.6,8.9l-7.9,3.2C486.2,310.7,482.4,301.9,486,300.3z"/>
	<path fill-rule="evenodd" fill="none" stroke="#000000" stroke-width="2" stroke-miterlimit="10" d="M520.3,297.3
		c4,0.5,0.7,11.5,0.7,11.5l-8.5-1.5C513.2,305.8,516.4,296.9,520.3,297.3z"/>
	<path fill-rule="evenodd" fill="none" stroke="#000000" stroke-width="2" stroke-miterlimit="10" d="M509.4,329.4
		c-2.8-4.9-9.7-14.2-14.8-20.9l-8.1,3.2c1.8,9.2,3.7,19.3,5.6,25.4C495.3,347.5,514.3,337.9,509.4,329.4z"/>
	<path fill-rule="evenodd" fill="none" stroke="#000000" stroke-width="2" stroke-miterlimit="10" d="M446,326
		c6.3,12.6,4,20.3,4,20.3s14-0.1,14.5-0.1c5.5-0.1,36.8,0.8,45.6,0.3c7.6-0.4,11-37.7,11-37.7l-8.5-1.5l-15.7,22.7
		c0,0-13.9-4.8-24-7.1C463.4,320.6,455.1,319.9,446,326z"/>
	<path fill-rule="evenodd" fill="none" stroke="#000000" stroke-width="2" stroke-miterlimit="10" d="M451.4,322.4
		c-14.3,0.3-18.4,1.2-26-7c-4.1-5.1-9.6-5.8-13.1-5.8c-3.5,0-7.4,1.6-9,5.1c-3,5.8-2.1,13.7,0.4,19c4.7,7.8,13.1,12.6,20.4,12.6
		c7.4,0,27,0,27,0C453.5,343.3,456.4,326,451.4,322.4z"/>
	<path fill="none" stroke="#000000" stroke-width="2" stroke-miterlimit="10" d="M385,304c-0.7,0.3-1.4,0-1.7-0.6
		c-0.2-0.4,0.5-2.3,1.1-3.7c0.2-0.3,0.5-1.1-1.6-2.8c-0.3-0.2-2.1-3.7-0.9-6.5s4.4-6.1,10.6-7c9.9-1,16.4,8,14.1,15.2
		c-0.5,1.9,4.5,8.5,9.6,11.3c2.2,1.7-14.8,12.8-14.6,10.7c0.3-4.3,1.5-6.6,0.8-7.5c-2.2-2.9-4.3-6.1-6.4-5.6
		c-1.6,0.8-8.6,5.1-8.3,0.5c0-0.3-0.6-0.1-0.6-0.1l-2-3C385.1,304.9,385.1,304,385,304z"/>
	<path fill-rule="evenodd" fill="none" stroke="#000000" stroke-width="2" stroke-miterlimit="10" d="M397.9,297.6
		c0.8-4-1.7-5.2-3.2-4.7c-1.7,0.6-0.9,3.4-0.9,3.4c-1.1-1.7-1.2-2.5-2.8-3.6s-9.4-1.6-9.4-1.7c-0.1-2.3,0.4-4.8,4.2-7.5
		c3.8-2.6,7.6-3.5,11.3-3.3c1.6,0.1,5.3,0.5,7.3,3.2c5.5,8.4,5.5,13.6,2.9,17.1C404.7,301.7,400.5,300.5,397.9,297.6z"/>
	<path fill="none" stroke="#000000" stroke-width="2" stroke-miterlimit="10" d="M399.8,275.9c3-1.2,5.2-1.3,7.9,3.1
		c0.1,0.2,0.3,0.5,0.4,0.7c0.2,0.2,0.5,0.4,0.7,0.7c0.4,0.5,0.8,1.1,1,1.7c0.2,0.6,0.4,1.3,0.4,1.9c0,0.6,0,1.3-0.2,1.9
		c-0.1,0.3-0.2,0.6-0.3,0.9c-0.1,0.3-0.2,0.6-0.4,0.9c-0.3,0.6-0.6,1.1-0.9,1.7c0.2-0.3,0.3-0.6,0.4-0.8c0.1-0.3,0.3-0.6,0.4-0.9
		c0.1-0.3,0.2-0.6,0.3-0.9c0.1-0.3,0.1-0.6,0.2-0.9c0.1-0.6,0.1-1.2,0-1.8c0-0.3-0.1-0.7-0.2-1c0.2,1.2-0.1,1.7-0.5,2.4
		c-1.7,3.3-5.1,4.8-7.2,4.2c-3.1-0.9-3.4-2.4-4.7-5.1C395.9,281.9,396.8,277.1,399.8,275.9z"/>
	<path fill="none" stroke="#000000" stroke-width="2" stroke-miterlimit="10" d="M393.5,279.5c0.1,3.6,2.7,1.1,4.5,1.2
		c1.8,0,3.3-0.7,3.3-1.6s-1.3-2.3-3.1-2.3C396.3,276.8,393.3,277.9,393.5,279.5z"/>
	<g>
		<path fill-rule="evenodd" fill="none" stroke="#000000" stroke-width="2" stroke-miterlimit="10" d="M396.7,298.1
			c0.1,0.3,0.5,0.4,0.8,0.3c0.3-0.1,0.5-0.5,0.3-0.7c-0.1-0.3-0.5-0.4-0.8-0.3C396.7,297.5,396.5,297.8,396.7,298.1z"/>
		<path fill-rule="evenodd" fill="none" stroke="#000000" stroke-width="2" stroke-miterlimit="10" d="M397,299.6
			c0.2,0.5,0.9,0.7,1.4,0.5c0.5-0.2,0.8-0.8,0.5-1.2c-0.2-0.5-0.9-0.7-1.4-0.5C397,298.6,396.7,299.1,397,299.6z"/>
		<path fill-rule="evenodd" fill="none" stroke="#000000" stroke-width="2" stroke-miterlimit="10" d="M397.5,302.1
			c0.4,0.8,1.3,1.1,2.2,0.8c0.8-0.3,1.2-1.2,0.8-2c-0.4-0.8-1.3-1.1-2.2-0.8C397.5,300.4,397.1,301.3,397.5,302.1z"/>
		<path fill-rule="evenodd" fill="none" stroke="#000000" stroke-width="2" stroke-miterlimit="10" d="M399.5,303.4
			c0.1,0.2,0.4,0.3,0.6,0.2c0.2-0.1,0.3-0.3,0.2-0.6c-0.1-0.2-0.4-0.3-0.6-0.2C399.5,302.9,399.4,303.2,399.5,303.4z"/>
	</g>
	<g>
		<path fill-rule="evenodd" fill="none" stroke="#000000" stroke-miterlimit="10" d="M512.1,295.5c-0.1-0.1-0.1-0.2-0.1-0.5
			c0-0.5,0-1.1,0.2-1.8c0.1-0.5,0.2-0.7,0.4-1.3c0.2-0.5,0.3-0.8,0.5-1.1c0.3-0.4,0.5-0.7,0.8-0.8c0.3-0.2,0.9-0.2,1.4-0.2
			c0.5,0,1.3,0.1,1.9,0.2c0.6,0.1,0.9,0.3,1.1,0.5c0.1,0.1,0.1,0.2,0.1,0.4c0,0.2,0,0.3,0,0.3c0.1,0.1,0.4,0.1,0.6,0
			c0.1,0,0.2-0.1,0.3-0.2c0.3-0.2,0.3-0.2,0.5-0.3c0.2-0.1,0.5,0,1.3,0.1c0.7,0.1,1.1,0.3,2.1,0.6c1.2,0.4,1.6,0.5,2.3,0.9
			c0.8,0.4,1,0.6,1.2,1.2c0.1,0.4,0.2,0.6,0.5,0.7c0.2,0.1,0.5,0.2,0.6,0.2c0.3,0,0.6,0,1.2-0.4c0.3-0.2,0.6-0.3,0.8-0.3
			c0.5-0.1,1.3,0,2.4,0.3c0.9,0.2,1.5,0.5,1.8,0.8c0.2,0.2,0.3,0.4,0.3,0.7c0,0.3,0,0.4,0.2,0.5c0.2,0.1,0.4,0,0.8-0.2
			c0.5-0.3,0.7-0.4,1-0.4c0.5,0,1.2,0.2,1.7,0.5c0.3,0.2,0.5,0.4,0.7,0.7c0.2,0.3,0.4,0.5,0.5,0.5c0.1,0,0.2,0,0.7-0.2
			c0.3-0.2,0.5-0.2,1.1,0c1,0.3,1.6,0.7,1.8,1.1c0,0.1,0,0.2,0,0.4c0,0.4,0,0.5,0.3,0.5c0.1,0,0.1,0,0.4,0c0.4-0.1,0.6-0.1,1,0
			c0.3,0.1,0.5,0.2,0.9,0.5c0.2,0.2,0.4,0.4,0.6,0.7c0.4,0.5,0.6,1.1,0.7,1.6c0.1,0.5,0.1,1.1,0.1,1.1c0,0-0.2-0.1-0.4-0.2
			c-1.3-0.7-3.1-1.5-4.9-2.2c-0.6-0.2-3.6-1.1-4.4-1.4c-3.4-0.9-6-1.5-9.9-2.2c-2-0.3-4.6-0.7-6.3-0.9c-0.6-0.1-2-0.2-2.6-0.2
			c-0.1,0-0.3,0-0.4,0c-1-0.1-1.9-0.1-3.6-0.1c-0.7,0-1.3,0-1.4,0C512.4,295.6,512.2,295.6,512.1,295.5z"/>
		<path fill-rule="evenodd" fill="none" stroke="#000000" stroke-miterlimit="10" d="M513,303.5c-0.3-0.2-0.5-0.4-0.7-0.8
			c0-0.1-0.1-0.4-0.2-0.7c0-0.1-0.1-0.3-0.1-0.5c-0.2-0.9-0.2-2-0.2-3.7c0-1,0.1-2.5,0.1-2.6c0,0,0,0,0.2,0c0.1,0,0.5,0,0.9,0
			c1.3,0,1.4,0.1,3.9,0.2c1.7,0.1,2.1,0.2,3.5,0.4c0.5,0.1,0.9,0.1,1,0.1c0.1,0,0.6,0.1,1,0.1c3.1,0.4,3.7,0.5,7.2,1.2
			c2.5,0.5,4.1,0.8,5.8,1.3c0.3,0.1,1,0.3,1.6,0.4c1.9,0.5,4.4,1.3,5.8,1.9c0.2,0.1,0.6,0.2,0.9,0.4c0.7,0.3,1,0.4,1.9,0.8
			c0.4,0.2,0.8,0.4,0.8,0.4c0.1,0,0.1,0.1,0.1,0.1c0,0.2-0.1,0.7-0.3,1.1c-0.3,0.6-0.8,1.2-1.4,1.4c-0.3,0.1-0.5,0.2-0.9,0.2
			c-0.3,0-0.3,0-0.3-0.1c-0.1-0.4-0.4-0.9-0.9-1.3c-0.9-0.8-2.1-1.5-3.8-2.1c-0.5-0.2-2.1-0.6-2.6-0.8c-2.3-0.5-4.3-0.8-6.4-0.8
			c-1.5,0-3.1,0.2-4.3,0.6c-0.8,0.2-1.5,0.5-2.1,0.8c-0.7,0.4-1.3,0.7-2.1,1.4c-0.2,0.1-0.3,0.2-0.4,0.1c-0.1,0-0.1-0.1-0.3-0.2
			c-0.5-0.6-1.1-1-1.7-1.3c-0.2-0.1-0.7-0.2-1-0.3c-0.9-0.1-1.7,0.1-2.3,0.5c-0.2,0.2-0.3,0.3-0.6,0.7c-0.3,0.4-0.4,0.5-0.6,0.7
			c-0.2,0.2-0.3,0.3-0.5,0.3c-0.2,0.1-0.4,0.1-0.6,0.1C513.5,303.7,513.1,303.6,513,303.5z"/>
		<path fill-rule="evenodd" fill="none" stroke="#000000" stroke-miterlimit="10" d="M522.2,306.9c-0.3-0.2-0.4-0.4-0.5-0.7
			c-0.1-0.2-0.2-0.8-0.3-1.3c-0.1-0.5-0.2-1.1-0.2-1.2c-0.1-0.2-0.1-0.4-0.2-0.5l-0.1-0.1l0.2-0.2c0.5-0.5,0.9-0.8,1.5-1.1
			c0.5-0.3,0.7-0.5,1.2-0.6c0.6-0.3,1.1-0.4,1.9-0.6c0.6-0.1,0.9-0.2,1.7-0.3c2.5-0.3,5.9-0.1,8.9,0.6c0.5,0.1,2.2,0.6,2.7,0.8
			c1.9,0.8,3.2,1.5,4.1,2.5c0.3,0.3,0.4,0.5,0.6,0.8c0.2,0.2,0.4,0.6,0.3,0.6c0,0-0.6,0-1.1-0.1c-1-0.2-2.1-0.3-2.7-0.4
			c-0.3,0-1-0.1-1.8-0.1c-0.2,0-0.5,0-0.6,0c-0.6,0-1.6,0-2.1,0c-1.2,0.1-2.7,0.4-4.8,0.9c-0.5,0.1-1.5,0.4-2.1,0.5
			c-0.1,0-0.5,0.1-0.9,0.2c-1.3,0.3-2.4,0.5-3.4,0.6c-0.6,0.1-1,0.1-1.3,0.1C522.8,307.2,522.4,307,522.2,306.9z"/>
		<path fill-rule="evenodd" fill="none" stroke="#000000" stroke-miterlimit="10" d="M512,294C512,294,512,294,512,294
			c0,0,0.4,0,0.7,0.1c0.4,0,0.8,0,1,0c2,0.1,3.2,0.2,5.1,0.4c1.8,0.2,3,0.4,4.8,0.6c0.9,0.1,3.2,0.6,4.5,0.8
			c1.6,0.3,4.9,1.1,6.4,1.5c0.1,0,0.3,0.1,0.4,0.1c1.3,0.3,3.9,1.1,5.5,1.7c1.9,0.7,3.2,1.2,4.4,1.7c0.5,0.2,1.4,0.7,1.5,0.7l0,0
			l0-0.2c-0.1-0.5-0.5-1.3-0.9-1.8c-0.1-0.1-0.5-0.5-0.7-0.6c-0.4-0.2-0.8-0.4-1.2-0.3c-0.1,0-0.2,0-0.3,0c-0.2,0-0.2,0-0.4,0
			c-0.2-0.1-0.3-0.1-0.3-0.5c0-0.1,0-0.3,0-0.4c-0.2-0.4-0.8-0.8-1.8-1.1c-0.6-0.2-0.8-0.2-1.1,0c-0.5,0.3-0.6,0.3-0.7,0.2
			c-0.1,0-0.2-0.2-0.5-0.5c-0.2-0.3-0.5-0.6-0.7-0.7c-0.5-0.3-1.2-0.5-1.7-0.5c-0.3,0-0.5,0.1-1,0.4c-0.3,0.2-0.5,0.3-0.8,0.2
			c-0.2-0.1-0.2-0.1-0.2-0.5c0-0.3-0.1-0.5-0.3-0.7c-0.3-0.3-1-0.6-1.8-0.8c-1.1-0.3-1.9-0.4-2.4-0.3c-0.1,0-0.4,0.2-0.8,0.3
			c-0.6,0.3-0.8,0.4-1.2,0.4c-0.2,0-0.5-0.1-0.6-0.2c-0.2-0.1-0.4-0.3-0.5-0.7c-0.2-0.6-0.4-0.8-1.2-1.2c-0.7-0.3-1.1-0.5-2.3-0.9
			c-1-0.3-1.4-0.4-2.1-0.6c-0.7-0.1-1-0.2-1.3-0.1c-0.2,0-0.3,0.1-0.5,0.3c-0.1,0.1-0.3,0.2-0.3,0.2c-0.2,0.1-0.5,0.1-0.6,0
			c0,0-0.1-0.2,0-0.3c0-0.2,0-0.3-0.1-0.4c-0.2-0.2-0.4-0.4-1.1-0.5c-0.6-0.1-1.4-0.2-1.9-0.2c-0.5,0-1,0.1-1.4,0.2
			c-0.2,0.1-0.2,0.1-0.3,0.2c-0.2,0.2-0.5,0.5-0.7,0.9c-0.1,0.2-0.5,1.1-0.6,1.4C512.2,292.9,512,293.9,512,294L512,294z
			 M513.7,292.2c-0.1-0.2-0.1-0.4,0-0.6c0.3-0.4,1.2-0.7,2-0.5c0.7,0.2,1.1,0.5,1.1,0.8c0,0.3-0.2,0.6-0.6,0.8
			c-0.3,0.1-0.8,0.2-1.3,0.1C514.5,292.7,513.9,292.5,513.7,292.2z M520.6,293.9c-1.3-0.4-2-1.1-1.7-1.7c0.1-0.2,0.3-0.3,0.5-0.4
			c0.6-0.3,1.4-0.3,2.7,0c0.4,0.1,1.3,0.4,1.6,0.5c0.8,0.4,1.2,0.7,1.3,1.1c0,0.1,0,0.1,0,0.3c-0.1,0.2-0.3,0.4-0.8,0.5
			c-0.4,0.1-0.7,0.1-1,0.1c-0.5,0-1.3-0.1-2-0.3C520.9,293.9,520.7,293.9,520.6,293.9z M544.3,300.1c-0.3-0.1-0.5-0.2-0.5-0.4
			c0-0.1,0-0.2,0.1-0.2c0.2-0.1,0.5,0,0.7,0.2c0.2,0.2,0.2,0.4-0.1,0.4C544.5,300.2,544.5,300.1,544.3,300.1z M530.2,295
			c0-0.1,0-0.2,0.1-0.3c0.2-0.2,0.8-0.2,1.4-0.1c0.7,0.2,1.1,0.5,1,0.9c-0.1,0.3-0.6,0.4-1.2,0.3C530.8,295.6,530.2,295.3,530.2,295
			z M540,298c-0.1-0.2,0.1-0.4,0.4-0.5c0.5-0.1,1.2,0.3,1.3,0.6c0,0.2,0,0.3-0.2,0.4c-0.1,0.1-0.3,0.1-0.5,0.1
			C540.6,298.6,540.1,298.3,540,298z M536.3,297c-0.3-0.1-0.4-0.3-0.4-0.5c0-0.1,0-0.3,0.1-0.3c0.1-0.1,0.2-0.1,0.4-0.1
			c0.3,0,0.7,0.1,1,0.2c0.2,0.1,0.3,0.2,0.4,0.3c0.2,0.3,0.1,0.5-0.2,0.6c-0.2,0.1-0.3,0.1-0.4,0.1C536.9,297.2,536.4,297,536.3,297
			z"/>
		<path fill-rule="evenodd" fill="none" stroke="#000000" stroke-miterlimit="10" d="M525.1,306.8c-0.1-0.1-0.2-0.3-0.3-0.4
			c-0.2-0.3-0.6-0.9-0.5-0.9c0,0,0.2-0.1,0.3-0.1l0.3-0.1l0.1,0.2c0.2,0.3,0.4,0.6,0.7,1c0.1,0.2,0.3,0.4,0.3,0.4c0,0,0,0-0.4,0.1
			c-0.2,0-0.3,0-0.3,0C525.3,307,525.2,306.9,525.1,306.8z"/>
		<path fill-rule="evenodd" fill="none" stroke="#000000" stroke-miterlimit="10" d="M527.3,306.4c-0.2-0.3-0.5-0.7-0.7-1.1
			l-0.2-0.4l0.3-0.1l0.4-0.1l0,0.1c0,0,0.1,0.2,0.2,0.3c0.2,0.4,0.3,0.6,0.6,1c0.1,0.2,0.2,0.3,0.2,0.4c0,0-0.6,0.2-0.7,0.2
			C527.4,306.6,527.4,306.6,527.3,306.4z"/>
		<path fill-rule="evenodd" fill="none" stroke="#000000" stroke-miterlimit="10" d="M529.3,306c-0.2-0.3-0.5-0.8-0.7-1.2l-0.2-0.3
			l0.1,0c0.1,0,0.2,0,0.4-0.1l0.2,0l0.2,0.4c0.3,0.5,0.4,0.7,0.6,1c0.1,0.1,0.1,0.2,0.1,0.2c0,0-0.7,0.2-0.7,0.2
			C529.4,306.2,529.3,306.1,529.3,306z"/>
		<path fill-rule="evenodd" fill="none" stroke="#000000" stroke-miterlimit="10" d="M531.5,305.4c-0.2-0.4-0.4-0.7-0.5-1l-0.1-0.3
			l0.4,0c0.2,0,0.4,0,0.4,0c0,0,0.1,0.1,0.1,0.2c0.1,0.2,0.3,0.7,0.5,1c0.1,0.1,0.1,0.2,0.1,0.2c0,0-0.7,0.2-0.7,0.2
			C531.7,305.6,531.6,305.5,531.5,305.4z"/>
		<path fill-rule="evenodd" fill="none" stroke="#000000" stroke-miterlimit="10" d="M533.7,304.6c-0.2-0.3-0.3-0.6-0.3-0.6
			c0,0,0,0,0.4,0l0.3,0l0.3,0.6c0.2,0.3,0.3,0.6,0.3,0.6c0,0-0.7,0.1-0.7,0.1C534,305.1,533.9,304.9,533.7,304.6z"/>
		<path fill-rule="evenodd" fill="none" stroke="#000000" stroke-miterlimit="10" d="M536.2,304.8c-0.1-0.1-0.4-0.9-0.4-0.9
			c0,0,0.7,0,0.8,0c0,0,0.1,0.2,0.2,0.4c0.1,0.2,0.2,0.4,0.2,0.5c0,0.1,0.1,0.1,0.1,0.1c0,0,0,0-0.1,0c0,0-0.2,0-0.3,0
			C536.3,305,536.3,305,536.2,304.8z"/>
	</g>
	<g>
		<path fill-rule="evenodd" fill="none" stroke="#000000" stroke-miterlimit="10" d="M478.2,303c-0.1,0-0.2-0.1-0.4-0.3
			c-0.3-0.4-0.7-0.9-1.1-1.6c-0.2-0.4-0.3-0.6-0.5-1.2c-0.2-0.5-0.3-0.8-0.3-1.1c-0.1-0.5,0-0.8,0.1-1.1c0.2-0.3,0.5-0.7,0.9-0.9
			c0.4-0.3,1.1-0.6,1.7-0.9c0.6-0.2,0.9-0.3,1.2-0.2c0.1,0.1,0.2,0.1,0.3,0.3c0.1,0.1,0.2,0.2,0.2,0.2c0.1,0,0.4-0.1,0.5-0.3
			c0-0.1,0.1-0.2,0.1-0.3c0.1-0.3,0.1-0.4,0.2-0.5c0.2-0.2,0.4-0.3,1.1-0.6c0.6-0.3,1.1-0.4,2.1-0.7c1.2-0.3,1.7-0.5,2.4-0.6
			c0.9-0.1,1.3-0.1,1.8,0.3c0.3,0.2,0.6,0.3,0.8,0.3c0.2,0,0.5-0.1,0.7-0.2c0.3-0.2,0.4-0.4,0.7-0.9c0.1-0.3,0.3-0.6,0.4-0.7
			c0.3-0.4,1-0.7,2.1-1.1c0.9-0.3,1.5-0.4,2-0.4c0.3,0,0.5,0.1,0.7,0.4c0.2,0.3,0.3,0.3,0.5,0.2c0.2-0.1,0.3-0.2,0.5-0.6
			c0.2-0.5,0.3-0.7,0.5-0.8c0.3-0.3,1.1-0.5,1.7-0.5c0.3,0,0.7,0.1,1,0.2c0.4,0.1,0.6,0.2,0.7,0.1c0.1,0,0.2-0.1,0.4-0.6
			c0.1-0.3,0.3-0.4,0.9-0.6c1-0.3,1.7-0.3,2.2-0.1c0.1,0,0.2,0.1,0.3,0.3c0.3,0.3,0.3,0.3,0.6,0.3c0.1,0,0.1,0,0.3-0.2
			c0.3-0.3,0.5-0.4,0.8-0.5c0.3-0.1,0.6-0.1,1.1,0c0.3,0,0.5,0.1,0.9,0.2c0.6,0.2,1.2,0.6,1.6,0.9c0.4,0.3,0.8,0.8,0.8,0.8
			c0,0-0.2,0-0.4,0c-1.6,0.1-3.5,0.5-5.3,0.9c-0.6,0.2-3.6,1-4.4,1.3c-3.3,1.1-5.7,2.1-9.4,3.6c-1.8,0.8-4.2,1.9-5.6,2.7
			c-0.6,0.3-1.7,0.9-2.2,1.2c-0.1,0-0.2,0.1-0.4,0.2c-0.9,0.5-1.6,1-3,1.9c-0.5,0.4-1,0.7-1.1,0.7C478.5,303,478.3,303,478.2,303z"
			/>
		<path fill-rule="evenodd" fill="none" stroke="#000000" stroke-miterlimit="10" d="M484.2,308.9c-0.3,0-0.7-0.1-1.1-0.3
			c-0.1-0.1-0.4-0.3-0.6-0.4c-0.1-0.1-0.2-0.2-0.4-0.3c-0.7-0.6-1.5-1.5-2.6-2.8c-0.6-0.8-1.6-2-1.7-2.2c0,0,0,0,0.2-0.1
			c0.1-0.1,0.4-0.3,0.7-0.4c1.1-0.7,1.2-0.7,3.3-1.9c1.5-0.8,1.8-1,3.1-1.6c0.4-0.2,0.8-0.4,0.9-0.4c0.1,0,0.5-0.2,0.9-0.4
			c2.7-1.3,3.3-1.6,6.5-2.9c2.3-1,3.8-1.6,5.5-2.1c0.3-0.1,1-0.3,1.5-0.5c1.9-0.6,4.4-1.3,6-1.6c0.2,0,0.6-0.1,0.9-0.2
			c0.7-0.2,1.1-0.2,2-0.4c0.4-0.1,0.9-0.1,0.9-0.1c0.1,0,0.1,0,0.2,0c0.2,0.1,0.4,0.6,0.6,1.1c0.2,0.6,0.2,1.4-0.1,1.9
			c-0.2,0.3-0.3,0.4-0.6,0.6c-0.3,0.2-0.2,0.2-0.3,0.1c-0.4-0.3-0.9-0.5-1.6-0.6c-1.3-0.2-2.7-0.1-4.4,0.4c-0.5,0.1-2.1,0.6-2.6,0.8
			c-2.2,0.8-4,1.7-5.6,2.8c-1.2,0.8-2.4,1.8-3.1,2.8c-0.5,0.6-0.9,1.2-1.1,1.7c-0.3,0.7-0.5,1.2-0.8,2.3c-0.1,0.2-0.1,0.3-0.2,0.3
			c-0.1,0-0.1,0-0.4,0c-0.8-0.2-1.5-0.2-2.2-0.1c-0.2,0-0.8,0.2-1,0.3c-0.8,0.4-1.3,1-1.4,1.6c0,0.2,0,0.3,0,0.8
			c0,0.5,0.1,0.6,0,0.9c0,0.2-0.1,0.4-0.2,0.5c-0.1,0.1-0.3,0.3-0.4,0.4C484.8,308.8,484.4,308.9,484.2,308.9z"/>
		<path fill-rule="evenodd" fill="none" stroke="#000000" stroke-miterlimit="10" d="M493.9,306.7c-0.3,0-0.6-0.1-0.9-0.3
			c-0.2-0.2-0.6-0.5-1.1-0.9c-0.4-0.4-0.9-0.7-1-0.9c-0.2-0.1-0.4-0.3-0.5-0.3l-0.1,0l0-0.2c0.1-0.7,0.2-1.1,0.4-1.7
			c0.2-0.5,0.3-0.8,0.5-1.1c0.3-0.5,0.6-1,1.1-1.5c0.4-0.4,0.6-0.7,1.1-1.2c1.7-1.6,4.6-3.3,7.5-4.3c0.5-0.2,2.2-0.7,2.7-0.8
			c2-0.4,3.6-0.5,4.9-0.2c0.4,0.1,0.7,0.1,1,0.3c0.3,0.1,0.7,0.3,0.7,0.3c0,0-0.5,0.3-0.9,0.5c-0.9,0.4-1.9,0.9-2.4,1.2
			c-0.3,0.2-0.9,0.5-1.5,0.9c-0.1,0.1-0.4,0.2-0.5,0.3c-0.5,0.3-1.3,0.9-1.7,1.2c-0.9,0.7-1.9,1.7-3.2,3.3c-0.3,0.4-0.9,1.1-1.3,1.6
			c-0.1,0.1-0.3,0.4-0.5,0.6c-0.9,1-1.6,1.7-2.3,2.3c-0.4,0.4-0.7,0.6-1,0.7C494.6,306.5,494.1,306.7,493.9,306.7z"/>
		<path fill-rule="evenodd" fill="none" stroke="#000000" stroke-miterlimit="10" d="M477.1,301.9
			C477.1,301.9,477.1,301.9,477.1,301.9c0.1,0,0.3-0.2,0.6-0.3c0.3-0.2,0.7-0.4,0.9-0.5c1.7-1,2.7-1.6,4.4-2.5
			c1.5-0.8,2.6-1.3,4.2-2.1c0.8-0.4,3-1.3,4.2-1.8c1.5-0.6,4.7-1.8,6.1-2.3c0.1,0,0.3-0.1,0.4-0.1c1.3-0.4,3.9-1.2,5.6-1.6
			c2-0.5,3.3-0.8,4.6-1c0.5-0.1,1.6-0.2,1.7-0.2l0.1,0l-0.1-0.1c-0.4-0.3-1.3-0.8-2-1c-0.2,0-0.7-0.1-0.9-0.1
			c-0.4,0-0.9,0.1-1.2,0.4c0,0-0.2,0.1-0.2,0.2c-0.1,0.1-0.2,0.2-0.3,0.2c-0.2,0.1-0.3,0-0.6-0.3c-0.1-0.1-0.2-0.2-0.3-0.3
			c-0.4-0.3-1.2-0.2-2.2,0.1c-0.6,0.2-0.7,0.3-0.9,0.6c-0.2,0.5-0.3,0.6-0.4,0.6c-0.1,0-0.3,0-0.7-0.1c-0.4-0.1-0.7-0.2-1-0.2
			c-0.6,0-1.3,0.2-1.7,0.5c-0.2,0.2-0.3,0.4-0.5,0.8c-0.1,0.3-0.3,0.5-0.5,0.6c-0.2,0.1-0.3,0-0.5-0.2c-0.2-0.3-0.4-0.4-0.7-0.4
			c-0.5,0-1.1,0.1-2,0.4c-1.1,0.4-1.8,0.7-2.1,1.1c-0.1,0.1-0.2,0.4-0.4,0.7c-0.3,0.6-0.4,0.8-0.7,0.9c-0.1,0.1-0.5,0.2-0.7,0.2
			c-0.3,0-0.5-0.1-0.8-0.3c-0.5-0.4-0.9-0.4-1.8-0.3c-0.7,0.1-1.2,0.2-2.4,0.6c-1,0.3-1.4,0.4-2.1,0.7c-0.7,0.3-0.9,0.4-1.1,0.6
			c-0.1,0.1-0.1,0.2-0.2,0.5c0,0.1-0.1,0.3-0.1,0.3c-0.1,0.2-0.4,0.3-0.5,0.3c-0.1,0-0.2-0.1-0.2-0.2c-0.1-0.1-0.2-0.2-0.3-0.3
			c-0.3-0.1-0.6-0.1-1.2,0.2c-0.6,0.2-1.3,0.6-1.7,0.9c-0.4,0.3-0.8,0.6-0.9,0.9c-0.1,0.1-0.1,0.2-0.1,0.4c0,0.3,0,0.7,0.1,1.1
			c0.1,0.3,0.4,1.1,0.5,1.4C476.5,300.9,477,301.8,477.1,301.9L477.1,301.9z M477.3,299.5c-0.2-0.1-0.4-0.3-0.4-0.5
			c-0.1-0.5,0.5-1.2,1.3-1.5c0.6-0.2,1.2-0.2,1.4,0c0.2,0.2,0.3,0.6,0.1,0.9c-0.2,0.3-0.5,0.6-0.9,0.8
			C478.2,299.5,477.6,299.6,477.3,299.5z M483.8,297.1c-1.3,0.4-2.3,0.3-2.5-0.4c0-0.2,0-0.4,0.1-0.6c0.3-0.5,0.9-1,2.1-1.5
			c0.4-0.2,1.3-0.4,1.6-0.5c0.9-0.2,1.4-0.1,1.7,0.2c0.1,0.1,0.1,0.1,0.2,0.2c0.1,0.2,0,0.4-0.3,0.8c-0.2,0.3-0.5,0.5-0.7,0.7
			c-0.4,0.3-1.1,0.6-1.8,0.9C484.2,297,484,297.1,483.8,297.1z M507,289.3c-0.3,0.1-0.5,0.1-0.6,0c-0.1-0.1-0.1-0.1,0-0.2
			c0.1-0.2,0.4-0.3,0.7-0.2c0.3,0,0.4,0.2,0.2,0.4C507.2,289.2,507.1,289.2,507,289.3z M492.3,292.8c-0.1-0.1-0.1-0.2-0.1-0.3
			c0.1-0.3,0.5-0.6,1-0.8c0.7-0.2,1.3-0.2,1.4,0.1c0.1,0.3-0.2,0.6-0.8,0.9C493.2,293,492.5,293.1,492.3,292.8z M502.2,289.9
			c-0.2-0.1-0.2-0.4,0-0.6c0.3-0.3,1.1-0.4,1.4-0.2c0.1,0.1,0.2,0.2,0.1,0.4c-0.1,0.1-0.2,0.2-0.4,0.3
			C503,290,502.4,290.1,502.2,289.9z M498.4,291.1c-0.3,0-0.6,0-0.7-0.1c-0.1-0.1-0.1-0.2-0.1-0.3c0-0.1,0.1-0.2,0.2-0.3
			c0.2-0.2,0.6-0.3,0.9-0.4c0.2,0,0.4,0,0.6,0c0.3,0.1,0.4,0.3,0.2,0.6c-0.1,0.2-0.2,0.2-0.3,0.3C499.1,291,498.6,291.1,498.4,291.1
			z"/>
		<path fill-rule="evenodd" fill="none" stroke="#000000" stroke-miterlimit="10" d="M496.2,305c-0.1,0-0.3-0.1-0.5-0.1
			c-0.4-0.1-1-0.4-1.1-0.4c0,0,0.1-0.1,0.2-0.3l0.2-0.3l0.2,0.1c0.3,0.2,0.7,0.3,1.2,0.4c0.2,0.1,0.5,0.1,0.5,0.2c0,0,0,0-0.3,0.3
			c-0.1,0.1-0.2,0.2-0.2,0.2C496.4,305.1,496.3,305.1,496.2,305z"/>
		<path fill-rule="evenodd" fill="none" stroke="#000000" stroke-miterlimit="10" d="M497.6,303.5c-0.4-0.1-0.8-0.3-1.3-0.5
			l-0.4-0.2l0.2-0.3l0.2-0.3l0.1,0c0,0,0.2,0.1,0.4,0.2c0.4,0.2,0.7,0.3,1.2,0.4c0.2,0.1,0.4,0.1,0.4,0.1c0,0-0.4,0.5-0.4,0.5
			C497.9,303.6,497.8,303.6,497.6,303.5z"/>
		<path fill-rule="evenodd" fill="none" stroke="#000000" stroke-miterlimit="10" d="M498.9,302.1c-0.3-0.1-1-0.4-1.4-0.6l-0.3-0.1
			l0.1-0.1c0,0,0.1-0.2,0.2-0.2l0.2-0.2l0.4,0.2c0.5,0.2,0.8,0.4,1.2,0.5c0.1,0.1,0.3,0.1,0.3,0.1c0,0-0.5,0.5-0.5,0.5
			C499.2,302.2,499,302.2,498.9,302.1z"/>
		<path fill-rule="evenodd" fill="none" stroke="#000000" stroke-miterlimit="10" d="M500.3,300.4c-0.4-0.2-0.8-0.3-1.1-0.5
			l-0.3-0.1l0.3-0.2c0.1-0.1,0.3-0.2,0.3-0.2c0,0,0.1,0,0.3,0.1c0.2,0.1,0.7,0.4,1.1,0.5c0.1,0,0.2,0.1,0.2,0.1c0,0-0.4,0.5-0.4,0.5
			C500.6,300.5,500.5,300.5,500.3,300.4z"/>
		<path fill-rule="evenodd" fill="none" stroke="#000000" stroke-miterlimit="10" d="M501.5,298.6c-0.3-0.2-0.6-0.3-0.7-0.3
			c0,0-0.1,0,0.3-0.3l0.2-0.2l0.6,0.3c0.3,0.2,0.6,0.3,0.6,0.3c0,0-0.5,0.5-0.5,0.5C502.1,298.9,501.9,298.7,501.5,298.6z"/>
		<path fill-rule="evenodd" fill="none" stroke="#000000" stroke-miterlimit="10" d="M503.7,297.4c-0.1-0.1-0.9-0.5-0.9-0.5
			c0,0,0.6-0.4,0.6-0.4c0,0,0.2,0.1,0.4,0.2c0.2,0.1,0.4,0.2,0.5,0.2c0.1,0,0.1,0.1,0.1,0.1c0,0,0,0-0.1,0.1c0,0-0.1,0.1-0.2,0.2
			C503.9,297.5,503.9,297.5,503.7,297.4z"/>
	</g>
	<g>
		<polygon fill-rule="evenodd" fill="none" stroke="#000000" stroke-width="2" stroke-miterlimit="10" points="332.9,317 
			345.3,343.7 378.4,343.7 378.4,346.3 346.5,346.3 332.9,346.3 319.3,317 		"/>
		<polygon fill-rule="evenodd" fill="none" stroke="#000000" stroke-width="2" stroke-miterlimit="10" points="333.1,318.4 
			344.9,343.7 335.1,343.7 323.3,318.4 		"/>
	</g>
	<path fill-rule="evenodd" fill="none" stroke="#000000" stroke-width="2" stroke-miterlimit="10" d="M409.8,321.7
		c0,0-1.6,8.6-4.4,15.6l-21.4,2.9c-1.9-0.9-6.3-2.5-7.8-2.7c-1.9-0.3-3.9-0.5-5.7-0.2c-1.8,0.3-5.7,1.9-5.3,3.1
		c0.3,0.9,1.5,0.5,2.1,0.2c0.2-0.1,0.3-0.2,0.3-0.2s-0.1,0.1-0.3,0.2c-0.8,0.4-2.7,1.4-2.4,2.2c0.5,0.9,3.4-0.6,3.4-0.6
		s-1.2,0.8-0.2,1.4c0.9,0.6,2.1-0.9,2.7-1c0.6-0.2,1.2,0,1.2,0s-1.6,0.8-0.8,1.4c0.8,0.7,2.1-0.4,2.1-0.4s1.9-0.9,2.7-0.8
		c3.6,2.3,13.9,2.5,32.6,2.1c10.2-0.5,15.3-22.8,15.3-22.8L409.8,321.7z"/>
	<g>
		<path fill="none" stroke="#000000" stroke-miterlimit="10" d="M394.5,228.4c-4.2,0-8.2,1.6-11,4.4c-0.4,0.4-0.3,0.9,0.1,1.2
			c0.2,0.2,0.4,0.2,0.7,0.2c0.3,0,0.5-0.1,0.7-0.3c2.4-2.4,5.9-3.8,9.6-3.8c3.6,0,7.1,1.4,9.6,3.8c0.4,0.4,1,0.4,1.4,0.1
			c0.4-0.3,0.4-0.9,0.1-1.2C402.7,230,398.7,228.4,394.5,228.4z"/>
		<path fill="none" stroke="#000000" stroke-miterlimit="10" d="M404.3,222.4c-3.1-1.3-6.4-1.9-9.8-1.9c-3.4,0-6.7,0.6-9.8,1.9
			c-3,1.2-5.6,2.9-7.8,5.1c-0.4,0.4-0.3,0.9,0.1,1.2c0.2,0.2,0.4,0.2,0.7,0.2c0.3,0,0.5-0.1,0.7-0.3c4.1-4.1,10-6.5,16.2-6.5
			c6.2,0,12,2.4,16.2,6.5c0.4,0.4,1,0.4,1.4,0.1c0.4-0.3,0.4-0.9,0.1-1.2C409.9,225.3,407.3,223.6,404.3,222.4z"/>
		<path fill="none" stroke="#000000" stroke-miterlimit="10" d="M408.3,214.4c-4.4-1.8-9-2.7-13.8-2.7c-4.8,0-9.5,0.9-13.8,2.7
			c-4.2,1.7-7.9,4.2-11,7.3c-0.4,0.4-0.3,0.9,0.1,1.2c0.2,0.2,0.4,0.2,0.7,0.2c0.3,0,0.5-0.1,0.7-0.3c6-5.9,14.5-9.3,23.4-9.3
			c8.9,0,17.4,3.4,23.4,9.3c0.4,0.4,1,0.4,1.4,0.1c0.4-0.3,0.4-0.9,0.1-1.2C416.3,218.5,412.5,216.1,408.3,214.4z"/>
		<path fill="none" stroke="#000000" stroke-miterlimit="10" d="M394.5,235c-2.7,0-5,2-5,4.5c0,2.5,2.2,4.5,5,4.5s5-2,5-4.5
			C399.5,237,397.2,235,394.5,235z M394.5,242.2c-1.7,0-3-1.2-3-2.7s1.4-2.7,3-2.7s3,1.2,3,2.7S396.2,242.2,394.5,242.2z"/>
	</g>
	<g>
		<path fill="none" stroke="#000000" stroke-miterlimit="10" d="M483.8,239.5h-4.7l-0.5-2.6l-0.7,0.1l-4.2-23.7l0-0.3l0,0
			c-0.8-3.1-5.4-3.4-6.8-3.4c-0.3,0-0.5,0-0.5,0l-14.6,0c-2.4,0-4.4,1.8-4.4,3.9c0,2.2,2,3.9,4.4,3.9l3.8,0c1.4,0,2.6,1,2.6,2.3v0.5
			H457v2c-3.9,0.8-6.8,4-6.8,7.7v11.7c0,0.5,0.5,1,1.1,1h1.5c-0.1-0.5-0.2-0.9-0.2-1.4c0-3.2,2.9-5.8,6.5-5.8c3.6,0,6.5,2.6,6.5,5.8
			c0,0.5-0.1,1-0.2,1.4h1.5c0.6,0,1.1-0.4,1.1-1v-11.7c0-3.7-2.9-6.9-6.8-7.7v-2h-1.2v-0.5c0-2.2-2-3.9-4.4-3.9l-3.8,0
			c-1.4,0-2.6-1-2.6-2.3c0-1.3,1.2-2.3,2.6-2.3l14.8,0l0.3,0v0c0.1,0,0.3,0,0.4,0c1.6,0,4.3,0.3,4.8,2.3l4.2,23.8l-0.6,0.1l0.4,2.2
			h-4.1c-0.8,0-1.5,0.6-1.5,1.3v1.5h14.9v-1.5C485.3,240.1,484.6,239.5,483.8,239.5z"/>
		<path fill="none" stroke="#000000" stroke-miterlimit="10" d="M459,236.4c-3,0-5.4,2.2-5.4,4.9c0,2.7,2.4,4.9,5.4,4.9
			c3,0,5.4-2.2,5.4-4.9C464.5,238.6,462,236.4,459,236.4z M459,243.4c-1.3,0-2.4-1-2.4-2.2c0-1.2,1.1-2.2,2.4-2.2s2.4,1,2.4,2.2
			C461.4,242.5,460.3,243.4,459,243.4z"/>
	</g>
	<g>
		<path fill="none" stroke="#000000" stroke-miterlimit="10" d="M538,234.5c-0.6-0.4-1.5-0.6-2.9-0.6c-1.3,0-1.6-0.2-1.7-0.2
			c0,0-0.1-0.1-0.1-0.4c0.1-0.1,0.4-0.5,1-0.7c0.2-0.1,0.5-0.1,0.8-0.1c0,0,0,0,0,0l0,0c0,0,0,0,0,0c0.6,0,1.3,0.2,2.1,0.7
			c0.4,0.3,1,0.2,1.3-0.2c0.3-0.4,0.2-0.9-0.2-1.2c-0.8-0.5-1.6-0.8-2.3-1l0-0.4c0-0.5-0.4-0.9-1-0.9c0,0,0,0,0,0
			c-0.5,0-1,0.4-1,0.9l0,0.5c-0.4,0.1-0.7,0.2-0.9,0.3c-1.1,0.5-1.8,1.3-1.8,2.1c0,0.6,0.1,1.3,0.8,1.8c0.6,0.4,1.5,0.6,2.9,0.6
			c1.3,0,1.6,0.2,1.7,0.2c0,0,0.1,0.1,0.1,0.4c-0.1,0.1-0.4,0.5-1,0.7c-0.2,0.1-0.5,0.1-0.8,0.1c0,0,0,0,0,0c0,0,0,0,0,0
			c-0.6,0-1.3-0.2-2.1-0.7c-0.4-0.3-1-0.2-1.3,0.2c-0.3,0.4-0.2,0.9,0.2,1.2c0.8,0.5,1.6,0.8,2.3,1v0.4c0,0.5,0.4,0.9,1,0.9
			c0.5,0,1-0.4,1-0.9v-0.5c0.4-0.1,0.7-0.2,0.9-0.3c1.1-0.5,1.8-1.3,1.8-2.1C538.8,236,538.8,235.1,538,234.5z"/>
		<path fill="none" stroke="#000000" stroke-miterlimit="10" d="M542.5,228.1c-1.7-1.6-4-2.5-6.4-2.7v-7.5c0-0.2-0.1-0.5-0.3-0.6
			l-10.1-9.1c-0.1-0.1-0.2-0.1-0.3-0.2s-0.2-0.1-0.4-0.1h-21.3c-0.5,0-1,0.4-1,0.9v38c0,0.5,0.4,0.9,1,0.9h31.5c0.5,0,1-0.4,1-0.9
			v-2.7c2.4-0.2,4.7-1.1,6.4-2.7c2-1.8,3.1-4.1,3.1-6.6C545.6,232.3,544.5,229.9,542.5,228.1z M534.1,246h-29.5v-36.2H524v8.2
			c0,0.5,0.4,0.9,1,0.9h9.2v6.6c-2.4,0.2-4.7,1.1-6.4,2.7c-2,1.8-3.1,4.1-3.1,6.6c0,2.5,1.1,4.9,3.1,6.6c1.7,1.6,4,2.5,6.4,2.7V246z
			 M535.1,242.4L535.1,242.4c-4.7,0-8.5-3.4-8.5-7.7c0-4.2,3.8-7.7,8.5-7.7c4.7,0,8.5,3.4,8.5,7.7
			C543.6,239,539.8,242.4,535.1,242.4z"/>
		<path fill="none" stroke="#000000" stroke-miterlimit="10" d="M510.3,218.8h10.8c0.5,0,1-0.4,1-0.9s-0.4-0.9-1-0.9h-10.8
			c-0.5,0-1,0.4-1,0.9S509.7,218.8,510.3,218.8z"/>
		<path fill="none" stroke="#000000" stroke-miterlimit="10" d="M509.3,224.6c0,0.5,0.4,0.9,1,0.9h18.5c0.5,0,1-0.4,1-0.9
			c0-0.5-0.4-0.9-1-0.9h-18.5C509.7,223.8,509.3,224.2,509.3,224.6z"/>
		<path fill="none" stroke="#000000" stroke-miterlimit="10" d="M522.2,230.5h-12c-0.5,0-1,0.4-1,0.9c0,0.5,0.4,0.9,1,0.9h12
			c0.5,0,1-0.4,1-0.9C523.2,230.9,522.8,230.5,522.2,230.5z"/>
		<path fill="none" stroke="#000000" stroke-miterlimit="10" d="M522.2,237.3h-12c-0.5,0-1,0.4-1,0.9c0,0.5,0.4,0.9,1,0.9h12
			c0.5,0,1-0.4,1-0.9C523.2,237.7,522.8,237.3,522.2,237.3z"/>
	</g>
</g>
<g>
	<path d="M376.8,472.4v34.2c14.6,0,26.4,11.8,26.4,26.4c0,14.6-11.8,26.4-26.4,26.4v34.2c33.5,0,60.6-27.1,60.6-60.6
		C437.4,499.6,410.2,472.4,376.8,472.4"/>
	<path d="M437.4,472.4v34.2c14.6,0,26.4,11.8,26.4,26.4c0,14.6-11.8,26.4-26.4,26.4v34.2c33.5,0,60.6-27.1,60.6-60.6
		C498,499.6,470.9,472.4,437.4,472.4"/>
</g>
</svg>
