<?xml version="1.0" encoding="utf-8"?>
<!-- Generator: Adobe Illustrator 24.0.1, SVG Export Plug-In . SVG Version: 6.00 Build 0)  -->
<svg version="1.2" baseProfile="tiny" id="Layer_1" xmlns="http://www.w3.org/2000/svg" xmlns:xlink="http://www.w3.org/1999/xlink"
	 x="0px" y="0px" viewBox="0 0 407.3 354" xml:space="preserve">
<g>
	<path display="inline" d="M287.5,65.6L125.2,67c-8.1,0-14.6,6.6-14.6,14.6l2.3,194.3c0,8.1,4.2,12.5,12.3,12.5L155,287l117-0.5
		c8.1,0,15.1-2.5,15.1-10.6l9.6-195.6C296.7,72.3,295.6,65.6,287.5,65.6z M283.9,277.5c0,4.3-9.7,7-14,7H165.7h-47
		c-4.3,0-2.3-32.5-2.3-36.8l-2.3-165.1c0-4.3,6.5-10.8,10.8-10.8l162-2.4c4.3,0,6.5,6.6,6.5,11L283.9,277.5z"/>
	<path display="inline" d="M198.8,130c-32.4,0-58.8,26.4-58.8,58.8c0,32.4,26.4,58.8,58.8,58.8c32.4,0,58.8-26.4,58.8-58.8
		C257.6,156.3,231.3,130,198.8,130z M198.8,244.9c-28.7-1.1-60.5-28-55.8-56.1c4.7-28.3,23.5-58.1,55.8-55.9
		c28.6,1.9,58.8,24.6,56.3,55.9C252.7,217.4,235.8,246.3,198.8,244.9z"/>
	<path display="inline" fill="none" stroke="#000000" stroke-miterlimit="10" d="M236.4,204.3c-4.8-3.3-7.7-8.7-7.7-14.6
		c0-5.8,2.9-11.3,7.7-14.6c1.4-1,1.9-2.8,1.1-4.3c-7.1-13.7-21.1-22.3-36.6-22.3c-22.7,0-41.2,18.5-41.2,41.2
		c0,22.7,18.5,41.2,41.2,41.2c15.4,0,29.5-8.6,36.6-22.3C238.3,207.1,237.8,205.3,236.4,204.3z M188.7,172.3
		c-5.9,3.9-9.4,10.4-9.4,17.5c0,1.9-1.5,3.4-3.4,3.4c-1.9,0-3.4-1.5-3.4-3.4c0-9.3,4.7-18,12.5-23.1c1.6-1,3.7-0.6,4.7,1
		C190.7,169.1,190.3,171.2,188.7,172.3z M200.2,168.8c-0.7,0-1.5,0-2.2,0.1c-0.1,0-0.3,0-0.4,0c-1.7,0-3.2-1.3-3.4-3
		c-0.2-1.9,1.1-3.5,3-3.7c1-0.1,2-0.1,3-0.1c1.9,0,3.4,1.5,3.4,3.4S202,168.8,200.2,168.8z"/>
	<path display="inline" fill="none" stroke="#000000" stroke-miterlimit="10" d="M269.3,103.3h-141c-1.9,0-3.4-1.5-3.4-3.4
		s1.5-3.4,3.4-3.4L277,96.1c1.9,0,3.4,1.5,3.4,3.4C280.4,101.4,271.2,103.3,269.3,103.3z"/>
	<path display="inline" d="M137.3,89.3h-9c-1.9,0-3.4-1.5-3.4-3.4c0-1.9,1.5-3.4,3.4-3.4h9c1.9,0,3.4,1.5,3.4,3.4
		C140.7,87.8,139.2,89.3,137.3,89.3z"/>
	<path display="inline" d="M159.2,89.3h-9c-1.9,0-3.4-1.5-3.4-3.4c0-1.9,1.5-3.4,3.4-3.4h9c1.9,0,3.4,1.5,3.4,3.4
		C162.5,87.8,161,89.3,159.2,89.3z"/>
	
		<ellipse transform="matrix(0.1602 -0.9871 0.9871 0.1602 143.8549 339.9861)" display="inline" cx="271.7" cy="85.5" rx="3.3" ry="3.3"/>
	
		<ellipse transform="matrix(0.2869 -0.958 0.958 0.2869 96.6625 301.6711)" display="inline" cx="251" cy="85.9" rx="3.3" ry="3.3"/>
	
		<ellipse transform="matrix(0.7071 -0.7071 0.7071 0.7071 8.9273 193.3747)" display="inline" cx="237.9" cy="85.9" rx="3.3" ry="3.3"/>
</g>
</svg>