<?xml version="1.0" encoding="utf-8"?>
<!-- Generator: Adobe Illustrator 24.0.1, SVG Export Plug-In . SVG Version: 6.00 Build 0)  -->
<svg version="1.2" baseProfile="tiny" id="Layer_1" xmlns="http://www.w3.org/2000/svg" xmlns:xlink="http://www.w3.org/1999/xlink"
	 x="0px" y="0px" viewBox="0 0 685.1 623.3" xml:space="preserve">
<g>
	<path fill="#40E9AF" d="M301.6,45.2c-30.7,16.1-60.3,34-90.3,51c-28.8,16.4-58.3,32.2-85.5,50.5c-24.4,16.4-47.6,35.6-62.5,59.3
		c-14.8,23.6-19.2,49.9-14.6,76.4c4.7,27.1,17.6,52.7,31.7,77.1c28.1,48.5,60.1,97.7,106.4,135.2c6.9,5.6,14.2,11,21.8,16
		c28.8,26.4,67.5,44.8,108.5,53.1c59.3,12,121.9,2.3,176.2-20c56.4-23.2,109.4-61,135.6-110.9c27.3-52,19.4-110.8-0.5-163.7
		c-20.3-54.1-51.4-105.5-90.1-151.5c-35.8-42.6-84.6-92.9-150.6-95.9C356.4,20.3,327.5,31.6,301.6,45.2z"/>
	<g>
		<path fill="none" stroke="#000000" stroke-width="3" stroke-linecap="round" stroke-linejoin="round" stroke-miterlimit="10" d="
			M506.1,111c0,0.5,0,1-0.1,1.5l-5.3-0.1c0,0,0.2-0.6,0.5-1.5c0.4-1.3,0.8-3,0.8-3.9c0-0.1,0-0.2,0-0.3c-0.3-1,3.5-2.6,3.5-2.6
			s0.2,0.8,0.3,1.9C506,107.4,506.2,109.3,506.1,111z"/>
		<path fill="none" stroke="#000000" stroke-width="3" stroke-linecap="round" stroke-linejoin="round" stroke-miterlimit="10" d="
			M352.4,132.6l-0.2,1.6c0,0,0,0,0,0l-0.6,5.2l-0.1,0.7l-4.1-2.1l0.5-1.4l0.8-2.1l0.4-1L352.4,132.6z"/>
		<g>
			<path fill="none" stroke="#000000" stroke-width="3" stroke-linecap="round" stroke-linejoin="round" stroke-miterlimit="10" d="
				M348,129.3c-0.5-0.1-1,0-1.4,0.3c-0.7,0.5-1.7,1.3-1.9,1.9c-0.1,0.3,0,0.7,0.1,1c0.1,0.3,0.6,0.6,0.9,0.7
				c1.1,0.6,4.3,2.2,5.9,1.7c0.4-0.1,0.6-0.5,0.8-1c0.6-1.6-0.2-3.3-1.7-3.8L348,129.3z"/>
			<path fill="none" stroke="#000000" stroke-width="3" stroke-linecap="round" stroke-linejoin="round" stroke-miterlimit="10" d="
				M348.9,126.6l-0.2,0c-0.7,0.4-0.6,1.2-0.1,1.9l0.7,0.7l0.9,2.1l1.9,0.2l-1.4-2.9L348.9,126.6z"/>
			<path fill="none" stroke="#000000" stroke-width="3" stroke-linecap="round" stroke-linejoin="round" stroke-miterlimit="10" d="
				M343.6,126.3c0.5-0.3,1.1,0,1.5,0.7c0.1,0.2,0.5,0.9,0.5,0.9l2.7,2.1l-1.9,0.5l-2.3-2.2L343.6,126.3z"/>
			<path fill="none" stroke="#000000" stroke-width="3" stroke-linecap="round" stroke-linejoin="round" stroke-miterlimit="10" d="
				M341.9,126c0.6-0.3,1.1,0,1.5,0.8c0.2,0.3,0.6,1.3,0.6,1.3l2.9,2.6l-2.1,0.1l-2.3-2.3L341.9,126z"/>
			<path fill="none" stroke="#000000" stroke-width="3" stroke-linecap="round" stroke-linejoin="round" stroke-miterlimit="10" d="
				M342,128.9l-0.1-1.2c0.6-0.4,0.7,0.4,1.3,1.1l1,1.1l2.2,1.9l-1,0.8l-2.2-1.9L342,128.9z"/>
			<path fill="none" stroke="#000000" stroke-width="3" stroke-linecap="round" stroke-linejoin="round" stroke-miterlimit="10" d="
				M341.3,129.7L341.3,129.7c0.4-0.4,1.3-0.2,1.6,0c0.4,0.3,3,2.5,3,2.5l-0.8,0.7l-1.9-1.4L341.3,129.7L341.3,129.7z"/>
		</g>
		<g>
			<path fill="none" stroke="#000000" stroke-width="3" stroke-linecap="round" stroke-linejoin="round" stroke-miterlimit="10" d="
				M500.3,102.6c0-0.4,0.2-0.9,0.6-1.2c0.7-0.5,1.8-1.2,2.5-1.3c0.4,0,0.8,0.1,1.1,0.3c0.3,0.2,0.5,0.6,0.6,0.9
				c0.4,1.1,1.4,4.2,0.5,5.6c-0.2,0.3-0.7,0.4-1.3,0.5c-1.9,0.2-3.6-0.9-3.7-2.4L500.3,102.6z"/>
			<path fill="none" stroke="#000000" stroke-width="3" stroke-linecap="round" stroke-linejoin="round" stroke-miterlimit="10" d="
				M497,102.8l0-0.1c0.6-0.5,1.4-0.3,2,0.3l0.6,0.7l2,1.3l-0.2,1.7l-2.8-1.9L497,102.8z"/>
			<path fill="none" stroke="#000000" stroke-width="3" stroke-linecap="round" stroke-linejoin="round" stroke-miterlimit="10" d="
				M497.9,98.1c-0.5,0.4-0.2,1,0.4,1.5c0.2,0.2,0.8,0.7,0.8,0.7l1.6,2.8l0.9-1.5l-1.8-2.5L497.9,98.1z"/>
			<path fill="none" stroke="#000000" stroke-width="3" stroke-linecap="round" stroke-linejoin="round" stroke-miterlimit="10" d="
				M498,96.6c-0.4,0.4-0.3,0.9,0.5,1.5c0.3,0.2,1.2,0.8,1.2,0.8l2.2,3.2l0.6-1.8l-1.9-2.5L498,96.6z"/>
			<path fill="none" stroke="#000000" stroke-width="3" stroke-linecap="round" stroke-linejoin="round" stroke-miterlimit="10" d="
				M501.2,97.3l-1.2-0.4c-0.6,0.4,0.3,0.7,0.9,1.4l0.9,1.1l1.6,2.4l1.1-0.7l-1.5-2.3L501.2,97.3z"/>
			<path fill="none" stroke="#000000" stroke-width="3" stroke-linecap="round" stroke-linejoin="round" stroke-miterlimit="10" d="
				M502.2,96.8L502.2,96.8c-0.5,0.3-0.5,1.1-0.4,1.4c0.2,0.4,2,3.2,2,3.2l1-0.5l-1-2L502.2,96.8L502.2,96.8z"/>
		</g>
		<path fill="none" stroke="#000000" stroke-width="3" stroke-linecap="round" stroke-linejoin="round" stroke-miterlimit="10" d="
			M488,419.1L488,419.1c0.3-0.9-0.2-1.9-1.2-2.2L477,414c-1-0.3-2.1,0.2-2.5,1.1l0,0c-0.3,0.9,0.2,1.9,1.2,2.2l9.7,2.9
			C486.5,420.5,487.6,420,488,419.1z"/>
		<path fill="none" stroke="#000000" stroke-width="3" stroke-linecap="round" stroke-linejoin="round" stroke-miterlimit="10" d="
			M433.7,465L433.7,465c1.2,0,2.2-0.9,2.3-2l0.2-10.4c0-1.1-1-2-2.2-2l0,0c-1.2,0-2.2,0.9-2.3,2l-0.2,10.4
			C431.5,464,432.5,464.9,433.7,465z"/>
		<g>
			<g>
				
					<path fill="none" stroke="#000000" stroke-width="3" stroke-linecap="round" stroke-linejoin="round" stroke-miterlimit="10" d="
					M469.6,289.3c-1.1,8.4-10.7,20.4-21.9,31.7c-17.2,17.4-38.1,33.4-38.1,33.4l33.9,28.2l-1.9,27.3c-8.7-3.1-18.2-6.8-27.4-11.2
					c-22.3-10.5-43.1-24.7-48.1-42.2c-1.9-6.7,14.4-33.5,27-52.8c-0.2-1.6-0.4-3.1-0.5-4.4c-1.9-19.8-0.6-30.1,0-40.2l0.1,0.2
					c0,0,5.2,0.7,13.3,0.3c5.3-0.3,11.9-1,19.2-2.6c10-2.3,17.3-4.9,22-7c4-1.7,6.2-3,6.8-3.4C462,257.6,471.6,274.4,469.6,289.3z"
					/>
				
					<path fill="none" stroke="#000000" stroke-width="3" stroke-linecap="round" stroke-linejoin="round" stroke-miterlimit="10" d="
					M441.7,409.9l-3,43.7l-0.2,2.4l-2.5,0.2l-4.5,0.4l-2.5,0.2c0,0-0.2-0.8-0.6-2.2c-1.8-7-7.8-29.7-14.3-55.9
					C423.5,403.1,433,406.9,441.7,409.9z"/>
				
					<path fill="none" stroke="#000000" stroke-width="3" stroke-linecap="round" stroke-linejoin="round" stroke-miterlimit="10" d="
					M447.7,321l-1.5,22.3l-2.7,39.3l-33.9-28.2C409.7,354.4,430.6,338.4,447.7,321z"/>
			</g>
		</g>
		<path fill="none" stroke="#000000" stroke-width="3" stroke-linecap="round" stroke-linejoin="round" stroke-miterlimit="10" d="
			M492.9,170.9c-1.3,1.2-3,2.7-5,4.3C489.7,173.8,491.4,172.3,492.9,170.9z"/>
		<path fill="none" stroke="#000000" stroke-width="3" stroke-linecap="round" stroke-linejoin="round" stroke-miterlimit="10" d="
			M486.6,429.6c0.5,0.1,1.1-0.2,1.2-0.7l2.7-11.9c0.1-0.6-0.4-1.2-1.1-1.2l-2.4-0.3c-0.7-0.1-1.3,0.3-1.5,1c0,0,1,0.5,0.9,1.6
			c-0.1,0.9-1,1.1-1.6,1.1c-0.3,0-0.5,0.2-0.5,0.5l1.5,9.1C485.9,429.3,486.2,429.6,486.6,429.6L486.6,429.6z"/>
		<path fill="none" stroke="#000000" stroke-width="3" stroke-linecap="round" stroke-linejoin="round" stroke-miterlimit="10" d="
			M421.1,467.3c0,0.5,0.5,0.9,1.1,0.9l14.2-0.6c0.7,0,1.3-0.7,1.1-1.3l-0.3-2.2c-0.1-0.6-0.7-1.1-1.5-1.1c0,0-0.3,1-1.6,1.2
			c-1.1,0.2-1.5-0.6-1.6-1.2c-0.1-0.3-0.4-0.4-0.7-0.3l-10,3.7C421.3,466.6,421,466.9,421.1,467.3L421.1,467.3z"/>
		<path fill="none" stroke="#000000" stroke-width="3" stroke-linecap="round" stroke-linejoin="round" stroke-miterlimit="10" d="
			M511,146.6c-2.8,7.3-9,16-18.1,24.3c-1.6,1.4-3.2,2.9-5,4.3c-0.2,0.1-0.3,0.3-0.5,0.4c-0.6,0.5-1.2,0.9-1.8,1.4
			c-0.8,0.6-1.6,1.2-2.5,1.8c-10.6,7.9-25.8,17.8-35.3,23.8c-0.5-7.8-1.3-15.5-7-18.2c-4.4-2.1-11.8-1.3-19.5,0.5
			c5.1-1.7,13.7-4.8,22.2-9.5c7.9-4.4,22.6-17.8,27.4-22.3c0,0,0,0,0,0c1.5-1.9,6.5-8.2,10-13.8c8.4-13.4,18.3-28.3,18.3-28.3
			s0.7,0,1.8-0.1c-0.3,0.8-0.5,1.5-0.5,1.5l5.3,0.1c0.1-0.5,0.1-1,0.1-1.5c1.9,0.1,3.7,0.4,4.3,0.9
			C517.8,118.3,517.2,130.3,511,146.6z"/>
		<path fill="none" stroke="#000000" stroke-width="3" stroke-linecap="round" stroke-linejoin="round" stroke-miterlimit="10" d="
			M506.1,111c0,0.5,0,1-0.1,1.5l-5.3-0.1c0,0,0.2-0.6,0.5-1.5C502.5,110.9,504.4,110.8,506.1,111z"/>
		<path fill="none" stroke="#000000" stroke-width="3" stroke-linecap="round" stroke-linejoin="round" stroke-miterlimit="10" d="
			M316.9,208c0.1,0.4,0.2,0.7,0.4,1c-0.5-1-0.8-2.1-0.9-3.1C316.6,206.6,316.7,207.3,316.9,208z"/>
		<path fill="none" stroke="#000000" stroke-width="3" stroke-linecap="round" stroke-linejoin="round" stroke-miterlimit="10" d="
			M368.2,210.5l5,9.9c-15.5,1.2-39.6,1.5-51.7-6.8c-1.9-1.3-3.2-2.7-4-4.2c-0.1-0.1-0.1-0.2-0.2-0.3c-0.1-0.3-0.3-0.6-0.4-1
			c-0.2-0.7-0.4-1.4-0.5-2.1c-4.5-18.3-3.1-35,1.6-45.3c7.3-15.9,15.6-25.3,25.8-25.8c0.9,0,2.4,0.8,4,1.9l-0.5,1.4l4.1,2.1l0.1-0.7
			c0.8,0.7,1.3,1.1,1.3,1.1s-3.5,17.1-7,32.1c-1.3,5.4-2.5,16.7-3.1,22.5c6.2,1,12.5,1.9,16.9,2.1c14.8,0.5,26.3-1.1,29.4-1.5
			C377.9,199.6,367.8,203.6,368.2,210.5z"/>
		<path fill="none" stroke="#000000" stroke-width="3" stroke-linecap="round" stroke-linejoin="round" stroke-miterlimit="10" d="
			M351.5,139.5l-0.1,0.7l-4.1-2.1l0.5-1.4C349.2,137.6,350.5,138.7,351.5,139.5z"/>
		<path fill="none" stroke="#000000" stroke-width="3" stroke-linecap="round" stroke-linejoin="round" stroke-miterlimit="10" d="
			M388.3,180.7L388.3,180.7C388.3,180.7,388.3,180.7,388.3,180.7C388.3,180.7,388.2,180.7,388.3,180.7c-0.1-0.1-0.1-0.1-0.2-0.1
			c-0.1,0-0.1-0.1-0.2-0.1c-0.5-0.4-0.8-0.9-1-1.4c-0.1-0.2-0.1-0.3-0.2-0.5c0,0,0-0.1,0-0.1c0,0,0-0.1,0-0.1c0,0,0,0,0,0l0,0
			l0.3,0.3l0.1,0.1l0.1,0.1l0.3,0.3l0.3,0.3L388.3,180.7z"/>
		<g>
			<g>
				
					<path fill="none" stroke="#000000" stroke-width="3" stroke-linecap="round" stroke-linejoin="round" stroke-miterlimit="10" d="
					M480.2,413.1l-0.6,1.6l-1.2,3.4l-0.9,2.5c0,0-0.9-0.2-2.5-0.6c-5.2-1.3-18.1-4.7-33.3-10.1l1.9-27.3l34.9,29.1L480.2,413.1z"/>
			</g>
		</g>
		<path fill="none" stroke="#000000" stroke-width="3" stroke-linecap="round" stroke-linejoin="round" stroke-miterlimit="10" d="
			M409.8,165.9c1,1.6,1.3,4.3,0.8,6.3c-0.3,1.4-1.4,4.6-2.1,6.6c0.1-1-0.3-1.7-0.9-2c-0.4-0.1-0.9,0-1.3,0.2c0.1-1.1,0.1-2,0.1-2
			c0-0.6,0-1.2-0.1-1.7c-0.4-2.4-2-4.5-4.3-5.6c0,0-0.1,0-0.1-0.1c-0.2-0.1-0.4-0.2-0.5-0.2c-0.1,0-0.2-0.1-0.3-0.1
			c-0.2-0.1-0.3-0.1-0.5-0.2c-0.1,0-0.2-0.1-0.3-0.1c-0.2,0-0.3-0.1-0.5-0.1c-0.1,0-0.2,0-0.3-0.1c-0.2,0-0.4-0.1-0.6-0.1
			c0,0-0.1,0-0.1,0h-0.1c-0.2,0-0.4,0-0.6,0c-4.6-0.1-8.5,3.2-8.7,7.4c0,0-0.1,0.9-0.2,2c-0.4-0.3-0.8-0.4-1.3-0.4
			c-0.3,0.1-0.6,0.3-0.8,0.5c0.1,0.9,0.1,1.7,0.2,2.6l0.3,0.3l-0.3,0l-0.1-0.4l-0.4-1.9l-1.5-7.2c-0.8-3.8,1.5-7.6,5.5-8.8
			c0.8-0.3,1.7-0.4,2.6-0.4c0.6-2.3,3.5-5.7,8.3-4.7c11.3,2.3,12.5-1.2,13.7-1.2c0,0,0.1,0,0.2,0
			C416.3,154.8,413.9,163.6,409.8,165.9z"/>
		<path fill="none" stroke="#000000" stroke-width="3" stroke-linecap="round" stroke-linejoin="round" stroke-miterlimit="10" d="
			M415.6,154.6c-0.5,0-0.8,0.5-1.3,0.8c-0.4,0.3-0.9,0.6-1.4,0.9c-1,0.5-2.1,0.8-3.2,0.9c-2.2,0.3-4.4,0.2-6.6-0.1l-1.6-0.2
			c-0.5-0.1-0.9-0.1-1.3-0.1c-0.8,0-1.7,0.2-2.4,0.5c-1.4,0.7-2.6,2.1-3,3.5v0c-0.2,0.6-0.8,1-1.4,1.1c-1.8,0-3.5,0.7-4.8,1.8
			c-1.3,1.1-2.1,2.6-2.4,4.3c-0.1,0.8,0,1.6,0.1,2.6l0.3,2.9c0.1,1,0.2,1.9,0.3,2.9c0.1,0.9,0.1,1.7,0.2,2.6c0,0.1,0,0.2,0,0.3
			c-0.1-0.1-0.1-0.3-0.2-0.4c-0.1-0.4-0.3-0.7-0.4-1.1c-0.5-1.3-0.9-2.7-1.3-4l-0.8-2.8c-0.3-0.9-0.6-2-0.5-3.1c0-2.2,1-4.4,2.7-6
			c1.5-1.4,3.5-2.3,5.7-2.6c0.3-0.8,0.8-1.4,1.4-2.1c0.8-0.9,1.8-1.6,2.9-2.1c1.2-0.5,2.5-0.7,3.8-0.6c0.6,0,1.3,0.2,1.8,0.3
			l1.5,0.4c2,0.4,4,0.8,6,0.8c1,0,2-0.1,3-0.3c0.5-0.1,1-0.3,1.4-0.5c0.4-0.1,0.9-0.5,1.4-0.4C415.5,154.6,415.6,154.6,415.6,154.6z
			"/>
		<path fill="none" stroke="#000000" stroke-width="3" stroke-linecap="round" stroke-linejoin="round" stroke-miterlimit="10" d="
			M454.3,246.5c0,0-0.1,0-0.2,0.1c-0.6,0.4-2.8,1.7-6.8,3.4c-4.7,2-12,4.7-22,7c-7.3,1.7-13.8,2.4-19.2,2.6
			c-8.2,0.4-13.3-0.3-13.3-0.3l-0.1-0.2v0l-19.5-38.8l-5-9.9c-0.4-7,9.7-10.9,20.8-14.8c3.1-1,6.2-2.1,9.2-3.2l0.8,1.1
			c1.3,1.9,4.1,2.4,6.2,1.3c2.1-1.2,2.7-3.6,1.4-5.5c4.5-1.6,9.8-3.3,14.9-4.5c0,0,0,0,0,0c7.7-1.8,15.1-2.6,19.5-0.5
			c5.6,2.7,6.4,10.4,7,18.2c0,0.5,0.1,1.1,0.1,1.6C448.8,214.5,454.3,246.5,454.3,246.5z"/>
		<g>
			<path fill="none" stroke="#000000" stroke-width="3" stroke-linecap="round" stroke-linejoin="round" stroke-miterlimit="10" d="
				M394.9,187.9c-0.1-0.1-0.1-0.1-0.1-0.2c0,0,0,0,0,0v0C394.8,187.7,394.9,187.8,394.9,187.9z"/>
			<path fill="none" stroke="#000000" stroke-width="3" stroke-linecap="round" stroke-linejoin="round" stroke-miterlimit="10" d="
				M406.6,189.5C406.5,189.5,406.5,189.5,406.6,189.5c-0.1-0.1-0.1-0.2-0.2-0.3L406.6,189.5C406.5,189.4,406.5,189.5,406.6,189.5z"
				/>
			<path fill="none" stroke="#000000" stroke-width="3" stroke-linecap="round" stroke-linejoin="round" stroke-miterlimit="10" d="
				M405.1,194.9c-2.1,1.2-4.8,0.6-6.2-1.3l-0.8-1.1l-1.6-2.3c0,0,0,0,0,0L395,188c0,0-0.1-0.1-0.1-0.1c0,0,0,0,0,0
				c0-0.1-0.1-0.1-0.1-0.2c0.7,0.3,1.4,0.5,2.2,0.5c0,0,0,0,0,0c1.1,0.1,2.3-0.1,3.3-0.7c1.1-0.7,2.3-1.3,3.3-2.2h0l2.8,4
				c0.1,0.1,0.1,0.2,0.1,0.3c0,0,0.1,0,0.1,0C407.8,191.3,407.2,193.8,405.1,194.9z"/>
			<path fill="none" stroke="#000000" stroke-width="3" stroke-linecap="round" stroke-linejoin="round" stroke-miterlimit="10" d="
				M396.6,190.3l-1.4-2c0-0.1-0.1-0.1-0.1-0.2L396.6,190.3z"/>
		</g>
		<path fill="none" stroke="#000000" stroke-width="3" stroke-linecap="round" stroke-linejoin="round" stroke-miterlimit="10" d="
			M388.3,180.7L388.3,180.7C388.3,180.7,388.3,180.7,388.3,180.7C388.3,180.7,388.2,180.7,388.3,180.7c-0.1-0.1-0.1-0.1-0.2-0.1
			c-0.1,0-0.1-0.1-0.2-0.1c-0.4-0.3-0.7-0.8-1-1.4c-0.1-0.2-0.1-0.3-0.2-0.5c0,0,0-0.1,0-0.1c0,0,0-0.1,0-0.1v0l0,0
			c-0.1-0.3-0.1-0.5-0.1-0.8c0-0.3,0-0.5,0.1-0.7c0.1-0.2,0.2-0.5,0.3-0.6c0.1,0.9,0.1,1.7,0.2,2.6l0.3,0.3l0.3,0.3L388.3,180.7z"/>
		<path fill="none" stroke="#000000" stroke-width="3" stroke-linecap="round" stroke-linejoin="round" stroke-miterlimit="10" d="
			M408.5,178.7c0,0.3-0.1,0.7-0.3,1c-0.3,0.8-0.9,1.5-1.5,1.8c-0.3,0.1-0.6,0.2-0.9,0.2c0,0.1,0,0.1,0,0.1c-0.4,1.4-1.3,2.5-2.3,3.3
			h0c-1,0.9-2.2,1.5-3.3,2.2c-1,0.6-2.2,0.8-3.3,0.7c0,0,0,0,0,0c-0.7,0-1.5-0.2-2.2-0.5v0c0,0,0,0,0,0c-0.3-0.1-0.7-0.3-1-0.6
			c-2.1-1.6-4.3-3.2-4.8-6.1c0,0,0-0.1,0-0.1c-0.2,0-0.4-0.1-0.6-0.2l-0.3-1.2l-0.3-0.3l-0.3-0.3c0-0.9-0.1-1.7-0.2-2.6
			c0.2-0.3,0.5-0.5,0.8-0.5c0.4-0.1,0.9,0.1,1.3,0.4c0.1-1.1,0.2-2,0.2-2c0.3-4.2,4.1-7.5,8.7-7.4c0.2,0,0.4,0,0.6,0h0.1
			c0,0,0.1,0,0.1,0c0.2,0,0.4,0.1,0.6,0.1c0.1,0,0.2,0,0.3,0.1c0.2,0,0.3,0.1,0.5,0.1c0.1,0,0.2,0.1,0.3,0.1
			c0.2,0.1,0.3,0.1,0.5,0.2c0.1,0,0.2,0.1,0.3,0.1c0.2,0.1,0.4,0.1,0.5,0.2c0,0,0.1,0,0.1,0.1c2.3,1.1,3.9,3.2,4.3,5.6
			c0.1,0.6,0.1,1.1,0.1,1.7c0,0,0,0.9-0.1,2c0.4-0.3,0.9-0.4,1.3-0.2C408.3,177,408.6,177.8,408.5,178.7z"/>
		<path fill="none" stroke="#000000" stroke-width="3" stroke-linecap="round" stroke-linejoin="round" stroke-miterlimit="10" d="
			M388.1,180.6c0.1,0,0.1,0.1,0.2,0.1l0,0C388.3,180.7,388.2,180.6,388.1,180.6z"/>
		<path fill="none" stroke="#000000" stroke-width="3" stroke-linecap="round" stroke-linejoin="round" stroke-miterlimit="10" d="
			M388.3,180.7L388.3,180.7C388.3,180.7,388.3,180.7,388.3,180.7C388.3,180.7,388.2,180.7,388.3,180.7c-0.1-0.1-0.1-0.1-0.2-0.1
			c-0.1,0-0.1-0.1-0.2-0.1c-0.4-0.3-0.7-0.8-1-1.4c-0.1-0.2-0.1-0.3-0.2-0.5c0,0,0-0.1,0-0.1c0,0,0-0.1,0-0.1v0l0,0
			c-0.1-0.3-0.1-0.5-0.1-0.8c0-0.3,0-0.5,0.1-0.7c0.1-0.2,0.2-0.5,0.3-0.6c0.1,0.9,0.1,1.7,0.2,2.6l0.3,0.3l0.3,0.3L388.3,180.7z"/>
		
			<polygon fill="none" stroke="#000000" stroke-width="3" stroke-linecap="round" stroke-linejoin="round" stroke-miterlimit="10" points="
			439.9,459 428.5,459.2 427.4,454.8 440.6,453.4 		"/>
		
			<polygon fill="none" stroke="#000000" stroke-width="3" stroke-linecap="round" stroke-linejoin="round" stroke-miterlimit="10" points="
			479.9,422.5 483.8,413.5 478.9,410.6 474.3,421.7 		"/>
	</g>
	<g>
		<path fill="none" stroke="#000000" stroke-width="3" stroke-linecap="round" stroke-linejoin="round" stroke-miterlimit="10" d="
			M246.8,486L246.8,486c-1.1-0.1-1.9-1.1-1.8-2.1l1.3-9.5c0.1-1,4.2-0.5,4.1,0.5l-1.3,9.5C248.9,485.4,247.9,486.1,246.8,486z"/>
		<path fill="none" stroke="#000000" stroke-width="3" stroke-linecap="round" stroke-linejoin="round" stroke-miterlimit="10" d="
			M255.2,493.6c-0.3,0.4-1,0.5-1.4,0.3l-11.4-6.8c-0.6-0.4-0.7-1.1-0.2-1.6l1.6-1.8c0.4-0.5,1.2-0.6,1.8-0.3c0,0-0.3,1,0.7,1.8
			c0.8,0.6,1.6,0.2,2-0.3c0.2-0.2,0.6-0.2,0.8,0.1l6.1,7.6C255.5,492.9,255.5,493.3,255.2,493.6L255.2,493.6z"/>
		<g>
			<g>
				
					<path fill="none" stroke="#000000" stroke-width="3" stroke-linecap="round" stroke-linejoin="round" stroke-miterlimit="10" d="
					M275.2,387.8c-2.8,17.2-23.6,89.2-23.6,89.2l-1.4-0.2l-4.1-0.5l-9.2-1.1l0-81.4l-0.7-33.4l-0.1-2.7c1.4-19.7,5-13.6,3.2-42.7
					c3.5-0.7,7.1-1.8,10.4-3.6c0.2-0.1,0.3-0.2,0.5-0.3c12.9-7,21.2-11,21.2-11s-0.1-0.2-0.2-0.5c2.1,3.1,11.7,18,12.8,41.5
					C284.7,357.1,278.1,370.5,275.2,387.8z"/>
			</g>
		</g>
		<path fill="none" stroke="#000000" stroke-width="3" stroke-linecap="round" stroke-linejoin="round" stroke-miterlimit="10" d="
			M219.6,447.8L219.6,447.8c1.1-0.3,1.6-1.4,1.3-2.4l-3.5-9.1c-0.4-1-4.3,0.2-3.9,1.2l3.5,9.1C217.4,447.6,218.6,448.1,219.6,447.8z
			"/>
		<path fill="none" stroke="#000000" stroke-width="3" stroke-linecap="round" stroke-linejoin="round" stroke-miterlimit="10" d="
			M208.7,452.5c0.3,0.4,0.9,0.6,1.4,0.4l12-5.9c0.6-0.3,0.8-1.1,0.3-1.6l-1.4-1.9c-0.4-0.5-1.2-0.7-1.8-0.4c0,0,0.2,1-0.8,1.7
			c-0.8,0.6-1.6,0-2-0.4c-0.2-0.2-0.6-0.2-0.8,0l-6.8,7.1C208.6,451.7,208.5,452.1,208.7,452.5L208.7,452.5z"/>
		<g>
			<path fill="none" stroke="#000000" stroke-width="3" stroke-linecap="round" stroke-linejoin="round" stroke-miterlimit="10" d="
				M143.6,361.8c-0.4,0-0.8-0.3-1.1-0.7c-0.4-0.6-0.9-1.6-0.9-2.1c0-0.3,0.2-0.6,0.4-0.8c0.2-0.2,0.7-0.3,1-0.3
				c1.1-0.1,4.4-0.5,5.6,0.4c0.3,0.2,0.3,0.6,0.3,1.1c-0.1,1.5-1.4,2.7-2.8,2.6L143.6,361.8z"/>
			<path fill="none" stroke="#000000" stroke-width="3" stroke-linecap="round" stroke-linejoin="round" stroke-miterlimit="10" d="
				M143.3,364.4l-0.1,0c-0.4-0.6-0.1-1.2,0.6-1.6l0.8-0.4l1.5-1.4l1.7,0.4l-2.2,1.9L143.3,364.4z"/>
			<path fill="none" stroke="#000000" stroke-width="3" stroke-linecap="round" stroke-linejoin="round" stroke-miterlimit="10" d="
				M138.8,363c0.3,0.4,0.9,0.3,1.5-0.1c0.2-0.1,0.8-0.6,0.8-0.6l3-0.9l-1.4-0.9l-2.7,1.1L138.8,363z"/>
			<path fill="none" stroke="#000000" stroke-width="3" stroke-linecap="round" stroke-linejoin="round" stroke-miterlimit="10" d="
				M137.3,362.8c0.4,0.4,0.9,0.4,1.6-0.2c0.2-0.2,1-0.8,1-0.8l3.4-1.3l-1.7-0.7l-2.8,1.2L137.3,362.8z"/>
			<path fill="none" stroke="#000000" stroke-width="3" stroke-linecap="round" stroke-linejoin="round" stroke-miterlimit="10" d="
				M138.5,360.3l-0.5,0.9c0.3,0.5,0.7-0.1,1.5-0.5l1.3-0.6l2.6-0.9l-0.6-1l-2.5,0.9L138.5,360.3z"/>
			<path fill="none" stroke="#000000" stroke-width="3" stroke-linecap="round" stroke-linejoin="round" stroke-miterlimit="10" d="
				M138.2,359.5L138.2,359.5c0.2,0.5,1,0.6,1.3,0.5c0.5-0.1,3.4-1.2,3.4-1.2l-0.4-0.8l-2.1,0.5L138.2,359.5L138.2,359.5z"/>
		</g>
		<g>
			<g>
				
					<path fill="none" stroke="#000000" stroke-width="3" stroke-linecap="round" stroke-linejoin="round" stroke-miterlimit="10" d="
					M250.2,311c0,6-0.6,15-3.3,23.8c-5.1,16.5-10,25.1-10,25.1l-0.6,0.4l-38.1,25l21,54.8l-0.3,0l-4.1,0.6l-9.7,1.5
					c0,0-43.7-51.4-40.6-65.4c2.8-12.3,19.8-26.2,31.4-38.4c11.2-11.8,15.4-16.5,22.3-25.3c0.1,0.1,0.1,0.2,0.2,0.3
					c0.8,1.2,10.7,3.3,21,1.4c3.5-0.7,7.1-1.8,10.4-3.6C249.9,311.2,250,311.1,250.2,311z"/>
			</g>
		</g>
		<path fill="none" stroke="#000000" stroke-width="3" stroke-linecap="round" stroke-linejoin="round" stroke-miterlimit="10" d="
			M271.4,300c0,0-8.3,4-21.2,11c-0.2,0.1-0.3,0.2-0.5,0.3c-3.3,1.8-6.9,2.9-10.4,3.6c-10.3,1.9-20.1-0.2-21-1.4
			c-0.1-0.1-0.1-0.2-0.2-0.3v0c-4.7-6.5-8.5-10.6-12.9-15.2c1.7-6.3,2.9-11.7,2.9-11.7s1.7-13.3-4.7-13c-0.5,0-1,0.1-1.5,0.3
			c3.1-2,6.9-4.2,11-6.6l7.1,3.8l1.1-4.4l5.3,0.4l-2.4-6.6l0,0c1.4-1,2.6-1.9,3.8-3c0.4-0.4,0.8-0.7,1.2-1.1
			c-2.5,6.4,19.4,9.3,21,6.5c0.2-0.3,0.3-0.6,0.5-0.9c4.4,4.7,8.5,9.8,10.9,14.4c3,5.8,8.7,20.5,9.8,23.5
			C271.3,299.8,271.4,300,271.4,300z"/>
		<path fill="none" stroke="#000000" stroke-width="3" stroke-linecap="round" stroke-linejoin="round" stroke-miterlimit="10" d="
			M226.5,266.6l-5.3-0.4l-1.1,4.4l-7.1-3.8c1-0.6,2-1.2,3-1.7l0.9,1c0.7,0.8,2.1,1,3,0.3l0.7-0.5l0.5-0.3l0.6-0.4
			c0.9-0.7,1.1-1.9,0.4-2.7l-0.7-0.7c1-0.6,1.9-1.2,2.7-1.8l0,0L226.5,266.6z"/>
		<path fill="none" stroke="#000000" stroke-width="3" stroke-linecap="round" stroke-linejoin="round" stroke-miterlimit="10" d="
			M194,320.5c-0.2,1.2-0.7,2.5-1.4,3.9c0,0,0,0,0,0c-1.3,2.4-3.3,5-5.2,7.3c-2,2.3-3.9,4.3-5.3,5.6c-7.7,7.8-34.4,24.1-34.4,24.1v0
			l0.2-3c0,0,0-0.1,0.1-0.3c1.4-3.1,12.7-27.4,21.5-37.9c0.8-0.9,1.6-1.8,2.3-2.4c0.6-0.6,1.3-1.1,1.9-1.7c2-1.6,4-2.8,6-3.6
			C184.2,314.9,190.6,318.5,194,320.5z"/>
		<path fill="none" stroke="#000000" stroke-width="3" stroke-linecap="round" stroke-linejoin="round" stroke-miterlimit="10" d="
			M208.1,286.2c0,0-1.2,5.4-2.9,11.7c-0.8,2.9-1.7,6.1-2.6,8.9c-1.3,4.2-4.2,10-7.4,14.4c-0.3-0.2-0.7-0.5-1.2-0.7
			c-3.4-2.1-9.8-5.6-14.1-8c-2-1.1-3.6-2-4.2-2.3c5.2-10.7,17.5-33.9,26.2-36.7c0.5-0.2,1-0.3,1.5-0.3
			C209.8,272.9,208.1,286.2,208.1,286.2z"/>
		<path fill="none" stroke="#000000" stroke-width="3" stroke-linecap="round" stroke-linejoin="round" stroke-miterlimit="10" d="
			M195.2,321.3c-0.8,1.2-1.7,2.2-2.6,3.1c0,0,0,0,0,0c-3.5,3.7-15.7-5.8-18.7-8.3c-0.5-0.4-0.7-0.6-0.7-0.6s0.9-2.1,2.5-5.3
			c0.6,0.3,2.2,1.2,4.2,2.3c4.3,2.4,10.7,5.9,14.1,8C194.5,320.8,194.9,321.1,195.2,321.3z"/>
		<path fill="none" stroke="#000000" stroke-width="3" stroke-linecap="round" stroke-linejoin="round" stroke-miterlimit="10" d="
			M219,255.4c0.4,1.2,0.2,2.4-0.3,3.5v0c-0.6,1.2-1.7,2.3-3.2,2.8c-0.8,0.3-1.6,0.4-2.3,0.4h0c-2.1,0-4-1.1-5.1-2.7
			c-0.6,0.1-1.6-0.5-2.5-1.5c0,0-0.1-0.1-0.1-0.1c0,0,0,0,0-0.1c-0.1-0.1-0.1-0.2-0.2-0.2c-0.8-1.1-1.1-2.2-0.7-2.5
			c0.3-0.2,1,0,1.7,0.4l-0.3-0.6c-1.2-2.7,0.2-5.8,3.3-6.9c3-1.1,6.5,0.2,7.7,2.9l0.3,0.7c0.1-0.8,0.4-1.3,0.9-1.4
			c0.6-0.1,1.2,0.9,1.4,2.1c0,0.2,0.1,0.3,0.1,0.5C219.9,254,219.6,255.1,219,255.4z"/>
		<path fill="none" stroke="#000000" stroke-width="3" stroke-linecap="round" stroke-linejoin="round" stroke-miterlimit="10" d="
			M219.8,252c0,0.1-0.1,0.1-0.1,0.2c-0.3-1.2-0.9-2.1-1.4-2.1c-0.4,0-0.8,0.6-0.9,1.4l-0.3-0.7c-1.2-2.7-4.7-4-7.7-2.9
			c-3,1.1-4.5,4.2-3.3,6.9l0.3,0.6c-0.7-0.5-1.4-0.7-1.7-0.4c-0.5,0.3-0.2,1.4,0.7,2.5c0.1,0.1,0.1,0.2,0.2,0.2c0,0,0,0,0,0.1
			c0,0,0,0.1,0.1,0.1c-0.9-0.1-1.9-0.5-2.7-1c-1-0.7-1.7-1.5-2.4-2.4c-0.6-0.9-1.2-2-1.1-3.3c0.1-0.8,0.5-1.6,1.1-2.2
			c-0.5-0.5-0.9-1.1-1.1-1.9c-0.1-0.6-0.1-1.3,0.1-1.9c0.3-0.6,0.6-1.1,1-1.5c0.8-0.8,1.8-1.4,2.9-1.7c0.7-0.2,1.5-0.4,2.3-0.3
			c0-1.1,0.1-2.4,0.7-3.5c0.4-0.8,1.2-1.4,2-1.7c0.8-0.3,1.7-0.4,2.5-0.4c7.2-1,6.8,7.3,5.9,8.6c0,0,2.1-0.5,3,1.6
			c0.6,1.4-0.5,2.2-0.6,2.1C219.7,248.4,220.7,250.7,219.8,252z"/>
		<g>
			<path fill="none" stroke="#000000" stroke-width="3" stroke-linecap="round" stroke-linejoin="round" stroke-miterlimit="10" d="
				M224.8,165.5c-0.4-0.1-0.9,0-1.3,0.3c-0.6,0.5-1.5,1.2-1.7,1.7c-0.1,0.3,0,0.6,0.1,0.9c0.1,0.3,0.5,0.5,0.8,0.6
				c1,0.5,3.9,1.9,5.3,1.4c0.3-0.1,0.5-0.5,0.7-0.9c0.5-1.5-0.2-3-1.6-3.3L224.8,165.5z"/>
			<path fill="none" stroke="#000000" stroke-width="3" stroke-linecap="round" stroke-linejoin="round" stroke-miterlimit="10" d="
				M225.5,163l-0.1,0c-0.7,0.4-0.5,1.1-0.1,1.7l0.6,0.6l0.9,1.8l1.7,0.2l-1.3-2.5L225.5,163z"/>
			<path fill="none" stroke="#000000" stroke-width="3" stroke-linecap="round" stroke-linejoin="round" stroke-miterlimit="10" d="
				M220.8,162.9c0.4-0.3,1,0,1.4,0.6c0.1,0.2,0.5,0.8,0.5,0.8l2.4,1.8l-1.7,0.4l-2.1-1.9L220.8,162.9z"/>
			<path fill="none" stroke="#000000" stroke-width="3" stroke-linecap="round" stroke-linejoin="round" stroke-miterlimit="10" d="
				M219.3,162.7c0.5-0.3,0.9-0.1,1.4,0.7c0.2,0.3,0.6,1.1,0.6,1.1l2.7,2.3l-1.8,0.2l-2.1-2L219.3,162.7z"/>
			<path fill="none" stroke="#000000" stroke-width="3" stroke-linecap="round" stroke-linejoin="round" stroke-miterlimit="10" d="
				M219.4,165.3l-0.1-1c0.5-0.4,0.6,0.3,1.2,0.9l0.9,0.9l2,1.7l-0.9,0.7l-2-1.6L219.4,165.3z"/>
			<path fill="none" stroke="#000000" stroke-width="3" stroke-linecap="round" stroke-linejoin="round" stroke-miterlimit="10" d="
				M218.8,166L218.8,166c0.3-0.4,1.2-0.2,1.4-0.1c0.4,0.2,2.8,2.2,2.8,2.2l-0.7,0.7l-1.8-1.2L218.8,166L218.8,166z"/>
		</g>
		
			<polyline fill="none" stroke="#000000" stroke-width="3" stroke-linecap="round" stroke-linejoin="round" stroke-miterlimit="10" points="
			226,168.8 228.2,173.1 231.8,171.6 228.6,168.2 226.5,168.5 226,168.8 		"/>
		<path fill="none" stroke="#000000" stroke-width="3" stroke-linecap="round" stroke-linejoin="round" stroke-miterlimit="10" d="
			M263.4,217.8c-3.7,1.9-15.3,3-19.9,3.4c-0.2-0.7-0.5-1.5-0.8-2.3c-0.8-2.2-1.6-4.6-2.5-7.2c-5.2-15.4-11.9-36.3-13.5-41.2h0
			c0-0.1,0-0.1-0.1-0.2c0,0,0,0,0,0c-0.2-0.5-0.3-0.8-0.3-0.8l2.4-1c0,0,0,0,0,0c0,0,0,0,0,0c0.1,0.1,0.2,0.2,0.3,0.3
			c0.4,0.4,1.2,1.3,2.2,2.4c0.1,0.1,0.2,0.2,0.3,0.4c6.2,6.7,20.7,22.8,27.6,34.9c1.6,2.9,2.9,5.5,3.5,7.7c0.2,0.8,0.4,1.5,0.4,2.2
			C263.3,216.9,263.4,217.4,263.4,217.8z"/>
		<path fill="none" stroke="#000000" stroke-width="3" stroke-linecap="round" stroke-linejoin="round" stroke-miterlimit="10" d="
			M263.7,217.6c-0.1,1.5-0.3,3.6-0.9,6.4c-0.9,4.6-2,12.3-4.9,21.6c-3,9.6-5,11.6-7.5,15.9c0,0,0,0,0,0c-0.2,0.3-0.3,0.6-0.5,0.9
			c-1.6,2.8-23.5-0.1-21-6.5c0.1-0.2,0.1-0.3,0.2-0.5c1.1-2,3.8-6.5,4.6-9.3c2.7-9.2,6.4-20.1,8.1-24.8c0.3,0,0.8-0.1,1.6-0.1
			c4.5-0.4,16.1-1.4,19.9-3.4C263.5,217.7,263.6,217.7,263.7,217.6z"/>
		<path fill="none" stroke="#000000" stroke-width="3" stroke-linecap="round" stroke-linejoin="round" stroke-miterlimit="10" d="
			M263.7,217.6c-0.1,0.1-0.2,0.1-0.3,0.2c-3.7,1.9-15.3,3-19.9,3.4c-0.8,0.1-1.3,0.1-1.6,0.1c0.5-1.5,0.8-2.4,0.8-2.4l20.2-4.6
			l0.5-0.1C263.4,214.1,263.8,214.9,263.7,217.6z"/>
		<path fill="none" stroke="#000000" stroke-width="3" stroke-linecap="round" stroke-linejoin="round" stroke-miterlimit="10" d="
			M188.3,332c-0.1,0-0.4-0.1-0.9-0.2c-3.6-1.4-16-8.1-17.7-11.5c-0.1-0.2-0.1-0.3-0.2-0.5c-0.6-3.5,6-9.6,6-9.6s0.1,0.1,0.3,0.1
			c0.6,0.3,2.2,1.2,4.2,2.3c4.3,2.4,10.7,5.9,14.1,8c0.5,0.3,0.9,0.5,1.2,0.7c0.3,0.2,0.6,0.4,0.8,0.5
			C199.1,323.9,189.5,331.8,188.3,332z"/>
		<path fill="none" stroke="#000000" stroke-width="3" stroke-linecap="round" stroke-linejoin="round" stroke-miterlimit="10" d="
			M264.5,216.5c0,0.4-0.3,0.8-0.8,1.1c-0.1,0.1-0.2,0.1-0.3,0.2c-3.7,1.9-15.3,3-19.9,3.4c-0.8,0.1-1.3,0.1-1.6,0.1
			c-0.1,0-0.2,0-0.2,0s-2.9-4.7-2.4-9.4c0,0,0.4-0.1,1-0.2c3.3-0.7,14.1-2.9,19.2-5.2c0.2-0.1,0.4-0.2,0.6-0.3
			C260.1,206.2,264.3,213.1,264.5,216.5z"/>
		<path fill="none" stroke="#000000" stroke-width="3" stroke-linecap="round" stroke-linejoin="round" stroke-miterlimit="10" d="
			M226.5,266.6l-5.3-0.4l-0.5,0l-0.1-0.2l0.5-0.3l0.6-0.4c0.9-0.7,1.1-1.9,0.4-2.7l-0.7-0.7l-0.7-0.7c0,0,0,0,0,0l-0.1-0.1l3.4-0.9
			l0,0L226.5,266.6z"/>
		<path fill="none" stroke="#000000" stroke-width="3" stroke-linecap="round" stroke-linejoin="round" stroke-miterlimit="10" d="
			M221.6,265.3l-0.6,0.4l-0.5,0.3l-0.7,0.5c-0.9,0.7-2.3,0.5-3-0.3l-0.9-1l-1.3-1.5h0l-1.1-1.3l-0.3-0.3c0.8,0,1.6-0.1,2.3-0.4
			c1.5-0.5,2.6-1.6,3.2-2.8l1.8,2.1l0.1,0.1c0,0,0,0,0,0l0.7,0.7l0.7,0.7C222.7,263.4,222.6,264.6,221.6,265.3z"/>
		<path fill="none" stroke="#000000" stroke-width="3" stroke-linecap="round" stroke-linejoin="round" stroke-miterlimit="10" d="
			M221.2,266l-0.1,0.2l-1.1,4.4l-7.1-3.8l-0.1,0l1.4-3.3l0.3,0.1h0l1.3,1.5l0.9,1c0.7,0.8,2.1,1,3,0.3l0.7-0.5l0.5-0.3L221.2,266z"
			/>
		<path fill="none" stroke="#000000" stroke-width="3" stroke-linecap="round" stroke-linejoin="round" stroke-miterlimit="10" d="
			M259.3,211.1c0.1,0.9-0.6,1.7-1.6,1.8c-1,0.1-1.9-0.5-2-1.4c-0.1-0.9,0.6-1.7,1.6-1.8C258.3,209.6,259.2,210.2,259.3,211.1z"/>
		<path fill="none" stroke="#000000" stroke-width="3" stroke-linecap="round" stroke-linejoin="round" stroke-miterlimit="10" d="
			M190.6,326.6c0.1,0.9-0.6,1.7-1.6,1.8c-1,0.1-1.9-0.5-2-1.4c-0.1-0.9,0.6-1.7,1.6-1.8C189.6,325,190.5,325.7,190.6,326.6z"/>
	</g>
</g>
<polygon points="534.1,477.5 513.4,498.2 534.1,518.9 513.4,539.6 534.1,560.3 513.4,581 534.1,601.7 513.4,601.7 492.7,581 
	513.4,560.3 492.7,539.6 513.4,518.9 492.7,498.2 513.4,477.5 492.7,456.8 513.4,436.1 534.1,436.1 513.4,456.8 "/>
<polygon points="492.7,477.5 472,498.2 492.7,518.9 472,539.6 492.7,560.3 472,581 492.7,601.7 472,601.7 451.3,581 472,560.3 
	451.3,539.6 472,518.9 451.3,498.2 472,477.5 451.3,456.8 472,436.1 492.7,436.1 472,456.8 "/>
<polygon points="616.9,477.5 596.2,498.2 616.9,518.9 596.2,539.6 616.9,560.3 596.2,581 616.9,601.7 596.2,601.7 575.5,581 
	596.2,560.3 575.5,539.6 596.2,518.9 575.5,498.2 596.2,477.5 575.5,456.8 596.2,436.1 616.9,436.1 596.2,456.8 "/>
<polygon points="575.5,477.5 554.8,498.2 575.5,518.9 554.8,539.6 575.5,560.3 554.8,581 575.5,601.7 554.8,601.7 534.1,581 
	554.8,560.3 534.1,539.6 554.8,518.9 534.1,498.2 554.8,477.5 534.1,456.8 554.8,436.1 575.5,436.1 554.8,456.8 "/>
</svg>
