<?xml version="1.0" encoding="utf-8"?>
<!-- Generator: Adobe Illustrator 24.0.1, SVG Export Plug-In . SVG Version: 6.00 Build 0)  -->
<svg version="1.2" baseProfile="tiny" id="Layer_1" xmlns="http://www.w3.org/2000/svg" xmlns:xlink="http://www.w3.org/1999/xlink"
	 x="0px" y="0px" viewBox="0 0 685.1 623.3" xml:space="preserve">
<g>
	<path fill="#40E9AF" d="M306.3,51.4c-31,15.8-60.8,33.4-91.1,50.1c-29,16.1-58.8,31.6-86.3,49.6c-24.7,16.1-48,34.9-63,58.3
		c-14.9,23.2-19.3,49.1-14.7,75.1c4.8,26.6,17.8,51.9,32,75.9c28.4,47.7,60.7,96.2,107.5,133.1c7,5.5,14.4,10.8,22,15.7
		c29.1,26,68.1,44.1,109.5,52.3c59.9,11.8,123,2.4,177.8-19.6c56.9-22.8,110.4-60,136.8-109c27.5-51.1,19.4-109-0.7-161.1
		c-20.6-53.3-52-103.8-91.1-149.1C509,80.9,459.7,31.4,393.1,28.3C361.7,26.9,332.5,38,306.3,51.4z"/>
	<path fill="none" stroke="#000000" stroke-width="2" stroke-linejoin="round" stroke-miterlimit="10" d="M349.4,165.5
		c-0.1,2.6-2.5,4.6-5.4,4.5c-2.9-0.1-5.8-2.3-5.7-4.9c0.1-2.6,3.5-5.6,6.4-5.5C347.6,159.7,349.5,162.9,349.4,165.5z"/>
	<g>
		<polygon fill="none" stroke="#000000" stroke-width="2" stroke-linejoin="round" stroke-miterlimit="10" points="562.4,379.5 
			560.3,379.4 562.5,322.4 564.6,322.5 		"/>
		<polygon fill="none" stroke="#000000" stroke-width="2" stroke-linejoin="round" stroke-miterlimit="10" points="517.3,378.1 
			515.1,378 517.4,321 519.5,321.1 		"/>
		<polygon fill="none" stroke="#000000" stroke-width="2" stroke-linejoin="round" stroke-miterlimit="10" points="517.2,353.8 
			562.3,355.2 562.1,359.4 517,358 		"/>
		<path fill="none" stroke="#000000" stroke-width="2" stroke-linejoin="round" stroke-miterlimit="10" d="M561.4,350.2
			c-0.1,3.1-2.5,5.8-5.8,6.6c-4.2,1.1-9.9,2.1-16.4,1.8c-6.3-0.2-11.6-1.5-15.6-2.8c-3.2-1.1-5.3-3.9-5.2-7l1.2-31.8l43,1.4
			L561.4,350.2z"/>
		<path fill="none" stroke="#000000" stroke-width="2" stroke-linejoin="round" stroke-miterlimit="10" d="M562.7,318.5
			c0,0.3-1.4,0.5-3.9,0.6c-3.9,0.2-10.4,0.2-17.7,0c-7.5-0.2-14-0.7-17.9-1.1c-2.3-0.3-3.6-0.6-3.6-0.8c0-0.7,9.7-1,21.5-0.6
			C553.1,316.9,562.7,317.7,562.7,318.5z"/>
		<path fill="none" stroke="#000000" stroke-width="2" stroke-linejoin="round" stroke-miterlimit="10" d="M558.8,319.1
			c-3.9,0.2-10.4,0.2-17.7,0c-7.5-0.2-14-0.7-17.9-1.1c2.2-0.5,9.4-0.6,17.8-0.4C549.5,317.8,556.7,318.5,558.8,319.1z"/>
		<polygon fill="none" stroke="#000000" stroke-width="2" stroke-linejoin="round" stroke-miterlimit="10" points="539.7,381.6 
			537.6,381.5 539.7,325.4 541.8,325.4 		"/>
		<path fill="none" stroke="#000000" stroke-width="2" stroke-linejoin="round" stroke-miterlimit="10" d="M540.8,318.3
			c12.4,1.1,31.2-24.7,34.2-27.5c1.8-1.7-25,21.1-23.9,19.3c4.1-6.9,9.7-26.8,20.6-40.8c-13.3,11.2-22,37.8-23.3,36.4
			c-2-2.2,13.1-62.2,12.7-62.9c-1.3-2.2-14.2,42-14.2,42s2-32.8,1.1-33.3c-2.6-1.5-5.9,41.5-6.7,41.5c-1.5,0.1,0.4-58.2-1.8-58.2
			c-2,0-2.1,51.2-2.1,51.2s-7.4-53.6-9.7-52.1c-1.7,1.1,8.3,67.2,7.8,67.1c-0.9-0.2-18-53.6-19.5-53.3c-2.4,0.4,20.1,62.5,17.2,64.6
			c0,0-30.5-36.9-32.7-36.2c-1.1,0.4,10.1,15.3,22.3,28.9C530.1,313.2,534,317.7,540.8,318.3z"/>
	</g>
	<g>
		<g>
			<path fill="none" stroke="#000000" stroke-width="2" stroke-linejoin="round" stroke-miterlimit="10" d="M151.2,380.4
				c-0.4,3.6-3.2,6.5-7,7.4c-2.4,0.6-5.3,1-8.6,0.9c-3.3-0.1-6.1-0.7-8.5-1.4c-3.8-1.2-6.3-4.3-6.4-7.8l-1.8-60.4l38.8,1.2
				L151.2,380.4z"/>
			<path fill="none" stroke="#000000" stroke-width="2" stroke-linejoin="round" stroke-miterlimit="10" d="M157.7,320.3
				c0,0.3-1.3,0.6-3.5,0.8c-3.5,0.3-9.4,0.4-16,0.2c-6.6-0.2-12.4-0.7-15.9-1.2c-2.2-0.3-3.5-0.7-3.4-1c0-0.9,8.8-1.4,19.5-1
				C149.1,318.4,157.7,319.4,157.7,320.3z"/>
			<path fill="none" stroke="#000000" stroke-width="2" stroke-linejoin="round" stroke-miterlimit="10" d="M154.2,321.1
				c-3.5,0.3-9.4,0.4-16,0.2c-6.6-0.2-12.4-0.7-15.9-1.2c2-0.6,8.4-0.9,16-0.7C145.9,319.7,152.2,320.4,154.2,321.1z"/>
		</g>
		<path fill="none" stroke="#000000" stroke-width="2" stroke-linejoin="round" stroke-miterlimit="10" d="M137.9,320.2l0-40.1
			l1.5,0l0,32.4c1.6-4,4.5-6.9,8.1-10.5c0.6-0.6,1.3-1.3,1.9-1.9l1.1,0.9c-0.7,0.7-1.3,1.3-1.9,1.9c-5.6,5.5-8.9,8.9-9.2,17.3
			L137.9,320.2z"/>
		<path fill="none" stroke="#000000" stroke-width="2" stroke-linejoin="round" stroke-miterlimit="10" d="M138.7,320.2l-1.5-0.1
			c0.5-5.5,2-12.8,3.9-19.5c2-7,4.2-12.5,6.1-15l1.2,0.7C144.7,291.4,139.8,308.5,138.7,320.2z"/>
		<path fill="none" stroke="#000000" stroke-width="2" stroke-linejoin="round" stroke-miterlimit="10" d="M137.9,320.2
			c0-11.5-4.9-27.2-9.6-35.8l1.3-0.6c4.8,8.7,9.8,24.7,9.7,36.4L137.9,320.2z"/>
		<path fill="none" stroke="#000000" stroke-width="2" stroke-linejoin="round" stroke-miterlimit="10" d="M138.2,320.2l-1.5-0.1
			c1-14.1-3.5-18.8-9.6-23.5l1-1C134.2,300.3,139.2,305.4,138.2,320.2z"/>
		<path fill="none" stroke="#000000" stroke-width="2" stroke-linejoin="round" stroke-miterlimit="10" d="M149.9,301.3
			c2.9,1.5,12.2,0.8,16.2-2.4c4.6-3.6,3.4-6.6,6.5-6.4c11.6,0.8,23.7-4.6,23.7-4.6c0.8-1.5-6.2-5.9-13.8-6.9
			c-1.1-0.1-8.8-0.9-16.3,3.1c-6,3.2-4.4,5.2-11.5,9.2C154.7,293.3,147.3,300,149.9,301.3z"/>
		<path fill="none" stroke="#000000" stroke-width="2" stroke-linejoin="round" stroke-miterlimit="10" d="M138.4,286.1
			c4.7,0.7,7.4-11.6,7.6-13c1.7-11.3,12.2-31.9,9.7-32.7c-1.7-0.5-17.5,14.7-21.2,24.6C130.4,276,133.1,285.3,138.4,286.1z"/>
		<path fill="none" stroke="#000000" stroke-width="2" stroke-linejoin="round" stroke-miterlimit="10" d="M145.9,288.3
			c-2.4-2.2,5.4-15.9,10.6-19.7c11.2-8.4,29.6-1.6,29.9-0.1c0,0-4.7,3.6-12.3,3.7c-6.6,0.1-6.3,5-10.6,8.1
			C157.8,284.5,147.6,289.9,145.9,288.3z"/>
		<path fill="none" stroke="#000000" stroke-width="2" stroke-linejoin="round" stroke-miterlimit="10" d="M128.5,296.4
			c-0.3,2.4-6.9-0.9-13.5,0.8c-6.1,1.5-9,3.9-13.3,3.4c-3.5-0.4-7.1-3.7-10.7-3.3c-5.9,0.7-11.9,5-11.9,5c-1.7-0.9,3.3-6.7,12-11.7
			C105.8,282.3,128.8,294.3,128.5,296.4z"/>
		<path fill="none" stroke="#000000" stroke-width="2" stroke-linejoin="round" stroke-miterlimit="10" d="M131.2,288.8
			c2.3-0.9-0.1-9.5-5.3-15.1c-7.2-7.8-34.2-7.5-33.8-6.5c0,0.1,0.1,0.1,0.4,0.1c8.9,1.7,12.2,4,15.5,6.4c3,2.2,3.1,7,6.4,8.8
			c2.1,1.2,5.1,0,9,1.4C127.8,285.6,127.8,290.2,131.2,288.8z"/>
	</g>
	<polygon fill="none" stroke="#000000" stroke-width="2" stroke-linejoin="round" stroke-miterlimit="10" points="537.6,414.7 
		174.4,403.3 216.4,371.3 514.6,380.7 	"/>
	<g>
		<path fill="none" stroke="#000000" stroke-width="2" stroke-linejoin="round" stroke-miterlimit="10" d="M529.8,433.9l-26.1-9.1
			C503.3,424.6,529.8,433.9,529.8,433.9z"/>
		<path fill="none" stroke="#000000" stroke-width="2" stroke-linejoin="round" stroke-miterlimit="10" d="M616,378l-72.2,1.7
			c-2.4,0.1-4.5,1.7-4.9,3.8l-9.1,50.3l73.2-4.7c2.4-0.2,4.5-1.7,5-3.9l10.7-44.3C619.1,379.4,617.8,378,616,378z"/>
	</g>
	<path fill="none" stroke="#000000" stroke-width="2" stroke-linejoin="round" stroke-miterlimit="10" d="M450.9,371.9
		c-3.1-3.5-8-3.6-11.2-0.9c0,0,1.4,11.1,1.6,12.7c0.3,2.7-3.5,4.7-2.4,7.2c1.1,2.5,3.6,2.9,5.4,2.5c8.7-1.8,20.5,4.4,20.7,0.3
		c0.1-2.5-16.8-4.3-16.2-10.3L450.9,371.9z"/>
	<path fill="none" stroke="#000000" stroke-width="2" stroke-linejoin="round" stroke-miterlimit="10" d="M253.5,367.2
		c0.2-4.5-4.2-6.5-8.5-6.3c0,0-14.9,16.3-16.3,17.3c-3.1,2.3-9.2,6.6-8,10.8c1,3.5,13.4,3.5,15.5,1.1c2.9-3.2-2.3-3.4,4-11.9
		L253.5,367.2z"/>
	<path fill="none" stroke="#000000" stroke-width="2" stroke-linejoin="round" stroke-miterlimit="10" d="M220.8,226.4
		c5.6,1.8,5,3.1,10.6,1.7c6.3-1.6,29.5,7.5,58.1,3.7c0,0,33.8,3.3,51.6-4.2c-0.1,1.1,1.1,8.4,1.5,9.5c7.4,21.6-0.1,26.4-0.1,26.4
		c-4.8,6.9,31.1,12.6,40,2.5c-5.7-7.6-5.1-10,3.6-24c1.7-2.8,1.8-12.3,1.8-12.3c11.2,1.7,36.3,7.9,56.3,4.3c0,0,23.3,3,45-4.1
		c1-0.3,5.8,1.2,9.2,1c3.9-0.2,2-0.7,7.4-2.8c3.3-1.3,10.9-0.1,11-2.1c0-0.9-5.5-1.3-11.1-1.4c1.4-1.7,1.8-3.6,1.4-3.8
		c-0.2-0.1-0.6,0.4-2.1,1.8c-0.4,0.4-0.8,0.7-1.1,1c-0.7,0.6-1.7,0.9-2.6,0.9c-3.2,0-5.8,0-6.6,0c-13.4,0.3-33.4-5.4-50.6-2
		c-14-4.4-30.6-8.8-52.5-10.2c-4-0.3-17.4-0.8-18.5-7.2c-0.5-2.7-0.5-7.6-0.6-8.2c0,0-10-2.9-12-2.8c-0.1,0-0.8,0.4-0.8,0.9
		c0.1,12-2.5,15.7-13.9,16c-25.2,0.6-55.6,7.3-55.6,7.3c-16.5,0.1-39.2,2.3-56,4.4c-1.2,0.1-2.7,0.2-4.4,0.1
		c-2.2-0.1-4.2-0.9-5.6-2.4c-0.2-0.2-0.4-0.4-0.6-0.6c-1.4-1.5-1.8-2-2-1.9c-0.4,0.2-0.1,2.6,1.6,4.5c-6.4-0.5-12.9-2.1-13.6-0.6
		C208.7,224,212.3,223.8,220.8,226.4z"/>
	<path fill="none" stroke="#000000" stroke-width="2" stroke-linejoin="round" stroke-miterlimit="10" d="M381.9,265.3
		c16.3,6.1,68.8,26.3,77,34.4c9.1,9-8,72.3-8,72.3l-11.1-0.2c-10.5-34.9-4.9-55.9-4.9-55.9c-31.6-3.9-56.4-13.5-66.9-17.1
		c-2.6-0.9-5.9-0.9-8.3,0.4c-7,3.9-27.6,17.8-54.2,35.8c0,0-45.7,30.2-55.6,35.1l-9.4-4.1c34.4-45.2,49.1-50.5,49.1-50.5
		s18.4-32.6,52.9-52c0,0,11.3,6.7,24.2,6.9C372.8,270.3,378.7,268.1,381.9,265.3z"/>
	<path fill="none" stroke="#000000" stroke-width="2" stroke-linejoin="round" stroke-miterlimit="10" d="M373.2,205.3
		c-4.2-0.1-10.3-5.9-13-10.2c0.1-0.5,0.1-0.8,0.3-0.8c2.1-0.1,12,2.8,12,2.8C372.7,197.7,372.6,202.6,373.2,205.3z"/>
	<path fill="none" stroke="#000000" stroke-width="2" stroke-linejoin="round" stroke-miterlimit="10" d="M378.2,179.9
		c0.9,2.6,2.5,8.6,0.7,13.7c-1,2.8-5.5,2.6-5.5,2.6c-5.5-0.1-15.7-5.2-15.4-12.8c0.2-5.7,5.2-10.1,11-9.9
		C374.9,173.6,376.5,174.7,378.2,179.9z"/>
	<path fill="none" stroke="#000000" stroke-width="2" stroke-linejoin="round" stroke-miterlimit="10" d="M355.4,183.3
		c0,0-5-3.7-6.1-6.7c-3.5-9.7,1.6-14.6,10.1-15.8c9.4-1.2,15.5,6.5,15.7,10.6c0,0.6-6.5,3.4-14.5,2.2c-1.5-0.2-0.3,3.3-1.2,5
		C359,179.5,359.4,180,355.4,183.3z"/>
	
		<ellipse fill="none" stroke="#000000" stroke-width="2" stroke-linejoin="round" stroke-miterlimit="10" cx="361.5" cy="193.6" rx="1.9" ry="1.7"/>
	<g>
		<path fill="none" stroke="#000000" stroke-width="2" stroke-linejoin="round" stroke-miterlimit="10" d="M398.9,222.6
			c-0.1,1.5-1.1,2.7-2.7,3.3c0.6,0.7,0.9,1.5,0.9,2.4c-0.1,1.6-1.4,3-3.2,3.5c-0.2,0-0.4,0.1-0.5,0.1c-5.7,1.3-4.3,4.4-5.2,7.7
			c-1.2,4.5-4,9.1-4,9.1c0,0,0,0,0,0c-0.7,1.4-2.5,2.4-4.5,2.3c-1.2,0-2.3-0.5-3.1-1.1c-0.1-0.1-0.2-0.2-0.3-0.3
			c-0.1,0.1-0.1,0.2-0.2,0.3c-0.9,1-2.3,1.6-3.9,1.5c-1.6-0.1-3-0.7-3.8-1.8c-0.1-0.1-0.2-0.3-0.3-0.4c-0.1,0.1-0.2,0.3-0.3,0.4
			c-0.5,0.6-1.2,1-2,1.3c-0.6,0.2-1.2,0.3-1.9,0.3c-0.9,0-1.8-0.3-2.5-0.7c-0.7-0.4-1.2-0.9-1.6-1.5c0,0,0,0,0,0c0,0,0,0,0,0
			c0,0,0,0,0,0c-0.8,1.2-2.4,2-4.2,1.9c-1.9-0.1-3.6-1.1-4.2-2.5c-0.9,1-2.3,1.6-4,1.6c-2.5-0.1-4.5-1.7-4.5-3.8c0,0,0-0.1,0-0.1
			c0,0,0-0.1,0-0.2c0.1-1.6-0.2-9.3-2.1-12.3c-1.5-2.3-4.9-3-4.9-3c-2.6-0.4-5-1.7-5-3.8c0-1,0.5-1.8,1.2-2.5
			c-1.3-0.7-2.1-1.9-2.1-3.3c0-1.3,0.9-2.4,2.1-3c-0.9-0.7-1.5-1.7-1.4-2.9c0.1-2.1,2-3.5,4.6-3.4c0,0,7.6-0.4,12.8-0.6
			c0,0,0.7,10.6,1.1,12.1c0.3,0.9,6.4,1.5,13.4,1.8c1.5,0.1,3,0.1,4.5,0.1c7.8,0.1,15.3-0.2,15.4-0.9c0.6-3.6,1.2-12.5,1.2-12.5
			c3.6,0.5,11.7,1.1,11.9,1.1c2.1,0.4,3.8,2,3.7,3.9c0,1.2-0.8,2.3-2,3C398.4,220.4,399,221.4,398.9,222.6z"/>
		<path fill="none" stroke="#000000" stroke-width="2" stroke-linejoin="round" stroke-miterlimit="10" d="M366.8,238.2
			c-0.2,4.3-0.6,8.5-1,12.5c-0.6,0.2-1.2,0.3-1.9,0.3c-0.9,0-1.8-0.3-2.5-0.7c0.4-3.4,0.7-7,1-10.7c0.3-5.1,0.5-10,0.4-14.6
			c1.5,0.1,3,0.1,4.5,0.1C367.2,229.3,367,233.7,366.8,238.2z"/>
		
			<ellipse fill="none" stroke="#000000" stroke-width="2" stroke-linejoin="round" stroke-miterlimit="10" cx="365" cy="229.3" rx="1.1" ry="1"/>
		
			<ellipse fill="none" stroke="#000000" stroke-width="2" stroke-linejoin="round" stroke-miterlimit="10" cx="364.7" cy="234.7" rx="1.1" ry="1"/>
		
			<ellipse fill="none" stroke="#000000" stroke-width="2" stroke-linejoin="round" stroke-miterlimit="10" cx="364.5" cy="240.7" rx="1.1" ry="1"/>
		<path fill="none" stroke="#000000" stroke-width="2" stroke-linejoin="round" stroke-miterlimit="10" d="M365.1,246.2
			c0,0.6-0.5,1-1.2,1c-0.6,0-1.1-0.5-1.1-1c0-0.6,0.5-1,1.2-1C364.7,245.2,365.2,245.7,365.1,246.2z"/>
	</g>
	<g>
		<path fill="none" stroke="#000000" stroke-width="2" stroke-linejoin="round" stroke-miterlimit="10" d="M208.7,305.9
			c1.9-0.6,5.3-0.6,6-0.5c0.8,0.2,4.7-5.1,5.3-4.4c1,1.2-0.1,4.1,1.3,7.1c0.9,2.1,1.8,3.1,2.1,7.1c0.2,2.2-4.6,5.2-1.7,12.8
			c2.5,6.4-6.8,9.5-6.3,16.1c0.4,4.9,6.5,14.8,1.8,16.1c-9.6,2.6-34.5,0.9-35.9-1.3c-5.2-8.6-2.9-26.5,6.2-33.3
			c3.5-2.6,13.6-7.4,13.4-8.7c-0.7-3.3,0.9-5.8,1.2-8.3c0.2-1.4-0.2-6.4,0.3-6.5C204,301.6,207.4,306.2,208.7,305.9z"/>
		<path fill="none" stroke="#000000" stroke-width="2" stroke-linejoin="round" stroke-miterlimit="10" d="M218.9,316.1
			c0-1.1-3.6-0.7-5.1-3.6c-1.8-3.4,0.3-3.8-1.8-4.8c-0.7-0.4,0-1.1-0.7-0.6c-1.5,1.1,0.3,3.4-0.9,6.2c-1.2,2.7-3.6,1.9-4.7,3.6
			c-0.3,0.4-0.4,0.8-0.3,1.1c0.2,1.4,2.3,1.5,2.7,2.7c0.5,1.4-1.9,2.3-3.2,5.3c-0.4,0.9-1.7,3.8-0.2,5.9c0.8,1.2,2.5,2,3.1,3.6
			c0,0.1,0.1,0.5,0.5,0.7c0.8,0.7,2.1,0.5,2.2,0.5c3.2-0.4,5.7-8.3,6.4-8.1c0,0,0.1,0,0.1,0c0.3-0.1-0.1-1.5-0.4-2.7
			c-1.1-4.5-1.6-4.4-1.4-5.3C215.4,318,218.8,317.6,218.9,316.1z"/>
	</g>
</g>
<g>
	<polygon points="371.8,443.1 371.8,497.7 426.3,443.1 	"/>
	<polygon points="480.9,443.1 426.3,443.1 426.3,497.7 	"/>
	<polygon points="535.5,443.1 480.9,443.1 480.9,497.7 	"/>
	<polygon points="371.8,497.7 371.8,552.3 426.3,497.7 	"/>
	<polygon points="426.3,497.7 426.3,552.3 480.9,497.7 	"/>
	<polygon points="480.9,497.7 480.9,552.3 535.5,497.7 	"/>
	<polygon points="371.8,606.9 426.3,552.3 371.8,552.3 	"/>
	<polygon points="426.3,606.9 480.9,552.3 426.3,552.3 	"/>
	<polygon points="535.5,552.3 480.9,552.3 480.9,606.9 	"/>
</g>
</svg>
