<?xml version="1.0" encoding="utf-8"?>
<!-- Generator: Adobe Illustrator 24.0.1, SVG Export Plug-In . SVG Version: 6.00 Build 0)  -->
<svg version="1.1" id="Layer_1" xmlns="http://www.w3.org/2000/svg" xmlns:xlink="http://www.w3.org/1999/xlink" x="0px" y="0px"
	 viewBox="0 0 407.3 354" style="enable-background:new 0 0 407.3 354;" xml:space="preserve">
<style type="text/css">
	.st0{fill:none;stroke:#231F20;stroke-width:2;stroke-miterlimit:10;}
</style>
<g>
	<path class="st0" d="M90.4,309.6c-0.2,0,0-0.3,0.2-0.4c0,0,0,0,0,0c0.1-0.1,0.1-0.1,0.2-0.1c0,0,0.1,0,0.1,0c0,0,0,0,0,0l0-0.6
		c0.1-1.6,0.9-2.6,2.1-3.2l-7.1-1.8c-1.5,0-3.9,0.8-4.9,1.8c-1,1-2.6,3.8-2.6,5.3c0,3,4.6,5.6,7.6,5.6l73.2,1.5l92.1-5.2l71.8,3.7
		c1.5,0,2.9-0.6,3.8-1.6c1-1,1.6-2.3,1.6-3.8c0-3-2.4-5.4-5.4-5.4h-7"/>
	<path class="st0" d="M120.8,309.7l0-0.4c0-0.4-0.1-0.7-0.5-0.7c0-1.1,0-2.2-0.1-3.3l7.4,0.4"/>
	<polyline class="st0" points="151.9,307 169,307.9 246.2,305.3 267.6,305.3 	"/>
	<g>
		<path class="st0" d="M188.3,248.6v7.4c0,1.4-1.1,2.5-2.5,2.5l-49.6-1.5c-1.4,0-5.8,0.4-5.8-1v-7.4c0-1.4,2.6-1.1,3.9-1.1l20.8-1.4
			c8,2.9,18.7,2.7,26.1,0h4.6C187.2,246.1,188.3,247.2,188.3,248.6z"/>
	</g>
	<g>
		<g>
			<g>
				<g>
					<g>
						<path class="st0" d="M263.6,179.7l-5.8,5.2c-0.6-1.9-3.1-5.2-6.9-8.5l-1-9.7l-0.2-2.3l10.1,11.1l0,0L263.6,179.7z"/>
						<path class="st0" d="M257.8,185l-1.4,1.2c-1.6,1.4-3.4,2.4-5.4,2.8c0.6-1.7,0.8-3.5,0.6-5.4l-0.7-7.1
							C254.7,179.8,257.2,183.1,257.8,185z"/>
					</g>
				</g>
			</g>
		</g>
		<g>
			<g>
				<g>
					<g>
						<path class="st0" d="M282.3,154.7l-3.7,5.9c-0.8-0.1-1.6,0.1-2.2,0.7c-1,0.9-1.2,2.4-0.4,3.5l-5.4,8.5l-7.1,6.4l-3.8-4.2l0,0
							l-10.1-11.1l-1-10.3l8-6.1l11.6-8.9l6.2,6.8L282.3,154.7z"/>
					</g>
				</g>
			</g>
		</g>
		<g>
			<g>
				<g>
					<g>
						<path class="st0" d="M289.9,161.3c-0.6,0-1.1,0.2-1.5,0.6l-1.9,1.6l-15.8,9.8l5.4-8.5c-0.7-1.1-0.6-2.6,0.4-3.5
							c0.6-0.6,1.4-0.8,2.2-0.7l3.7-5.9l-7.9-8.8l-6.2-6.8l2-9.2l2.9,6.4l3.1,2.8l8.4,7.6l4.8,4.3L289.9,161.3z"/>
					</g>
				</g>
			</g>
		</g>
	</g>
	<g>
		<g>
			<g>
				<g>
					<path class="st0" d="M316.3,305.3h-48.7L194,271.2c-4.3-2-9.1-3-13.8-3h-28c-4.5,0-8.1,3.6-8.1,8.1v28.3h6.1
						c0.6,0,1.5,1.9,1.8,2.4l-24.1-1.3c0.3-0.4,1.1-1.1,1.7-1.1h6.1v-28.3c0-9.1,7.4-16.5,16.5-16.5h28c6,0,11.9,1.3,17.3,3.8
						l43.8,20.3l1.7-20.2l-0.7-45.2l-28.7,20.2L198.9,254c-1,0.9-2.6,0.8-3.5-0.3l-4.8-5.6c-0.9-1-0.8-2.6,0.3-3.5l42.4-36
						c0,0,0,0,0,0c14.8-5.2,19.2-13.4,22.7-17.9l2.2-3.2c0.2-1-0.3-1.5-0.3-1.5c0-0.3,0-0.6-0.2-1l5.8-5.2l7.1-6.4l15.8-9.8l1.9-1.6
						c0.5-0.4,1-0.6,1.5-0.6c0.7,0,1.4,0.3,1.9,0.9l4.8,5.6c0.9,1,0.8,2.6-0.3,3.5l-26,16l-24.1,26.5l3,36.9l-3,35.4l29.6,12.6
						c3.6,1.7,7.4,1.3,11.4,1.3l24.6,0.8C313.3,300.8,315.5,304,316.3,305.3z"/>
					<path class="st0" d="M257.8,185l-1.4,1.2c-1.6,1.4-3.4,2.4-5.4,2.8c-1.7,5.3-6.7,9.2-12.7,9.1c-7.2-0.1-12.9-6-12.9-13.1v-0.2
						l0.3-17.8c-0.1,0-0.3,0-0.4,0c-9.4,1.6-15.4,4-20.6,7.9c-7.6,5.8-13.1,14.8-24.4,29.1c-3.3,4.1-7,8.7-11.4,13.8l16.4,26.4
						c0,0,15.9-23.2,32.9-28.9c5.7-1.9,10.7-4.2,15-6.7"/>
					<path class="st0" d="M257.8,185l-1.4,1.2c-1.6,1.4-3.4,2.4-5.4,2.8c0.6-1.7,0.8-3.5,0.6-5.4l-0.7-7.1
						C254.7,179.8,257.2,183.1,257.8,185z"/>
				</g>
			</g>
		</g>
	</g>
	<g>
		<g>
			<path class="st0" d="M185.4,244.2c-1.2,0.7-2.6,1.4-4.1,1.9c-7.4,2.7-18.1,2.9-26.1,0c-2.5-0.9-2.7-3.2-4.6-4.7
				c-10.9,0.3-20.1,0.3-28.9-1.1l-0.5-20.7c11.1-2.6,29.2-3.5,47.8-1.9L185.4,244.2z"/>
		</g>
		<g>
			<path class="st0" d="M121.7,240.4l-3.1,60c-0.4,6.2-9.8,5.9-10.3-0.2l0-0.2l0.1-28.7l-4-37.1c-0.5-5.5,1.6-13.1,7.1-13.6l9.7-0.9
				L121.7,240.4z"/>
		</g>
	</g>
	<g>
		<g>
			<g>
				<g>
					<path class="st0" d="M251.1,189c-1.7,5.3-6.7,9.2-12.7,9.1c-7.2-0.1-12.9-6-12.9-13.1v-0.2l0.3-17.8l2-20.1l-1.6-5.9
						c0-0.3,0-0.6,0.1-0.9c0-0.4,0-0.8,0-1.3l4-24.5l-0.4-25.6c1.6,0.3,3.3,0.5,4.9,0.5c2.1,0,4.1-0.3,6.1-0.7l3.7,30.9l2.3,19
						c0,0.1,0,0.1,0,0.2c0.1,0.5,0.2,1.1,0.3,1.6l1.5,14l1,10.3l0.2,2.3l1,9.7l0.7,7.1C251.8,185.5,251.6,187.3,251.1,189z"/>
				</g>
			</g>
		</g>
	</g>
	<g>
		<g>
			<g>
				<g>
					<g>
						<path class="st0" d="M120.9,309.3l0,0.4c0,1.3-0.4,2.4-1.7,2.3L95,311.7c-3.7-0.1-4.6-1.4-4.6-2.2c0-0.2,0.2-0.5,0.4-0.5
							c0,0,0.1,0,0.1,0c0,0,0,0,0,0l0-0.6c0.1-1.6,0.9-2.6,2.1-3.2c1.3-0.7,4.1,0.9,5.8,0.7c4-0.7,6.6-4.9,8.2-5.9
							c0.4-0.2,0.8-0.2,1.2,0l0,0.2c0.5,6.1,9.9,6.3,10.3,0.2c0.4-0.3,0.9-0.1,1.1,0.4c0.4,1.4,0.6,3,0.7,4.5
							c0.1,1.1,0.1,2.2,0.1,3.3C120.8,308.6,120.9,308.9,120.9,309.3z"/>
					</g>
				</g>
			</g>
		</g>
	</g>
	<g>
		<g>
			<path class="st0" d="M234.7,36.3c-10.8,0-19.2,7.5-23.3,16.8c-1.4,3.3-3.2,5.9-3.2,9.7c0,12.9,9.2,23.7,21.5,26
				c1.6,0.3,3.3,0.5,4.9,0.5c2.1,0,4.1-0.2,6.1-0.7c3.6-0.8,6.8-2.4,9.7-4.5l0,0c0.2-0.2,0.5-0.4,0.7-0.5c0.1-0.1,0.2-0.2,0.3-0.3
				c0.1-0.1,0.2-0.2,0.3-0.3c0.1-0.1,0.3-0.2,0.4-0.3c0.1-0.1,0.2-0.2,0.3-0.3c0.1-0.1,0.2-0.2,0.3-0.3c0.1-0.1,0.3-0.2,0.4-0.4
				c0.1,0,0.1-0.1,0.2-0.1c0.1-0.1,0.2-0.2,0.3-0.3c0,0,0.1-0.1,0.1-0.1c0.1-0.1,0.3-0.3,0.4-0.4c0,0,0.1-0.1,0.1-0.1
				c0.1-0.2,0.3-0.3,0.4-0.5c0.4-0.4,0.8-0.9,1.1-1.4c3.3-4.4,5.2-9.9,5.2-15.8c0-6.8-2.4-11.2-6.6-15.9
				C249.7,41.5,242.5,36.3,234.7,36.3z"/>
		</g>
		<g>
			<path class="st0" d="M234.7,43.6c-10.6,0-17.6,8.6-17.6,19.1c0,9,4.7,16.6,13.1,18.6c1.4,0.3,2.9,0.5,4.4,0.5
				c1.8,0,3.6-0.3,5.2-0.7v0c1.9-0.5,3.7-1.4,5.3-2.5c2.1-1.4,4-3.2,5.4-5.4c2-3,3.2-6.7,3.2-10.6C253.9,52.2,245.3,43.6,234.7,43.6
				z"/>
		</g>
		<g>
			<path class="st0" d="M241.6,64.2c-0.6,2.7-2.7,4.8-5.4,5.4c-0.5,0.1-1,0.2-1.5,0.2c-3.9,0-6.3-3.1-6.3-7c0-3.9,2.5-7,6.3-7
				c3.9,0,7,3.1,7,7C241.7,63.2,241.7,63.7,241.6,64.2z"/>
		</g>
		<g>
			<path class="st0" d="M234.7,69.7c0.5,0,1-0.1,1.5-0.2c2.7-0.6,4.8-2.7,5.4-5.4c0.1-0.5,0.2-1,0.2-1.5c0-3.9-3.1-7-7-7"/>
		</g>
		<g>
			<path class="st0" d="M238.5,62.7c0,2.1-1.7,3.8-3.8,3.8c-1.1,0-2-0.4-2.7-1.1c-0.7-0.7-1.1-1.6-1.1-2.7c0-2.1,1.7-2.9,3.8-2.9
				c0.5,0,1-0.8,1.5-0.6s0.9,0.5,1.2,0.8c0,0,0.1,0.1,0.1,0.1C238.2,60.8,238.5,61.7,238.5,62.7z"/>
		</g>
	</g>
</g>
</svg>
