<?xml version="1.0" encoding="utf-8"?>
<!-- Generator: Adobe Illustrator 24.0.1, SVG Export Plug-In . SVG Version: 6.00 Build 0)  -->
<svg version="1.2" baseProfile="tiny" id="Layer_1" xmlns="http://www.w3.org/2000/svg" xmlns:xlink="http://www.w3.org/1999/xlink"
	 x="0px" y="0px" viewBox="0 0 407.3 354" xml:space="preserve">
<g>
	<path display="inline" fill="none" stroke="#25333F" stroke-width="2" stroke-miterlimit="10" d="M201.2,180.6
		c-22.3,0-43.7,9.5-58.6,26.1c-1.9,2.1-1.8,5.5,0.4,7.4c1,0.9,2.3,1.3,3.5,1.3c1.4,0,2.9-0.6,3.9-1.7c13-14.4,31.5-22.6,50.8-22.6
		c19.3,0,37.9,8.2,50.8,22.6c1.9,2.1,5.2,2.3,7.4,0.4c2.1-1.9,2.3-5.2,0.4-7.4C244.9,190.1,223.5,180.6,201.2,180.6z"/>
	<path display="inline" fill="none" stroke="#25333F" stroke-width="2" stroke-miterlimit="10" d="M255.8,144.5
		c-16.4-7.5-34-11.3-52.2-11.3c-18.2,0-35.7,3.8-52.2,11.3c-15.9,7.2-29.9,17.5-41.6,30.4c-1.9,2.1-1.8,5.5,0.4,7.4
		c1,0.9,2.3,1.3,3.5,1.3c1.4,0,2.9-0.6,3.9-1.7c21.9-24.3,53.3-38.2,86-38.2c32.7,0,64,13.9,86,38.2c1.9,2.1,5.2,2.3,7.4,0.4
		c2.1-1.9,2.3-5.2,0.4-7.4C285.6,162,271.7,151.7,255.8,144.5z"/>
	<path display="inline" fill="none" stroke="#25333F" stroke-width="2" stroke-miterlimit="10" d="M277.2,97.3
		c-23.2-10.5-47.9-15.9-73.6-15.9c-25.7,0-50.4,5.3-73.6,15.9c-22.4,10.2-42.1,24.6-58.7,43c-1.9,2.1-1.8,5.5,0.4,7.4
		c1,0.9,2.3,1.3,3.5,1.3c1.4,0,2.9-0.6,3.9-1.7c31.7-35.2,77.1-55.4,124.5-55.4c47.4,0,92.7,20.2,124.5,55.4
		c1.9,2.1,5.2,2.3,7.4,0.4c2.1-1.9,2.3-5.2,0.4-7.4C319.3,121.9,299.6,107.5,277.2,97.3z"/>
	<path display="inline" fill="none" stroke="#25333F" stroke-width="2" stroke-miterlimit="10" d="M203.6,219.6
		c-14.6,0-26.5,11.9-26.5,26.5c0,14.6,11.9,26.5,26.5,26.5s26.5-11.9,26.5-26.5C230.1,231.5,218.2,219.6,203.6,219.6z M203.6,262.1
		c-8.8,0-16-7.2-16-16s7.2-16,16-16s16,7.2,16,16S212.5,262.1,203.6,262.1z"/>
</g>
</svg>